%TF.GenerationSoftware,KiCad,Pcbnew,7.0.6*%
%TF.CreationDate,2023-11-17T09:16:20+01:00*%
%TF.ProjectId,dc_64d,64635f36-3464-42e6-9b69-6361645f7063,0.1*%
%TF.SameCoordinates,Original*%
%TF.FileFunction,Legend,Top*%
%TF.FilePolarity,Positive*%
%FSLAX46Y46*%
G04 Gerber Fmt 4.6, Leading zero omitted, Abs format (unit mm)*
G04 Created by KiCad (PCBNEW 7.0.6) date 2023-11-17 09:16:20*
%MOMM*%
%LPD*%
G01*
G04 APERTURE LIST*
%ADD10C,0.120000*%
%ADD11C,0.150000*%
%ADD12C,0.127000*%
G04 APERTURE END LIST*
D10*
X103886000Y-67691000D02*
X105283000Y-67310000D01*
X97282000Y-36322000D02*
X99568000Y-36322000D01*
X99568000Y-38608000D01*
X97282000Y-38608000D01*
X97282000Y-36322000D01*
X98425000Y-41822557D02*
X97663000Y-41187557D01*
X99187000Y-41187557D01*
X98425000Y-41822557D01*
G36*
X98425000Y-41822557D02*
G01*
X97663000Y-41187557D01*
X99187000Y-41187557D01*
X98425000Y-41822557D01*
G37*
D11*
X111728533Y-81316316D02*
X111728533Y-81649649D01*
X111728533Y-81649649D02*
X112061866Y-81682982D01*
X112061866Y-81682982D02*
X112028533Y-81649649D01*
X112028533Y-81649649D02*
X111995200Y-81582982D01*
X111995200Y-81582982D02*
X111995200Y-81416316D01*
X111995200Y-81416316D02*
X112028533Y-81349649D01*
X112028533Y-81349649D02*
X112061866Y-81316316D01*
X112061866Y-81316316D02*
X112128533Y-81282982D01*
X112128533Y-81282982D02*
X112295200Y-81282982D01*
X112295200Y-81282982D02*
X112361866Y-81316316D01*
X112361866Y-81316316D02*
X112395200Y-81349649D01*
X112395200Y-81349649D02*
X112428533Y-81416316D01*
X112428533Y-81416316D02*
X112428533Y-81582982D01*
X112428533Y-81582982D02*
X112395200Y-81649649D01*
X112395200Y-81649649D02*
X112361866Y-81682982D01*
X111961866Y-81049649D02*
X112428533Y-80882982D01*
X112428533Y-80882982D02*
X111961866Y-80716315D01*
X97279017Y-76487533D02*
X96879017Y-76487533D01*
X97079017Y-76487533D02*
X97079017Y-75787533D01*
X97079017Y-75787533D02*
X97012350Y-75887533D01*
X97012350Y-75887533D02*
X96945684Y-75954200D01*
X96945684Y-75954200D02*
X96879017Y-75987533D01*
X97912351Y-75787533D02*
X97579017Y-75787533D01*
X97579017Y-75787533D02*
X97545684Y-76120866D01*
X97545684Y-76120866D02*
X97579017Y-76087533D01*
X97579017Y-76087533D02*
X97645684Y-76054200D01*
X97645684Y-76054200D02*
X97812351Y-76054200D01*
X97812351Y-76054200D02*
X97879017Y-76087533D01*
X97879017Y-76087533D02*
X97912351Y-76120866D01*
X97912351Y-76120866D02*
X97945684Y-76187533D01*
X97945684Y-76187533D02*
X97945684Y-76354200D01*
X97945684Y-76354200D02*
X97912351Y-76420866D01*
X97912351Y-76420866D02*
X97879017Y-76454200D01*
X97879017Y-76454200D02*
X97812351Y-76487533D01*
X97812351Y-76487533D02*
X97645684Y-76487533D01*
X97645684Y-76487533D02*
X97579017Y-76454200D01*
X97579017Y-76454200D02*
X97545684Y-76420866D01*
X98179018Y-76020866D02*
X98345684Y-76487533D01*
X98345684Y-76487533D02*
X98512351Y-76020866D01*
X106423017Y-33402866D02*
X106356350Y-33369533D01*
X106356350Y-33369533D02*
X106256350Y-33369533D01*
X106256350Y-33369533D02*
X106156350Y-33402866D01*
X106156350Y-33402866D02*
X106089684Y-33469533D01*
X106089684Y-33469533D02*
X106056350Y-33536200D01*
X106056350Y-33536200D02*
X106023017Y-33669533D01*
X106023017Y-33669533D02*
X106023017Y-33769533D01*
X106023017Y-33769533D02*
X106056350Y-33902866D01*
X106056350Y-33902866D02*
X106089684Y-33969533D01*
X106089684Y-33969533D02*
X106156350Y-34036200D01*
X106156350Y-34036200D02*
X106256350Y-34069533D01*
X106256350Y-34069533D02*
X106323017Y-34069533D01*
X106323017Y-34069533D02*
X106423017Y-34036200D01*
X106423017Y-34036200D02*
X106456350Y-34002866D01*
X106456350Y-34002866D02*
X106456350Y-33769533D01*
X106456350Y-33769533D02*
X106323017Y-33769533D01*
X106756350Y-34069533D02*
X106756350Y-33369533D01*
X106756350Y-33369533D02*
X107156350Y-34069533D01*
X107156350Y-34069533D02*
X107156350Y-33369533D01*
X107489683Y-34069533D02*
X107489683Y-33369533D01*
X107489683Y-33369533D02*
X107656350Y-33369533D01*
X107656350Y-33369533D02*
X107756350Y-33402866D01*
X107756350Y-33402866D02*
X107823017Y-33469533D01*
X107823017Y-33469533D02*
X107856350Y-33536200D01*
X107856350Y-33536200D02*
X107889683Y-33669533D01*
X107889683Y-33669533D02*
X107889683Y-33769533D01*
X107889683Y-33769533D02*
X107856350Y-33902866D01*
X107856350Y-33902866D02*
X107823017Y-33969533D01*
X107823017Y-33969533D02*
X107756350Y-34036200D01*
X107756350Y-34036200D02*
X107656350Y-34069533D01*
X107656350Y-34069533D02*
X107489683Y-34069533D01*
X106550017Y-85885533D02*
X106150017Y-85885533D01*
X106350017Y-85885533D02*
X106350017Y-85185533D01*
X106350017Y-85185533D02*
X106283350Y-85285533D01*
X106283350Y-85285533D02*
X106216684Y-85352200D01*
X106216684Y-85352200D02*
X106150017Y-85385533D01*
X106816684Y-85252200D02*
X106850017Y-85218866D01*
X106850017Y-85218866D02*
X106916684Y-85185533D01*
X106916684Y-85185533D02*
X107083351Y-85185533D01*
X107083351Y-85185533D02*
X107150017Y-85218866D01*
X107150017Y-85218866D02*
X107183351Y-85252200D01*
X107183351Y-85252200D02*
X107216684Y-85318866D01*
X107216684Y-85318866D02*
X107216684Y-85385533D01*
X107216684Y-85385533D02*
X107183351Y-85485533D01*
X107183351Y-85485533D02*
X106783351Y-85885533D01*
X106783351Y-85885533D02*
X107216684Y-85885533D01*
X107450018Y-85418866D02*
X107616684Y-85885533D01*
X107616684Y-85885533D02*
X107783351Y-85418866D01*
X104404333Y-66924366D02*
X104371000Y-66957700D01*
X104371000Y-66957700D02*
X104271000Y-66991033D01*
X104271000Y-66991033D02*
X104204333Y-66991033D01*
X104204333Y-66991033D02*
X104104333Y-66957700D01*
X104104333Y-66957700D02*
X104037667Y-66891033D01*
X104037667Y-66891033D02*
X104004333Y-66824366D01*
X104004333Y-66824366D02*
X103971000Y-66691033D01*
X103971000Y-66691033D02*
X103971000Y-66591033D01*
X103971000Y-66591033D02*
X104004333Y-66457700D01*
X104004333Y-66457700D02*
X104037667Y-66391033D01*
X104037667Y-66391033D02*
X104104333Y-66324366D01*
X104104333Y-66324366D02*
X104204333Y-66291033D01*
X104204333Y-66291033D02*
X104271000Y-66291033D01*
X104271000Y-66291033D02*
X104371000Y-66324366D01*
X104371000Y-66324366D02*
X104404333Y-66357700D01*
X105071000Y-66991033D02*
X104671000Y-66991033D01*
X104871000Y-66991033D02*
X104871000Y-66291033D01*
X104871000Y-66291033D02*
X104804333Y-66391033D01*
X104804333Y-66391033D02*
X104737667Y-66457700D01*
X104737667Y-66457700D02*
X104671000Y-66491033D01*
X112584033Y-40836000D02*
X112250700Y-41069333D01*
X112584033Y-41236000D02*
X111884033Y-41236000D01*
X111884033Y-41236000D02*
X111884033Y-40969333D01*
X111884033Y-40969333D02*
X111917366Y-40902667D01*
X111917366Y-40902667D02*
X111950700Y-40869333D01*
X111950700Y-40869333D02*
X112017366Y-40836000D01*
X112017366Y-40836000D02*
X112117366Y-40836000D01*
X112117366Y-40836000D02*
X112184033Y-40869333D01*
X112184033Y-40869333D02*
X112217366Y-40902667D01*
X112217366Y-40902667D02*
X112250700Y-40969333D01*
X112250700Y-40969333D02*
X112250700Y-41236000D01*
X112584033Y-40169333D02*
X112584033Y-40569333D01*
X112584033Y-40369333D02*
X111884033Y-40369333D01*
X111884033Y-40369333D02*
X111984033Y-40436000D01*
X111984033Y-40436000D02*
X112050700Y-40502667D01*
X112050700Y-40502667D02*
X112084033Y-40569333D01*
X112584033Y-39502666D02*
X112584033Y-39902666D01*
X112584033Y-39702666D02*
X111884033Y-39702666D01*
X111884033Y-39702666D02*
X111984033Y-39769333D01*
X111984033Y-39769333D02*
X112050700Y-39836000D01*
X112050700Y-39836000D02*
X112084033Y-39902666D01*
X98054333Y-67178366D02*
X98021000Y-67211700D01*
X98021000Y-67211700D02*
X97921000Y-67245033D01*
X97921000Y-67245033D02*
X97854333Y-67245033D01*
X97854333Y-67245033D02*
X97754333Y-67211700D01*
X97754333Y-67211700D02*
X97687667Y-67145033D01*
X97687667Y-67145033D02*
X97654333Y-67078366D01*
X97654333Y-67078366D02*
X97621000Y-66945033D01*
X97621000Y-66945033D02*
X97621000Y-66845033D01*
X97621000Y-66845033D02*
X97654333Y-66711700D01*
X97654333Y-66711700D02*
X97687667Y-66645033D01*
X97687667Y-66645033D02*
X97754333Y-66578366D01*
X97754333Y-66578366D02*
X97854333Y-66545033D01*
X97854333Y-66545033D02*
X97921000Y-66545033D01*
X97921000Y-66545033D02*
X98021000Y-66578366D01*
X98021000Y-66578366D02*
X98054333Y-66611700D01*
X98287667Y-66545033D02*
X98754333Y-66545033D01*
X98754333Y-66545033D02*
X98454333Y-67245033D01*
X108654666Y-60195033D02*
X108654666Y-60761700D01*
X108654666Y-60761700D02*
X108688000Y-60828366D01*
X108688000Y-60828366D02*
X108721333Y-60861700D01*
X108721333Y-60861700D02*
X108788000Y-60895033D01*
X108788000Y-60895033D02*
X108921333Y-60895033D01*
X108921333Y-60895033D02*
X108988000Y-60861700D01*
X108988000Y-60861700D02*
X109021333Y-60828366D01*
X109021333Y-60828366D02*
X109054666Y-60761700D01*
X109054666Y-60761700D02*
X109054666Y-60195033D01*
X109687999Y-60428366D02*
X109687999Y-60895033D01*
X109521333Y-60161700D02*
X109354666Y-60661700D01*
X109354666Y-60661700D02*
X109787999Y-60661700D01*
X112330033Y-65601000D02*
X111996700Y-65834333D01*
X112330033Y-66001000D02*
X111630033Y-66001000D01*
X111630033Y-66001000D02*
X111630033Y-65734333D01*
X111630033Y-65734333D02*
X111663366Y-65667667D01*
X111663366Y-65667667D02*
X111696700Y-65634333D01*
X111696700Y-65634333D02*
X111763366Y-65601000D01*
X111763366Y-65601000D02*
X111863366Y-65601000D01*
X111863366Y-65601000D02*
X111930033Y-65634333D01*
X111930033Y-65634333D02*
X111963366Y-65667667D01*
X111963366Y-65667667D02*
X111996700Y-65734333D01*
X111996700Y-65734333D02*
X111996700Y-66001000D01*
X112330033Y-65267667D02*
X112330033Y-65134333D01*
X112330033Y-65134333D02*
X112296700Y-65067667D01*
X112296700Y-65067667D02*
X112263366Y-65034333D01*
X112263366Y-65034333D02*
X112163366Y-64967667D01*
X112163366Y-64967667D02*
X112030033Y-64934333D01*
X112030033Y-64934333D02*
X111763366Y-64934333D01*
X111763366Y-64934333D02*
X111696700Y-64967667D01*
X111696700Y-64967667D02*
X111663366Y-65001000D01*
X111663366Y-65001000D02*
X111630033Y-65067667D01*
X111630033Y-65067667D02*
X111630033Y-65201000D01*
X111630033Y-65201000D02*
X111663366Y-65267667D01*
X111663366Y-65267667D02*
X111696700Y-65301000D01*
X111696700Y-65301000D02*
X111763366Y-65334333D01*
X111763366Y-65334333D02*
X111930033Y-65334333D01*
X111930033Y-65334333D02*
X111996700Y-65301000D01*
X111996700Y-65301000D02*
X112030033Y-65267667D01*
X112030033Y-65267667D02*
X112063366Y-65201000D01*
X112063366Y-65201000D02*
X112063366Y-65067667D01*
X112063366Y-65067667D02*
X112030033Y-65001000D01*
X112030033Y-65001000D02*
X111996700Y-64967667D01*
X111996700Y-64967667D02*
X111930033Y-64934333D01*
X111630033Y-64301000D02*
X111630033Y-64634333D01*
X111630033Y-64634333D02*
X111963366Y-64667666D01*
X111963366Y-64667666D02*
X111930033Y-64634333D01*
X111930033Y-64634333D02*
X111896700Y-64567666D01*
X111896700Y-64567666D02*
X111896700Y-64401000D01*
X111896700Y-64401000D02*
X111930033Y-64334333D01*
X111930033Y-64334333D02*
X111963366Y-64301000D01*
X111963366Y-64301000D02*
X112030033Y-64267666D01*
X112030033Y-64267666D02*
X112196700Y-64267666D01*
X112196700Y-64267666D02*
X112263366Y-64301000D01*
X112263366Y-64301000D02*
X112296700Y-64334333D01*
X112296700Y-64334333D02*
X112330033Y-64401000D01*
X112330033Y-64401000D02*
X112330033Y-64567666D01*
X112330033Y-64567666D02*
X112296700Y-64634333D01*
X112296700Y-64634333D02*
X112263366Y-64667666D01*
X112390366Y-57546166D02*
X112423700Y-57579499D01*
X112423700Y-57579499D02*
X112457033Y-57679499D01*
X112457033Y-57679499D02*
X112457033Y-57746166D01*
X112457033Y-57746166D02*
X112423700Y-57846166D01*
X112423700Y-57846166D02*
X112357033Y-57912833D01*
X112357033Y-57912833D02*
X112290366Y-57946166D01*
X112290366Y-57946166D02*
X112157033Y-57979499D01*
X112157033Y-57979499D02*
X112057033Y-57979499D01*
X112057033Y-57979499D02*
X111923700Y-57946166D01*
X111923700Y-57946166D02*
X111857033Y-57912833D01*
X111857033Y-57912833D02*
X111790366Y-57846166D01*
X111790366Y-57846166D02*
X111757033Y-57746166D01*
X111757033Y-57746166D02*
X111757033Y-57679499D01*
X111757033Y-57679499D02*
X111790366Y-57579499D01*
X111790366Y-57579499D02*
X111823700Y-57546166D01*
X111823700Y-57279499D02*
X111790366Y-57246166D01*
X111790366Y-57246166D02*
X111757033Y-57179499D01*
X111757033Y-57179499D02*
X111757033Y-57012833D01*
X111757033Y-57012833D02*
X111790366Y-56946166D01*
X111790366Y-56946166D02*
X111823700Y-56912833D01*
X111823700Y-56912833D02*
X111890366Y-56879499D01*
X111890366Y-56879499D02*
X111957033Y-56879499D01*
X111957033Y-56879499D02*
X112057033Y-56912833D01*
X112057033Y-56912833D02*
X112457033Y-57312833D01*
X112457033Y-57312833D02*
X112457033Y-56879499D01*
X105928333Y-47433033D02*
X105695000Y-47099700D01*
X105528333Y-47433033D02*
X105528333Y-46733033D01*
X105528333Y-46733033D02*
X105795000Y-46733033D01*
X105795000Y-46733033D02*
X105861667Y-46766366D01*
X105861667Y-46766366D02*
X105895000Y-46799700D01*
X105895000Y-46799700D02*
X105928333Y-46866366D01*
X105928333Y-46866366D02*
X105928333Y-46966366D01*
X105928333Y-46966366D02*
X105895000Y-47033033D01*
X105895000Y-47033033D02*
X105861667Y-47066366D01*
X105861667Y-47066366D02*
X105795000Y-47099700D01*
X105795000Y-47099700D02*
X105528333Y-47099700D01*
X106195000Y-46799700D02*
X106228333Y-46766366D01*
X106228333Y-46766366D02*
X106295000Y-46733033D01*
X106295000Y-46733033D02*
X106461667Y-46733033D01*
X106461667Y-46733033D02*
X106528333Y-46766366D01*
X106528333Y-46766366D02*
X106561667Y-46799700D01*
X106561667Y-46799700D02*
X106595000Y-46866366D01*
X106595000Y-46866366D02*
X106595000Y-46933033D01*
X106595000Y-46933033D02*
X106561667Y-47033033D01*
X106561667Y-47033033D02*
X106161667Y-47433033D01*
X106161667Y-47433033D02*
X106595000Y-47433033D01*
X97339999Y-70226366D02*
X97306666Y-70259700D01*
X97306666Y-70259700D02*
X97206666Y-70293033D01*
X97206666Y-70293033D02*
X97139999Y-70293033D01*
X97139999Y-70293033D02*
X97039999Y-70259700D01*
X97039999Y-70259700D02*
X96973333Y-70193033D01*
X96973333Y-70193033D02*
X96939999Y-70126366D01*
X96939999Y-70126366D02*
X96906666Y-69993033D01*
X96906666Y-69993033D02*
X96906666Y-69893033D01*
X96906666Y-69893033D02*
X96939999Y-69759700D01*
X96939999Y-69759700D02*
X96973333Y-69693033D01*
X96973333Y-69693033D02*
X97039999Y-69626366D01*
X97039999Y-69626366D02*
X97139999Y-69593033D01*
X97139999Y-69593033D02*
X97206666Y-69593033D01*
X97206666Y-69593033D02*
X97306666Y-69626366D01*
X97306666Y-69626366D02*
X97339999Y-69659700D01*
X98006666Y-70293033D02*
X97606666Y-70293033D01*
X97806666Y-70293033D02*
X97806666Y-69593033D01*
X97806666Y-69593033D02*
X97739999Y-69693033D01*
X97739999Y-69693033D02*
X97673333Y-69759700D01*
X97673333Y-69759700D02*
X97606666Y-69793033D01*
X98240000Y-69593033D02*
X98706666Y-69593033D01*
X98706666Y-69593033D02*
X98406666Y-70293033D01*
X112390366Y-74491000D02*
X112423700Y-74524333D01*
X112423700Y-74524333D02*
X112457033Y-74624333D01*
X112457033Y-74624333D02*
X112457033Y-74691000D01*
X112457033Y-74691000D02*
X112423700Y-74791000D01*
X112423700Y-74791000D02*
X112357033Y-74857667D01*
X112357033Y-74857667D02*
X112290366Y-74891000D01*
X112290366Y-74891000D02*
X112157033Y-74924333D01*
X112157033Y-74924333D02*
X112057033Y-74924333D01*
X112057033Y-74924333D02*
X111923700Y-74891000D01*
X111923700Y-74891000D02*
X111857033Y-74857667D01*
X111857033Y-74857667D02*
X111790366Y-74791000D01*
X111790366Y-74791000D02*
X111757033Y-74691000D01*
X111757033Y-74691000D02*
X111757033Y-74624333D01*
X111757033Y-74624333D02*
X111790366Y-74524333D01*
X111790366Y-74524333D02*
X111823700Y-74491000D01*
X112457033Y-73824333D02*
X112457033Y-74224333D01*
X112457033Y-74024333D02*
X111757033Y-74024333D01*
X111757033Y-74024333D02*
X111857033Y-74091000D01*
X111857033Y-74091000D02*
X111923700Y-74157667D01*
X111923700Y-74157667D02*
X111957033Y-74224333D01*
X111757033Y-73391000D02*
X111757033Y-73324333D01*
X111757033Y-73324333D02*
X111790366Y-73257666D01*
X111790366Y-73257666D02*
X111823700Y-73224333D01*
X111823700Y-73224333D02*
X111890366Y-73191000D01*
X111890366Y-73191000D02*
X112023700Y-73157666D01*
X112023700Y-73157666D02*
X112190366Y-73157666D01*
X112190366Y-73157666D02*
X112323700Y-73191000D01*
X112323700Y-73191000D02*
X112390366Y-73224333D01*
X112390366Y-73224333D02*
X112423700Y-73257666D01*
X112423700Y-73257666D02*
X112457033Y-73324333D01*
X112457033Y-73324333D02*
X112457033Y-73391000D01*
X112457033Y-73391000D02*
X112423700Y-73457666D01*
X112423700Y-73457666D02*
X112390366Y-73491000D01*
X112390366Y-73491000D02*
X112323700Y-73524333D01*
X112323700Y-73524333D02*
X112190366Y-73557666D01*
X112190366Y-73557666D02*
X112023700Y-73557666D01*
X112023700Y-73557666D02*
X111890366Y-73524333D01*
X111890366Y-73524333D02*
X111823700Y-73491000D01*
X111823700Y-73491000D02*
X111790366Y-73457666D01*
X111790366Y-73457666D02*
X111757033Y-73391000D01*
X108722333Y-48830033D02*
X108489000Y-48496700D01*
X108322333Y-48830033D02*
X108322333Y-48130033D01*
X108322333Y-48130033D02*
X108589000Y-48130033D01*
X108589000Y-48130033D02*
X108655667Y-48163366D01*
X108655667Y-48163366D02*
X108689000Y-48196700D01*
X108689000Y-48196700D02*
X108722333Y-48263366D01*
X108722333Y-48263366D02*
X108722333Y-48363366D01*
X108722333Y-48363366D02*
X108689000Y-48430033D01*
X108689000Y-48430033D02*
X108655667Y-48463366D01*
X108655667Y-48463366D02*
X108589000Y-48496700D01*
X108589000Y-48496700D02*
X108322333Y-48496700D01*
X108955667Y-48130033D02*
X109389000Y-48130033D01*
X109389000Y-48130033D02*
X109155667Y-48396700D01*
X109155667Y-48396700D02*
X109255667Y-48396700D01*
X109255667Y-48396700D02*
X109322333Y-48430033D01*
X109322333Y-48430033D02*
X109355667Y-48463366D01*
X109355667Y-48463366D02*
X109389000Y-48530033D01*
X109389000Y-48530033D02*
X109389000Y-48696700D01*
X109389000Y-48696700D02*
X109355667Y-48763366D01*
X109355667Y-48763366D02*
X109322333Y-48796700D01*
X109322333Y-48796700D02*
X109255667Y-48830033D01*
X109255667Y-48830033D02*
X109055667Y-48830033D01*
X109055667Y-48830033D02*
X108989000Y-48796700D01*
X108989000Y-48796700D02*
X108955667Y-48763366D01*
X112076033Y-54345666D02*
X111742700Y-54578999D01*
X112076033Y-54745666D02*
X111376033Y-54745666D01*
X111376033Y-54745666D02*
X111376033Y-54478999D01*
X111376033Y-54478999D02*
X111409366Y-54412333D01*
X111409366Y-54412333D02*
X111442700Y-54378999D01*
X111442700Y-54378999D02*
X111509366Y-54345666D01*
X111509366Y-54345666D02*
X111609366Y-54345666D01*
X111609366Y-54345666D02*
X111676033Y-54378999D01*
X111676033Y-54378999D02*
X111709366Y-54412333D01*
X111709366Y-54412333D02*
X111742700Y-54478999D01*
X111742700Y-54478999D02*
X111742700Y-54745666D01*
X111609366Y-53745666D02*
X112076033Y-53745666D01*
X111342700Y-53912333D02*
X111842700Y-54078999D01*
X111842700Y-54078999D02*
X111842700Y-53645666D01*
X102372333Y-66991033D02*
X102038999Y-66991033D01*
X102038999Y-66991033D02*
X102038999Y-66291033D01*
X102972333Y-66991033D02*
X102572333Y-66991033D01*
X102772333Y-66991033D02*
X102772333Y-66291033D01*
X102772333Y-66291033D02*
X102705666Y-66391033D01*
X102705666Y-66391033D02*
X102639000Y-66457700D01*
X102639000Y-66457700D02*
X102572333Y-66491033D01*
X100452366Y-49218000D02*
X100485700Y-49251333D01*
X100485700Y-49251333D02*
X100519033Y-49351333D01*
X100519033Y-49351333D02*
X100519033Y-49418000D01*
X100519033Y-49418000D02*
X100485700Y-49518000D01*
X100485700Y-49518000D02*
X100419033Y-49584667D01*
X100419033Y-49584667D02*
X100352366Y-49618000D01*
X100352366Y-49618000D02*
X100219033Y-49651333D01*
X100219033Y-49651333D02*
X100119033Y-49651333D01*
X100119033Y-49651333D02*
X99985700Y-49618000D01*
X99985700Y-49618000D02*
X99919033Y-49584667D01*
X99919033Y-49584667D02*
X99852366Y-49518000D01*
X99852366Y-49518000D02*
X99819033Y-49418000D01*
X99819033Y-49418000D02*
X99819033Y-49351333D01*
X99819033Y-49351333D02*
X99852366Y-49251333D01*
X99852366Y-49251333D02*
X99885700Y-49218000D01*
X100519033Y-48551333D02*
X100519033Y-48951333D01*
X100519033Y-48751333D02*
X99819033Y-48751333D01*
X99819033Y-48751333D02*
X99919033Y-48818000D01*
X99919033Y-48818000D02*
X99985700Y-48884667D01*
X99985700Y-48884667D02*
X100019033Y-48951333D01*
X99885700Y-48284666D02*
X99852366Y-48251333D01*
X99852366Y-48251333D02*
X99819033Y-48184666D01*
X99819033Y-48184666D02*
X99819033Y-48018000D01*
X99819033Y-48018000D02*
X99852366Y-47951333D01*
X99852366Y-47951333D02*
X99885700Y-47918000D01*
X99885700Y-47918000D02*
X99952366Y-47884666D01*
X99952366Y-47884666D02*
X100019033Y-47884666D01*
X100019033Y-47884666D02*
X100119033Y-47918000D01*
X100119033Y-47918000D02*
X100519033Y-48318000D01*
X100519033Y-48318000D02*
X100519033Y-47884666D01*
X105278366Y-45281000D02*
X105311700Y-45314333D01*
X105311700Y-45314333D02*
X105345033Y-45414333D01*
X105345033Y-45414333D02*
X105345033Y-45481000D01*
X105345033Y-45481000D02*
X105311700Y-45581000D01*
X105311700Y-45581000D02*
X105245033Y-45647667D01*
X105245033Y-45647667D02*
X105178366Y-45681000D01*
X105178366Y-45681000D02*
X105045033Y-45714333D01*
X105045033Y-45714333D02*
X104945033Y-45714333D01*
X104945033Y-45714333D02*
X104811700Y-45681000D01*
X104811700Y-45681000D02*
X104745033Y-45647667D01*
X104745033Y-45647667D02*
X104678366Y-45581000D01*
X104678366Y-45581000D02*
X104645033Y-45481000D01*
X104645033Y-45481000D02*
X104645033Y-45414333D01*
X104645033Y-45414333D02*
X104678366Y-45314333D01*
X104678366Y-45314333D02*
X104711700Y-45281000D01*
X105345033Y-44614333D02*
X105345033Y-45014333D01*
X105345033Y-44814333D02*
X104645033Y-44814333D01*
X104645033Y-44814333D02*
X104745033Y-44881000D01*
X104745033Y-44881000D02*
X104811700Y-44947667D01*
X104811700Y-44947667D02*
X104845033Y-45014333D01*
X104645033Y-43981000D02*
X104645033Y-44314333D01*
X104645033Y-44314333D02*
X104978366Y-44347666D01*
X104978366Y-44347666D02*
X104945033Y-44314333D01*
X104945033Y-44314333D02*
X104911700Y-44247666D01*
X104911700Y-44247666D02*
X104911700Y-44081000D01*
X104911700Y-44081000D02*
X104945033Y-44014333D01*
X104945033Y-44014333D02*
X104978366Y-43981000D01*
X104978366Y-43981000D02*
X105045033Y-43947666D01*
X105045033Y-43947666D02*
X105211700Y-43947666D01*
X105211700Y-43947666D02*
X105278366Y-43981000D01*
X105278366Y-43981000D02*
X105311700Y-44014333D01*
X105311700Y-44014333D02*
X105345033Y-44081000D01*
X105345033Y-44081000D02*
X105345033Y-44247666D01*
X105345033Y-44247666D02*
X105311700Y-44314333D01*
X105311700Y-44314333D02*
X105278366Y-44347666D01*
X112390366Y-55895166D02*
X112423700Y-55928499D01*
X112423700Y-55928499D02*
X112457033Y-56028499D01*
X112457033Y-56028499D02*
X112457033Y-56095166D01*
X112457033Y-56095166D02*
X112423700Y-56195166D01*
X112423700Y-56195166D02*
X112357033Y-56261833D01*
X112357033Y-56261833D02*
X112290366Y-56295166D01*
X112290366Y-56295166D02*
X112157033Y-56328499D01*
X112157033Y-56328499D02*
X112057033Y-56328499D01*
X112057033Y-56328499D02*
X111923700Y-56295166D01*
X111923700Y-56295166D02*
X111857033Y-56261833D01*
X111857033Y-56261833D02*
X111790366Y-56195166D01*
X111790366Y-56195166D02*
X111757033Y-56095166D01*
X111757033Y-56095166D02*
X111757033Y-56028499D01*
X111757033Y-56028499D02*
X111790366Y-55928499D01*
X111790366Y-55928499D02*
X111823700Y-55895166D01*
X111990366Y-55295166D02*
X112457033Y-55295166D01*
X111723700Y-55461833D02*
X112223700Y-55628499D01*
X112223700Y-55628499D02*
X112223700Y-55195166D01*
X105782333Y-57999533D02*
X105782333Y-57299533D01*
X105782333Y-57299533D02*
X105949000Y-57299533D01*
X105949000Y-57299533D02*
X106049000Y-57332866D01*
X106049000Y-57332866D02*
X106115667Y-57399533D01*
X106115667Y-57399533D02*
X106149000Y-57466200D01*
X106149000Y-57466200D02*
X106182333Y-57599533D01*
X106182333Y-57599533D02*
X106182333Y-57699533D01*
X106182333Y-57699533D02*
X106149000Y-57832866D01*
X106149000Y-57832866D02*
X106115667Y-57899533D01*
X106115667Y-57899533D02*
X106049000Y-57966200D01*
X106049000Y-57966200D02*
X105949000Y-57999533D01*
X105949000Y-57999533D02*
X105782333Y-57999533D01*
X106782333Y-57299533D02*
X106649000Y-57299533D01*
X106649000Y-57299533D02*
X106582333Y-57332866D01*
X106582333Y-57332866D02*
X106549000Y-57366200D01*
X106549000Y-57366200D02*
X106482333Y-57466200D01*
X106482333Y-57466200D02*
X106449000Y-57599533D01*
X106449000Y-57599533D02*
X106449000Y-57866200D01*
X106449000Y-57866200D02*
X106482333Y-57932866D01*
X106482333Y-57932866D02*
X106515667Y-57966200D01*
X106515667Y-57966200D02*
X106582333Y-57999533D01*
X106582333Y-57999533D02*
X106715667Y-57999533D01*
X106715667Y-57999533D02*
X106782333Y-57966200D01*
X106782333Y-57966200D02*
X106815667Y-57932866D01*
X106815667Y-57932866D02*
X106849000Y-57866200D01*
X106849000Y-57866200D02*
X106849000Y-57699533D01*
X106849000Y-57699533D02*
X106815667Y-57632866D01*
X106815667Y-57632866D02*
X106782333Y-57599533D01*
X106782333Y-57599533D02*
X106715667Y-57566200D01*
X106715667Y-57566200D02*
X106582333Y-57566200D01*
X106582333Y-57566200D02*
X106515667Y-57599533D01*
X106515667Y-57599533D02*
X106482333Y-57632866D01*
X106482333Y-57632866D02*
X106449000Y-57699533D01*
X112330033Y-67172666D02*
X111996700Y-67405999D01*
X112330033Y-67572666D02*
X111630033Y-67572666D01*
X111630033Y-67572666D02*
X111630033Y-67305999D01*
X111630033Y-67305999D02*
X111663366Y-67239333D01*
X111663366Y-67239333D02*
X111696700Y-67205999D01*
X111696700Y-67205999D02*
X111763366Y-67172666D01*
X111763366Y-67172666D02*
X111863366Y-67172666D01*
X111863366Y-67172666D02*
X111930033Y-67205999D01*
X111930033Y-67205999D02*
X111963366Y-67239333D01*
X111963366Y-67239333D02*
X111996700Y-67305999D01*
X111996700Y-67305999D02*
X111996700Y-67572666D01*
X112330033Y-66505999D02*
X112330033Y-66905999D01*
X112330033Y-66705999D02*
X111630033Y-66705999D01*
X111630033Y-66705999D02*
X111730033Y-66772666D01*
X111730033Y-66772666D02*
X111796700Y-66839333D01*
X111796700Y-66839333D02*
X111830033Y-66905999D01*
X100848333Y-58126533D02*
X100514999Y-58126533D01*
X100514999Y-58126533D02*
X100514999Y-57426533D01*
X101015000Y-57426533D02*
X101448333Y-57426533D01*
X101448333Y-57426533D02*
X101215000Y-57693200D01*
X101215000Y-57693200D02*
X101315000Y-57693200D01*
X101315000Y-57693200D02*
X101381666Y-57726533D01*
X101381666Y-57726533D02*
X101415000Y-57759866D01*
X101415000Y-57759866D02*
X101448333Y-57826533D01*
X101448333Y-57826533D02*
X101448333Y-57993200D01*
X101448333Y-57993200D02*
X101415000Y-58059866D01*
X101415000Y-58059866D02*
X101381666Y-58093200D01*
X101381666Y-58093200D02*
X101315000Y-58126533D01*
X101315000Y-58126533D02*
X101115000Y-58126533D01*
X101115000Y-58126533D02*
X101048333Y-58093200D01*
X101048333Y-58093200D02*
X101015000Y-58059866D01*
X112076033Y-53221666D02*
X111376033Y-53221666D01*
X111376033Y-53221666D02*
X111376033Y-53054999D01*
X111376033Y-53054999D02*
X111409366Y-52954999D01*
X111409366Y-52954999D02*
X111476033Y-52888333D01*
X111476033Y-52888333D02*
X111542700Y-52854999D01*
X111542700Y-52854999D02*
X111676033Y-52821666D01*
X111676033Y-52821666D02*
X111776033Y-52821666D01*
X111776033Y-52821666D02*
X111909366Y-52854999D01*
X111909366Y-52854999D02*
X111976033Y-52888333D01*
X111976033Y-52888333D02*
X112042700Y-52954999D01*
X112042700Y-52954999D02*
X112076033Y-53054999D01*
X112076033Y-53054999D02*
X112076033Y-53221666D01*
X111376033Y-52588333D02*
X111376033Y-52154999D01*
X111376033Y-52154999D02*
X111642700Y-52388333D01*
X111642700Y-52388333D02*
X111642700Y-52288333D01*
X111642700Y-52288333D02*
X111676033Y-52221666D01*
X111676033Y-52221666D02*
X111709366Y-52188333D01*
X111709366Y-52188333D02*
X111776033Y-52154999D01*
X111776033Y-52154999D02*
X111942700Y-52154999D01*
X111942700Y-52154999D02*
X112009366Y-52188333D01*
X112009366Y-52188333D02*
X112042700Y-52221666D01*
X112042700Y-52221666D02*
X112076033Y-52288333D01*
X112076033Y-52288333D02*
X112076033Y-52488333D01*
X112076033Y-52488333D02*
X112042700Y-52554999D01*
X112042700Y-52554999D02*
X112009366Y-52588333D01*
X103627366Y-69157000D02*
X103660700Y-69190333D01*
X103660700Y-69190333D02*
X103694033Y-69290333D01*
X103694033Y-69290333D02*
X103694033Y-69357000D01*
X103694033Y-69357000D02*
X103660700Y-69457000D01*
X103660700Y-69457000D02*
X103594033Y-69523667D01*
X103594033Y-69523667D02*
X103527366Y-69557000D01*
X103527366Y-69557000D02*
X103394033Y-69590333D01*
X103394033Y-69590333D02*
X103294033Y-69590333D01*
X103294033Y-69590333D02*
X103160700Y-69557000D01*
X103160700Y-69557000D02*
X103094033Y-69523667D01*
X103094033Y-69523667D02*
X103027366Y-69457000D01*
X103027366Y-69457000D02*
X102994033Y-69357000D01*
X102994033Y-69357000D02*
X102994033Y-69290333D01*
X102994033Y-69290333D02*
X103027366Y-69190333D01*
X103027366Y-69190333D02*
X103060700Y-69157000D01*
X103694033Y-68490333D02*
X103694033Y-68890333D01*
X103694033Y-68690333D02*
X102994033Y-68690333D01*
X102994033Y-68690333D02*
X103094033Y-68757000D01*
X103094033Y-68757000D02*
X103160700Y-68823667D01*
X103160700Y-68823667D02*
X103194033Y-68890333D01*
X103227366Y-67890333D02*
X103694033Y-67890333D01*
X102960700Y-68057000D02*
X103460700Y-68223666D01*
X103460700Y-68223666D02*
X103460700Y-67790333D01*
X112390366Y-59070166D02*
X112423700Y-59103499D01*
X112423700Y-59103499D02*
X112457033Y-59203499D01*
X112457033Y-59203499D02*
X112457033Y-59270166D01*
X112457033Y-59270166D02*
X112423700Y-59370166D01*
X112423700Y-59370166D02*
X112357033Y-59436833D01*
X112357033Y-59436833D02*
X112290366Y-59470166D01*
X112290366Y-59470166D02*
X112157033Y-59503499D01*
X112157033Y-59503499D02*
X112057033Y-59503499D01*
X112057033Y-59503499D02*
X111923700Y-59470166D01*
X111923700Y-59470166D02*
X111857033Y-59436833D01*
X111857033Y-59436833D02*
X111790366Y-59370166D01*
X111790366Y-59370166D02*
X111757033Y-59270166D01*
X111757033Y-59270166D02*
X111757033Y-59203499D01*
X111757033Y-59203499D02*
X111790366Y-59103499D01*
X111790366Y-59103499D02*
X111823700Y-59070166D01*
X112057033Y-58670166D02*
X112023700Y-58736833D01*
X112023700Y-58736833D02*
X111990366Y-58770166D01*
X111990366Y-58770166D02*
X111923700Y-58803499D01*
X111923700Y-58803499D02*
X111890366Y-58803499D01*
X111890366Y-58803499D02*
X111823700Y-58770166D01*
X111823700Y-58770166D02*
X111790366Y-58736833D01*
X111790366Y-58736833D02*
X111757033Y-58670166D01*
X111757033Y-58670166D02*
X111757033Y-58536833D01*
X111757033Y-58536833D02*
X111790366Y-58470166D01*
X111790366Y-58470166D02*
X111823700Y-58436833D01*
X111823700Y-58436833D02*
X111890366Y-58403499D01*
X111890366Y-58403499D02*
X111923700Y-58403499D01*
X111923700Y-58403499D02*
X111990366Y-58436833D01*
X111990366Y-58436833D02*
X112023700Y-58470166D01*
X112023700Y-58470166D02*
X112057033Y-58536833D01*
X112057033Y-58536833D02*
X112057033Y-58670166D01*
X112057033Y-58670166D02*
X112090366Y-58736833D01*
X112090366Y-58736833D02*
X112123700Y-58770166D01*
X112123700Y-58770166D02*
X112190366Y-58803499D01*
X112190366Y-58803499D02*
X112323700Y-58803499D01*
X112323700Y-58803499D02*
X112390366Y-58770166D01*
X112390366Y-58770166D02*
X112423700Y-58736833D01*
X112423700Y-58736833D02*
X112457033Y-58670166D01*
X112457033Y-58670166D02*
X112457033Y-58536833D01*
X112457033Y-58536833D02*
X112423700Y-58470166D01*
X112423700Y-58470166D02*
X112390366Y-58436833D01*
X112390366Y-58436833D02*
X112323700Y-58403499D01*
X112323700Y-58403499D02*
X112190366Y-58403499D01*
X112190366Y-58403499D02*
X112123700Y-58436833D01*
X112123700Y-58436833D02*
X112090366Y-58470166D01*
X112090366Y-58470166D02*
X112057033Y-58536833D01*
X97527333Y-73341033D02*
X97527333Y-72641033D01*
X97527333Y-72641033D02*
X97694000Y-72641033D01*
X97694000Y-72641033D02*
X97794000Y-72674366D01*
X97794000Y-72674366D02*
X97860667Y-72741033D01*
X97860667Y-72741033D02*
X97894000Y-72807700D01*
X97894000Y-72807700D02*
X97927333Y-72941033D01*
X97927333Y-72941033D02*
X97927333Y-73041033D01*
X97927333Y-73041033D02*
X97894000Y-73174366D01*
X97894000Y-73174366D02*
X97860667Y-73241033D01*
X97860667Y-73241033D02*
X97794000Y-73307700D01*
X97794000Y-73307700D02*
X97694000Y-73341033D01*
X97694000Y-73341033D02*
X97527333Y-73341033D01*
X98594000Y-73341033D02*
X98194000Y-73341033D01*
X98394000Y-73341033D02*
X98394000Y-72641033D01*
X98394000Y-72641033D02*
X98327333Y-72741033D01*
X98327333Y-72741033D02*
X98260667Y-72807700D01*
X98260667Y-72807700D02*
X98194000Y-72841033D01*
X112330033Y-70747666D02*
X111630033Y-70747666D01*
X111630033Y-70747666D02*
X111630033Y-70580999D01*
X111630033Y-70580999D02*
X111663366Y-70480999D01*
X111663366Y-70480999D02*
X111730033Y-70414333D01*
X111730033Y-70414333D02*
X111796700Y-70380999D01*
X111796700Y-70380999D02*
X111930033Y-70347666D01*
X111930033Y-70347666D02*
X112030033Y-70347666D01*
X112030033Y-70347666D02*
X112163366Y-70380999D01*
X112163366Y-70380999D02*
X112230033Y-70414333D01*
X112230033Y-70414333D02*
X112296700Y-70480999D01*
X112296700Y-70480999D02*
X112330033Y-70580999D01*
X112330033Y-70580999D02*
X112330033Y-70747666D01*
X111696700Y-70080999D02*
X111663366Y-70047666D01*
X111663366Y-70047666D02*
X111630033Y-69980999D01*
X111630033Y-69980999D02*
X111630033Y-69814333D01*
X111630033Y-69814333D02*
X111663366Y-69747666D01*
X111663366Y-69747666D02*
X111696700Y-69714333D01*
X111696700Y-69714333D02*
X111763366Y-69680999D01*
X111763366Y-69680999D02*
X111830033Y-69680999D01*
X111830033Y-69680999D02*
X111930033Y-69714333D01*
X111930033Y-69714333D02*
X112330033Y-70114333D01*
X112330033Y-70114333D02*
X112330033Y-69680999D01*
X101714033Y-43332333D02*
X102280700Y-43332333D01*
X102280700Y-43332333D02*
X102347366Y-43299000D01*
X102347366Y-43299000D02*
X102380700Y-43265666D01*
X102380700Y-43265666D02*
X102414033Y-43199000D01*
X102414033Y-43199000D02*
X102414033Y-43065666D01*
X102414033Y-43065666D02*
X102380700Y-42999000D01*
X102380700Y-42999000D02*
X102347366Y-42965666D01*
X102347366Y-42965666D02*
X102280700Y-42932333D01*
X102280700Y-42932333D02*
X101714033Y-42932333D01*
X101714033Y-42665667D02*
X101714033Y-42232333D01*
X101714033Y-42232333D02*
X101980700Y-42465667D01*
X101980700Y-42465667D02*
X101980700Y-42365667D01*
X101980700Y-42365667D02*
X102014033Y-42299000D01*
X102014033Y-42299000D02*
X102047366Y-42265667D01*
X102047366Y-42265667D02*
X102114033Y-42232333D01*
X102114033Y-42232333D02*
X102280700Y-42232333D01*
X102280700Y-42232333D02*
X102347366Y-42265667D01*
X102347366Y-42265667D02*
X102380700Y-42299000D01*
X102380700Y-42299000D02*
X102414033Y-42365667D01*
X102414033Y-42365667D02*
X102414033Y-42565667D01*
X102414033Y-42565667D02*
X102380700Y-42632333D01*
X102380700Y-42632333D02*
X102347366Y-42665667D01*
X106759833Y-59304366D02*
X106726500Y-59337700D01*
X106726500Y-59337700D02*
X106626500Y-59371033D01*
X106626500Y-59371033D02*
X106559833Y-59371033D01*
X106559833Y-59371033D02*
X106459833Y-59337700D01*
X106459833Y-59337700D02*
X106393167Y-59271033D01*
X106393167Y-59271033D02*
X106359833Y-59204366D01*
X106359833Y-59204366D02*
X106326500Y-59071033D01*
X106326500Y-59071033D02*
X106326500Y-58971033D01*
X106326500Y-58971033D02*
X106359833Y-58837700D01*
X106359833Y-58837700D02*
X106393167Y-58771033D01*
X106393167Y-58771033D02*
X106459833Y-58704366D01*
X106459833Y-58704366D02*
X106559833Y-58671033D01*
X106559833Y-58671033D02*
X106626500Y-58671033D01*
X106626500Y-58671033D02*
X106726500Y-58704366D01*
X106726500Y-58704366D02*
X106759833Y-58737700D01*
X107393167Y-58671033D02*
X107059833Y-58671033D01*
X107059833Y-58671033D02*
X107026500Y-59004366D01*
X107026500Y-59004366D02*
X107059833Y-58971033D01*
X107059833Y-58971033D02*
X107126500Y-58937700D01*
X107126500Y-58937700D02*
X107293167Y-58937700D01*
X107293167Y-58937700D02*
X107359833Y-58971033D01*
X107359833Y-58971033D02*
X107393167Y-59004366D01*
X107393167Y-59004366D02*
X107426500Y-59071033D01*
X107426500Y-59071033D02*
X107426500Y-59237700D01*
X107426500Y-59237700D02*
X107393167Y-59304366D01*
X107393167Y-59304366D02*
X107359833Y-59337700D01*
X107359833Y-59337700D02*
X107293167Y-59371033D01*
X107293167Y-59371033D02*
X107126500Y-59371033D01*
X107126500Y-59371033D02*
X107059833Y-59337700D01*
X107059833Y-59337700D02*
X107026500Y-59304366D01*
X112009366Y-63235666D02*
X112042700Y-63268999D01*
X112042700Y-63268999D02*
X112076033Y-63368999D01*
X112076033Y-63368999D02*
X112076033Y-63435666D01*
X112076033Y-63435666D02*
X112042700Y-63535666D01*
X112042700Y-63535666D02*
X111976033Y-63602333D01*
X111976033Y-63602333D02*
X111909366Y-63635666D01*
X111909366Y-63635666D02*
X111776033Y-63668999D01*
X111776033Y-63668999D02*
X111676033Y-63668999D01*
X111676033Y-63668999D02*
X111542700Y-63635666D01*
X111542700Y-63635666D02*
X111476033Y-63602333D01*
X111476033Y-63602333D02*
X111409366Y-63535666D01*
X111409366Y-63535666D02*
X111376033Y-63435666D01*
X111376033Y-63435666D02*
X111376033Y-63368999D01*
X111376033Y-63368999D02*
X111409366Y-63268999D01*
X111409366Y-63268999D02*
X111442700Y-63235666D01*
X111376033Y-63002333D02*
X111376033Y-62568999D01*
X111376033Y-62568999D02*
X111642700Y-62802333D01*
X111642700Y-62802333D02*
X111642700Y-62702333D01*
X111642700Y-62702333D02*
X111676033Y-62635666D01*
X111676033Y-62635666D02*
X111709366Y-62602333D01*
X111709366Y-62602333D02*
X111776033Y-62568999D01*
X111776033Y-62568999D02*
X111942700Y-62568999D01*
X111942700Y-62568999D02*
X112009366Y-62602333D01*
X112009366Y-62602333D02*
X112042700Y-62635666D01*
X112042700Y-62635666D02*
X112076033Y-62702333D01*
X112076033Y-62702333D02*
X112076033Y-62902333D01*
X112076033Y-62902333D02*
X112042700Y-62968999D01*
X112042700Y-62968999D02*
X112009366Y-63002333D01*
X98054333Y-68702366D02*
X98021000Y-68735700D01*
X98021000Y-68735700D02*
X97921000Y-68769033D01*
X97921000Y-68769033D02*
X97854333Y-68769033D01*
X97854333Y-68769033D02*
X97754333Y-68735700D01*
X97754333Y-68735700D02*
X97687667Y-68669033D01*
X97687667Y-68669033D02*
X97654333Y-68602366D01*
X97654333Y-68602366D02*
X97621000Y-68469033D01*
X97621000Y-68469033D02*
X97621000Y-68369033D01*
X97621000Y-68369033D02*
X97654333Y-68235700D01*
X97654333Y-68235700D02*
X97687667Y-68169033D01*
X97687667Y-68169033D02*
X97754333Y-68102366D01*
X97754333Y-68102366D02*
X97854333Y-68069033D01*
X97854333Y-68069033D02*
X97921000Y-68069033D01*
X97921000Y-68069033D02*
X98021000Y-68102366D01*
X98021000Y-68102366D02*
X98054333Y-68135700D01*
X98387667Y-68769033D02*
X98521000Y-68769033D01*
X98521000Y-68769033D02*
X98587667Y-68735700D01*
X98587667Y-68735700D02*
X98621000Y-68702366D01*
X98621000Y-68702366D02*
X98687667Y-68602366D01*
X98687667Y-68602366D02*
X98721000Y-68469033D01*
X98721000Y-68469033D02*
X98721000Y-68202366D01*
X98721000Y-68202366D02*
X98687667Y-68135700D01*
X98687667Y-68135700D02*
X98654333Y-68102366D01*
X98654333Y-68102366D02*
X98587667Y-68069033D01*
X98587667Y-68069033D02*
X98454333Y-68069033D01*
X98454333Y-68069033D02*
X98387667Y-68102366D01*
X98387667Y-68102366D02*
X98354333Y-68135700D01*
X98354333Y-68135700D02*
X98321000Y-68202366D01*
X98321000Y-68202366D02*
X98321000Y-68369033D01*
X98321000Y-68369033D02*
X98354333Y-68435700D01*
X98354333Y-68435700D02*
X98387667Y-68469033D01*
X98387667Y-68469033D02*
X98454333Y-68502366D01*
X98454333Y-68502366D02*
X98587667Y-68502366D01*
X98587667Y-68502366D02*
X98654333Y-68469033D01*
X98654333Y-68469033D02*
X98687667Y-68435700D01*
X98687667Y-68435700D02*
X98721000Y-68369033D01*
X103562999Y-38543033D02*
X103329666Y-38209700D01*
X103162999Y-38543033D02*
X103162999Y-37843033D01*
X103162999Y-37843033D02*
X103429666Y-37843033D01*
X103429666Y-37843033D02*
X103496333Y-37876366D01*
X103496333Y-37876366D02*
X103529666Y-37909700D01*
X103529666Y-37909700D02*
X103562999Y-37976366D01*
X103562999Y-37976366D02*
X103562999Y-38076366D01*
X103562999Y-38076366D02*
X103529666Y-38143033D01*
X103529666Y-38143033D02*
X103496333Y-38176366D01*
X103496333Y-38176366D02*
X103429666Y-38209700D01*
X103429666Y-38209700D02*
X103162999Y-38209700D01*
X104229666Y-38543033D02*
X103829666Y-38543033D01*
X104029666Y-38543033D02*
X104029666Y-37843033D01*
X104029666Y-37843033D02*
X103962999Y-37943033D01*
X103962999Y-37943033D02*
X103896333Y-38009700D01*
X103896333Y-38009700D02*
X103829666Y-38043033D01*
X104663000Y-37843033D02*
X104729666Y-37843033D01*
X104729666Y-37843033D02*
X104796333Y-37876366D01*
X104796333Y-37876366D02*
X104829666Y-37909700D01*
X104829666Y-37909700D02*
X104863000Y-37976366D01*
X104863000Y-37976366D02*
X104896333Y-38109700D01*
X104896333Y-38109700D02*
X104896333Y-38276366D01*
X104896333Y-38276366D02*
X104863000Y-38409700D01*
X104863000Y-38409700D02*
X104829666Y-38476366D01*
X104829666Y-38476366D02*
X104796333Y-38509700D01*
X104796333Y-38509700D02*
X104729666Y-38543033D01*
X104729666Y-38543033D02*
X104663000Y-38543033D01*
X104663000Y-38543033D02*
X104596333Y-38509700D01*
X104596333Y-38509700D02*
X104563000Y-38476366D01*
X104563000Y-38476366D02*
X104529666Y-38409700D01*
X104529666Y-38409700D02*
X104496333Y-38276366D01*
X104496333Y-38276366D02*
X104496333Y-38109700D01*
X104496333Y-38109700D02*
X104529666Y-37976366D01*
X104529666Y-37976366D02*
X104563000Y-37909700D01*
X104563000Y-37909700D02*
X104596333Y-37876366D01*
X104596333Y-37876366D02*
X104663000Y-37843033D01*
X98581033Y-43550666D02*
X98247700Y-43783999D01*
X98581033Y-43950666D02*
X97881033Y-43950666D01*
X97881033Y-43950666D02*
X97881033Y-43683999D01*
X97881033Y-43683999D02*
X97914366Y-43617333D01*
X97914366Y-43617333D02*
X97947700Y-43583999D01*
X97947700Y-43583999D02*
X98014366Y-43550666D01*
X98014366Y-43550666D02*
X98114366Y-43550666D01*
X98114366Y-43550666D02*
X98181033Y-43583999D01*
X98181033Y-43583999D02*
X98214366Y-43617333D01*
X98214366Y-43617333D02*
X98247700Y-43683999D01*
X98247700Y-43683999D02*
X98247700Y-43950666D01*
X98581033Y-43217333D02*
X98581033Y-43083999D01*
X98581033Y-43083999D02*
X98547700Y-43017333D01*
X98547700Y-43017333D02*
X98514366Y-42983999D01*
X98514366Y-42983999D02*
X98414366Y-42917333D01*
X98414366Y-42917333D02*
X98281033Y-42883999D01*
X98281033Y-42883999D02*
X98014366Y-42883999D01*
X98014366Y-42883999D02*
X97947700Y-42917333D01*
X97947700Y-42917333D02*
X97914366Y-42950666D01*
X97914366Y-42950666D02*
X97881033Y-43017333D01*
X97881033Y-43017333D02*
X97881033Y-43150666D01*
X97881033Y-43150666D02*
X97914366Y-43217333D01*
X97914366Y-43217333D02*
X97947700Y-43250666D01*
X97947700Y-43250666D02*
X98014366Y-43283999D01*
X98014366Y-43283999D02*
X98181033Y-43283999D01*
X98181033Y-43283999D02*
X98247700Y-43250666D01*
X98247700Y-43250666D02*
X98281033Y-43217333D01*
X98281033Y-43217333D02*
X98314366Y-43150666D01*
X98314366Y-43150666D02*
X98314366Y-43017333D01*
X98314366Y-43017333D02*
X98281033Y-42950666D01*
X98281033Y-42950666D02*
X98247700Y-42917333D01*
X98247700Y-42917333D02*
X98181033Y-42883999D01*
X97339999Y-71750366D02*
X97306666Y-71783700D01*
X97306666Y-71783700D02*
X97206666Y-71817033D01*
X97206666Y-71817033D02*
X97139999Y-71817033D01*
X97139999Y-71817033D02*
X97039999Y-71783700D01*
X97039999Y-71783700D02*
X96973333Y-71717033D01*
X96973333Y-71717033D02*
X96939999Y-71650366D01*
X96939999Y-71650366D02*
X96906666Y-71517033D01*
X96906666Y-71517033D02*
X96906666Y-71417033D01*
X96906666Y-71417033D02*
X96939999Y-71283700D01*
X96939999Y-71283700D02*
X96973333Y-71217033D01*
X96973333Y-71217033D02*
X97039999Y-71150366D01*
X97039999Y-71150366D02*
X97139999Y-71117033D01*
X97139999Y-71117033D02*
X97206666Y-71117033D01*
X97206666Y-71117033D02*
X97306666Y-71150366D01*
X97306666Y-71150366D02*
X97339999Y-71183700D01*
X98006666Y-71817033D02*
X97606666Y-71817033D01*
X97806666Y-71817033D02*
X97806666Y-71117033D01*
X97806666Y-71117033D02*
X97739999Y-71217033D01*
X97739999Y-71217033D02*
X97673333Y-71283700D01*
X97673333Y-71283700D02*
X97606666Y-71317033D01*
X98606666Y-71117033D02*
X98473333Y-71117033D01*
X98473333Y-71117033D02*
X98406666Y-71150366D01*
X98406666Y-71150366D02*
X98373333Y-71183700D01*
X98373333Y-71183700D02*
X98306666Y-71283700D01*
X98306666Y-71283700D02*
X98273333Y-71417033D01*
X98273333Y-71417033D02*
X98273333Y-71683700D01*
X98273333Y-71683700D02*
X98306666Y-71750366D01*
X98306666Y-71750366D02*
X98340000Y-71783700D01*
X98340000Y-71783700D02*
X98406666Y-71817033D01*
X98406666Y-71817033D02*
X98540000Y-71817033D01*
X98540000Y-71817033D02*
X98606666Y-71783700D01*
X98606666Y-71783700D02*
X98640000Y-71750366D01*
X98640000Y-71750366D02*
X98673333Y-71683700D01*
X98673333Y-71683700D02*
X98673333Y-71517033D01*
X98673333Y-71517033D02*
X98640000Y-71450366D01*
X98640000Y-71450366D02*
X98606666Y-71417033D01*
X98606666Y-71417033D02*
X98540000Y-71383700D01*
X98540000Y-71383700D02*
X98406666Y-71383700D01*
X98406666Y-71383700D02*
X98340000Y-71417033D01*
X98340000Y-71417033D02*
X98306666Y-71450366D01*
X98306666Y-71450366D02*
X98273333Y-71517033D01*
X103733666Y-57401033D02*
X103733666Y-57967700D01*
X103733666Y-57967700D02*
X103767000Y-58034366D01*
X103767000Y-58034366D02*
X103800333Y-58067700D01*
X103800333Y-58067700D02*
X103867000Y-58101033D01*
X103867000Y-58101033D02*
X104000333Y-58101033D01*
X104000333Y-58101033D02*
X104067000Y-58067700D01*
X104067000Y-58067700D02*
X104100333Y-58034366D01*
X104100333Y-58034366D02*
X104133666Y-57967700D01*
X104133666Y-57967700D02*
X104133666Y-57401033D01*
X104433666Y-57467700D02*
X104466999Y-57434366D01*
X104466999Y-57434366D02*
X104533666Y-57401033D01*
X104533666Y-57401033D02*
X104700333Y-57401033D01*
X104700333Y-57401033D02*
X104766999Y-57434366D01*
X104766999Y-57434366D02*
X104800333Y-57467700D01*
X104800333Y-57467700D02*
X104833666Y-57534366D01*
X104833666Y-57534366D02*
X104833666Y-57601033D01*
X104833666Y-57601033D02*
X104800333Y-57701033D01*
X104800333Y-57701033D02*
X104400333Y-58101033D01*
X104400333Y-58101033D02*
X104833666Y-58101033D01*
X112076033Y-51069166D02*
X111742700Y-51302499D01*
X112076033Y-51469166D02*
X111376033Y-51469166D01*
X111376033Y-51469166D02*
X111376033Y-51202499D01*
X111376033Y-51202499D02*
X111409366Y-51135833D01*
X111409366Y-51135833D02*
X111442700Y-51102499D01*
X111442700Y-51102499D02*
X111509366Y-51069166D01*
X111509366Y-51069166D02*
X111609366Y-51069166D01*
X111609366Y-51069166D02*
X111676033Y-51102499D01*
X111676033Y-51102499D02*
X111709366Y-51135833D01*
X111709366Y-51135833D02*
X111742700Y-51202499D01*
X111742700Y-51202499D02*
X111742700Y-51469166D01*
X111376033Y-50435833D02*
X111376033Y-50769166D01*
X111376033Y-50769166D02*
X111709366Y-50802499D01*
X111709366Y-50802499D02*
X111676033Y-50769166D01*
X111676033Y-50769166D02*
X111642700Y-50702499D01*
X111642700Y-50702499D02*
X111642700Y-50535833D01*
X111642700Y-50535833D02*
X111676033Y-50469166D01*
X111676033Y-50469166D02*
X111709366Y-50435833D01*
X111709366Y-50435833D02*
X111776033Y-50402499D01*
X111776033Y-50402499D02*
X111942700Y-50402499D01*
X111942700Y-50402499D02*
X112009366Y-50435833D01*
X112009366Y-50435833D02*
X112042700Y-50469166D01*
X112042700Y-50469166D02*
X112076033Y-50535833D01*
X112076033Y-50535833D02*
X112076033Y-50702499D01*
X112076033Y-50702499D02*
X112042700Y-50769166D01*
X112042700Y-50769166D02*
X112009366Y-50802499D01*
X101468366Y-49218000D02*
X101501700Y-49251333D01*
X101501700Y-49251333D02*
X101535033Y-49351333D01*
X101535033Y-49351333D02*
X101535033Y-49418000D01*
X101535033Y-49418000D02*
X101501700Y-49518000D01*
X101501700Y-49518000D02*
X101435033Y-49584667D01*
X101435033Y-49584667D02*
X101368366Y-49618000D01*
X101368366Y-49618000D02*
X101235033Y-49651333D01*
X101235033Y-49651333D02*
X101135033Y-49651333D01*
X101135033Y-49651333D02*
X101001700Y-49618000D01*
X101001700Y-49618000D02*
X100935033Y-49584667D01*
X100935033Y-49584667D02*
X100868366Y-49518000D01*
X100868366Y-49518000D02*
X100835033Y-49418000D01*
X100835033Y-49418000D02*
X100835033Y-49351333D01*
X100835033Y-49351333D02*
X100868366Y-49251333D01*
X100868366Y-49251333D02*
X100901700Y-49218000D01*
X101535033Y-48551333D02*
X101535033Y-48951333D01*
X101535033Y-48751333D02*
X100835033Y-48751333D01*
X100835033Y-48751333D02*
X100935033Y-48818000D01*
X100935033Y-48818000D02*
X101001700Y-48884667D01*
X101001700Y-48884667D02*
X101035033Y-48951333D01*
X100835033Y-48318000D02*
X100835033Y-47884666D01*
X100835033Y-47884666D02*
X101101700Y-48118000D01*
X101101700Y-48118000D02*
X101101700Y-48018000D01*
X101101700Y-48018000D02*
X101135033Y-47951333D01*
X101135033Y-47951333D02*
X101168366Y-47918000D01*
X101168366Y-47918000D02*
X101235033Y-47884666D01*
X101235033Y-47884666D02*
X101401700Y-47884666D01*
X101401700Y-47884666D02*
X101468366Y-47918000D01*
X101468366Y-47918000D02*
X101501700Y-47951333D01*
X101501700Y-47951333D02*
X101535033Y-48018000D01*
X101535033Y-48018000D02*
X101535033Y-48218000D01*
X101535033Y-48218000D02*
X101501700Y-48284666D01*
X101501700Y-48284666D02*
X101468366Y-48318000D01*
X107377033Y-44566666D02*
X107043700Y-44799999D01*
X107377033Y-44966666D02*
X106677033Y-44966666D01*
X106677033Y-44966666D02*
X106677033Y-44699999D01*
X106677033Y-44699999D02*
X106710366Y-44633333D01*
X106710366Y-44633333D02*
X106743700Y-44599999D01*
X106743700Y-44599999D02*
X106810366Y-44566666D01*
X106810366Y-44566666D02*
X106910366Y-44566666D01*
X106910366Y-44566666D02*
X106977033Y-44599999D01*
X106977033Y-44599999D02*
X107010366Y-44633333D01*
X107010366Y-44633333D02*
X107043700Y-44699999D01*
X107043700Y-44699999D02*
X107043700Y-44966666D01*
X106677033Y-44333333D02*
X106677033Y-43866666D01*
X106677033Y-43866666D02*
X107377033Y-44166666D01*
X110337666Y-42161033D02*
X110337666Y-42727700D01*
X110337666Y-42727700D02*
X110371000Y-42794366D01*
X110371000Y-42794366D02*
X110404333Y-42827700D01*
X110404333Y-42827700D02*
X110471000Y-42861033D01*
X110471000Y-42861033D02*
X110604333Y-42861033D01*
X110604333Y-42861033D02*
X110671000Y-42827700D01*
X110671000Y-42827700D02*
X110704333Y-42794366D01*
X110704333Y-42794366D02*
X110737666Y-42727700D01*
X110737666Y-42727700D02*
X110737666Y-42161033D01*
X111004333Y-42161033D02*
X111470999Y-42161033D01*
X111470999Y-42161033D02*
X111170999Y-42861033D01*
X106361033Y-44566666D02*
X106027700Y-44799999D01*
X106361033Y-44966666D02*
X105661033Y-44966666D01*
X105661033Y-44966666D02*
X105661033Y-44699999D01*
X105661033Y-44699999D02*
X105694366Y-44633333D01*
X105694366Y-44633333D02*
X105727700Y-44599999D01*
X105727700Y-44599999D02*
X105794366Y-44566666D01*
X105794366Y-44566666D02*
X105894366Y-44566666D01*
X105894366Y-44566666D02*
X105961033Y-44599999D01*
X105961033Y-44599999D02*
X105994366Y-44633333D01*
X105994366Y-44633333D02*
X106027700Y-44699999D01*
X106027700Y-44699999D02*
X106027700Y-44966666D01*
X105961033Y-44166666D02*
X105927700Y-44233333D01*
X105927700Y-44233333D02*
X105894366Y-44266666D01*
X105894366Y-44266666D02*
X105827700Y-44299999D01*
X105827700Y-44299999D02*
X105794366Y-44299999D01*
X105794366Y-44299999D02*
X105727700Y-44266666D01*
X105727700Y-44266666D02*
X105694366Y-44233333D01*
X105694366Y-44233333D02*
X105661033Y-44166666D01*
X105661033Y-44166666D02*
X105661033Y-44033333D01*
X105661033Y-44033333D02*
X105694366Y-43966666D01*
X105694366Y-43966666D02*
X105727700Y-43933333D01*
X105727700Y-43933333D02*
X105794366Y-43899999D01*
X105794366Y-43899999D02*
X105827700Y-43899999D01*
X105827700Y-43899999D02*
X105894366Y-43933333D01*
X105894366Y-43933333D02*
X105927700Y-43966666D01*
X105927700Y-43966666D02*
X105961033Y-44033333D01*
X105961033Y-44033333D02*
X105961033Y-44166666D01*
X105961033Y-44166666D02*
X105994366Y-44233333D01*
X105994366Y-44233333D02*
X106027700Y-44266666D01*
X106027700Y-44266666D02*
X106094366Y-44299999D01*
X106094366Y-44299999D02*
X106227700Y-44299999D01*
X106227700Y-44299999D02*
X106294366Y-44266666D01*
X106294366Y-44266666D02*
X106327700Y-44233333D01*
X106327700Y-44233333D02*
X106361033Y-44166666D01*
X106361033Y-44166666D02*
X106361033Y-44033333D01*
X106361033Y-44033333D02*
X106327700Y-43966666D01*
X106327700Y-43966666D02*
X106294366Y-43933333D01*
X106294366Y-43933333D02*
X106227700Y-43899999D01*
X106227700Y-43899999D02*
X106094366Y-43899999D01*
X106094366Y-43899999D02*
X106027700Y-43933333D01*
X106027700Y-43933333D02*
X105994366Y-43966666D01*
X105994366Y-43966666D02*
X105961033Y-44033333D01*
X98054333Y-74865033D02*
X97821000Y-74531700D01*
X97654333Y-74865033D02*
X97654333Y-74165033D01*
X97654333Y-74165033D02*
X97921000Y-74165033D01*
X97921000Y-74165033D02*
X97987667Y-74198366D01*
X97987667Y-74198366D02*
X98021000Y-74231700D01*
X98021000Y-74231700D02*
X98054333Y-74298366D01*
X98054333Y-74298366D02*
X98054333Y-74398366D01*
X98054333Y-74398366D02*
X98021000Y-74465033D01*
X98021000Y-74465033D02*
X97987667Y-74498366D01*
X97987667Y-74498366D02*
X97921000Y-74531700D01*
X97921000Y-74531700D02*
X97654333Y-74531700D01*
X98654333Y-74165033D02*
X98521000Y-74165033D01*
X98521000Y-74165033D02*
X98454333Y-74198366D01*
X98454333Y-74198366D02*
X98421000Y-74231700D01*
X98421000Y-74231700D02*
X98354333Y-74331700D01*
X98354333Y-74331700D02*
X98321000Y-74465033D01*
X98321000Y-74465033D02*
X98321000Y-74731700D01*
X98321000Y-74731700D02*
X98354333Y-74798366D01*
X98354333Y-74798366D02*
X98387667Y-74831700D01*
X98387667Y-74831700D02*
X98454333Y-74865033D01*
X98454333Y-74865033D02*
X98587667Y-74865033D01*
X98587667Y-74865033D02*
X98654333Y-74831700D01*
X98654333Y-74831700D02*
X98687667Y-74798366D01*
X98687667Y-74798366D02*
X98721000Y-74731700D01*
X98721000Y-74731700D02*
X98721000Y-74565033D01*
X98721000Y-74565033D02*
X98687667Y-74498366D01*
X98687667Y-74498366D02*
X98654333Y-74465033D01*
X98654333Y-74465033D02*
X98587667Y-74431700D01*
X98587667Y-74431700D02*
X98454333Y-74431700D01*
X98454333Y-74431700D02*
X98387667Y-74465033D01*
X98387667Y-74465033D02*
X98354333Y-74498366D01*
X98354333Y-74498366D02*
X98321000Y-74565033D01*
X107474499Y-46858366D02*
X107441166Y-46891700D01*
X107441166Y-46891700D02*
X107341166Y-46925033D01*
X107341166Y-46925033D02*
X107274499Y-46925033D01*
X107274499Y-46925033D02*
X107174499Y-46891700D01*
X107174499Y-46891700D02*
X107107833Y-46825033D01*
X107107833Y-46825033D02*
X107074499Y-46758366D01*
X107074499Y-46758366D02*
X107041166Y-46625033D01*
X107041166Y-46625033D02*
X107041166Y-46525033D01*
X107041166Y-46525033D02*
X107074499Y-46391700D01*
X107074499Y-46391700D02*
X107107833Y-46325033D01*
X107107833Y-46325033D02*
X107174499Y-46258366D01*
X107174499Y-46258366D02*
X107274499Y-46225033D01*
X107274499Y-46225033D02*
X107341166Y-46225033D01*
X107341166Y-46225033D02*
X107441166Y-46258366D01*
X107441166Y-46258366D02*
X107474499Y-46291700D01*
X108141166Y-46925033D02*
X107741166Y-46925033D01*
X107941166Y-46925033D02*
X107941166Y-46225033D01*
X107941166Y-46225033D02*
X107874499Y-46325033D01*
X107874499Y-46325033D02*
X107807833Y-46391700D01*
X107807833Y-46391700D02*
X107741166Y-46425033D01*
X108807833Y-46925033D02*
X108407833Y-46925033D01*
X108607833Y-46925033D02*
X108607833Y-46225033D01*
X108607833Y-46225033D02*
X108541166Y-46325033D01*
X108541166Y-46325033D02*
X108474500Y-46391700D01*
X108474500Y-46391700D02*
X108407833Y-46425033D01*
X105928333Y-46350366D02*
X105895000Y-46383700D01*
X105895000Y-46383700D02*
X105795000Y-46417033D01*
X105795000Y-46417033D02*
X105728333Y-46417033D01*
X105728333Y-46417033D02*
X105628333Y-46383700D01*
X105628333Y-46383700D02*
X105561667Y-46317033D01*
X105561667Y-46317033D02*
X105528333Y-46250366D01*
X105528333Y-46250366D02*
X105495000Y-46117033D01*
X105495000Y-46117033D02*
X105495000Y-46017033D01*
X105495000Y-46017033D02*
X105528333Y-45883700D01*
X105528333Y-45883700D02*
X105561667Y-45817033D01*
X105561667Y-45817033D02*
X105628333Y-45750366D01*
X105628333Y-45750366D02*
X105728333Y-45717033D01*
X105728333Y-45717033D02*
X105795000Y-45717033D01*
X105795000Y-45717033D02*
X105895000Y-45750366D01*
X105895000Y-45750366D02*
X105928333Y-45783700D01*
X106528333Y-45717033D02*
X106395000Y-45717033D01*
X106395000Y-45717033D02*
X106328333Y-45750366D01*
X106328333Y-45750366D02*
X106295000Y-45783700D01*
X106295000Y-45783700D02*
X106228333Y-45883700D01*
X106228333Y-45883700D02*
X106195000Y-46017033D01*
X106195000Y-46017033D02*
X106195000Y-46283700D01*
X106195000Y-46283700D02*
X106228333Y-46350366D01*
X106228333Y-46350366D02*
X106261667Y-46383700D01*
X106261667Y-46383700D02*
X106328333Y-46417033D01*
X106328333Y-46417033D02*
X106461667Y-46417033D01*
X106461667Y-46417033D02*
X106528333Y-46383700D01*
X106528333Y-46383700D02*
X106561667Y-46350366D01*
X106561667Y-46350366D02*
X106595000Y-46283700D01*
X106595000Y-46283700D02*
X106595000Y-46117033D01*
X106595000Y-46117033D02*
X106561667Y-46050366D01*
X106561667Y-46050366D02*
X106528333Y-46017033D01*
X106528333Y-46017033D02*
X106461667Y-45983700D01*
X106461667Y-45983700D02*
X106328333Y-45983700D01*
X106328333Y-45983700D02*
X106261667Y-46017033D01*
X106261667Y-46017033D02*
X106228333Y-46050366D01*
X106228333Y-46050366D02*
X106195000Y-46117033D01*
D10*
X106745721Y-64895000D02*
X107071279Y-64895000D01*
X106745721Y-65915000D02*
X107071279Y-65915000D01*
X110488000Y-40548779D02*
X110488000Y-40223221D01*
X111508000Y-40548779D02*
X111508000Y-40223221D01*
X100167221Y-66419000D02*
X100492779Y-66419000D01*
X100167221Y-67439000D02*
X100492779Y-67439000D01*
X106657000Y-64425000D02*
X108417000Y-64425000D01*
X108417000Y-61355000D02*
X105987000Y-61355000D01*
X108684500Y-66329779D02*
X108684500Y-66004221D01*
X109704500Y-66329779D02*
X109704500Y-66004221D01*
X109946221Y-56919500D02*
X110271779Y-56919500D01*
X109946221Y-57939500D02*
X110271779Y-57939500D01*
X106441779Y-50471800D02*
X106116221Y-50471800D01*
X106441779Y-49451800D02*
X106116221Y-49451800D01*
X100167221Y-69467000D02*
X100492779Y-69467000D01*
X100167221Y-70487000D02*
X100492779Y-70487000D01*
X101354000Y-78867000D02*
X102354000Y-78867000D01*
X101854000Y-78367000D02*
X101854000Y-79367000D01*
X102674000Y-73766437D02*
X102674000Y-75752000D01*
X102674000Y-73766437D02*
X103738437Y-72702000D01*
X102674000Y-80157563D02*
X102674000Y-78172000D01*
X102674000Y-80157563D02*
X103738437Y-81222000D01*
X103738437Y-72702000D02*
X111194000Y-72702000D01*
X103738437Y-81222000D02*
X111194000Y-81222000D01*
X111194000Y-72702000D02*
X111194000Y-75752000D01*
X111194000Y-81222000D02*
X111194000Y-78172000D01*
X109329000Y-50383221D02*
X109329000Y-50708779D01*
X108309000Y-50383221D02*
X108309000Y-50708779D01*
X109329000Y-53431221D02*
X109329000Y-53756779D01*
X108309000Y-53431221D02*
X108309000Y-53756779D01*
D12*
X103022000Y-65865000D02*
X100622000Y-65865000D01*
X103022000Y-59865000D02*
X100622000Y-59865000D01*
D10*
X101979000Y-48930779D02*
X101979000Y-48605221D01*
X102999000Y-48930779D02*
X102999000Y-48605221D01*
X108841000Y-44287221D02*
X108841000Y-44612779D01*
X107821000Y-44287221D02*
X107821000Y-44612779D01*
X109946221Y-55395500D02*
X110271779Y-55395500D01*
X109946221Y-56415500D02*
X110271779Y-56415500D01*
X108433000Y-57009400D02*
X108433000Y-55309400D01*
X108433000Y-57009400D02*
X105283000Y-57009400D01*
X108433000Y-55309400D02*
X105283000Y-55309400D01*
X111228500Y-66004221D02*
X111228500Y-66329779D01*
X110208500Y-66004221D02*
X110208500Y-66329779D01*
D12*
X104092000Y-52521000D02*
X104092000Y-54921000D01*
X98092000Y-52521000D02*
X98092000Y-54921000D01*
D10*
X100810000Y-78740000D02*
G75*
G03*
X100810000Y-78740000I-1750000J0D01*
G01*
X111098000Y-52109000D02*
X109628000Y-52109000D01*
X109628000Y-52109000D02*
X109628000Y-54394000D01*
X111098000Y-54394000D02*
X111098000Y-52109000D01*
X106745721Y-66419000D02*
X107071279Y-66419000D01*
X106745721Y-67439000D02*
X107071279Y-67439000D01*
X109946221Y-58443500D02*
X110271779Y-58443500D01*
X109946221Y-59463500D02*
X110271779Y-59463500D01*
X98845000Y-72290000D02*
X98845000Y-73760000D01*
X98845000Y-73760000D02*
X101130000Y-73760000D01*
X101130000Y-72290000D02*
X98845000Y-72290000D01*
G36*
X109836285Y-35798389D02*
G01*
X110084237Y-35798833D01*
X110095271Y-35804265D01*
X110107451Y-35811779D01*
X110117133Y-35821262D01*
X110124801Y-35833202D01*
X110125401Y-35834395D01*
X110128078Y-35840166D01*
X110129699Y-35844935D01*
X110130521Y-35849944D01*
X110130804Y-35856440D01*
X110130825Y-35860464D01*
X110130685Y-35868248D01*
X110130111Y-35873966D01*
X110128850Y-35878879D01*
X110126651Y-35884251D01*
X110125680Y-35886333D01*
X110118471Y-35898037D01*
X110108913Y-35908261D01*
X110097796Y-35916195D01*
X110095124Y-35917600D01*
X110085833Y-35922166D01*
X109837083Y-35922609D01*
X109588333Y-35923053D01*
X109588333Y-35860499D01*
X109588333Y-35797946D01*
X109836285Y-35798389D01*
G37*
G36*
X109927881Y-33569897D02*
G01*
X109991376Y-33572384D01*
X110041666Y-33575579D01*
X110133056Y-33584117D01*
X110223762Y-33595909D01*
X110313726Y-33610937D01*
X110402889Y-33629185D01*
X110491193Y-33650632D01*
X110578581Y-33675263D01*
X110664994Y-33703058D01*
X110750375Y-33733999D01*
X110834665Y-33768069D01*
X110917807Y-33805249D01*
X110999741Y-33845521D01*
X111080411Y-33888868D01*
X111117348Y-33909992D01*
X111194624Y-33956970D01*
X111270069Y-34006712D01*
X111343613Y-34059150D01*
X111415184Y-34114217D01*
X111484709Y-34171844D01*
X111552118Y-34231963D01*
X111617338Y-34294507D01*
X111680297Y-34359407D01*
X111740925Y-34426596D01*
X111799148Y-34496006D01*
X111854896Y-34567568D01*
X111908096Y-34641216D01*
X111940691Y-34689287D01*
X111976442Y-34744631D01*
X112009622Y-34798691D01*
X112040497Y-34851932D01*
X112069333Y-34904819D01*
X112096396Y-34957819D01*
X112110612Y-34987166D01*
X112148635Y-35070756D01*
X112183376Y-35154665D01*
X112214866Y-35239013D01*
X112243134Y-35323919D01*
X112268213Y-35409502D01*
X112290133Y-35495883D01*
X112308923Y-35583179D01*
X112324616Y-35671512D01*
X112337242Y-35760999D01*
X112346831Y-35851761D01*
X112352496Y-35928000D01*
X112353154Y-35941249D01*
X112353714Y-35957348D01*
X112354178Y-35975844D01*
X112354545Y-35996285D01*
X112354815Y-36018218D01*
X112354988Y-36041190D01*
X112355065Y-36064750D01*
X112355045Y-36088444D01*
X112354929Y-36111819D01*
X112354716Y-36134424D01*
X112354407Y-36155806D01*
X112354001Y-36175511D01*
X112353500Y-36193088D01*
X112352902Y-36208083D01*
X112352456Y-36216333D01*
X112345112Y-36308504D01*
X112334546Y-36399884D01*
X112320774Y-36490426D01*
X112303810Y-36580084D01*
X112283668Y-36668811D01*
X112260365Y-36756560D01*
X112233915Y-36843285D01*
X112204332Y-36928939D01*
X112171632Y-37013475D01*
X112135829Y-37096847D01*
X112096938Y-37179007D01*
X112054975Y-37259911D01*
X112009953Y-37339510D01*
X111976998Y-37393833D01*
X111927636Y-37469816D01*
X111875526Y-37543931D01*
X111820719Y-37616118D01*
X111763266Y-37686320D01*
X111703219Y-37754476D01*
X111640629Y-37820527D01*
X111575546Y-37884416D01*
X111508023Y-37946083D01*
X111463333Y-37984540D01*
X111393893Y-38040846D01*
X111322830Y-38094357D01*
X111249870Y-38145268D01*
X111174735Y-38193778D01*
X111139804Y-38215078D01*
X111060850Y-38260434D01*
X110980461Y-38302796D01*
X110898717Y-38342139D01*
X110815698Y-38378440D01*
X110731482Y-38411675D01*
X110646149Y-38441818D01*
X110559779Y-38468846D01*
X110472450Y-38492735D01*
X110384244Y-38513460D01*
X110295238Y-38530996D01*
X110205512Y-38545321D01*
X110115146Y-38556409D01*
X110024220Y-38564236D01*
X109990000Y-38566325D01*
X109982206Y-38566640D01*
X109971464Y-38566915D01*
X109958160Y-38567149D01*
X109942679Y-38567342D01*
X109925407Y-38567495D01*
X109906728Y-38567608D01*
X109887028Y-38567681D01*
X109866692Y-38567715D01*
X109846107Y-38567710D01*
X109825656Y-38567665D01*
X109805726Y-38567581D01*
X109786702Y-38567458D01*
X109768969Y-38567297D01*
X109752913Y-38567098D01*
X109738918Y-38566861D01*
X109727371Y-38566586D01*
X109718656Y-38566273D01*
X109716666Y-38566172D01*
X109627034Y-38559551D01*
X109537522Y-38549628D01*
X109448267Y-38536435D01*
X109359409Y-38520004D01*
X109271086Y-38500366D01*
X109183435Y-38477553D01*
X109096596Y-38451596D01*
X109010706Y-38422528D01*
X108925905Y-38390380D01*
X108896666Y-38378473D01*
X108827217Y-38348343D01*
X108757722Y-38315573D01*
X108688715Y-38280457D01*
X108620727Y-38243286D01*
X108554293Y-38204354D01*
X108489945Y-38163954D01*
X108428216Y-38122379D01*
X108420000Y-38116612D01*
X108356361Y-38070334D01*
X108295390Y-38023102D01*
X108236448Y-37974378D01*
X108178895Y-37923630D01*
X108122093Y-37870319D01*
X108098590Y-37847318D01*
X108036848Y-37784155D01*
X107978109Y-37719883D01*
X107922159Y-37654229D01*
X107868785Y-37586917D01*
X107817776Y-37517674D01*
X107768919Y-37446225D01*
X107722001Y-37372296D01*
X107693057Y-37323833D01*
X107649322Y-37245571D01*
X107608472Y-37165692D01*
X107570542Y-37084310D01*
X107535569Y-37001538D01*
X107503587Y-36917489D01*
X107474633Y-36832278D01*
X107448742Y-36746016D01*
X107425949Y-36658819D01*
X107406291Y-36570798D01*
X107389803Y-36482068D01*
X107376520Y-36392741D01*
X107366479Y-36302932D01*
X107364277Y-36278000D01*
X107362924Y-36261258D01*
X107361755Y-36245624D01*
X107360743Y-36230527D01*
X107359857Y-36215400D01*
X107359069Y-36199673D01*
X107358351Y-36182779D01*
X107357672Y-36164148D01*
X107357005Y-36143212D01*
X107356454Y-36124217D01*
X107355659Y-36036681D01*
X107358173Y-35948742D01*
X107363615Y-35866154D01*
X108044009Y-35866154D01*
X108044391Y-35883371D01*
X108045349Y-35899287D01*
X108046890Y-35912998D01*
X108047252Y-35915296D01*
X108054555Y-35949319D01*
X108064845Y-35982010D01*
X108078001Y-36013218D01*
X108093903Y-36042796D01*
X108112432Y-36070595D01*
X108133466Y-36096467D01*
X108156886Y-36120263D01*
X108182570Y-36141834D01*
X108210400Y-36161032D01*
X108240254Y-36177708D01*
X108270598Y-36191164D01*
X108288492Y-36197435D01*
X108308491Y-36203178D01*
X108329373Y-36208065D01*
X108343365Y-36210717D01*
X108346006Y-36211134D01*
X108348908Y-36211513D01*
X108352245Y-36211855D01*
X108356190Y-36212165D01*
X108360917Y-36212444D01*
X108366599Y-36212695D01*
X108373411Y-36212921D01*
X108381525Y-36213124D01*
X108391116Y-36213308D01*
X108402356Y-36213474D01*
X108415420Y-36213626D01*
X108430480Y-36213765D01*
X108447712Y-36213896D01*
X108467287Y-36214020D01*
X108489380Y-36214140D01*
X108514165Y-36214259D01*
X108541814Y-36214380D01*
X108572502Y-36214504D01*
X108595833Y-36214595D01*
X108628921Y-36214719D01*
X108658845Y-36214827D01*
X108685771Y-36214928D01*
X108709868Y-36215028D01*
X108731303Y-36215136D01*
X108750245Y-36215259D01*
X108766862Y-36215405D01*
X108781322Y-36215582D01*
X108793792Y-36215796D01*
X108804441Y-36216056D01*
X108813437Y-36216370D01*
X108820947Y-36216744D01*
X108827141Y-36217186D01*
X108832184Y-36217705D01*
X108836247Y-36218307D01*
X108839496Y-36219001D01*
X108842100Y-36219793D01*
X108844226Y-36220692D01*
X108846043Y-36221705D01*
X108847719Y-36222840D01*
X108849421Y-36224104D01*
X108851318Y-36225505D01*
X108852326Y-36226213D01*
X108860770Y-36233112D01*
X108867523Y-36241316D01*
X108873394Y-36251815D01*
X108873657Y-36252372D01*
X108876465Y-36259154D01*
X108877950Y-36265350D01*
X108878485Y-36272683D01*
X108878514Y-36274926D01*
X108878352Y-36283818D01*
X108877558Y-36290682D01*
X108875837Y-36296806D01*
X108872891Y-36303480D01*
X108871148Y-36306888D01*
X108864148Y-36317116D01*
X108854825Y-36326185D01*
X108844180Y-36333186D01*
X108840000Y-36335115D01*
X108830833Y-36338833D01*
X108499166Y-36339719D01*
X108167500Y-36340605D01*
X108155229Y-36344184D01*
X108133787Y-36352030D01*
X108114323Y-36362379D01*
X108096992Y-36375026D01*
X108081950Y-36389770D01*
X108069354Y-36406408D01*
X108059359Y-36424736D01*
X108052122Y-36444553D01*
X108047799Y-36465654D01*
X108046527Y-36485499D01*
X108048128Y-36507596D01*
X108052843Y-36528705D01*
X108060542Y-36548606D01*
X108071097Y-36567078D01*
X108084378Y-36583901D01*
X108100254Y-36598853D01*
X108118597Y-36611714D01*
X108121666Y-36613514D01*
X108128134Y-36616665D01*
X108136784Y-36620133D01*
X108146536Y-36623552D01*
X108156311Y-36626555D01*
X108165029Y-36628774D01*
X108168522Y-36629452D01*
X108171102Y-36629607D01*
X108176860Y-36629759D01*
X108185644Y-36629906D01*
X108197297Y-36630050D01*
X108211667Y-36630188D01*
X108228598Y-36630320D01*
X108247936Y-36630445D01*
X108269527Y-36630562D01*
X108293217Y-36630671D01*
X108318850Y-36630771D01*
X108346274Y-36630861D01*
X108375333Y-36630940D01*
X108405872Y-36631008D01*
X108437739Y-36631064D01*
X108470778Y-36631107D01*
X108504834Y-36631136D01*
X108508383Y-36631138D01*
X108548101Y-36631159D01*
X108584628Y-36631172D01*
X108618105Y-36631177D01*
X108648672Y-36631173D01*
X108676471Y-36631158D01*
X108701644Y-36631132D01*
X108724331Y-36631094D01*
X108744675Y-36631042D01*
X108762817Y-36630977D01*
X108778897Y-36630896D01*
X108793058Y-36630799D01*
X108805441Y-36630686D01*
X108816187Y-36630554D01*
X108825437Y-36630404D01*
X108833333Y-36630233D01*
X108840016Y-36630042D01*
X108845628Y-36629829D01*
X108850310Y-36629594D01*
X108854204Y-36629335D01*
X108857450Y-36629051D01*
X108859889Y-36628780D01*
X108893965Y-36622917D01*
X108926929Y-36613920D01*
X108958700Y-36601825D01*
X108989198Y-36586668D01*
X109018343Y-36568484D01*
X109046053Y-36547310D01*
X109049463Y-36544411D01*
X109072307Y-36522667D01*
X109093335Y-36498440D01*
X109112299Y-36472150D01*
X109128950Y-36444218D01*
X109143042Y-36415065D01*
X109154324Y-36385112D01*
X109162551Y-36354779D01*
X109163266Y-36351400D01*
X109168780Y-36316755D01*
X109171041Y-36282444D01*
X109170074Y-36248597D01*
X109165903Y-36215348D01*
X109158553Y-36182828D01*
X109148049Y-36151169D01*
X109134417Y-36120504D01*
X109117681Y-36090965D01*
X109112681Y-36083272D01*
X109094800Y-36058695D01*
X109075112Y-36035635D01*
X109054218Y-36014753D01*
X109054041Y-36014601D01*
X109296668Y-36014601D01*
X109296669Y-36059516D01*
X109296669Y-36065905D01*
X109296679Y-36115806D01*
X109296702Y-36162882D01*
X109296737Y-36207101D01*
X109296785Y-36248429D01*
X109296846Y-36286833D01*
X109296918Y-36322280D01*
X109297003Y-36354737D01*
X109297100Y-36384171D01*
X109297209Y-36410548D01*
X109297330Y-36433836D01*
X109297463Y-36454000D01*
X109297607Y-36471009D01*
X109297762Y-36484829D01*
X109297929Y-36495427D01*
X109298107Y-36502769D01*
X109298296Y-36506823D01*
X109298365Y-36507462D01*
X109303498Y-36529197D01*
X109311608Y-36549432D01*
X109322683Y-36568149D01*
X109336715Y-36585328D01*
X109343315Y-36591918D01*
X109358618Y-36604767D01*
X109374478Y-36614751D01*
X109391726Y-36622329D01*
X109406666Y-36626861D01*
X109413464Y-36628555D01*
X109418856Y-36629713D01*
X109423735Y-36630417D01*
X109428991Y-36630745D01*
X109435517Y-36630777D01*
X109444204Y-36630592D01*
X109447500Y-36630502D01*
X109460466Y-36629865D01*
X109470760Y-36628705D01*
X109479011Y-36626948D01*
X109480000Y-36626662D01*
X109496368Y-36621128D01*
X109510343Y-36614871D01*
X109522860Y-36607365D01*
X109534853Y-36598083D01*
X109541684Y-36591918D01*
X109555749Y-36576940D01*
X109567154Y-36560871D01*
X109576302Y-36543057D01*
X109582886Y-36525160D01*
X109587469Y-36510500D01*
X109587961Y-36362623D01*
X109588117Y-36315500D01*
X110547500Y-36315500D01*
X110551396Y-36337067D01*
X110559001Y-36370868D01*
X110569313Y-36402851D01*
X110582436Y-36433280D01*
X110598472Y-36462419D01*
X110603712Y-36470711D01*
X110623385Y-36497962D01*
X110645474Y-36523103D01*
X110669750Y-36545989D01*
X110695986Y-36566477D01*
X110723953Y-36584421D01*
X110753421Y-36599679D01*
X110784164Y-36612106D01*
X110815951Y-36621557D01*
X110848555Y-36627890D01*
X110854166Y-36628646D01*
X110858172Y-36628940D01*
X110865272Y-36629217D01*
X110875269Y-36629478D01*
X110887966Y-36629722D01*
X110903167Y-36629950D01*
X110920676Y-36630161D01*
X110940297Y-36630354D01*
X110961832Y-36630531D01*
X110985086Y-36630691D01*
X111009862Y-36630833D01*
X111035963Y-36630959D01*
X111063193Y-36631067D01*
X111091356Y-36631157D01*
X111120255Y-36631230D01*
X111149694Y-36631285D01*
X111179477Y-36631323D01*
X111209406Y-36631343D01*
X111239286Y-36631345D01*
X111268920Y-36631329D01*
X111298111Y-36631295D01*
X111326664Y-36631243D01*
X111354381Y-36631172D01*
X111381067Y-36631084D01*
X111406524Y-36630977D01*
X111430557Y-36630851D01*
X111452969Y-36630707D01*
X111473564Y-36630544D01*
X111492144Y-36630362D01*
X111508515Y-36630162D01*
X111522478Y-36629943D01*
X111533839Y-36629704D01*
X111542399Y-36629447D01*
X111547964Y-36629170D01*
X111550000Y-36628960D01*
X111571694Y-36623433D01*
X111591771Y-36615069D01*
X111610051Y-36604039D01*
X111626355Y-36590514D01*
X111640503Y-36574663D01*
X111652318Y-36556657D01*
X111661620Y-36536666D01*
X111667739Y-36516938D01*
X111669563Y-36506090D01*
X111670456Y-36493223D01*
X111670434Y-36479511D01*
X111669514Y-36466130D01*
X111667711Y-36454257D01*
X111666828Y-36450500D01*
X111659527Y-36429154D01*
X111649482Y-36409596D01*
X111636867Y-36392001D01*
X111621855Y-36376548D01*
X111604620Y-36363411D01*
X111585337Y-36352769D01*
X111564179Y-36344796D01*
X111562132Y-36344199D01*
X111549166Y-36340511D01*
X111217500Y-36339672D01*
X111178261Y-36339571D01*
X111142218Y-36339475D01*
X111109231Y-36339382D01*
X111079162Y-36339290D01*
X111051874Y-36339199D01*
X111027228Y-36339106D01*
X111005084Y-36339010D01*
X110985306Y-36338909D01*
X110967755Y-36338803D01*
X110952292Y-36338689D01*
X110938779Y-36338566D01*
X110927078Y-36338432D01*
X110917051Y-36338286D01*
X110908558Y-36338127D01*
X110901463Y-36337953D01*
X110895626Y-36337762D01*
X110890909Y-36337553D01*
X110887174Y-36337325D01*
X110884283Y-36337075D01*
X110882097Y-36336803D01*
X110880478Y-36336507D01*
X110879288Y-36336186D01*
X110878731Y-36335984D01*
X110865682Y-36329056D01*
X110854773Y-36319589D01*
X110845966Y-36307543D01*
X110842707Y-36301333D01*
X110839166Y-36293833D01*
X110838333Y-35960500D01*
X110837500Y-35627166D01*
X110832896Y-35612487D01*
X110824809Y-35591452D01*
X110814375Y-35572642D01*
X110801396Y-35555732D01*
X110792379Y-35546435D01*
X110775702Y-35532813D01*
X110757392Y-35521914D01*
X110737817Y-35513844D01*
X110717345Y-35508709D01*
X110696345Y-35506615D01*
X110675185Y-35507670D01*
X110664166Y-35509512D01*
X110642999Y-35515369D01*
X110623858Y-35523740D01*
X110606384Y-35534809D01*
X110592620Y-35546435D01*
X110578031Y-35562367D01*
X110566106Y-35580006D01*
X110556646Y-35599678D01*
X110552103Y-35612487D01*
X110547500Y-35627166D01*
X110547500Y-35971333D01*
X110547500Y-36315500D01*
X109588117Y-36315500D01*
X109588452Y-36214747D01*
X109847142Y-36214240D01*
X109882261Y-36214173D01*
X109914216Y-36214113D01*
X109943181Y-36214053D01*
X109969325Y-36213987D01*
X109992820Y-36213910D01*
X110013836Y-36213814D01*
X110032545Y-36213694D01*
X110049118Y-36213544D01*
X110063725Y-36213357D01*
X110076538Y-36213127D01*
X110087727Y-36212848D01*
X110097464Y-36212513D01*
X110105920Y-36212118D01*
X110113265Y-36211654D01*
X110119670Y-36211117D01*
X110125307Y-36210500D01*
X110130347Y-36209797D01*
X110134960Y-36209001D01*
X110139317Y-36208107D01*
X110143590Y-36207109D01*
X110147950Y-36205999D01*
X110152567Y-36204772D01*
X110157612Y-36203422D01*
X110159391Y-36202951D01*
X110192223Y-36192601D01*
X110223577Y-36179295D01*
X110253323Y-36163127D01*
X110281333Y-36144189D01*
X110307476Y-36122574D01*
X110331624Y-36098376D01*
X110353647Y-36071687D01*
X110365494Y-36054955D01*
X110373427Y-36042090D01*
X110381660Y-36026974D01*
X110389714Y-36010598D01*
X110397114Y-35993953D01*
X110403382Y-35978030D01*
X110405717Y-35971333D01*
X110414392Y-35940091D01*
X110420132Y-35907720D01*
X110422918Y-35874711D01*
X110422731Y-35841550D01*
X110419552Y-35808728D01*
X110413423Y-35776986D01*
X110403751Y-35744262D01*
X110391151Y-35712965D01*
X110375777Y-35683252D01*
X110357783Y-35655281D01*
X110337323Y-35629207D01*
X110314552Y-35605189D01*
X110289623Y-35583384D01*
X110262690Y-35563948D01*
X110233907Y-35547038D01*
X110203429Y-35532812D01*
X110171409Y-35521427D01*
X110159514Y-35518048D01*
X110154937Y-35516810D01*
X110150813Y-35515669D01*
X110146997Y-35514622D01*
X110143347Y-35513663D01*
X110139716Y-35512790D01*
X110135962Y-35511999D01*
X110131939Y-35511284D01*
X110127505Y-35510643D01*
X110122513Y-35510072D01*
X110116821Y-35509566D01*
X110110284Y-35509122D01*
X110102757Y-35508735D01*
X110094098Y-35508403D01*
X110084160Y-35508119D01*
X110072801Y-35507882D01*
X110059875Y-35507687D01*
X110045240Y-35507529D01*
X110028749Y-35507405D01*
X110010260Y-35507311D01*
X109989628Y-35507244D01*
X109966709Y-35507198D01*
X109941358Y-35507170D01*
X109913432Y-35507157D01*
X109882786Y-35507154D01*
X109849276Y-35507157D01*
X109812757Y-35507162D01*
X109773086Y-35507166D01*
X109762500Y-35507166D01*
X109417500Y-35507166D01*
X109404413Y-35510958D01*
X109383539Y-35518637D01*
X109364359Y-35528973D01*
X109347096Y-35541732D01*
X109331971Y-35556676D01*
X109319208Y-35573572D01*
X109309028Y-35592183D01*
X109301654Y-35612274D01*
X109299158Y-35622460D01*
X109298894Y-35624034D01*
X109298648Y-35626179D01*
X109298421Y-35629014D01*
X109298211Y-35632660D01*
X109298018Y-35637235D01*
X109297841Y-35642859D01*
X109297679Y-35649651D01*
X109297533Y-35657730D01*
X109297401Y-35667216D01*
X109297282Y-35678229D01*
X109297177Y-35690887D01*
X109297083Y-35705310D01*
X109297001Y-35721617D01*
X109296930Y-35739929D01*
X109296869Y-35760363D01*
X109296818Y-35783041D01*
X109296775Y-35808080D01*
X109296741Y-35835600D01*
X109296714Y-35865721D01*
X109296694Y-35898562D01*
X109296680Y-35934243D01*
X109296672Y-35972883D01*
X109296668Y-36014601D01*
X109054041Y-36014601D01*
X109038333Y-36001093D01*
X109015135Y-35984204D01*
X108989700Y-35968747D01*
X108962839Y-35955125D01*
X108935368Y-35943746D01*
X108908098Y-35935014D01*
X108903333Y-35933770D01*
X108898122Y-35932444D01*
X108893413Y-35931244D01*
X108889025Y-35930163D01*
X108884778Y-35929193D01*
X108880490Y-35928329D01*
X108875981Y-35927562D01*
X108871070Y-35926887D01*
X108865575Y-35926297D01*
X108859316Y-35925784D01*
X108852112Y-35925342D01*
X108843782Y-35924965D01*
X108834145Y-35924644D01*
X108823020Y-35924374D01*
X108810226Y-35924148D01*
X108795583Y-35923959D01*
X108778909Y-35923800D01*
X108760024Y-35923664D01*
X108738747Y-35923544D01*
X108714896Y-35923435D01*
X108688292Y-35923328D01*
X108658752Y-35923217D01*
X108626096Y-35923095D01*
X108619130Y-35923068D01*
X108382426Y-35922166D01*
X108371455Y-35916764D01*
X108359634Y-35909206D01*
X108349441Y-35899229D01*
X108341608Y-35887582D01*
X108340348Y-35885030D01*
X108336989Y-35874446D01*
X108335700Y-35862403D01*
X108336493Y-35850063D01*
X108339384Y-35838592D01*
X108339769Y-35837588D01*
X108345726Y-35826631D01*
X108354261Y-35816557D01*
X108364618Y-35808164D01*
X108371344Y-35804290D01*
X108382428Y-35798833D01*
X108715797Y-35797945D01*
X108754986Y-35797840D01*
X108790982Y-35797742D01*
X108823926Y-35797650D01*
X108853960Y-35797560D01*
X108881224Y-35797473D01*
X108905859Y-35797385D01*
X108928006Y-35797295D01*
X108947806Y-35797201D01*
X108965400Y-35797102D01*
X108980928Y-35796995D01*
X108994531Y-35796879D01*
X109006351Y-35796753D01*
X109016527Y-35796614D01*
X109025202Y-35796460D01*
X109032516Y-35796290D01*
X109038610Y-35796102D01*
X109043624Y-35795895D01*
X109047699Y-35795666D01*
X109050977Y-35795413D01*
X109053599Y-35795136D01*
X109055704Y-35794831D01*
X109057435Y-35794498D01*
X109058931Y-35794135D01*
X109060334Y-35793739D01*
X109060833Y-35793592D01*
X109082502Y-35785785D01*
X109101928Y-35775945D01*
X109118833Y-35764219D01*
X109122431Y-35761186D01*
X109129824Y-35753790D01*
X109137740Y-35744310D01*
X109145426Y-35733744D01*
X109152128Y-35723088D01*
X109154517Y-35718731D01*
X109162848Y-35699232D01*
X109168197Y-35678777D01*
X109170552Y-35657810D01*
X109169905Y-35636776D01*
X109166244Y-35616119D01*
X109159559Y-35596285D01*
X109157472Y-35591629D01*
X109146591Y-35571990D01*
X109133642Y-35554932D01*
X109118490Y-35540330D01*
X109101003Y-35528055D01*
X109081044Y-35517983D01*
X109078333Y-35516857D01*
X109075668Y-35515749D01*
X109073264Y-35514728D01*
X109070983Y-35513791D01*
X109068684Y-35512935D01*
X109066227Y-35512155D01*
X109063472Y-35511449D01*
X109060281Y-35510813D01*
X109056512Y-35510242D01*
X109052025Y-35509734D01*
X109046682Y-35509285D01*
X109040342Y-35508891D01*
X109032866Y-35508548D01*
X109024112Y-35508254D01*
X109013943Y-35508004D01*
X109002217Y-35507795D01*
X108988795Y-35507624D01*
X108973538Y-35507486D01*
X108956304Y-35507378D01*
X108936955Y-35507296D01*
X108915350Y-35507238D01*
X108891350Y-35507199D01*
X108864815Y-35507175D01*
X108835604Y-35507163D01*
X108803579Y-35507160D01*
X108768599Y-35507162D01*
X108730525Y-35507165D01*
X108701666Y-35507166D01*
X108359166Y-35507166D01*
X108339166Y-35510950D01*
X108313582Y-35516480D01*
X108290176Y-35523080D01*
X108267867Y-35531109D01*
X108245577Y-35540927D01*
X108237897Y-35544694D01*
X108208120Y-35561466D01*
X108180431Y-35580773D01*
X108154937Y-35602470D01*
X108131745Y-35626409D01*
X108110964Y-35652447D01*
X108092701Y-35680435D01*
X108077064Y-35710229D01*
X108064160Y-35741682D01*
X108054096Y-35774649D01*
X108048107Y-35802326D01*
X108046252Y-35815721D01*
X108044946Y-35831426D01*
X108044197Y-35848538D01*
X108044009Y-35866154D01*
X107363615Y-35866154D01*
X107363994Y-35860407D01*
X107370166Y-35797166D01*
X107381914Y-35706091D01*
X107396887Y-35615830D01*
X107415065Y-35526439D01*
X107436428Y-35437973D01*
X107460957Y-35350488D01*
X107488630Y-35264040D01*
X107519428Y-35178682D01*
X107553331Y-35094472D01*
X107590318Y-35011464D01*
X107630369Y-34929713D01*
X107673464Y-34849275D01*
X107719583Y-34770206D01*
X107768706Y-34692560D01*
X107777247Y-34679666D01*
X107828216Y-34606197D01*
X107882015Y-34534394D01*
X107938493Y-34464428D01*
X107997500Y-34396470D01*
X108058888Y-34330691D01*
X108122507Y-34267262D01*
X108188207Y-34206353D01*
X108205251Y-34191266D01*
X108275542Y-34131825D01*
X108347626Y-34075182D01*
X108421458Y-34021362D01*
X108496996Y-33970389D01*
X108574194Y-33922287D01*
X108653008Y-33877082D01*
X108733393Y-33834797D01*
X108815306Y-33795458D01*
X108898703Y-33759088D01*
X108983538Y-33725712D01*
X109069768Y-33695355D01*
X109142500Y-33672429D01*
X109220549Y-33650595D01*
X109300460Y-33631134D01*
X109381646Y-33614153D01*
X109463523Y-33599760D01*
X109545508Y-33588063D01*
X109627015Y-33579167D01*
X109670000Y-33575613D01*
X109733243Y-33571835D01*
X109797909Y-33569623D01*
X109863090Y-33568977D01*
X109927881Y-33569897D01*
G37*
X104027000Y-68081000D02*
X104027000Y-72381000D01*
X104027000Y-68081000D02*
X109837000Y-68081000D01*
X104027000Y-72381000D02*
X109837000Y-72381000D01*
X102898000Y-43502000D02*
X106398000Y-43502000D01*
X106398000Y-43502000D02*
X106398000Y-39302000D01*
X106713721Y-59815000D02*
X107039279Y-59815000D01*
X106713721Y-60835000D02*
X107039279Y-60835000D01*
X109954500Y-63281779D02*
X109954500Y-62956221D01*
X110974500Y-63281779D02*
X110974500Y-62956221D01*
X100167221Y-67943000D02*
X100492779Y-67943000D01*
X100167221Y-68963000D02*
X100492779Y-68963000D01*
X106690279Y-38737000D02*
X106364721Y-38737000D01*
X106690279Y-37717000D02*
X106364721Y-37717000D01*
X99185000Y-43596779D02*
X99185000Y-43271221D01*
X100205000Y-43596779D02*
X100205000Y-43271221D01*
X100167221Y-70991000D02*
X100492779Y-70991000D01*
X100167221Y-72011000D02*
X100492779Y-72011000D01*
X107859000Y-53864500D02*
X107859000Y-52104500D01*
X104789000Y-52104500D02*
X104789000Y-54534500D01*
X110873000Y-50383221D02*
X110873000Y-50708779D01*
X109853000Y-50383221D02*
X109853000Y-50708779D01*
X103503000Y-48930779D02*
X103503000Y-48605221D01*
X104523000Y-48930779D02*
X104523000Y-48605221D01*
X110869000Y-44612779D02*
X110869000Y-44287221D01*
X111889000Y-44612779D02*
X111889000Y-44287221D01*
X112240000Y-83820000D02*
G75*
G03*
X112240000Y-83820000I-1750000J0D01*
G01*
X106225000Y-83820000D02*
G75*
G03*
X106225000Y-83820000I-1450000J0D01*
G01*
X106721000Y-40121000D02*
X106721000Y-41921000D01*
X109941000Y-41921000D02*
X109941000Y-39471000D01*
X110365000Y-44287221D02*
X110365000Y-44612779D01*
X109345000Y-44287221D02*
X109345000Y-44612779D01*
X100167221Y-74039000D02*
X100492779Y-74039000D01*
X100167221Y-75059000D02*
X100492779Y-75059000D01*
X106225000Y-35560000D02*
G75*
G03*
X106225000Y-35560000I-1450000J0D01*
G01*
X110779779Y-47246000D02*
X110454221Y-47246000D01*
X110779779Y-46226000D02*
X110454221Y-46226000D01*
X106136221Y-47902500D02*
X106461779Y-47902500D01*
X106136221Y-48922500D02*
X106461779Y-48922500D01*
M02*
