%TF.GenerationSoftware,KiCad,Pcbnew,7.0.6*%
%TF.CreationDate,2023-12-10T23:03:21+01:00*%
%TF.ProjectId,dc_64d,64635f36-3464-42e6-9b69-6361645f7063,0.1*%
%TF.SameCoordinates,Original*%
%TF.FileFunction,AssemblyDrawing,Bot*%
%FSLAX46Y46*%
G04 Gerber Fmt 4.6, Leading zero omitted, Abs format (unit mm)*
G04 Created by KiCad (PCBNEW 7.0.6) date 2023-12-10 23:03:21*
%MOMM*%
%LPD*%
G01*
G04 APERTURE LIST*
%ADD10C,0.150000*%
%ADD11C,0.100000*%
G04 APERTURE END LIST*
D10*
X107342858Y-42709580D02*
X107390477Y-42757200D01*
X107390477Y-42757200D02*
X107533334Y-42804819D01*
X107533334Y-42804819D02*
X107628572Y-42804819D01*
X107628572Y-42804819D02*
X107771429Y-42757200D01*
X107771429Y-42757200D02*
X107866667Y-42661961D01*
X107866667Y-42661961D02*
X107914286Y-42566723D01*
X107914286Y-42566723D02*
X107961905Y-42376247D01*
X107961905Y-42376247D02*
X107961905Y-42233390D01*
X107961905Y-42233390D02*
X107914286Y-42042914D01*
X107914286Y-42042914D02*
X107866667Y-41947676D01*
X107866667Y-41947676D02*
X107771429Y-41852438D01*
X107771429Y-41852438D02*
X107628572Y-41804819D01*
X107628572Y-41804819D02*
X107533334Y-41804819D01*
X107533334Y-41804819D02*
X107390477Y-41852438D01*
X107390477Y-41852438D02*
X107342858Y-41900057D01*
X106771429Y-42804819D02*
X106866667Y-42757200D01*
X106866667Y-42757200D02*
X106914286Y-42709580D01*
X106914286Y-42709580D02*
X106961905Y-42614342D01*
X106961905Y-42614342D02*
X106961905Y-42328628D01*
X106961905Y-42328628D02*
X106914286Y-42233390D01*
X106914286Y-42233390D02*
X106866667Y-42185771D01*
X106866667Y-42185771D02*
X106771429Y-42138152D01*
X106771429Y-42138152D02*
X106628572Y-42138152D01*
X106628572Y-42138152D02*
X106533334Y-42185771D01*
X106533334Y-42185771D02*
X106485715Y-42233390D01*
X106485715Y-42233390D02*
X106438096Y-42328628D01*
X106438096Y-42328628D02*
X106438096Y-42614342D01*
X106438096Y-42614342D02*
X106485715Y-42709580D01*
X106485715Y-42709580D02*
X106533334Y-42757200D01*
X106533334Y-42757200D02*
X106628572Y-42804819D01*
X106628572Y-42804819D02*
X106771429Y-42804819D01*
X106009524Y-42138152D02*
X106009524Y-42804819D01*
X106009524Y-42233390D02*
X105961905Y-42185771D01*
X105961905Y-42185771D02*
X105866667Y-42138152D01*
X105866667Y-42138152D02*
X105723810Y-42138152D01*
X105723810Y-42138152D02*
X105628572Y-42185771D01*
X105628572Y-42185771D02*
X105580953Y-42281009D01*
X105580953Y-42281009D02*
X105580953Y-42804819D01*
X105104762Y-42138152D02*
X105104762Y-42804819D01*
X105104762Y-42233390D02*
X105057143Y-42185771D01*
X105057143Y-42185771D02*
X104961905Y-42138152D01*
X104961905Y-42138152D02*
X104819048Y-42138152D01*
X104819048Y-42138152D02*
X104723810Y-42185771D01*
X104723810Y-42185771D02*
X104676191Y-42281009D01*
X104676191Y-42281009D02*
X104676191Y-42804819D01*
X104438096Y-42900057D02*
X103676191Y-42900057D01*
X103247619Y-41804819D02*
X103152381Y-41804819D01*
X103152381Y-41804819D02*
X103057143Y-41852438D01*
X103057143Y-41852438D02*
X103009524Y-41900057D01*
X103009524Y-41900057D02*
X102961905Y-41995295D01*
X102961905Y-41995295D02*
X102914286Y-42185771D01*
X102914286Y-42185771D02*
X102914286Y-42423866D01*
X102914286Y-42423866D02*
X102961905Y-42614342D01*
X102961905Y-42614342D02*
X103009524Y-42709580D01*
X103009524Y-42709580D02*
X103057143Y-42757200D01*
X103057143Y-42757200D02*
X103152381Y-42804819D01*
X103152381Y-42804819D02*
X103247619Y-42804819D01*
X103247619Y-42804819D02*
X103342857Y-42757200D01*
X103342857Y-42757200D02*
X103390476Y-42709580D01*
X103390476Y-42709580D02*
X103438095Y-42614342D01*
X103438095Y-42614342D02*
X103485714Y-42423866D01*
X103485714Y-42423866D02*
X103485714Y-42185771D01*
X103485714Y-42185771D02*
X103438095Y-41995295D01*
X103438095Y-41995295D02*
X103390476Y-41900057D01*
X103390476Y-41900057D02*
X103342857Y-41852438D01*
X103342857Y-41852438D02*
X103247619Y-41804819D01*
X102533333Y-41900057D02*
X102485714Y-41852438D01*
X102485714Y-41852438D02*
X102390476Y-41804819D01*
X102390476Y-41804819D02*
X102152381Y-41804819D01*
X102152381Y-41804819D02*
X102057143Y-41852438D01*
X102057143Y-41852438D02*
X102009524Y-41900057D01*
X102009524Y-41900057D02*
X101961905Y-41995295D01*
X101961905Y-41995295D02*
X101961905Y-42090533D01*
X101961905Y-42090533D02*
X102009524Y-42233390D01*
X102009524Y-42233390D02*
X102580952Y-42804819D01*
X102580952Y-42804819D02*
X101961905Y-42804819D01*
X101628571Y-42804819D02*
X101104762Y-42138152D01*
X101628571Y-42138152D02*
X101104762Y-42804819D01*
X100533333Y-41804819D02*
X100438095Y-41804819D01*
X100438095Y-41804819D02*
X100342857Y-41852438D01*
X100342857Y-41852438D02*
X100295238Y-41900057D01*
X100295238Y-41900057D02*
X100247619Y-41995295D01*
X100247619Y-41995295D02*
X100200000Y-42185771D01*
X100200000Y-42185771D02*
X100200000Y-42423866D01*
X100200000Y-42423866D02*
X100247619Y-42614342D01*
X100247619Y-42614342D02*
X100295238Y-42709580D01*
X100295238Y-42709580D02*
X100342857Y-42757200D01*
X100342857Y-42757200D02*
X100438095Y-42804819D01*
X100438095Y-42804819D02*
X100533333Y-42804819D01*
X100533333Y-42804819D02*
X100628571Y-42757200D01*
X100628571Y-42757200D02*
X100676190Y-42709580D01*
X100676190Y-42709580D02*
X100723809Y-42614342D01*
X100723809Y-42614342D02*
X100771428Y-42423866D01*
X100771428Y-42423866D02*
X100771428Y-42185771D01*
X100771428Y-42185771D02*
X100723809Y-41995295D01*
X100723809Y-41995295D02*
X100676190Y-41900057D01*
X100676190Y-41900057D02*
X100628571Y-41852438D01*
X100628571Y-41852438D02*
X100533333Y-41804819D01*
X99866666Y-41804819D02*
X99247619Y-41804819D01*
X99247619Y-41804819D02*
X99580952Y-42185771D01*
X99580952Y-42185771D02*
X99438095Y-42185771D01*
X99438095Y-42185771D02*
X99342857Y-42233390D01*
X99342857Y-42233390D02*
X99295238Y-42281009D01*
X99295238Y-42281009D02*
X99247619Y-42376247D01*
X99247619Y-42376247D02*
X99247619Y-42614342D01*
X99247619Y-42614342D02*
X99295238Y-42709580D01*
X99295238Y-42709580D02*
X99342857Y-42757200D01*
X99342857Y-42757200D02*
X99438095Y-42804819D01*
X99438095Y-42804819D02*
X99723809Y-42804819D01*
X99723809Y-42804819D02*
X99819047Y-42757200D01*
X99819047Y-42757200D02*
X99866666Y-42709580D01*
X99057143Y-42900057D02*
X98295238Y-42900057D01*
X97866666Y-41804819D02*
X97676190Y-41804819D01*
X97676190Y-41804819D02*
X97580952Y-41852438D01*
X97580952Y-41852438D02*
X97485714Y-41947676D01*
X97485714Y-41947676D02*
X97438095Y-42138152D01*
X97438095Y-42138152D02*
X97438095Y-42471485D01*
X97438095Y-42471485D02*
X97485714Y-42661961D01*
X97485714Y-42661961D02*
X97580952Y-42757200D01*
X97580952Y-42757200D02*
X97676190Y-42804819D01*
X97676190Y-42804819D02*
X97866666Y-42804819D01*
X97866666Y-42804819D02*
X97961904Y-42757200D01*
X97961904Y-42757200D02*
X98057142Y-42661961D01*
X98057142Y-42661961D02*
X98104761Y-42471485D01*
X98104761Y-42471485D02*
X98104761Y-42138152D01*
X98104761Y-42138152D02*
X98057142Y-41947676D01*
X98057142Y-41947676D02*
X97961904Y-41852438D01*
X97961904Y-41852438D02*
X97866666Y-41804819D01*
X96580952Y-42804819D02*
X96580952Y-41804819D01*
X96580952Y-42757200D02*
X96676190Y-42804819D01*
X96676190Y-42804819D02*
X96866666Y-42804819D01*
X96866666Y-42804819D02*
X96961904Y-42757200D01*
X96961904Y-42757200D02*
X97009523Y-42709580D01*
X97009523Y-42709580D02*
X97057142Y-42614342D01*
X97057142Y-42614342D02*
X97057142Y-42328628D01*
X97057142Y-42328628D02*
X97009523Y-42233390D01*
X97009523Y-42233390D02*
X96961904Y-42185771D01*
X96961904Y-42185771D02*
X96866666Y-42138152D01*
X96866666Y-42138152D02*
X96676190Y-42138152D01*
X96676190Y-42138152D02*
X96580952Y-42185771D01*
X95676190Y-42804819D02*
X95676190Y-41804819D01*
X95676190Y-42757200D02*
X95771428Y-42804819D01*
X95771428Y-42804819D02*
X95961904Y-42804819D01*
X95961904Y-42804819D02*
X96057142Y-42757200D01*
X96057142Y-42757200D02*
X96104761Y-42709580D01*
X96104761Y-42709580D02*
X96152380Y-42614342D01*
X96152380Y-42614342D02*
X96152380Y-42328628D01*
X96152380Y-42328628D02*
X96104761Y-42233390D01*
X96104761Y-42233390D02*
X96057142Y-42185771D01*
X96057142Y-42185771D02*
X95961904Y-42138152D01*
X95961904Y-42138152D02*
X95771428Y-42138152D01*
X95771428Y-42138152D02*
X95676190Y-42185771D01*
X95438095Y-42900057D02*
X94676190Y-42900057D01*
X94438094Y-42281009D02*
X94104761Y-42281009D01*
X93961904Y-42804819D02*
X94438094Y-42804819D01*
X94438094Y-42804819D02*
X94438094Y-41804819D01*
X94438094Y-41804819D02*
X93961904Y-41804819D01*
X93628570Y-42138152D02*
X93390475Y-42804819D01*
X93390475Y-42804819D02*
X93152380Y-42138152D01*
X92390475Y-42757200D02*
X92485713Y-42804819D01*
X92485713Y-42804819D02*
X92676189Y-42804819D01*
X92676189Y-42804819D02*
X92771427Y-42757200D01*
X92771427Y-42757200D02*
X92819046Y-42661961D01*
X92819046Y-42661961D02*
X92819046Y-42281009D01*
X92819046Y-42281009D02*
X92771427Y-42185771D01*
X92771427Y-42185771D02*
X92676189Y-42138152D01*
X92676189Y-42138152D02*
X92485713Y-42138152D01*
X92485713Y-42138152D02*
X92390475Y-42185771D01*
X92390475Y-42185771D02*
X92342856Y-42281009D01*
X92342856Y-42281009D02*
X92342856Y-42376247D01*
X92342856Y-42376247D02*
X92819046Y-42471485D01*
X91914284Y-42138152D02*
X91914284Y-42804819D01*
X91914284Y-42233390D02*
X91866665Y-42185771D01*
X91866665Y-42185771D02*
X91771427Y-42138152D01*
X91771427Y-42138152D02*
X91628570Y-42138152D01*
X91628570Y-42138152D02*
X91533332Y-42185771D01*
X91533332Y-42185771D02*
X91485713Y-42281009D01*
X91485713Y-42281009D02*
X91485713Y-42804819D01*
X99154819Y-37146666D02*
X99869104Y-37146666D01*
X99869104Y-37146666D02*
X100011961Y-37099047D01*
X100011961Y-37099047D02*
X100107200Y-37003809D01*
X100107200Y-37003809D02*
X100154819Y-36860952D01*
X100154819Y-36860952D02*
X100154819Y-36765714D01*
X100154819Y-38146666D02*
X100154819Y-37575238D01*
X100154819Y-37860952D02*
X99154819Y-37860952D01*
X99154819Y-37860952D02*
X99297676Y-37765714D01*
X99297676Y-37765714D02*
X99392914Y-37670476D01*
X99392914Y-37670476D02*
X99440533Y-37575238D01*
D11*
X102240000Y-41290000D02*
X102240000Y-34940000D01*
X102240000Y-34940000D02*
X100970000Y-33670000D01*
X100970000Y-33670000D02*
X97160000Y-33670000D01*
X97160000Y-41290000D02*
X102240000Y-41290000D01*
X97160000Y-33670000D02*
X97160000Y-41290000D01*
M02*
