%TF.GenerationSoftware,KiCad,Pcbnew,9.0.6*%
%TF.CreationDate,2026-01-03T14:33:14+01:00*%
%TF.ProjectId,dc_64d,64635f36-3464-42e6-9b69-6361645f7063,0.1*%
%TF.SameCoordinates,Original*%
%TF.FileFunction,Copper,L1,Top*%
%TF.FilePolarity,Positive*%
%FSLAX46Y46*%
G04 Gerber Fmt 4.6, Leading zero omitted, Abs format (unit mm)*
G04 Created by KiCad (PCBNEW 9.0.6) date 2026-01-03 14:33:14*
%MOMM*%
%LPD*%
G01*
G04 APERTURE LIST*
G04 Aperture macros list*
%AMRoundRect*
0 Rectangle with rounded corners*
0 $1 Rounding radius*
0 $2 $3 $4 $5 $6 $7 $8 $9 X,Y pos of 4 corners*
0 Add a 4 corners polygon primitive as box body*
4,1,4,$2,$3,$4,$5,$6,$7,$8,$9,$2,$3,0*
0 Add four circle primitives for the rounded corners*
1,1,$1+$1,$2,$3*
1,1,$1+$1,$4,$5*
1,1,$1+$1,$6,$7*
1,1,$1+$1,$8,$9*
0 Add four rect primitives between the rounded corners*
20,1,$1+$1,$2,$3,$4,$5,0*
20,1,$1+$1,$4,$5,$6,$7,0*
20,1,$1+$1,$6,$7,$8,$9,0*
20,1,$1+$1,$8,$9,$2,$3,0*%
%AMFreePoly0*
4,1,23,0.500000,-0.750000,0.000000,-0.750000,0.000000,-0.745722,-0.065263,-0.745722,-0.191342,-0.711940,-0.304381,-0.646677,-0.396677,-0.554381,-0.461940,-0.441342,-0.495722,-0.315263,-0.495722,-0.250000,-0.500000,-0.250000,-0.500000,0.250000,-0.495722,0.250000,-0.495722,0.315263,-0.461940,0.441342,-0.396677,0.554381,-0.304381,0.646677,-0.191342,0.711940,-0.065263,0.745722,0.000000,0.745722,
0.000000,0.750000,0.500000,0.750000,0.500000,-0.750000,0.500000,-0.750000,$1*%
%AMFreePoly1*
4,1,23,0.000000,0.745722,0.065263,0.745722,0.191342,0.711940,0.304381,0.646677,0.396677,0.554381,0.461940,0.441342,0.495722,0.315263,0.495722,0.250000,0.500000,0.250000,0.500000,-0.250000,0.495722,-0.250000,0.495722,-0.315263,0.461940,-0.441342,0.396677,-0.554381,0.304381,-0.646677,0.191342,-0.711940,0.065263,-0.745722,0.000000,-0.745722,0.000000,-0.750000,-0.500000,-0.750000,
-0.500000,0.750000,0.000000,0.750000,0.000000,0.745722,0.000000,0.745722,$1*%
G04 Aperture macros list end*
%TA.AperFunction,SMDPad,CuDef*%
%ADD10RoundRect,0.218750X-0.218750X-0.256250X0.218750X-0.256250X0.218750X0.256250X-0.218750X0.256250X0*%
%TD*%
%TA.AperFunction,SMDPad,CuDef*%
%ADD11RoundRect,0.218750X-0.256250X0.218750X-0.256250X-0.218750X0.256250X-0.218750X0.256250X0.218750X0*%
%TD*%
%TA.AperFunction,SMDPad,CuDef*%
%ADD12FreePoly0,180.000000*%
%TD*%
%TA.AperFunction,SMDPad,CuDef*%
%ADD13FreePoly1,180.000000*%
%TD*%
%TA.AperFunction,SMDPad,CuDef*%
%ADD14R,1.220000X0.650000*%
%TD*%
%TA.AperFunction,SMDPad,CuDef*%
%ADD15RoundRect,0.218750X0.256250X-0.218750X0.256250X0.218750X-0.256250X0.218750X-0.256250X-0.218750X0*%
%TD*%
%TA.AperFunction,ComponentPad*%
%ADD16C,2.500000*%
%TD*%
%TA.AperFunction,SMDPad,CuDef*%
%ADD17RoundRect,0.218750X0.218750X0.256250X-0.218750X0.256250X-0.218750X-0.256250X0.218750X-0.256250X0*%
%TD*%
%TA.AperFunction,SMDPad,CuDef*%
%ADD18RoundRect,0.250000X-1.825000X-0.700000X1.825000X-0.700000X1.825000X0.700000X-1.825000X0.700000X0*%
%TD*%
%TA.AperFunction,SMDPad,CuDef*%
%ADD19R,1.600000X5.700000*%
%TD*%
%TA.AperFunction,SMDPad,CuDef*%
%ADD20R,1.000000X1.000000*%
%TD*%
%TA.AperFunction,SMDPad,CuDef*%
%ADD21R,5.700000X1.600000*%
%TD*%
%TA.AperFunction,ComponentPad*%
%ADD22C,3.000000*%
%TD*%
%TA.AperFunction,SMDPad,CuDef*%
%ADD23RoundRect,0.250000X-1.000000X-0.900000X1.000000X-0.900000X1.000000X0.900000X-1.000000X0.900000X0*%
%TD*%
%TA.AperFunction,SMDPad,CuDef*%
%ADD24R,1.400000X1.200000*%
%TD*%
%TA.AperFunction,SMDPad,CuDef*%
%ADD25R,0.650000X1.220000*%
%TD*%
%TA.AperFunction,SMDPad,CuDef*%
%ADD26R,0.650000X1.060000*%
%TD*%
%TA.AperFunction,ComponentPad*%
%ADD27R,1.700000X1.700000*%
%TD*%
%TA.AperFunction,ComponentPad*%
%ADD28O,1.700000X1.700000*%
%TD*%
%TA.AperFunction,ViaPad*%
%ADD29C,0.600000*%
%TD*%
%TA.AperFunction,Conductor*%
%ADD30C,0.400000*%
%TD*%
%TA.AperFunction,Conductor*%
%ADD31C,0.500000*%
%TD*%
%TA.AperFunction,Conductor*%
%ADD32C,0.300000*%
%TD*%
G04 APERTURE END LIST*
D10*
X106121000Y-65405000D03*
X107696000Y-65405000D03*
D11*
X110642400Y-35128100D03*
X110642400Y-36703100D03*
D12*
X100345000Y-34945000D03*
D13*
X99045000Y-34945000D03*
D10*
X99542500Y-66929000D03*
X101117500Y-66929000D03*
D14*
X106227000Y-61915000D03*
X106227000Y-62865000D03*
X106227000Y-63815000D03*
X108847000Y-63815000D03*
X108847000Y-62865000D03*
X108847000Y-61915000D03*
D15*
X109194500Y-66954500D03*
X109194500Y-65379500D03*
D10*
X109321500Y-57429500D03*
X110896500Y-57429500D03*
D16*
X104775000Y-43180000D03*
D17*
X107066500Y-49961800D03*
X105491500Y-49961800D03*
D10*
X99542500Y-69977000D03*
X101117500Y-69977000D03*
D18*
X103459000Y-76962000D03*
X110409000Y-76962000D03*
D11*
X108819000Y-49758500D03*
X108819000Y-51333500D03*
X108819000Y-52806500D03*
X108819000Y-54381500D03*
D19*
X104172000Y-62865000D03*
X99472000Y-62865000D03*
D17*
X101574700Y-49530000D03*
X99999700Y-49530000D03*
D11*
X107950000Y-42138500D03*
X107950000Y-43713500D03*
D10*
X109321500Y-55905500D03*
X110896500Y-55905500D03*
D20*
X107783000Y-56159400D03*
X105283000Y-56159400D03*
D11*
X110718500Y-65379500D03*
X110718500Y-66954500D03*
D21*
X101092000Y-51371000D03*
X101092000Y-56071000D03*
D22*
X99060000Y-78740000D03*
D11*
X110363000Y-52806500D03*
X110363000Y-54381500D03*
D10*
X106121000Y-66929000D03*
X107696000Y-66929000D03*
X109321500Y-58953500D03*
X110896500Y-58953500D03*
X99542500Y-73025000D03*
X101117500Y-73025000D03*
D23*
X105537000Y-70231000D03*
X109837000Y-70231000D03*
D24*
X103702000Y-40574000D03*
X106102000Y-40574000D03*
X106102000Y-38674000D03*
X103702000Y-38674000D03*
D10*
X106089000Y-60325000D03*
X107664000Y-60325000D03*
D15*
X110464500Y-63906500D03*
X110464500Y-62331500D03*
D10*
X99542500Y-68453000D03*
X101117500Y-68453000D03*
D17*
X109118500Y-36322000D03*
X107543500Y-36322000D03*
X101269900Y-42570400D03*
X99694900Y-42570400D03*
D10*
X99542500Y-71501000D03*
X101117500Y-71501000D03*
D25*
X105349000Y-54294500D03*
X106299000Y-54294500D03*
X107249000Y-54294500D03*
X107249000Y-51674500D03*
X105349000Y-51674500D03*
D11*
X110363000Y-49758500D03*
X110363000Y-51333500D03*
D15*
X103073200Y-49555500D03*
X103073200Y-47980500D03*
X110998000Y-43713500D03*
X110998000Y-42138500D03*
D22*
X110490000Y-83820000D03*
D16*
X104775000Y-83820000D03*
D26*
X110424000Y-38270000D03*
X109474000Y-38270000D03*
X108524000Y-38270000D03*
X108524000Y-40470000D03*
X109474000Y-40470000D03*
X110424000Y-40470000D03*
D11*
X109474000Y-42138500D03*
X109474000Y-43713500D03*
D16*
X104775000Y-45720000D03*
D10*
X99542500Y-74549000D03*
X101117500Y-74549000D03*
D16*
X104775000Y-35560000D03*
D17*
X111023500Y-45212000D03*
X109448500Y-45212000D03*
D10*
X105511500Y-48412500D03*
X107086500Y-48412500D03*
D27*
X100970000Y-34940000D03*
D28*
X98430000Y-34940000D03*
X100970000Y-37480000D03*
X98430000Y-37480000D03*
X100970000Y-40020000D03*
X98430000Y-40020000D03*
D29*
X109474000Y-37338000D03*
X106426000Y-55651500D03*
X107823000Y-76581000D03*
X112141000Y-79883000D03*
X107543500Y-62230000D03*
X102743000Y-63627000D03*
X110998000Y-48133000D03*
X97485200Y-50901600D03*
X105537000Y-52984500D03*
X112014000Y-55905500D03*
X110464500Y-61214000D03*
X102108000Y-54102000D03*
X112268000Y-51968500D03*
X101981000Y-78867000D03*
X101981000Y-66929000D03*
X101981000Y-80391000D03*
X108077000Y-45212000D03*
X102743000Y-65151000D03*
X107543500Y-62992000D03*
X108077000Y-70993000D03*
X100711000Y-75946000D03*
X101981000Y-74549000D03*
X100025200Y-48463200D03*
X107696000Y-68072000D03*
X102616000Y-37084000D03*
X101981000Y-71501000D03*
X107950000Y-80645000D03*
X107061000Y-47498000D03*
X111379000Y-49809500D03*
X101981000Y-68453000D03*
X109474000Y-46355000D03*
X102743000Y-62103000D03*
X112141000Y-43688000D03*
X98958400Y-49479200D03*
X104902000Y-40513000D03*
X101981000Y-69977000D03*
X102057200Y-48006000D03*
X108077000Y-70231000D03*
X102362000Y-45339000D03*
X107543500Y-61468000D03*
X102235000Y-41402000D03*
X104292400Y-48412400D03*
X112141000Y-71374000D03*
X111760000Y-35153600D03*
X102743000Y-60579000D03*
X106299000Y-52984500D03*
X108077000Y-69469000D03*
X97790000Y-43688000D03*
X112014000Y-39370000D03*
X112014000Y-57429500D03*
X107442000Y-37465000D03*
X112014000Y-58953500D03*
X109855000Y-48133000D03*
X102362000Y-39116000D03*
X112014000Y-55143500D03*
X108712000Y-34036000D03*
X112014000Y-58191500D03*
X103251000Y-54102000D03*
X107950000Y-85471000D03*
X108458000Y-48133000D03*
X107442000Y-40513000D03*
X112141000Y-65659000D03*
X110642400Y-33985200D03*
X112141000Y-74549000D03*
X109220000Y-68072000D03*
X112014000Y-56667500D03*
X107823000Y-75819000D03*
X103378000Y-66675000D03*
X107823000Y-77343000D03*
X107061000Y-52984500D03*
X107823000Y-78105000D03*
X98806000Y-52578000D03*
X102616000Y-52578000D03*
X101092000Y-52578000D03*
X101854000Y-52578000D03*
X100330000Y-52578000D03*
X99568000Y-52578000D03*
X103378000Y-52578000D03*
X100711000Y-62103000D03*
X100711000Y-63627000D03*
X101473000Y-63627000D03*
X100711000Y-62865000D03*
X102362000Y-72390000D03*
X101473000Y-60579000D03*
X104775000Y-38608000D03*
X100711000Y-60579000D03*
X100711000Y-64389000D03*
X109474000Y-41402000D03*
X110718500Y-67691000D03*
X101473000Y-62865000D03*
X100711000Y-65151000D03*
X101473000Y-62103000D03*
X101473000Y-65151000D03*
X100711000Y-61341000D03*
X101473000Y-61341000D03*
X101473000Y-64389000D03*
D30*
X109474000Y-38270000D02*
X109474000Y-37338000D01*
X107696000Y-66929000D02*
X107696000Y-65405000D01*
X108847000Y-62865000D02*
X109423000Y-62865000D01*
X109423000Y-62865000D02*
X110464500Y-63906500D01*
D31*
X104172000Y-61531000D02*
X104172000Y-62865000D01*
X106227000Y-62865000D02*
X104172000Y-62865000D01*
X105378000Y-60325000D02*
X104172000Y-61531000D01*
X106089000Y-60325000D02*
X105378000Y-60325000D01*
X108847000Y-61381000D02*
X108847000Y-61915000D01*
X107791000Y-60325000D02*
X108847000Y-61381000D01*
X107664000Y-60325000D02*
X107791000Y-60325000D01*
X105349000Y-56093400D02*
X105283000Y-56159400D01*
X105349000Y-54294500D02*
X105349000Y-56093400D01*
X105194600Y-56071000D02*
X105283000Y-56159400D01*
X101092000Y-56071000D02*
X105194600Y-56071000D01*
D30*
X109194500Y-65379500D02*
X109194500Y-64162500D01*
X109194500Y-65379500D02*
X110718500Y-65379500D01*
X109194500Y-64162500D02*
X108847000Y-63815000D01*
D31*
X107249000Y-50144300D02*
X107066500Y-49961800D01*
X107249000Y-51674500D02*
X107249000Y-50144300D01*
X108819000Y-52806500D02*
X108819000Y-51333500D01*
X108737000Y-52806500D02*
X107249000Y-54294500D01*
X108819000Y-52806500D02*
X108737000Y-52806500D01*
D32*
X99694900Y-42570400D02*
X99694900Y-38745100D01*
X99694900Y-38745100D02*
X99695000Y-38745000D01*
X99695000Y-38745000D02*
X98430000Y-37480000D01*
X99542500Y-74549000D02*
X99542500Y-73025000D01*
D31*
X110363000Y-52806500D02*
X110363000Y-51333500D01*
X105491500Y-49961800D02*
X105491500Y-48432500D01*
X105349000Y-51674500D02*
X105323500Y-51649000D01*
X105491500Y-48432500D02*
X105511500Y-48412500D01*
X106063700Y-63978300D02*
X106227000Y-63815000D01*
X105349000Y-51674500D02*
X105349000Y-50800000D01*
X105491500Y-49961800D02*
X105491500Y-50657500D01*
X105491500Y-50657500D02*
X105349000Y-50800000D01*
X105323500Y-51649000D02*
X101370000Y-51649000D01*
X101370000Y-51649000D02*
X101092000Y-51371000D01*
X106063700Y-65405000D02*
X106063700Y-63978300D01*
X109321500Y-57429500D02*
X109321500Y-58953500D01*
X107783000Y-56159400D02*
X107783000Y-55417500D01*
X108819000Y-54381500D02*
X110363000Y-54381500D01*
X107783000Y-55417500D02*
X108819000Y-54381500D01*
X109321500Y-55905500D02*
X109321500Y-57429500D01*
X107848400Y-56159400D02*
X107783000Y-56159400D01*
X99542500Y-69977000D02*
X99542500Y-71501000D01*
X99542500Y-68453000D02*
X99542500Y-69977000D01*
X99542500Y-62935500D02*
X99472000Y-62865000D01*
X99542500Y-66929000D02*
X99542500Y-62935500D01*
D30*
X110718500Y-66954500D02*
X110718500Y-67691000D01*
D31*
X99542500Y-66929000D02*
X99542500Y-68453000D01*
D30*
X109474000Y-42138500D02*
X109474000Y-41402000D01*
D32*
X101117500Y-73025000D02*
X101727000Y-73025000D01*
D30*
X109474000Y-42138500D02*
X107950000Y-42138500D01*
X103702000Y-38674000D02*
X104709000Y-38674000D01*
X104709000Y-38674000D02*
X104775000Y-38608000D01*
X109474000Y-41402000D02*
X109474000Y-40470000D01*
D32*
X101727000Y-73025000D02*
X102362000Y-72390000D01*
X110998000Y-43713500D02*
X109474000Y-43713500D01*
X111023500Y-43739000D02*
X110998000Y-43713500D01*
X111023500Y-45212000D02*
X111023500Y-43739000D01*
X103733600Y-37185600D02*
X101488000Y-34940000D01*
X107223877Y-35433000D02*
X105471277Y-37185600D01*
X109474000Y-35433000D02*
X107223877Y-35433000D01*
X105471277Y-37185600D02*
X103733600Y-37185600D01*
X110424000Y-38270000D02*
X110424000Y-36921500D01*
X110424000Y-36921500D02*
X110642400Y-36703100D01*
X101488000Y-34940000D02*
X100970000Y-34940000D01*
X110642400Y-36703100D02*
X110642400Y-36601400D01*
X110642400Y-36601400D02*
X109474000Y-35433000D01*
X105903596Y-37684000D02*
X101174000Y-37684000D01*
X107265596Y-36322000D02*
X105903596Y-37684000D01*
X107543500Y-36322000D02*
X107265596Y-36322000D01*
X101174000Y-37684000D02*
X100970000Y-37480000D01*
X104636000Y-39640000D02*
X103702000Y-40574000D01*
X103702000Y-40574000D02*
X101524000Y-40574000D01*
X110424000Y-40470000D02*
X110424000Y-39965000D01*
X110099000Y-39640000D02*
X104636000Y-39640000D01*
X101524000Y-40574000D02*
X100970000Y-40020000D01*
X110424000Y-39965000D02*
X110099000Y-39640000D01*
X110424000Y-41564500D02*
X110998000Y-42138500D01*
X110424000Y-40470000D02*
X110424000Y-41564500D01*
X108524000Y-40470000D02*
X108409877Y-40470000D01*
X108409877Y-40470000D02*
X107350877Y-41529000D01*
X102209600Y-42570400D02*
X101269900Y-42570400D01*
X103251000Y-41529000D02*
X102209600Y-42570400D01*
X107350877Y-41529000D02*
X103251000Y-41529000D01*
X108120000Y-38674000D02*
X108524000Y-38270000D01*
X108524000Y-38270000D02*
X108524000Y-36916500D01*
X106102000Y-38674000D02*
X108120000Y-38674000D01*
X108524000Y-36916500D02*
X109118500Y-36322000D01*
%TA.AperFunction,Conductor*%
G36*
X109671039Y-55417185D02*
G01*
X109716794Y-55469989D01*
X109728000Y-55521500D01*
X109728000Y-59312000D01*
X109708315Y-59379039D01*
X109655511Y-59424794D01*
X109604000Y-59436000D01*
X98425000Y-59436000D01*
X98425000Y-57171499D01*
X103986864Y-57171499D01*
X103986879Y-57171497D01*
X103986882Y-57171497D01*
X104011987Y-57168586D01*
X104011988Y-57168585D01*
X104011991Y-57168585D01*
X104028703Y-57161206D01*
X104030153Y-57160566D01*
X104080239Y-57150000D01*
X107315000Y-57150000D01*
X107315000Y-55521500D01*
X107334685Y-55454461D01*
X107387489Y-55408706D01*
X107439000Y-55397500D01*
X109604000Y-55397500D01*
X109671039Y-55417185D01*
G37*
%TD.AperFunction*%
%TA.AperFunction,Conductor*%
G36*
X105861039Y-49143285D02*
G01*
X105906794Y-49196089D01*
X105918000Y-49247600D01*
X105918000Y-51764637D01*
X105898315Y-51831676D01*
X105881681Y-51852318D01*
X105325893Y-52408105D01*
X105300212Y-52427811D01*
X105168287Y-52503977D01*
X105168282Y-52503981D01*
X105056481Y-52615782D01*
X105056477Y-52615787D01*
X104980311Y-52747712D01*
X104960606Y-52773393D01*
X104899000Y-52835000D01*
X104811317Y-52922682D01*
X104749997Y-52956166D01*
X104723638Y-52959000D01*
X98422000Y-52959000D01*
X98354961Y-52939315D01*
X98309206Y-52886511D01*
X98298000Y-52835000D01*
X98298000Y-50670000D01*
X98317685Y-50602961D01*
X98370489Y-50557206D01*
X98422000Y-50546000D01*
X101092000Y-50546000D01*
X101092000Y-49247600D01*
X101111685Y-49180561D01*
X101164489Y-49134806D01*
X101216000Y-49123600D01*
X105794000Y-49123600D01*
X105861039Y-49143285D01*
G37*
%TD.AperFunction*%
%TA.AperFunction,Conductor*%
G36*
X106623039Y-63519685D02*
G01*
X106668794Y-63572489D01*
X106680000Y-63624000D01*
X106680000Y-86210500D01*
X106660315Y-86277539D01*
X106607511Y-86323294D01*
X106556000Y-86334500D01*
X103019500Y-86334500D01*
X102952461Y-86314815D01*
X102906706Y-86262011D01*
X102895500Y-86210500D01*
X102895500Y-81269438D01*
X102886061Y-81246651D01*
X102887616Y-81246006D01*
X102872834Y-81218934D01*
X102870000Y-81192576D01*
X102870000Y-72744343D01*
X102886612Y-72682344D01*
X102921577Y-72621784D01*
X102962500Y-72469057D01*
X102962500Y-72310943D01*
X102921577Y-72158216D01*
X102886613Y-72097656D01*
X102870000Y-72035656D01*
X102870000Y-68504362D01*
X102889685Y-68437323D01*
X102906319Y-68416681D01*
X105664000Y-65659000D01*
X105664000Y-63624000D01*
X105683685Y-63556961D01*
X105736489Y-63511206D01*
X105788000Y-63500000D01*
X106556000Y-63500000D01*
X106623039Y-63519685D01*
G37*
%TD.AperFunction*%
%TA.AperFunction,Conductor*%
G36*
X98425000Y-59436000D02*
G01*
X98425000Y-59960518D01*
X98422617Y-59984711D01*
X98421500Y-59990326D01*
X98421500Y-65739672D01*
X98422617Y-65745287D01*
X98425000Y-65769482D01*
X98425000Y-74803000D01*
X101097181Y-77475181D01*
X101130666Y-77536504D01*
X101133500Y-77562861D01*
X101133500Y-77709869D01*
X101133501Y-77709876D01*
X101139908Y-77769483D01*
X101190202Y-77904327D01*
X101190203Y-77904328D01*
X101190204Y-77904331D01*
X101194265Y-77909755D01*
X101218684Y-77975216D01*
X101219000Y-77984068D01*
X101219000Y-81130500D01*
X101199315Y-81197539D01*
X101146511Y-81243294D01*
X101095000Y-81254500D01*
X96669500Y-81254500D01*
X96602461Y-81234815D01*
X96556706Y-81182011D01*
X96545500Y-81130500D01*
X96545500Y-57274000D01*
X96565185Y-57206961D01*
X96617989Y-57161206D01*
X96669500Y-57150000D01*
X98425000Y-57150000D01*
X98425000Y-59436000D01*
G37*
%TD.AperFunction*%
%TA.AperFunction,Conductor*%
G36*
X101892039Y-60090685D02*
G01*
X101937794Y-60143489D01*
X101949000Y-60195000D01*
X101949000Y-65535000D01*
X101929315Y-65602039D01*
X101876511Y-65647794D01*
X101825000Y-65659000D01*
X98851000Y-65659000D01*
X98783961Y-65639315D01*
X98738206Y-65586511D01*
X98727000Y-65535000D01*
X98727000Y-60195000D01*
X98746685Y-60127961D01*
X98799489Y-60082206D01*
X98851000Y-60071000D01*
X101825000Y-60071000D01*
X101892039Y-60090685D01*
G37*
%TD.AperFunction*%
%TA.AperFunction,Conductor*%
G36*
X112014000Y-71755000D02*
G01*
X107442000Y-71755000D01*
X107442000Y-68707000D01*
X112014000Y-68707000D01*
X112014000Y-71755000D01*
G37*
%TD.AperFunction*%
%TA.AperFunction,Conductor*%
G36*
X106807000Y-37592000D02*
G01*
X106561989Y-37592000D01*
X106807000Y-37346988D01*
X106807000Y-37592000D01*
G37*
%TD.AperFunction*%
%TA.AperFunction,Conductor*%
G36*
X103053426Y-37071819D02*
G01*
X103086911Y-37133142D01*
X103081927Y-37202834D01*
X103040055Y-37258767D01*
X102974591Y-37283184D01*
X102965745Y-37283500D01*
X102743000Y-37283500D01*
X102743000Y-36761393D01*
X103053426Y-37071819D01*
G37*
%TD.AperFunction*%
%TA.AperFunction,Conductor*%
G36*
X106807000Y-35283483D02*
G01*
X105341703Y-36748781D01*
X105280380Y-36782266D01*
X105254022Y-36785100D01*
X103950855Y-36785100D01*
X103883816Y-36765415D01*
X103863174Y-36748781D01*
X102743000Y-35628607D01*
X102743000Y-33045500D01*
X106807000Y-33045500D01*
X106807000Y-35283483D01*
G37*
%TD.AperFunction*%
%TA.AperFunction,Conductor*%
G36*
X102743000Y-35628607D02*
G01*
X102106819Y-34992426D01*
X102073334Y-34931103D01*
X102070500Y-34904745D01*
X102070500Y-34065323D01*
X102070499Y-34065321D01*
X102055967Y-33992264D01*
X102055966Y-33992260D01*
X102000601Y-33909399D01*
X101917740Y-33854034D01*
X101917739Y-33854033D01*
X101917735Y-33854032D01*
X101844677Y-33839500D01*
X101844674Y-33839500D01*
X100095326Y-33839500D01*
X100095323Y-33839500D01*
X100022264Y-33854032D01*
X100022260Y-33854034D01*
X99929244Y-33916184D01*
X99927254Y-33913206D01*
X99884293Y-33936666D01*
X99881013Y-33937333D01*
X99869573Y-33939500D01*
X99845000Y-33939500D01*
X99747224Y-33958949D01*
X99739438Y-33964150D01*
X99718078Y-33968197D01*
X99695523Y-33965970D01*
X99672982Y-33968394D01*
X99649135Y-33961392D01*
X99648547Y-33961334D01*
X99648316Y-33961151D01*
X99647548Y-33960926D01*
X99642771Y-33958947D01*
X99545003Y-33939500D01*
X99545000Y-33939500D01*
X98979174Y-33939500D01*
X98961215Y-33941864D01*
X98946851Y-33943755D01*
X98877816Y-33932987D01*
X98874375Y-33931300D01*
X98852450Y-33920129D01*
X98852447Y-33920128D01*
X98852445Y-33920127D01*
X98687701Y-33866598D01*
X98687699Y-33866597D01*
X98687698Y-33866597D01*
X98556271Y-33845781D01*
X98516611Y-33839500D01*
X98343389Y-33839500D01*
X98303728Y-33845781D01*
X98172302Y-33866597D01*
X98172299Y-33866598D01*
X98028856Y-33913206D01*
X98007552Y-33920128D01*
X97853211Y-33998768D01*
X97785223Y-34048165D01*
X97713072Y-34100586D01*
X97713070Y-34100588D01*
X97713069Y-34100588D01*
X97590588Y-34223069D01*
X97590588Y-34223070D01*
X97590586Y-34223072D01*
X97582415Y-34234319D01*
X97488768Y-34363211D01*
X97410128Y-34517552D01*
X97356597Y-34682302D01*
X97346252Y-34747619D01*
X97329500Y-34853389D01*
X97329500Y-35026611D01*
X97356598Y-35197701D01*
X97410127Y-35362445D01*
X97488768Y-35516788D01*
X97590586Y-35656928D01*
X97713072Y-35779414D01*
X97853212Y-35881232D01*
X98007555Y-35959873D01*
X98172299Y-36013402D01*
X98343389Y-36040500D01*
X98343390Y-36040500D01*
X98516610Y-36040500D01*
X98516611Y-36040500D01*
X98687701Y-36013402D01*
X98852445Y-35959873D01*
X98858769Y-35956650D01*
X98927434Y-35943748D01*
X98931195Y-35944183D01*
X98979174Y-35950500D01*
X98979176Y-35950500D01*
X99545002Y-35950500D01*
X99545003Y-35950499D01*
X99642776Y-35931051D01*
X99642781Y-35931047D01*
X99647540Y-35929077D01*
X99716337Y-35921484D01*
X99738770Y-35925402D01*
X99747224Y-35931051D01*
X99845000Y-35950500D01*
X99882452Y-35950500D01*
X99893037Y-35952349D01*
X99915118Y-35963249D01*
X99938739Y-35970185D01*
X99940590Y-35971397D01*
X100022260Y-36025966D01*
X100022263Y-36025966D01*
X100022264Y-36025967D01*
X100095321Y-36040499D01*
X100095324Y-36040500D01*
X100095326Y-36040500D01*
X101844675Y-36040500D01*
X101866602Y-36036138D01*
X101917740Y-36025966D01*
X101917740Y-36025965D01*
X101927661Y-36023992D01*
X101997253Y-36030219D01*
X102039535Y-36057928D01*
X102743000Y-36761393D01*
X102743000Y-37283500D01*
X102153379Y-37283500D01*
X102086340Y-37263815D01*
X102040585Y-37211011D01*
X102035448Y-37197819D01*
X101997943Y-37082393D01*
X101989873Y-37057555D01*
X101989871Y-37057552D01*
X101989871Y-37057550D01*
X101922119Y-36924579D01*
X101911232Y-36903212D01*
X101809414Y-36763072D01*
X101686928Y-36640586D01*
X101546788Y-36538768D01*
X101392445Y-36460127D01*
X101227701Y-36406598D01*
X101227699Y-36406597D01*
X101227698Y-36406597D01*
X101082358Y-36383578D01*
X101056611Y-36379500D01*
X100883389Y-36379500D01*
X100857642Y-36383578D01*
X100712302Y-36406597D01*
X100547552Y-36460128D01*
X100393211Y-36538768D01*
X100313256Y-36596859D01*
X100253072Y-36640586D01*
X100253070Y-36640588D01*
X100253069Y-36640588D01*
X100130588Y-36763069D01*
X100130588Y-36763070D01*
X100130586Y-36763072D01*
X100086859Y-36823256D01*
X100028768Y-36903211D01*
X99950128Y-37057552D01*
X99896597Y-37222302D01*
X99869500Y-37393389D01*
X99869500Y-37566610D01*
X99893053Y-37715323D01*
X99896598Y-37737701D01*
X99950127Y-37902445D01*
X100028768Y-38056788D01*
X100130586Y-38196928D01*
X100253072Y-38319414D01*
X100393212Y-38421232D01*
X100547555Y-38499873D01*
X100712299Y-38553402D01*
X100883389Y-38580500D01*
X100883390Y-38580500D01*
X101056610Y-38580500D01*
X101056611Y-38580500D01*
X101227701Y-38553402D01*
X101392445Y-38499873D01*
X101546788Y-38421232D01*
X101686928Y-38319414D01*
X101809414Y-38196928D01*
X101853961Y-38135613D01*
X101909291Y-38092949D01*
X101954279Y-38084500D01*
X102627500Y-38084500D01*
X102694539Y-38104185D01*
X102740294Y-38156989D01*
X102751500Y-38208500D01*
X102751500Y-39298678D01*
X102766032Y-39371735D01*
X102766033Y-39371739D01*
X102766034Y-39371740D01*
X102821399Y-39454601D01*
X102904260Y-39509966D01*
X102914415Y-39516751D01*
X102913591Y-39517983D01*
X102957391Y-39553281D01*
X102979455Y-39619576D01*
X102962175Y-39687275D01*
X102911037Y-39734885D01*
X102904516Y-39737862D01*
X102821399Y-39793399D01*
X102766033Y-39876260D01*
X102766032Y-39876264D01*
X102751500Y-39949321D01*
X102751500Y-40049500D01*
X102731815Y-40116539D01*
X102679011Y-40162294D01*
X102627500Y-40173500D01*
X102194500Y-40173500D01*
X102127461Y-40153815D01*
X102081706Y-40101011D01*
X102070500Y-40049500D01*
X102070500Y-39933389D01*
X102061452Y-39876264D01*
X102043402Y-39762299D01*
X101989873Y-39597555D01*
X101911232Y-39443212D01*
X101809414Y-39303072D01*
X101686928Y-39180586D01*
X101546788Y-39078768D01*
X101392445Y-39000127D01*
X101227701Y-38946598D01*
X101227699Y-38946597D01*
X101227698Y-38946597D01*
X101096271Y-38925781D01*
X101056611Y-38919500D01*
X100883389Y-38919500D01*
X100843728Y-38925781D01*
X100712302Y-38946597D01*
X100547552Y-39000128D01*
X100393208Y-39078770D01*
X100292285Y-39152095D01*
X100280425Y-39156326D01*
X100270911Y-39164571D01*
X100248144Y-39167844D01*
X100226479Y-39175575D01*
X100214215Y-39172723D01*
X100201753Y-39174515D01*
X100180827Y-39164958D01*
X100158425Y-39159749D01*
X100149650Y-39150720D01*
X100138197Y-39145490D01*
X100125761Y-39126139D01*
X100109730Y-39109644D01*
X100106325Y-39095896D01*
X100100423Y-39086712D01*
X100095400Y-39051777D01*
X100095400Y-38806618D01*
X100095500Y-38805092D01*
X100095500Y-38692275D01*
X100095500Y-38692273D01*
X100068207Y-38590412D01*
X100015480Y-38499087D01*
X99495993Y-37979600D01*
X99462508Y-37918277D01*
X99465742Y-37853603D01*
X99503402Y-37737701D01*
X99530500Y-37566611D01*
X99530500Y-37393389D01*
X99503402Y-37222299D01*
X99449873Y-37057555D01*
X99371232Y-36903212D01*
X99269414Y-36763072D01*
X99146928Y-36640586D01*
X99006788Y-36538768D01*
X98852445Y-36460127D01*
X98687701Y-36406598D01*
X98687699Y-36406597D01*
X98687698Y-36406597D01*
X98542358Y-36383578D01*
X98516611Y-36379500D01*
X98343389Y-36379500D01*
X98317642Y-36383578D01*
X98172302Y-36406597D01*
X98007552Y-36460128D01*
X97853211Y-36538768D01*
X97773256Y-36596859D01*
X97713072Y-36640586D01*
X97713070Y-36640588D01*
X97713069Y-36640588D01*
X97590588Y-36763069D01*
X97590588Y-36763070D01*
X97590586Y-36763072D01*
X97546859Y-36823256D01*
X97488768Y-36903211D01*
X97410128Y-37057552D01*
X97356597Y-37222302D01*
X97329500Y-37393389D01*
X97329500Y-37566610D01*
X97353053Y-37715323D01*
X97356598Y-37737701D01*
X97410127Y-37902445D01*
X97488768Y-38056788D01*
X97590586Y-38196928D01*
X97713072Y-38319414D01*
X97853212Y-38421232D01*
X98007555Y-38499873D01*
X98172299Y-38553402D01*
X98343389Y-38580500D01*
X98343390Y-38580500D01*
X98516610Y-38580500D01*
X98516611Y-38580500D01*
X98687701Y-38553402D01*
X98803602Y-38515742D01*
X98873442Y-38513748D01*
X98929600Y-38545993D01*
X99258081Y-38874474D01*
X99272784Y-38901401D01*
X99289377Y-38927220D01*
X99290268Y-38933420D01*
X99291566Y-38935797D01*
X99294400Y-38962155D01*
X99294400Y-38983181D01*
X99274715Y-39050220D01*
X99221911Y-39095975D01*
X99152753Y-39105919D01*
X99097515Y-39083500D01*
X99032730Y-39036431D01*
X98871447Y-38954252D01*
X98871441Y-38954250D01*
X98699295Y-38898318D01*
X98699285Y-38898315D01*
X98680000Y-38895260D01*
X98680000Y-39586988D01*
X98622993Y-39554075D01*
X98495826Y-39520000D01*
X98364174Y-39520000D01*
X98237007Y-39554075D01*
X98180000Y-39586988D01*
X98180000Y-38895260D01*
X98160714Y-38898315D01*
X98160704Y-38898318D01*
X97988558Y-38954250D01*
X97988552Y-38954252D01*
X97827265Y-39036434D01*
X97680830Y-39142823D01*
X97552823Y-39270830D01*
X97446434Y-39417265D01*
X97364252Y-39578552D01*
X97364250Y-39578558D01*
X97308318Y-39750704D01*
X97308315Y-39750714D01*
X97305261Y-39770000D01*
X97996988Y-39770000D01*
X97964075Y-39827007D01*
X97930000Y-39954174D01*
X97930000Y-40085826D01*
X97964075Y-40212993D01*
X97996988Y-40270000D01*
X97305261Y-40270000D01*
X97308315Y-40289285D01*
X97308318Y-40289295D01*
X97364250Y-40461441D01*
X97364252Y-40461447D01*
X97446434Y-40622734D01*
X97552823Y-40769169D01*
X97680830Y-40897176D01*
X97827265Y-41003565D01*
X97988552Y-41085747D01*
X97988555Y-41085748D01*
X98160699Y-41141680D01*
X98160712Y-41141683D01*
X98180000Y-41144738D01*
X98180000Y-40453012D01*
X98237007Y-40485925D01*
X98364174Y-40520000D01*
X98495826Y-40520000D01*
X98622993Y-40485925D01*
X98680000Y-40453012D01*
X98680000Y-41144737D01*
X98699287Y-41141683D01*
X98699300Y-41141680D01*
X98871444Y-41085748D01*
X98871447Y-41085747D01*
X99032731Y-41003567D01*
X99097514Y-40956500D01*
X99163321Y-40933020D01*
X99231375Y-40948845D01*
X99280069Y-40998951D01*
X99294400Y-41056818D01*
X99294400Y-41801970D01*
X99274715Y-41869009D01*
X99244711Y-41901237D01*
X99140928Y-41978928D01*
X99060064Y-42086949D01*
X99060062Y-42086952D01*
X99012909Y-42213375D01*
X99006900Y-42269255D01*
X99006900Y-42871544D01*
X99012909Y-42927424D01*
X99060062Y-43053847D01*
X99060064Y-43053850D01*
X99140928Y-43161872D01*
X99248949Y-43242735D01*
X99248952Y-43242737D01*
X99375375Y-43289890D01*
X99375378Y-43289891D01*
X99404718Y-43293045D01*
X99431255Y-43295899D01*
X99431270Y-43295900D01*
X99958530Y-43295900D01*
X99958544Y-43295899D01*
X99980423Y-43293546D01*
X100014422Y-43289891D01*
X100140850Y-43242736D01*
X100248872Y-43161872D01*
X100329736Y-43053850D01*
X100366218Y-42956038D01*
X100408089Y-42900104D01*
X100473553Y-42875687D01*
X100541826Y-42890539D01*
X100591232Y-42939944D01*
X100598582Y-42956038D01*
X100635062Y-43053847D01*
X100635064Y-43053850D01*
X100715928Y-43161872D01*
X100823949Y-43242735D01*
X100823952Y-43242737D01*
X100950375Y-43289890D01*
X100950378Y-43289891D01*
X100979718Y-43293045D01*
X101006255Y-43295899D01*
X101006270Y-43295900D01*
X101533530Y-43295900D01*
X101533544Y-43295899D01*
X101555423Y-43293546D01*
X101589422Y-43289891D01*
X101715850Y-43242736D01*
X101823872Y-43161872D01*
X101904736Y-43053850D01*
X101905588Y-43051563D01*
X101907050Y-43049610D01*
X101908984Y-43046070D01*
X101909493Y-43046348D01*
X101947459Y-42995633D01*
X102012923Y-42971216D01*
X102021769Y-42970900D01*
X102262325Y-42970900D01*
X102262327Y-42970900D01*
X102364188Y-42943607D01*
X102455513Y-42890880D01*
X103380574Y-41965819D01*
X103441897Y-41932334D01*
X103468255Y-41929500D01*
X103826691Y-41929500D01*
X103893730Y-41949185D01*
X103914372Y-41965819D01*
X104563941Y-42615387D01*
X104543409Y-42620889D01*
X104406592Y-42699881D01*
X104294881Y-42811592D01*
X104215889Y-42948409D01*
X104210387Y-42968940D01*
X103516544Y-42275097D01*
X103449319Y-42367626D01*
X103338560Y-42585001D01*
X103263165Y-42817040D01*
X103225000Y-43058006D01*
X103225000Y-43301993D01*
X103263165Y-43542959D01*
X103338560Y-43774998D01*
X103449323Y-43992380D01*
X103516543Y-44084901D01*
X103516544Y-44084902D01*
X104210387Y-43391059D01*
X104215889Y-43411591D01*
X104294881Y-43548408D01*
X104406592Y-43660119D01*
X104543409Y-43739111D01*
X104563940Y-43744612D01*
X103870096Y-44438454D01*
X103870239Y-44440271D01*
X103870239Y-44459727D01*
X103870096Y-44461543D01*
X104563940Y-45155387D01*
X104543409Y-45160889D01*
X104406592Y-45239881D01*
X104294881Y-45351592D01*
X104215889Y-45488409D01*
X104210387Y-45508940D01*
X103516544Y-44815097D01*
X103449319Y-44907626D01*
X103338560Y-45125001D01*
X103263165Y-45357040D01*
X103225000Y-45598006D01*
X103225000Y-45841993D01*
X103263165Y-46082959D01*
X103338560Y-46314998D01*
X103449323Y-46532380D01*
X103516543Y-46624901D01*
X103516544Y-46624902D01*
X104210387Y-45931059D01*
X104215889Y-45951591D01*
X104294881Y-46088408D01*
X104406592Y-46200119D01*
X104543409Y-46279111D01*
X104563940Y-46284612D01*
X103870096Y-46978454D01*
X103870097Y-46978456D01*
X103962619Y-47045676D01*
X104180001Y-47156439D01*
X104412040Y-47231834D01*
X104653007Y-47270000D01*
X104896993Y-47270000D01*
X105137959Y-47231834D01*
X105369998Y-47156439D01*
X105587377Y-47045678D01*
X105679901Y-46978454D01*
X105679902Y-46978454D01*
X104986059Y-46284612D01*
X105006591Y-46279111D01*
X105143408Y-46200119D01*
X105255119Y-46088408D01*
X105334111Y-45951591D01*
X105339612Y-45931060D01*
X106033454Y-46624902D01*
X106033454Y-46624901D01*
X106100678Y-46532377D01*
X106211439Y-46314998D01*
X106286834Y-46082959D01*
X106325000Y-45841993D01*
X106325000Y-45598006D01*
X106310880Y-45508855D01*
X108711000Y-45508855D01*
X108721010Y-45592224D01*
X108773325Y-45724886D01*
X108859489Y-45838510D01*
X108973113Y-45924674D01*
X109105775Y-45976989D01*
X109189144Y-45987000D01*
X109198500Y-45987000D01*
X109198500Y-45462000D01*
X108711000Y-45462000D01*
X108711000Y-45508855D01*
X106310880Y-45508855D01*
X106298396Y-45430036D01*
X106286833Y-45357039D01*
X106211439Y-45125001D01*
X106100676Y-44907619D01*
X106033456Y-44815097D01*
X106033454Y-44815096D01*
X105339612Y-45508939D01*
X105334111Y-45488409D01*
X105255119Y-45351592D01*
X105143408Y-45239881D01*
X105006591Y-45160889D01*
X104986058Y-45155387D01*
X105679901Y-44461545D01*
X105679759Y-44459729D01*
X105679759Y-44440269D01*
X105679901Y-44438453D01*
X104986059Y-43744612D01*
X105006591Y-43739111D01*
X105143408Y-43660119D01*
X105255119Y-43548408D01*
X105334111Y-43411591D01*
X105339612Y-43391060D01*
X106033454Y-44084902D01*
X106033454Y-44084901D01*
X106100678Y-43992377D01*
X106110625Y-43972855D01*
X107175000Y-43972855D01*
X107185010Y-44056224D01*
X107237325Y-44188886D01*
X107323489Y-44302510D01*
X107437113Y-44388674D01*
X107569775Y-44440989D01*
X107653144Y-44451000D01*
X107700000Y-44451000D01*
X107700000Y-43963500D01*
X107175000Y-43963500D01*
X107175000Y-43972855D01*
X106110625Y-43972855D01*
X106170246Y-43855843D01*
X106211439Y-43774998D01*
X106286834Y-43542959D01*
X106325000Y-43301993D01*
X106325000Y-43058006D01*
X106286834Y-42817040D01*
X106211439Y-42585001D01*
X106100676Y-42367619D01*
X106033456Y-42275097D01*
X106033454Y-42275096D01*
X105339612Y-42968939D01*
X105334111Y-42948409D01*
X105255119Y-42811592D01*
X105143408Y-42699881D01*
X105006591Y-42620889D01*
X104986058Y-42615387D01*
X105635628Y-41965819D01*
X105696951Y-41932334D01*
X105723309Y-41929500D01*
X107100500Y-41929500D01*
X107167539Y-41949185D01*
X107213294Y-42001989D01*
X107224500Y-42053500D01*
X107224500Y-42402144D01*
X107230509Y-42458024D01*
X107277662Y-42584447D01*
X107277664Y-42584450D01*
X107358528Y-42692472D01*
X107466550Y-42773336D01*
X107493908Y-42783540D01*
X107549842Y-42825409D01*
X107574260Y-42890873D01*
X107559409Y-42959147D01*
X107510005Y-43008553D01*
X107496067Y-43015076D01*
X107437115Y-43038324D01*
X107323489Y-43124489D01*
X107237325Y-43238113D01*
X107185010Y-43370775D01*
X107175000Y-43454144D01*
X107175000Y-43463500D01*
X107826000Y-43463500D01*
X107893039Y-43483185D01*
X107938794Y-43535989D01*
X107950000Y-43587500D01*
X107950000Y-43713500D01*
X108076000Y-43713500D01*
X108143039Y-43733185D01*
X108188794Y-43785989D01*
X108200000Y-43837500D01*
X108200000Y-44451000D01*
X108246856Y-44451000D01*
X108330224Y-44440989D01*
X108462886Y-44388674D01*
X108576510Y-44302510D01*
X108644263Y-44213164D01*
X108700455Y-44171641D01*
X108770176Y-44167089D01*
X108829563Y-44199239D01*
X108836518Y-44206009D01*
X108882528Y-44267472D01*
X108956651Y-44322959D01*
X108962408Y-44328564D01*
X108975774Y-44352279D01*
X108992094Y-44374080D01*
X108992680Y-44382276D01*
X108996713Y-44389432D01*
X108995135Y-44416611D01*
X108997078Y-44443772D01*
X108993140Y-44450982D01*
X108992665Y-44459184D01*
X108976640Y-44481199D01*
X108963593Y-44505095D01*
X108951701Y-44515463D01*
X108951548Y-44515675D01*
X108951388Y-44515736D01*
X108950838Y-44516217D01*
X108859490Y-44585489D01*
X108773325Y-44699113D01*
X108721010Y-44831775D01*
X108711000Y-44915144D01*
X108711000Y-44962000D01*
X109324500Y-44962000D01*
X109391539Y-44981685D01*
X109437294Y-45034489D01*
X109448500Y-45086000D01*
X109448500Y-45212000D01*
X109574500Y-45212000D01*
X109641539Y-45231685D01*
X109687294Y-45284489D01*
X109698500Y-45336000D01*
X109698500Y-45987000D01*
X109707856Y-45987000D01*
X109791224Y-45976989D01*
X109923886Y-45924674D01*
X110037510Y-45838510D01*
X110123675Y-45724885D01*
X110146922Y-45665934D01*
X110189828Y-45610790D01*
X110255735Y-45587596D01*
X110323720Y-45603716D01*
X110372197Y-45654033D01*
X110378459Y-45668090D01*
X110388662Y-45695447D01*
X110388664Y-45695450D01*
X110469528Y-45803472D01*
X110577549Y-45884335D01*
X110577552Y-45884337D01*
X110703975Y-45931490D01*
X110703978Y-45931491D01*
X110733318Y-45934645D01*
X110759855Y-45937499D01*
X110759870Y-45937500D01*
X111287130Y-45937500D01*
X111287144Y-45937499D01*
X111309023Y-45935146D01*
X111343022Y-45931491D01*
X111469450Y-45884336D01*
X111577472Y-45803472D01*
X111658336Y-45695450D01*
X111705491Y-45569022D01*
X111709146Y-45535023D01*
X111711499Y-45513144D01*
X111711500Y-45513129D01*
X111711500Y-44910870D01*
X111711499Y-44910855D01*
X111708645Y-44884318D01*
X111705491Y-44854978D01*
X111658336Y-44728550D01*
X111577472Y-44620528D01*
X111480261Y-44547757D01*
X111438391Y-44491824D01*
X111433407Y-44422133D01*
X111466892Y-44360810D01*
X111480263Y-44349224D01*
X111481448Y-44348336D01*
X111481450Y-44348336D01*
X111589472Y-44267472D01*
X111670336Y-44159450D01*
X111717491Y-44033022D01*
X111721146Y-43999023D01*
X111723499Y-43977144D01*
X111723500Y-43977129D01*
X111723500Y-43449870D01*
X111723499Y-43449855D01*
X111720645Y-43423318D01*
X111717491Y-43393978D01*
X111678669Y-43289891D01*
X111670337Y-43267552D01*
X111670335Y-43267549D01*
X111651761Y-43242737D01*
X111589472Y-43159528D01*
X111481450Y-43078664D01*
X111481447Y-43078662D01*
X111383638Y-43042182D01*
X111327704Y-43000311D01*
X111303287Y-42934847D01*
X111318139Y-42866574D01*
X111367544Y-42817168D01*
X111383638Y-42809818D01*
X111441122Y-42788377D01*
X111481450Y-42773336D01*
X111589472Y-42692472D01*
X111670336Y-42584450D01*
X111717491Y-42458022D01*
X111721146Y-42424023D01*
X111723499Y-42402144D01*
X111723500Y-42402129D01*
X111723500Y-41874870D01*
X111723499Y-41874855D01*
X111720278Y-41844900D01*
X111717491Y-41818978D01*
X111717490Y-41818975D01*
X111670337Y-41692552D01*
X111670335Y-41692549D01*
X111666930Y-41688000D01*
X111589472Y-41584528D01*
X111481450Y-41503664D01*
X111481447Y-41503662D01*
X111355024Y-41456509D01*
X111299144Y-41450500D01*
X111299130Y-41450500D01*
X110948500Y-41450500D01*
X110939814Y-41447949D01*
X110930853Y-41449238D01*
X110906812Y-41438259D01*
X110881461Y-41430815D01*
X110875533Y-41423974D01*
X110867297Y-41420213D01*
X110853007Y-41397978D01*
X110835706Y-41378011D01*
X110833418Y-41367496D01*
X110829523Y-41361435D01*
X110824500Y-41326500D01*
X110824500Y-41317105D01*
X110844185Y-41250066D01*
X110879609Y-41214003D01*
X110929601Y-41180601D01*
X110984966Y-41097740D01*
X110999500Y-41024674D01*
X110999500Y-39915326D01*
X110999500Y-39915323D01*
X110999499Y-39915321D01*
X110984967Y-39842264D01*
X110984966Y-39842260D01*
X110974774Y-39827007D01*
X110929601Y-39759399D01*
X110874235Y-39722405D01*
X110846739Y-39704033D01*
X110846735Y-39704032D01*
X110773677Y-39689500D01*
X110773674Y-39689500D01*
X110766255Y-39689500D01*
X110699216Y-39669815D01*
X110678574Y-39653181D01*
X110344915Y-39319522D01*
X110344913Y-39319520D01*
X110279730Y-39281886D01*
X110231516Y-39231319D01*
X110218294Y-39162712D01*
X110244262Y-39097848D01*
X110301177Y-39057320D01*
X110341732Y-39050500D01*
X110773676Y-39050500D01*
X110773677Y-39050499D01*
X110846740Y-39035966D01*
X110929601Y-38980601D01*
X110984966Y-38897740D01*
X110999500Y-38824674D01*
X110999500Y-37715326D01*
X110999500Y-37715323D01*
X110999499Y-37715321D01*
X110984967Y-37642264D01*
X110984966Y-37642262D01*
X110984966Y-37642260D01*
X110984964Y-37642258D01*
X110984964Y-37642256D01*
X110937364Y-37571017D01*
X110916486Y-37504340D01*
X110934971Y-37436960D01*
X110986950Y-37390270D01*
X110997133Y-37385945D01*
X111125847Y-37337937D01*
X111125846Y-37337937D01*
X111125850Y-37337936D01*
X111233872Y-37257072D01*
X111314736Y-37149050D01*
X111361891Y-37022622D01*
X111365546Y-36988623D01*
X111367899Y-36966744D01*
X111367900Y-36966729D01*
X111367900Y-36439470D01*
X111367899Y-36439455D01*
X111364366Y-36406597D01*
X111361891Y-36383578D01*
X111314736Y-36257150D01*
X111233872Y-36149128D01*
X111125850Y-36068264D01*
X111125847Y-36068262D01*
X111098490Y-36058059D01*
X111042556Y-36016188D01*
X111018139Y-35950724D01*
X111032990Y-35882451D01*
X111082396Y-35833045D01*
X111096334Y-35826522D01*
X111155285Y-35803275D01*
X111268910Y-35717110D01*
X111355074Y-35603486D01*
X111407389Y-35470824D01*
X111417400Y-35387455D01*
X111417400Y-35378100D01*
X110766400Y-35378100D01*
X110699361Y-35358415D01*
X110653606Y-35305611D01*
X110642400Y-35254100D01*
X110642400Y-35128100D01*
X110516400Y-35128100D01*
X110449361Y-35108415D01*
X110403606Y-35055611D01*
X110392400Y-35004100D01*
X110392400Y-34878100D01*
X110892400Y-34878100D01*
X111417400Y-34878100D01*
X111417400Y-34868744D01*
X111407389Y-34785375D01*
X111355074Y-34652713D01*
X111268910Y-34539089D01*
X111155286Y-34452925D01*
X111022624Y-34400610D01*
X110939256Y-34390600D01*
X110892400Y-34390600D01*
X110892400Y-34878100D01*
X110392400Y-34878100D01*
X110392400Y-34390600D01*
X110345544Y-34390600D01*
X110262175Y-34400610D01*
X110129513Y-34452925D01*
X110015889Y-34539089D01*
X109929725Y-34652713D01*
X109877410Y-34785375D01*
X109867400Y-34868744D01*
X109867400Y-34982897D01*
X109847715Y-35049936D01*
X109794911Y-35095691D01*
X109725753Y-35105635D01*
X109681399Y-35090284D01*
X109628589Y-35059793D01*
X109577657Y-35046146D01*
X109526727Y-35032500D01*
X109526726Y-35032500D01*
X107284216Y-35032500D01*
X107284200Y-35032499D01*
X107276604Y-35032499D01*
X107171150Y-35032499D01*
X107106076Y-35049936D01*
X107069289Y-35059793D01*
X106977961Y-35112522D01*
X106903395Y-35187089D01*
X106807000Y-35283483D01*
X106807000Y-33045500D01*
X112880500Y-33045500D01*
X112947539Y-33065185D01*
X112993294Y-33117989D01*
X113004500Y-33169500D01*
X113004500Y-75438000D01*
X107315000Y-75438000D01*
X107315000Y-78486000D01*
X113004500Y-78486000D01*
X113004500Y-86210500D01*
X112984815Y-86277539D01*
X112932011Y-86323294D01*
X112880500Y-86334500D01*
X107109500Y-86334500D01*
X107042461Y-86314815D01*
X106996706Y-86262011D01*
X106985500Y-86210500D01*
X106985500Y-83705258D01*
X108739500Y-83705258D01*
X108739500Y-83934741D01*
X108764446Y-84124215D01*
X108769452Y-84162238D01*
X108769453Y-84162240D01*
X108828842Y-84383887D01*
X108916650Y-84595876D01*
X108916657Y-84595890D01*
X109031392Y-84794617D01*
X109171081Y-84976661D01*
X109171089Y-84976670D01*
X109333330Y-85138911D01*
X109333338Y-85138918D01*
X109515382Y-85278607D01*
X109515385Y-85278608D01*
X109515388Y-85278611D01*
X109714112Y-85393344D01*
X109714117Y-85393346D01*
X109714123Y-85393349D01*
X109805480Y-85431190D01*
X109926113Y-85481158D01*
X110147762Y-85540548D01*
X110375266Y-85570500D01*
X110375273Y-85570500D01*
X110604727Y-85570500D01*
X110604734Y-85570500D01*
X110832238Y-85540548D01*
X111053887Y-85481158D01*
X111265888Y-85393344D01*
X111464612Y-85278611D01*
X111646661Y-85138919D01*
X111646665Y-85138914D01*
X111646670Y-85138911D01*
X111808911Y-84976670D01*
X111808914Y-84976665D01*
X111808919Y-84976661D01*
X111948611Y-84794612D01*
X112063344Y-84595888D01*
X112151158Y-84383887D01*
X112210548Y-84162238D01*
X112240500Y-83934734D01*
X112240500Y-83705266D01*
X112210548Y-83477762D01*
X112151158Y-83256113D01*
X112063344Y-83044112D01*
X111948611Y-82845388D01*
X111948608Y-82845385D01*
X111948607Y-82845382D01*
X111808918Y-82663338D01*
X111808911Y-82663330D01*
X111646670Y-82501089D01*
X111646661Y-82501081D01*
X111464617Y-82361392D01*
X111265890Y-82246657D01*
X111265876Y-82246650D01*
X111053887Y-82158842D01*
X110832238Y-82099452D01*
X110794215Y-82094446D01*
X110604741Y-82069500D01*
X110604734Y-82069500D01*
X110375266Y-82069500D01*
X110375258Y-82069500D01*
X110158715Y-82098009D01*
X110147762Y-82099452D01*
X110054076Y-82124554D01*
X109926112Y-82158842D01*
X109714123Y-82246650D01*
X109714109Y-82246657D01*
X109515382Y-82361392D01*
X109333338Y-82501081D01*
X109171081Y-82663338D01*
X109031392Y-82845382D01*
X108916657Y-83044109D01*
X108916650Y-83044123D01*
X108828842Y-83256112D01*
X108769453Y-83477759D01*
X108769451Y-83477770D01*
X108739500Y-83705258D01*
X106985500Y-83705258D01*
X106985500Y-71755000D01*
X107442000Y-71755000D01*
X112014000Y-71755000D01*
X112014000Y-68707000D01*
X107442000Y-68707000D01*
X107442000Y-71755000D01*
X106985500Y-71755000D01*
X106985500Y-71383090D01*
X106993318Y-71339756D01*
X107026422Y-71251000D01*
X107031091Y-71238483D01*
X107037500Y-71178873D01*
X107037499Y-70227000D01*
X107037499Y-69299690D01*
X107037499Y-69283128D01*
X107031091Y-69223517D01*
X106990955Y-69115908D01*
X106989295Y-69109351D01*
X106989587Y-69101565D01*
X106985500Y-69078909D01*
X106985500Y-67713035D01*
X107005185Y-67645996D01*
X107057989Y-67600241D01*
X107127147Y-67590297D01*
X107184426Y-67614232D01*
X107220613Y-67641674D01*
X107353275Y-67693989D01*
X107436644Y-67704000D01*
X107446000Y-67704000D01*
X107946000Y-67704000D01*
X107955356Y-67704000D01*
X108038724Y-67693989D01*
X108171386Y-67641674D01*
X108285009Y-67555511D01*
X108332244Y-67493221D01*
X108388436Y-67451697D01*
X108458157Y-67447144D01*
X108519272Y-67481009D01*
X108529853Y-67493219D01*
X108567991Y-67543511D01*
X108681613Y-67629674D01*
X108814275Y-67681989D01*
X108897644Y-67692000D01*
X108944500Y-67692000D01*
X108944500Y-67204500D01*
X108366362Y-67204500D01*
X108299323Y-67184815D01*
X108292107Y-67179000D01*
X107946000Y-67179000D01*
X107946000Y-67704000D01*
X107446000Y-67704000D01*
X107446000Y-64630000D01*
X107436644Y-64630000D01*
X107353275Y-64640010D01*
X107220613Y-64692325D01*
X107184425Y-64719768D01*
X107171477Y-64724689D01*
X107161011Y-64733758D01*
X107139464Y-64736856D01*
X107119113Y-64744591D01*
X107105561Y-64741730D01*
X107091853Y-64743702D01*
X107072050Y-64734658D01*
X107050749Y-64730163D01*
X107040894Y-64720430D01*
X107028297Y-64714677D01*
X107016528Y-64696364D01*
X107001038Y-64681065D01*
X106997229Y-64666335D01*
X106990523Y-64655899D01*
X106985500Y-64620964D01*
X106985500Y-64404065D01*
X107005185Y-64337026D01*
X107013621Y-64326556D01*
X107017599Y-64320602D01*
X107017601Y-64320601D01*
X107072966Y-64237740D01*
X107087500Y-64164674D01*
X107087500Y-63465326D01*
X107087500Y-63465323D01*
X107087499Y-63465321D01*
X107072968Y-63392267D01*
X107072966Y-63392264D01*
X107072966Y-63392260D01*
X107072963Y-63392256D01*
X107070977Y-63387461D01*
X107063504Y-63317992D01*
X107070977Y-63292539D01*
X107072962Y-63287745D01*
X107072966Y-63287740D01*
X107087500Y-63214674D01*
X107087500Y-62515326D01*
X107081440Y-62484861D01*
X107087666Y-62415272D01*
X107089623Y-62410583D01*
X107134089Y-62309877D01*
X107134089Y-62309875D01*
X107136999Y-62284794D01*
X107137000Y-62284791D01*
X107137000Y-62165000D01*
X106351000Y-62165000D01*
X106283961Y-62145315D01*
X106238206Y-62092511D01*
X106227000Y-62041000D01*
X106227000Y-61789000D01*
X106246685Y-61721961D01*
X106299489Y-61676206D01*
X106351000Y-61665000D01*
X107136999Y-61665000D01*
X107136999Y-61545214D01*
X107136997Y-61545191D01*
X107134091Y-61520130D01*
X107134090Y-61520126D01*
X107088788Y-61417525D01*
X107088785Y-61417520D01*
X107009479Y-61338214D01*
X107009474Y-61338211D01*
X106906876Y-61292910D01*
X106881794Y-61290000D01*
X106433513Y-61290000D01*
X106366474Y-61270315D01*
X106320719Y-61217511D01*
X106310775Y-61148353D01*
X106339800Y-61084797D01*
X106398578Y-61047023D01*
X106405008Y-61045321D01*
X106408513Y-61044491D01*
X106408522Y-61044491D01*
X106534950Y-60997336D01*
X106642972Y-60916472D01*
X106723836Y-60808450D01*
X106760318Y-60710638D01*
X106802189Y-60654704D01*
X106867653Y-60630287D01*
X106935926Y-60645139D01*
X106985332Y-60694544D01*
X106992682Y-60710638D01*
X107029162Y-60808447D01*
X107029164Y-60808450D01*
X107110028Y-60916472D01*
X107195560Y-60980500D01*
X107218049Y-60997335D01*
X107218052Y-60997337D01*
X107344475Y-61044490D01*
X107344478Y-61044491D01*
X107373818Y-61047645D01*
X107400355Y-61050499D01*
X107400370Y-61050500D01*
X107757324Y-61050500D01*
X107824363Y-61070185D01*
X107845005Y-61086819D01*
X108028975Y-61270789D01*
X108062460Y-61332112D01*
X108057476Y-61401804D01*
X108044398Y-61427359D01*
X108001033Y-61492261D01*
X108001032Y-61492264D01*
X107986500Y-61565321D01*
X107986500Y-61565326D01*
X107986500Y-62264674D01*
X107986500Y-62264676D01*
X107986499Y-62264676D01*
X108001033Y-62337740D01*
X108003025Y-62342548D01*
X108010494Y-62412017D01*
X108003025Y-62437452D01*
X108001033Y-62442259D01*
X107986500Y-62515323D01*
X107986500Y-62515326D01*
X107986500Y-63214674D01*
X107986500Y-63214676D01*
X107986499Y-63214676D01*
X108001033Y-63287740D01*
X108003025Y-63292548D01*
X108010494Y-63362017D01*
X108003025Y-63387452D01*
X108001033Y-63392259D01*
X107986500Y-63465323D01*
X107986500Y-64164678D01*
X108001032Y-64237735D01*
X108001033Y-64237739D01*
X108001034Y-64237740D01*
X108056399Y-64320601D01*
X108139260Y-64375966D01*
X108139264Y-64375967D01*
X108212321Y-64390499D01*
X108212324Y-64390500D01*
X108212326Y-64390500D01*
X108620000Y-64390500D01*
X108628685Y-64393050D01*
X108637647Y-64391762D01*
X108661687Y-64402740D01*
X108687039Y-64410185D01*
X108692966Y-64417025D01*
X108701203Y-64420787D01*
X108715492Y-64443021D01*
X108732794Y-64462989D01*
X108735081Y-64473503D01*
X108738977Y-64479565D01*
X108744000Y-64514500D01*
X108744000Y-64657927D01*
X108724315Y-64724966D01*
X108694311Y-64757194D01*
X108603027Y-64825528D01*
X108561392Y-64881146D01*
X108505458Y-64923016D01*
X108435766Y-64928000D01*
X108374444Y-64894514D01*
X108363322Y-64881759D01*
X108285010Y-64778489D01*
X108171386Y-64692325D01*
X108038724Y-64640010D01*
X107955356Y-64630000D01*
X107946000Y-64630000D01*
X107946000Y-66679000D01*
X108486638Y-66679000D01*
X108553677Y-66698685D01*
X108560893Y-66704500D01*
X109070500Y-66704500D01*
X109137539Y-66724185D01*
X109183294Y-66776989D01*
X109194500Y-66828500D01*
X109194500Y-66954500D01*
X109320500Y-66954500D01*
X109387539Y-66974185D01*
X109433294Y-67026989D01*
X109444500Y-67078500D01*
X109444500Y-67692000D01*
X109491356Y-67692000D01*
X109574724Y-67681989D01*
X109707386Y-67629674D01*
X109821010Y-67543510D01*
X109888763Y-67454164D01*
X109908460Y-67439608D01*
X109925320Y-67421845D01*
X109936061Y-67419212D01*
X109944955Y-67412641D01*
X109969391Y-67411045D01*
X109993182Y-67405216D01*
X110003642Y-67408809D01*
X110014676Y-67408089D01*
X110036097Y-67419958D01*
X110059261Y-67427916D01*
X110070870Y-67439226D01*
X110075791Y-67441953D01*
X110084861Y-67452213D01*
X110085852Y-67453468D01*
X110127028Y-67508472D01*
X110132623Y-67512660D01*
X110142409Y-67525045D01*
X110152871Y-67551005D01*
X110166281Y-67575563D01*
X110166686Y-67585285D01*
X110168526Y-67589849D01*
X110167173Y-67596953D01*
X110167735Y-67610398D01*
X110168000Y-67610398D01*
X110168000Y-67616750D01*
X110168056Y-67618092D01*
X110168000Y-67618517D01*
X110168000Y-67618525D01*
X110168000Y-67763475D01*
X110194274Y-67861528D01*
X110205517Y-67903488D01*
X110277988Y-68029011D01*
X110277990Y-68029013D01*
X110277991Y-68029015D01*
X110380485Y-68131509D01*
X110380486Y-68131510D01*
X110380488Y-68131511D01*
X110506011Y-68203982D01*
X110506012Y-68203982D01*
X110506015Y-68203984D01*
X110646025Y-68241500D01*
X110646028Y-68241500D01*
X110790972Y-68241500D01*
X110790975Y-68241500D01*
X110930985Y-68203984D01*
X111056515Y-68131509D01*
X111159009Y-68029015D01*
X111231484Y-67903485D01*
X111269000Y-67763475D01*
X111269000Y-67618525D01*
X111268998Y-67618517D01*
X111268946Y-67618123D01*
X111269000Y-67617776D01*
X111269000Y-67610398D01*
X111270150Y-67610398D01*
X111279703Y-67549086D01*
X111304205Y-67514237D01*
X111309960Y-67508480D01*
X111309972Y-67508472D01*
X111390836Y-67400450D01*
X111437991Y-67274022D01*
X111442710Y-67230130D01*
X111443999Y-67218144D01*
X111444000Y-67218129D01*
X111444000Y-66690870D01*
X111443999Y-66690855D01*
X111441145Y-66664318D01*
X111437991Y-66634978D01*
X111435340Y-66627870D01*
X111390837Y-66508552D01*
X111390835Y-66508549D01*
X111365771Y-66475067D01*
X111309972Y-66400528D01*
X111201950Y-66319664D01*
X111201947Y-66319662D01*
X111104138Y-66283182D01*
X111048204Y-66241311D01*
X111023787Y-66175847D01*
X111038639Y-66107574D01*
X111088044Y-66058168D01*
X111104138Y-66050818D01*
X111167846Y-66027056D01*
X111201950Y-66014336D01*
X111309972Y-65933472D01*
X111390836Y-65825450D01*
X111437991Y-65699022D01*
X111441646Y-65665023D01*
X111443999Y-65643144D01*
X111444000Y-65643129D01*
X111444000Y-65115870D01*
X111443999Y-65115855D01*
X111441145Y-65089318D01*
X111437991Y-65059978D01*
X111390836Y-64933550D01*
X111309972Y-64825528D01*
X111201950Y-64744664D01*
X111201947Y-64744662D01*
X111068255Y-64694798D01*
X111068959Y-64692909D01*
X111017391Y-64663540D01*
X110985011Y-64601626D01*
X110991244Y-64532035D01*
X111032319Y-64478178D01*
X111055972Y-64460472D01*
X111136836Y-64352450D01*
X111183991Y-64226022D01*
X111187646Y-64192023D01*
X111189999Y-64170144D01*
X111190000Y-64170129D01*
X111190000Y-63642870D01*
X111189999Y-63642855D01*
X111187145Y-63616318D01*
X111183991Y-63586978D01*
X111177047Y-63568361D01*
X111136837Y-63460552D01*
X111136835Y-63460549D01*
X111055972Y-63352528D01*
X110947950Y-63271664D01*
X110947947Y-63271662D01*
X110920590Y-63261459D01*
X110864656Y-63219588D01*
X110840239Y-63154124D01*
X110855090Y-63085851D01*
X110904496Y-63036445D01*
X110918434Y-63029922D01*
X110977385Y-63006675D01*
X111091010Y-62920510D01*
X111177174Y-62806886D01*
X111229489Y-62674224D01*
X111239500Y-62590855D01*
X111239500Y-62581500D01*
X110588500Y-62581500D01*
X110521461Y-62561815D01*
X110475706Y-62509011D01*
X110464500Y-62457500D01*
X110464500Y-62331500D01*
X110338500Y-62331500D01*
X110271461Y-62311815D01*
X110225706Y-62259011D01*
X110214500Y-62207500D01*
X110214500Y-62081500D01*
X110714500Y-62081500D01*
X111239500Y-62081500D01*
X111239500Y-62072144D01*
X111229489Y-61988775D01*
X111177174Y-61856113D01*
X111091010Y-61742489D01*
X110977386Y-61656325D01*
X110844724Y-61604010D01*
X110761356Y-61594000D01*
X110714500Y-61594000D01*
X110714500Y-62081500D01*
X110214500Y-62081500D01*
X110214500Y-61594000D01*
X110167644Y-61594000D01*
X110084275Y-61604010D01*
X109951613Y-61656325D01*
X109906425Y-61690593D01*
X109841113Y-61715416D01*
X109772749Y-61700988D01*
X109723039Y-61651890D01*
X109707500Y-61591789D01*
X109707500Y-61565323D01*
X109707499Y-61565321D01*
X109692967Y-61492264D01*
X109692966Y-61492260D01*
X109637601Y-61409399D01*
X109554740Y-61354034D01*
X109554739Y-61354033D01*
X109554735Y-61354032D01*
X109481677Y-61339500D01*
X109481674Y-61339500D01*
X109449184Y-61339500D01*
X109382145Y-61319815D01*
X109336390Y-61267011D01*
X109329411Y-61247599D01*
X109313392Y-61187814D01*
X109247500Y-61073686D01*
X109154314Y-60980500D01*
X108388319Y-60214505D01*
X108354834Y-60153182D01*
X108352000Y-60126824D01*
X108352000Y-60023870D01*
X108351999Y-60023855D01*
X108349145Y-59997318D01*
X108345991Y-59967978D01*
X108345990Y-59967975D01*
X108323932Y-59908833D01*
X108318948Y-59839141D01*
X108352433Y-59777818D01*
X108413757Y-59744334D01*
X108440114Y-59741500D01*
X109603990Y-59741500D01*
X109604000Y-59741500D01*
X109668941Y-59734518D01*
X109720452Y-59723312D01*
X109758658Y-59712354D01*
X109855571Y-59655675D01*
X109908375Y-59609920D01*
X109908382Y-59609912D01*
X109908387Y-59609908D01*
X109950548Y-59565192D01*
X109950553Y-59565187D01*
X110000481Y-59466994D01*
X110048412Y-59416160D01*
X110116219Y-59399307D01*
X110182372Y-59421789D01*
X110219098Y-59462425D01*
X110221324Y-59466384D01*
X110307489Y-59580010D01*
X110421113Y-59666174D01*
X110553775Y-59718489D01*
X110637144Y-59728500D01*
X110646500Y-59728500D01*
X111146500Y-59728500D01*
X111155856Y-59728500D01*
X111239224Y-59718489D01*
X111371886Y-59666174D01*
X111485510Y-59580010D01*
X111571674Y-59466386D01*
X111623989Y-59333724D01*
X111634000Y-59250355D01*
X111634000Y-59203500D01*
X111146500Y-59203500D01*
X111146500Y-59728500D01*
X110646500Y-59728500D01*
X110646500Y-58703500D01*
X111146500Y-58703500D01*
X111634000Y-58703500D01*
X111634000Y-58656644D01*
X111623989Y-58573275D01*
X111571674Y-58440613D01*
X111485510Y-58326989D01*
X111437133Y-58290304D01*
X111395609Y-58234111D01*
X111391058Y-58164390D01*
X111424923Y-58103276D01*
X111437133Y-58092696D01*
X111485510Y-58056010D01*
X111571674Y-57942386D01*
X111623989Y-57809724D01*
X111634000Y-57726355D01*
X111634000Y-57679500D01*
X111146500Y-57679500D01*
X111146500Y-58703500D01*
X110646500Y-58703500D01*
X110646500Y-57179500D01*
X111146500Y-57179500D01*
X111634000Y-57179500D01*
X111634000Y-57132644D01*
X111623989Y-57049275D01*
X111571674Y-56916613D01*
X111485510Y-56802989D01*
X111437133Y-56766304D01*
X111395609Y-56710111D01*
X111391058Y-56640390D01*
X111424923Y-56579276D01*
X111437133Y-56568696D01*
X111485510Y-56532010D01*
X111571674Y-56418386D01*
X111623989Y-56285724D01*
X111634000Y-56202355D01*
X111634000Y-56155500D01*
X111146500Y-56155500D01*
X111146500Y-57179500D01*
X110646500Y-57179500D01*
X110646500Y-56029500D01*
X110666185Y-55962461D01*
X110718989Y-55916706D01*
X110770500Y-55905500D01*
X110896500Y-55905500D01*
X110896500Y-55779500D01*
X110916185Y-55712461D01*
X110968989Y-55666706D01*
X111020500Y-55655500D01*
X111634000Y-55655500D01*
X111634000Y-55608644D01*
X111623989Y-55525275D01*
X111571674Y-55392613D01*
X111485510Y-55278989D01*
X111371886Y-55192825D01*
X111239224Y-55140510D01*
X111155856Y-55130500D01*
X111056196Y-55130500D01*
X110989157Y-55110815D01*
X110943402Y-55058011D01*
X110933458Y-54988853D01*
X110956928Y-54932190D01*
X111035336Y-54827450D01*
X111082491Y-54701022D01*
X111086146Y-54667023D01*
X111088499Y-54645144D01*
X111088500Y-54645129D01*
X111088500Y-54117870D01*
X111088499Y-54117855D01*
X111085645Y-54091318D01*
X111082491Y-54061978D01*
X111035336Y-53935550D01*
X110954472Y-53827528D01*
X110846450Y-53746664D01*
X110846447Y-53746662D01*
X110748638Y-53710182D01*
X110692704Y-53668311D01*
X110668287Y-53602847D01*
X110683139Y-53534574D01*
X110732544Y-53485168D01*
X110748638Y-53477818D01*
X110846447Y-53441337D01*
X110846446Y-53441337D01*
X110846450Y-53441336D01*
X110954472Y-53360472D01*
X111035336Y-53252450D01*
X111082491Y-53126022D01*
X111086146Y-53092023D01*
X111088499Y-53070144D01*
X111088500Y-53070129D01*
X111088500Y-52542870D01*
X111088499Y-52542855D01*
X111085645Y-52516318D01*
X111082491Y-52486978D01*
X111043424Y-52382235D01*
X111035337Y-52360552D01*
X111035335Y-52360549D01*
X110954472Y-52252528D01*
X110954470Y-52252526D01*
X110954469Y-52252525D01*
X110913189Y-52221623D01*
X110910452Y-52217967D01*
X110906297Y-52216070D01*
X110889702Y-52190248D01*
X110871318Y-52165689D01*
X110870302Y-52160061D01*
X110868523Y-52157292D01*
X110863500Y-52122357D01*
X110863500Y-52017642D01*
X110883185Y-51950603D01*
X110913191Y-51918374D01*
X110954472Y-51887472D01*
X111035336Y-51779450D01*
X111082491Y-51653022D01*
X111086146Y-51619023D01*
X111088499Y-51597144D01*
X111088500Y-51597129D01*
X111088500Y-51069870D01*
X111088499Y-51069855D01*
X111085269Y-51039821D01*
X111082491Y-51013978D01*
X111042792Y-50907540D01*
X111035337Y-50887552D01*
X111035335Y-50887549D01*
X111030051Y-50880490D01*
X110954472Y-50779528D01*
X110846450Y-50698664D01*
X110846447Y-50698662D01*
X110819090Y-50688459D01*
X110763156Y-50646588D01*
X110738739Y-50581124D01*
X110753590Y-50512851D01*
X110802996Y-50463445D01*
X110816934Y-50456922D01*
X110875885Y-50433675D01*
X110989510Y-50347510D01*
X111075674Y-50233886D01*
X111127989Y-50101224D01*
X111138000Y-50017855D01*
X111138000Y-50008500D01*
X108044000Y-50008500D01*
X108044000Y-50017855D01*
X108054010Y-50101224D01*
X108106325Y-50233886D01*
X108192489Y-50347510D01*
X108306113Y-50433674D01*
X108365066Y-50456922D01*
X108420210Y-50499828D01*
X108443403Y-50565736D01*
X108427283Y-50633720D01*
X108376966Y-50682197D01*
X108362910Y-50688459D01*
X108335551Y-50698663D01*
X108335549Y-50698664D01*
X108227528Y-50779528D01*
X108146664Y-50887549D01*
X108146662Y-50887552D01*
X108099509Y-51013975D01*
X108093500Y-51069855D01*
X108093500Y-51597144D01*
X108099509Y-51653024D01*
X108146662Y-51779447D01*
X108146664Y-51779450D01*
X108227528Y-51887472D01*
X108267972Y-51917748D01*
X108268809Y-51918374D01*
X108271546Y-51922030D01*
X108275703Y-51923929D01*
X108292292Y-51949742D01*
X108310681Y-51974306D01*
X108311697Y-51979937D01*
X108313477Y-51982707D01*
X108318500Y-52017642D01*
X108318500Y-52122357D01*
X108298815Y-52189396D01*
X108268811Y-52221623D01*
X108227530Y-52252525D01*
X108146664Y-52360549D01*
X108146662Y-52360552D01*
X108099509Y-52486975D01*
X108093500Y-52542855D01*
X108093500Y-52690824D01*
X108073815Y-52757863D01*
X108057181Y-52778505D01*
X107438005Y-53397681D01*
X107376682Y-53431166D01*
X107350324Y-53434000D01*
X106899323Y-53434000D01*
X106868862Y-53440059D01*
X106799271Y-53433832D01*
X106794586Y-53431877D01*
X106693876Y-53387410D01*
X106668794Y-53384500D01*
X106549000Y-53384500D01*
X106549000Y-55204499D01*
X106668786Y-55204499D01*
X106668808Y-55204497D01*
X106693869Y-55201591D01*
X106794584Y-55157122D01*
X106809162Y-55154663D01*
X106819550Y-55149128D01*
X106842501Y-55149040D01*
X106854778Y-55146970D01*
X106861875Y-55147550D01*
X106899326Y-55155000D01*
X106952962Y-55155000D01*
X106958012Y-55155413D01*
X106986086Y-55166211D01*
X107014943Y-55174685D01*
X107018356Y-55178624D01*
X107023223Y-55180496D01*
X107041005Y-55204763D01*
X107060698Y-55227489D01*
X107061439Y-55232647D01*
X107064522Y-55236854D01*
X107066361Y-55266877D01*
X107070642Y-55296647D01*
X107068583Y-55303147D01*
X107068795Y-55306593D01*
X107065795Y-55311954D01*
X107058436Y-55335202D01*
X107041560Y-55368390D01*
X107021877Y-55435421D01*
X107021876Y-55435428D01*
X107012878Y-55498011D01*
X107009500Y-55521502D01*
X107009500Y-56720500D01*
X106989815Y-56787539D01*
X106937011Y-56833294D01*
X106885500Y-56844500D01*
X106152684Y-56844500D01*
X106085645Y-56824815D01*
X106039890Y-56772011D01*
X106029946Y-56702853D01*
X106031067Y-56696309D01*
X106033499Y-56684078D01*
X106033500Y-56684076D01*
X106033500Y-55634723D01*
X106033499Y-55634721D01*
X106018967Y-55561664D01*
X106018966Y-55561660D01*
X105992132Y-55521500D01*
X105963601Y-55478799D01*
X105963600Y-55478798D01*
X105904609Y-55439382D01*
X105899518Y-55433290D01*
X105892297Y-55429993D01*
X105877433Y-55406865D01*
X105859804Y-55385770D01*
X105857852Y-55376395D01*
X105854523Y-55371215D01*
X105849500Y-55336280D01*
X105849500Y-55328499D01*
X105869185Y-55261460D01*
X105921989Y-55215705D01*
X105973500Y-55204499D01*
X106048999Y-55204499D01*
X106049000Y-55204498D01*
X106049000Y-53384500D01*
X105929215Y-53384500D01*
X105929191Y-53384502D01*
X105904130Y-53387408D01*
X105904126Y-53387409D01*
X105803414Y-53431877D01*
X105734135Y-53440947D01*
X105729138Y-53440059D01*
X105698677Y-53434000D01*
X105698674Y-53434000D01*
X104999326Y-53434000D01*
X104926260Y-53448534D01*
X104858605Y-53493738D01*
X104858599Y-53493741D01*
X104843400Y-53503897D01*
X104788033Y-53586760D01*
X104788032Y-53586764D01*
X104773500Y-53659821D01*
X104773500Y-54929178D01*
X104788032Y-55002235D01*
X104788035Y-55002243D01*
X104827602Y-55061459D01*
X104833252Y-55079503D01*
X104843477Y-55095414D01*
X104847928Y-55126375D01*
X104848480Y-55128136D01*
X104848500Y-55130349D01*
X104848500Y-55289198D01*
X104828815Y-55356237D01*
X104776011Y-55401992D01*
X104748693Y-55410815D01*
X104685263Y-55423432D01*
X104685260Y-55423433D01*
X104602400Y-55478798D01*
X104602399Y-55478799D01*
X104577948Y-55515391D01*
X104571859Y-55520481D01*
X104568561Y-55527703D01*
X104545432Y-55542566D01*
X104524339Y-55560195D01*
X104514964Y-55562146D01*
X104509783Y-55565477D01*
X104474848Y-55570500D01*
X104316500Y-55570500D01*
X104249461Y-55550815D01*
X104203706Y-55498011D01*
X104192500Y-55446500D01*
X104192500Y-55246323D01*
X104192499Y-55246321D01*
X104177967Y-55173264D01*
X104177966Y-55173260D01*
X104165540Y-55154663D01*
X104122601Y-55090399D01*
X104039740Y-55035034D01*
X104039739Y-55035033D01*
X104039735Y-55035032D01*
X103966677Y-55020500D01*
X103966674Y-55020500D01*
X98217326Y-55020500D01*
X98217323Y-55020500D01*
X98144264Y-55035032D01*
X98144260Y-55035033D01*
X98061399Y-55090399D01*
X98006033Y-55173260D01*
X98006032Y-55173264D01*
X97991500Y-55246321D01*
X97991500Y-56770500D01*
X97971815Y-56837539D01*
X97919011Y-56883294D01*
X97867500Y-56894500D01*
X96669500Y-56894500D01*
X96602461Y-56874815D01*
X96556706Y-56822011D01*
X96545500Y-56770500D01*
X96545500Y-50546321D01*
X97991500Y-50546321D01*
X97991500Y-52195676D01*
X97991903Y-52199769D01*
X97992500Y-52211921D01*
X97992500Y-52835000D01*
X97992501Y-52835009D01*
X97999481Y-52899935D01*
X97999483Y-52899947D01*
X98010688Y-52951453D01*
X98021644Y-52989654D01*
X98021646Y-52989658D01*
X98078323Y-53086568D01*
X98078325Y-53086571D01*
X98124081Y-53139376D01*
X98124091Y-53139387D01*
X98168807Y-53181548D01*
X98168809Y-53181549D01*
X98168813Y-53181553D01*
X98268889Y-53232439D01*
X98335928Y-53252124D01*
X98422000Y-53264500D01*
X98422003Y-53264500D01*
X104723639Y-53264500D01*
X104726442Y-53264349D01*
X104756296Y-53262749D01*
X104782655Y-53259915D01*
X104789664Y-53259080D01*
X104896410Y-53224296D01*
X104957730Y-53190812D01*
X105027337Y-53138704D01*
X105115020Y-53051022D01*
X105115023Y-53051019D01*
X105176629Y-52989412D01*
X105202979Y-52959365D01*
X105202983Y-52959359D01*
X105202988Y-52959354D01*
X105222684Y-52933684D01*
X105244883Y-52900461D01*
X105292779Y-52817498D01*
X105312486Y-52791818D01*
X105325799Y-52778505D01*
X105344322Y-52759982D01*
X105370002Y-52740278D01*
X105452956Y-52692386D01*
X105452957Y-52692385D01*
X105452961Y-52692383D01*
X105486190Y-52670179D01*
X105511871Y-52650473D01*
X105541914Y-52624126D01*
X105594721Y-52571319D01*
X105656044Y-52537834D01*
X105682402Y-52535000D01*
X105698676Y-52535000D01*
X105698677Y-52534999D01*
X105771740Y-52520466D01*
X105854601Y-52465101D01*
X105909966Y-52382240D01*
X105924500Y-52309174D01*
X105924500Y-52292902D01*
X105944185Y-52225863D01*
X105960813Y-52205226D01*
X106097702Y-52068339D01*
X106119558Y-52044007D01*
X106136192Y-52023365D01*
X106140553Y-52017824D01*
X106191439Y-51917748D01*
X106211124Y-51850709D01*
X106223500Y-51764637D01*
X106223500Y-50539736D01*
X106243185Y-50472697D01*
X106295989Y-50426942D01*
X106365147Y-50416998D01*
X106428703Y-50446023D01*
X106446765Y-50465423D01*
X106512528Y-50553272D01*
X106620549Y-50634135D01*
X106620550Y-50634136D01*
X106667835Y-50651772D01*
X106685560Y-50665041D01*
X106705703Y-50674240D01*
X106712984Y-50685570D01*
X106723766Y-50693641D01*
X106731504Y-50714389D01*
X106743477Y-50733018D01*
X106746628Y-50754933D01*
X106748184Y-50759105D01*
X106748500Y-50767953D01*
X106748500Y-50838650D01*
X106728815Y-50905689D01*
X106727603Y-50907540D01*
X106688033Y-50966760D01*
X106688032Y-50966764D01*
X106673500Y-51039821D01*
X106673500Y-52309178D01*
X106688032Y-52382235D01*
X106688033Y-52382239D01*
X106688034Y-52382240D01*
X106743399Y-52465101D01*
X106826260Y-52520466D01*
X106826264Y-52520467D01*
X106899321Y-52534999D01*
X106899324Y-52535000D01*
X106899326Y-52535000D01*
X107598676Y-52535000D01*
X107598677Y-52534999D01*
X107671740Y-52520466D01*
X107754601Y-52465101D01*
X107809966Y-52382240D01*
X107824500Y-52309174D01*
X107824500Y-51039826D01*
X107824500Y-51039823D01*
X107824499Y-51039821D01*
X107809967Y-50966764D01*
X107809966Y-50966760D01*
X107770397Y-50907540D01*
X107749520Y-50840862D01*
X107749500Y-50838650D01*
X107749500Y-50316077D01*
X107750211Y-50302822D01*
X107752025Y-50285946D01*
X107754500Y-50262930D01*
X107754500Y-49660670D01*
X107754499Y-49660655D01*
X107752053Y-49637910D01*
X107748491Y-49604778D01*
X107709092Y-49499144D01*
X108044000Y-49499144D01*
X108044000Y-49508500D01*
X108569000Y-49508500D01*
X109069000Y-49508500D01*
X110113000Y-49508500D01*
X110613000Y-49508500D01*
X111138000Y-49508500D01*
X111138000Y-49499144D01*
X111127989Y-49415775D01*
X111075674Y-49283113D01*
X110989510Y-49169489D01*
X110875886Y-49083325D01*
X110743224Y-49031010D01*
X110659856Y-49021000D01*
X110613000Y-49021000D01*
X110613000Y-49508500D01*
X110113000Y-49508500D01*
X110113000Y-49021000D01*
X110066144Y-49021000D01*
X109982775Y-49031010D01*
X109850113Y-49083325D01*
X109736488Y-49169490D01*
X109689803Y-49231054D01*
X109633611Y-49272577D01*
X109563889Y-49277128D01*
X109502775Y-49243263D01*
X109492197Y-49231054D01*
X109445511Y-49169490D01*
X109331886Y-49083325D01*
X109199224Y-49031010D01*
X109115856Y-49021000D01*
X109069000Y-49021000D01*
X109069000Y-49508500D01*
X108569000Y-49508500D01*
X108569000Y-49021000D01*
X108522144Y-49021000D01*
X108438775Y-49031010D01*
X108306113Y-49083325D01*
X108192489Y-49169489D01*
X108106325Y-49283113D01*
X108054010Y-49415775D01*
X108044000Y-49499144D01*
X107709092Y-49499144D01*
X107701337Y-49478352D01*
X107701335Y-49478349D01*
X107696241Y-49471544D01*
X107620472Y-49370328D01*
X107560053Y-49325099D01*
X107518183Y-49269166D01*
X107513199Y-49199474D01*
X107546684Y-49138151D01*
X107559440Y-49127029D01*
X107675510Y-49039010D01*
X107761674Y-48925386D01*
X107813989Y-48792724D01*
X107824000Y-48709355D01*
X107824000Y-48662500D01*
X107210500Y-48662500D01*
X107143461Y-48642815D01*
X107097706Y-48590011D01*
X107086500Y-48538500D01*
X107086500Y-48412500D01*
X106960500Y-48412500D01*
X106893461Y-48392815D01*
X106847706Y-48340011D01*
X106836500Y-48288500D01*
X106836500Y-48162500D01*
X107336500Y-48162500D01*
X107824000Y-48162500D01*
X107824000Y-48115644D01*
X107813989Y-48032275D01*
X107761674Y-47899613D01*
X107675510Y-47785989D01*
X107561886Y-47699825D01*
X107429224Y-47647510D01*
X107345856Y-47637500D01*
X107336500Y-47637500D01*
X107336500Y-48162500D01*
X106836500Y-48162500D01*
X106836500Y-47637500D01*
X106827144Y-47637500D01*
X106743775Y-47647510D01*
X106611113Y-47699825D01*
X106497489Y-47785989D01*
X106411324Y-47899615D01*
X106388076Y-47958567D01*
X106345169Y-48013711D01*
X106279261Y-48036903D01*
X106211277Y-48020782D01*
X106162801Y-47970464D01*
X106156542Y-47956415D01*
X106146336Y-47929050D01*
X106065472Y-47821028D01*
X105957450Y-47740164D01*
X105957447Y-47740162D01*
X105831024Y-47693009D01*
X105775144Y-47687000D01*
X105775130Y-47687000D01*
X105247870Y-47687000D01*
X105247855Y-47687000D01*
X105191975Y-47693009D01*
X105065552Y-47740162D01*
X105065549Y-47740164D01*
X104957528Y-47821028D01*
X104876664Y-47929049D01*
X104876662Y-47929052D01*
X104829509Y-48055475D01*
X104823500Y-48111355D01*
X104823500Y-48694100D01*
X104803815Y-48761139D01*
X104751011Y-48806894D01*
X104699500Y-48818100D01*
X103740632Y-48818100D01*
X103673593Y-48798415D01*
X103627838Y-48745611D01*
X103617894Y-48676453D01*
X103646919Y-48612897D01*
X103665706Y-48595296D01*
X103699711Y-48569508D01*
X103785874Y-48455886D01*
X103838189Y-48323224D01*
X103848200Y-48239855D01*
X103848200Y-48230500D01*
X102298200Y-48230500D01*
X102298200Y-48239855D01*
X102308210Y-48323224D01*
X102360525Y-48455886D01*
X102446688Y-48569508D01*
X102480694Y-48595296D01*
X102522217Y-48651489D01*
X102526768Y-48721210D01*
X102492903Y-48782324D01*
X102431373Y-48815428D01*
X102405768Y-48818100D01*
X101936946Y-48818100D01*
X101901892Y-48811776D01*
X101901770Y-48812293D01*
X101894218Y-48810508D01*
X101838346Y-48804500D01*
X101838330Y-48804500D01*
X101311070Y-48804500D01*
X101311053Y-48804500D01*
X101255181Y-48810508D01*
X101247630Y-48812293D01*
X101247561Y-48812001D01*
X101219065Y-48817936D01*
X101216008Y-48818100D01*
X101216000Y-48818100D01*
X101215992Y-48818100D01*
X101215989Y-48818101D01*
X101151064Y-48825081D01*
X101151052Y-48825083D01*
X101099546Y-48836288D01*
X101061345Y-48847244D01*
X101061341Y-48847246D01*
X100964431Y-48903923D01*
X100964428Y-48903925D01*
X100911623Y-48949681D01*
X100911612Y-48949691D01*
X100869448Y-48994410D01*
X100865173Y-49000486D01*
X100810492Y-49043980D01*
X100740976Y-49051007D01*
X100678697Y-49019336D01*
X100664964Y-49004045D01*
X100588710Y-48903489D01*
X100475086Y-48817325D01*
X100342424Y-48765010D01*
X100259056Y-48755000D01*
X100249700Y-48755000D01*
X100249700Y-49406000D01*
X100230015Y-49473039D01*
X100177211Y-49518794D01*
X100125700Y-49530000D01*
X99999700Y-49530000D01*
X99999700Y-49656000D01*
X99980015Y-49723039D01*
X99927211Y-49768794D01*
X99875700Y-49780000D01*
X99262200Y-49780000D01*
X99262200Y-49826855D01*
X99272210Y-49910224D01*
X99324526Y-50042888D01*
X99328681Y-50050277D01*
X99327163Y-50051130D01*
X99348354Y-50106891D01*
X99333924Y-50175254D01*
X99284824Y-50224964D01*
X99224727Y-50240500D01*
X98422000Y-50240500D01*
X98421991Y-50240500D01*
X98421990Y-50240501D01*
X98357064Y-50247481D01*
X98357052Y-50247483D01*
X98305546Y-50258688D01*
X98267345Y-50269644D01*
X98267337Y-50269648D01*
X98179331Y-50321118D01*
X98155468Y-50330177D01*
X98155544Y-50330360D01*
X98144261Y-50335033D01*
X98061399Y-50390399D01*
X98006033Y-50473260D01*
X98006032Y-50473264D01*
X97991500Y-50546321D01*
X96545500Y-50546321D01*
X96545500Y-49233144D01*
X99262200Y-49233144D01*
X99262200Y-49280000D01*
X99749700Y-49280000D01*
X99749700Y-48755000D01*
X99740344Y-48755000D01*
X99656975Y-48765010D01*
X99524313Y-48817325D01*
X99410689Y-48903489D01*
X99324525Y-49017113D01*
X99272210Y-49149775D01*
X99262200Y-49233144D01*
X96545500Y-49233144D01*
X96545500Y-47721144D01*
X102298200Y-47721144D01*
X102298200Y-47730500D01*
X102823200Y-47730500D01*
X103323200Y-47730500D01*
X103848200Y-47730500D01*
X103848200Y-47721144D01*
X103838189Y-47637775D01*
X103785874Y-47505113D01*
X103699710Y-47391489D01*
X103586086Y-47305325D01*
X103453424Y-47253010D01*
X103370056Y-47243000D01*
X103323200Y-47243000D01*
X103323200Y-47730500D01*
X102823200Y-47730500D01*
X102823200Y-47243000D01*
X102776344Y-47243000D01*
X102692975Y-47253010D01*
X102560313Y-47305325D01*
X102446689Y-47391489D01*
X102360525Y-47505113D01*
X102308210Y-47637775D01*
X102298200Y-47721144D01*
X96545500Y-47721144D01*
X96545500Y-33169500D01*
X96565185Y-33102461D01*
X96617989Y-33056706D01*
X96669500Y-33045500D01*
X102743000Y-33045500D01*
X102743000Y-35628607D01*
G37*
%TD.AperFunction*%
%TA.AperFunction,Conductor*%
G36*
X102507539Y-78182184D02*
G01*
X102553294Y-78234988D01*
X102564500Y-78286499D01*
X102564500Y-81130500D01*
X102544815Y-81197539D01*
X102492011Y-81243294D01*
X102440500Y-81254500D01*
X101598500Y-81254500D01*
X101531461Y-81234815D01*
X101485706Y-81182011D01*
X101474500Y-81130500D01*
X101474500Y-78286499D01*
X101494185Y-78219460D01*
X101546989Y-78173705D01*
X101598495Y-78162499D01*
X102440500Y-78162499D01*
X102507539Y-78182184D01*
G37*
%TD.AperFunction*%
%TA.AperFunction,Conductor*%
G36*
X102507539Y-72960185D02*
G01*
X102553294Y-73012989D01*
X102564500Y-73064500D01*
X102564500Y-75637500D01*
X102544815Y-75704539D01*
X102492011Y-75750294D01*
X102440500Y-75761500D01*
X101586129Y-75761500D01*
X101586123Y-75761501D01*
X101526516Y-75767908D01*
X101391671Y-75818202D01*
X101391664Y-75818206D01*
X101276455Y-75904452D01*
X101276452Y-75904455D01*
X101190206Y-76019664D01*
X101190202Y-76019671D01*
X101139908Y-76154517D01*
X101133501Y-76214116D01*
X101133500Y-76214135D01*
X101133500Y-76850806D01*
X101113815Y-76917845D01*
X101061011Y-76963600D01*
X100991853Y-76973544D01*
X100928297Y-76944519D01*
X100921819Y-76938487D01*
X99469513Y-75486181D01*
X99436028Y-75424858D01*
X99441012Y-75355166D01*
X99482884Y-75299233D01*
X99548348Y-75274816D01*
X99557194Y-75274500D01*
X99806130Y-75274500D01*
X99806144Y-75274499D01*
X99829709Y-75271965D01*
X99862022Y-75268491D01*
X99988450Y-75221336D01*
X100096472Y-75140472D01*
X100177336Y-75032450D01*
X100187540Y-75005091D01*
X100229409Y-74949158D01*
X100294872Y-74924739D01*
X100363146Y-74939589D01*
X100412552Y-74988993D01*
X100419076Y-75002932D01*
X100442324Y-75061884D01*
X100528489Y-75175510D01*
X100642113Y-75261674D01*
X100774775Y-75313989D01*
X100858144Y-75324000D01*
X100867500Y-75324000D01*
X101367500Y-75324000D01*
X101376856Y-75324000D01*
X101460224Y-75313989D01*
X101592886Y-75261674D01*
X101706510Y-75175510D01*
X101792674Y-75061886D01*
X101844989Y-74929224D01*
X101855000Y-74845855D01*
X101855000Y-74799000D01*
X101367500Y-74799000D01*
X101367500Y-75324000D01*
X100867500Y-75324000D01*
X100867500Y-74673000D01*
X100887185Y-74605961D01*
X100939989Y-74560206D01*
X100991500Y-74549000D01*
X101117500Y-74549000D01*
X101117500Y-74423000D01*
X101137185Y-74355961D01*
X101189989Y-74310206D01*
X101241500Y-74299000D01*
X101855000Y-74299000D01*
X101855000Y-74252144D01*
X101844989Y-74168775D01*
X101792674Y-74036113D01*
X101706510Y-73922489D01*
X101617164Y-73854736D01*
X101575640Y-73798543D01*
X101571089Y-73728822D01*
X101604954Y-73667708D01*
X101617769Y-73656673D01*
X101671472Y-73616472D01*
X101752336Y-73508450D01*
X101761327Y-73484341D01*
X101803194Y-73428409D01*
X101845417Y-73407898D01*
X101881588Y-73398207D01*
X101972913Y-73345480D01*
X102341573Y-72976818D01*
X102368500Y-72962115D01*
X102394319Y-72945523D01*
X102400519Y-72944631D01*
X102402896Y-72943334D01*
X102429254Y-72940500D01*
X102440500Y-72940500D01*
X102507539Y-72960185D01*
G37*
%TD.AperFunction*%
%TA.AperFunction,Conductor*%
G36*
X103054738Y-59750744D02*
G01*
X103086533Y-59758860D01*
X103088096Y-59760539D01*
X103090296Y-59761185D01*
X103111775Y-59785973D01*
X103134142Y-59809998D01*
X103134549Y-59812255D01*
X103136051Y-59813989D01*
X103140721Y-59846468D01*
X103146546Y-59878758D01*
X103145789Y-59881720D01*
X103145995Y-59883147D01*
X103137817Y-59912955D01*
X103136032Y-59917262D01*
X103121500Y-59990321D01*
X103121500Y-65739678D01*
X103136032Y-65812735D01*
X103136033Y-65812739D01*
X103149510Y-65832908D01*
X103191399Y-65895601D01*
X103267293Y-65946311D01*
X103274260Y-65950966D01*
X103274264Y-65950967D01*
X103347321Y-65965499D01*
X103347324Y-65965500D01*
X103347326Y-65965500D01*
X104626096Y-65965500D01*
X104693135Y-65985185D01*
X104738890Y-66037989D01*
X104748834Y-66107147D01*
X104719809Y-66170703D01*
X104713777Y-66177181D01*
X102690311Y-68200646D01*
X102690295Y-68200663D01*
X102668440Y-68224993D01*
X102651775Y-68245674D01*
X102647448Y-68251172D01*
X102647447Y-68251174D01*
X102596560Y-68351252D01*
X102576877Y-68418283D01*
X102564500Y-68504364D01*
X102564500Y-71715500D01*
X102544815Y-71782539D01*
X102492011Y-71828294D01*
X102440500Y-71839500D01*
X102434475Y-71839500D01*
X102289525Y-71839500D01*
X102160993Y-71873940D01*
X102149511Y-71877017D01*
X102037516Y-71941678D01*
X101969616Y-71958151D01*
X101903589Y-71935298D01*
X101860398Y-71880377D01*
X101852400Y-71819507D01*
X101855000Y-71797855D01*
X101855000Y-71751000D01*
X101241500Y-71751000D01*
X101174461Y-71731315D01*
X101128706Y-71678511D01*
X101117500Y-71627000D01*
X101117500Y-71501000D01*
X100991500Y-71501000D01*
X100924461Y-71481315D01*
X100878706Y-71428511D01*
X100867500Y-71377000D01*
X100867500Y-71251000D01*
X101367500Y-71251000D01*
X101855000Y-71251000D01*
X101855000Y-71204144D01*
X101844989Y-71120775D01*
X101792674Y-70988113D01*
X101706510Y-70874489D01*
X101658133Y-70837804D01*
X101616609Y-70781611D01*
X101612058Y-70711890D01*
X101645923Y-70650776D01*
X101658133Y-70640196D01*
X101706510Y-70603510D01*
X101792674Y-70489886D01*
X101844989Y-70357224D01*
X101855000Y-70273855D01*
X101855000Y-70227000D01*
X101367500Y-70227000D01*
X101367500Y-71251000D01*
X100867500Y-71251000D01*
X100867500Y-69727000D01*
X101367500Y-69727000D01*
X101855000Y-69727000D01*
X101855000Y-69680144D01*
X101844989Y-69596775D01*
X101792674Y-69464113D01*
X101706510Y-69350489D01*
X101658133Y-69313804D01*
X101616609Y-69257611D01*
X101612058Y-69187890D01*
X101645923Y-69126776D01*
X101658133Y-69116196D01*
X101706510Y-69079510D01*
X101792674Y-68965886D01*
X101844989Y-68833224D01*
X101855000Y-68749855D01*
X101855000Y-68703000D01*
X101367500Y-68703000D01*
X101367500Y-69727000D01*
X100867500Y-69727000D01*
X100867500Y-68203000D01*
X101367500Y-68203000D01*
X101855000Y-68203000D01*
X101855000Y-68156144D01*
X101844989Y-68072775D01*
X101792674Y-67940113D01*
X101706510Y-67826489D01*
X101658133Y-67789804D01*
X101616609Y-67733611D01*
X101612058Y-67663890D01*
X101645923Y-67602776D01*
X101658133Y-67592196D01*
X101706510Y-67555510D01*
X101792674Y-67441886D01*
X101844989Y-67309224D01*
X101855000Y-67225855D01*
X101855000Y-67179000D01*
X101367500Y-67179000D01*
X101367500Y-68203000D01*
X100867500Y-68203000D01*
X100867500Y-67053000D01*
X100887185Y-66985961D01*
X100939989Y-66940206D01*
X100991500Y-66929000D01*
X101117500Y-66929000D01*
X101117500Y-66803000D01*
X101137185Y-66735961D01*
X101189989Y-66690206D01*
X101241500Y-66679000D01*
X101855000Y-66679000D01*
X101855000Y-66632144D01*
X101844989Y-66548775D01*
X101792674Y-66416113D01*
X101706510Y-66302489D01*
X101592883Y-66216323D01*
X101561263Y-66203854D01*
X101506119Y-66160948D01*
X101482926Y-66095041D01*
X101499047Y-66027056D01*
X101549364Y-65978580D01*
X101606753Y-65964500D01*
X101824990Y-65964500D01*
X101825000Y-65964500D01*
X101889941Y-65957518D01*
X101941452Y-65946312D01*
X101979658Y-65935354D01*
X102076571Y-65878675D01*
X102129375Y-65832920D01*
X102129382Y-65832912D01*
X102129387Y-65832908D01*
X102171548Y-65788192D01*
X102171553Y-65788187D01*
X102222439Y-65688111D01*
X102242124Y-65621072D01*
X102254500Y-65535000D01*
X102254500Y-60195000D01*
X102247518Y-60130059D01*
X102236312Y-60078548D01*
X102225354Y-60040342D01*
X102168675Y-59943429D01*
X102168672Y-59943426D01*
X102165337Y-59938770D01*
X102167263Y-59937389D01*
X102142490Y-59883172D01*
X102152419Y-59814011D01*
X102198164Y-59761198D01*
X102265199Y-59741500D01*
X103023257Y-59741500D01*
X103054738Y-59750744D01*
G37*
%TD.AperFunction*%
%TA.AperFunction,Conductor*%
G36*
X100292283Y-40887903D02*
G01*
X100393212Y-40961232D01*
X100547555Y-41039873D01*
X100712299Y-41093402D01*
X100883389Y-41120500D01*
X100883390Y-41120500D01*
X101056610Y-41120500D01*
X101056611Y-41120500D01*
X101227701Y-41093402D01*
X101392445Y-41039873D01*
X101494224Y-40988014D01*
X101550517Y-40974500D01*
X101576727Y-40974500D01*
X102627500Y-40974500D01*
X102694539Y-40994185D01*
X102740294Y-41046989D01*
X102751500Y-41098500D01*
X102751500Y-41198678D01*
X102766032Y-41271735D01*
X102766033Y-41271739D01*
X102779926Y-41292531D01*
X102800803Y-41359209D01*
X102782318Y-41426589D01*
X102764504Y-41449102D01*
X102100243Y-42113363D01*
X102038920Y-42146848D01*
X101969228Y-42141864D01*
X101913295Y-42099992D01*
X101905995Y-42088632D01*
X101904735Y-42086949D01*
X101823872Y-41978928D01*
X101715850Y-41898064D01*
X101715847Y-41898062D01*
X101589424Y-41850909D01*
X101533544Y-41844900D01*
X101533530Y-41844900D01*
X101006270Y-41844900D01*
X101006255Y-41844900D01*
X100950375Y-41850909D01*
X100823952Y-41898062D01*
X100823949Y-41898064D01*
X100715928Y-41978928D01*
X100635064Y-42086949D01*
X100635062Y-42086952D01*
X100598582Y-42184761D01*
X100556711Y-42240695D01*
X100491246Y-42265112D01*
X100422973Y-42250260D01*
X100373568Y-42200855D01*
X100366218Y-42184761D01*
X100329737Y-42086952D01*
X100329735Y-42086949D01*
X100248872Y-41978928D01*
X100145089Y-41901237D01*
X100103218Y-41845303D01*
X100095400Y-41801970D01*
X100095400Y-40988222D01*
X100115085Y-40921183D01*
X100167889Y-40875428D01*
X100237047Y-40865484D01*
X100292283Y-40887903D01*
G37*
%TD.AperFunction*%
%TA.AperFunction,Conductor*%
G36*
X105045039Y-40060185D02*
G01*
X105090794Y-40112989D01*
X105102000Y-40164500D01*
X105102000Y-40324000D01*
X107101999Y-40324000D01*
X107101999Y-40164500D01*
X107121684Y-40097461D01*
X107174488Y-40051706D01*
X107225999Y-40040500D01*
X107824500Y-40040500D01*
X107833185Y-40043050D01*
X107842147Y-40041762D01*
X107866187Y-40052740D01*
X107891539Y-40060185D01*
X107897466Y-40067025D01*
X107905703Y-40070787D01*
X107919992Y-40093021D01*
X107937294Y-40112989D01*
X107939581Y-40123503D01*
X107943477Y-40129565D01*
X107948500Y-40164500D01*
X107948500Y-40313622D01*
X107928815Y-40380661D01*
X107912181Y-40401303D01*
X107313681Y-40999803D01*
X107252358Y-41033288D01*
X107182666Y-41028304D01*
X107126733Y-40986432D01*
X107102316Y-40920968D01*
X107102000Y-40912122D01*
X107102000Y-40824000D01*
X105102001Y-40824000D01*
X105102001Y-41004500D01*
X105099450Y-41013185D01*
X105100739Y-41022147D01*
X105089760Y-41046187D01*
X105082316Y-41071539D01*
X105075475Y-41077466D01*
X105071714Y-41085703D01*
X105049479Y-41099992D01*
X105029512Y-41117294D01*
X105018997Y-41119581D01*
X105012936Y-41123477D01*
X104978001Y-41128500D01*
X104776500Y-41128500D01*
X104709461Y-41108815D01*
X104663706Y-41056011D01*
X104652500Y-41004500D01*
X104652500Y-40241255D01*
X104672185Y-40174216D01*
X104688819Y-40153574D01*
X104765574Y-40076819D01*
X104826897Y-40043334D01*
X104853255Y-40040500D01*
X104978000Y-40040500D01*
X105045039Y-40060185D01*
G37*
%TD.AperFunction*%
%TA.AperFunction,Conductor*%
G36*
X108087181Y-37035251D02*
G01*
X108120666Y-37096574D01*
X108123500Y-37122932D01*
X108123500Y-37422893D01*
X108103815Y-37489932D01*
X108068392Y-37525995D01*
X108018399Y-37559399D01*
X107963033Y-37642260D01*
X107963032Y-37642264D01*
X107948500Y-37715321D01*
X107948500Y-38149500D01*
X107928815Y-38216539D01*
X107876011Y-38262294D01*
X107824500Y-38273500D01*
X107176500Y-38273500D01*
X107109461Y-38253815D01*
X107063706Y-38201011D01*
X107052500Y-38149500D01*
X107052500Y-38049323D01*
X107052499Y-38049321D01*
X107037967Y-37976264D01*
X107037966Y-37976260D01*
X106982601Y-37893399D01*
X106899740Y-37838034D01*
X106899739Y-37838033D01*
X106899735Y-37838032D01*
X106826677Y-37823500D01*
X106826674Y-37823500D01*
X106629851Y-37823500D01*
X106562812Y-37803815D01*
X106517057Y-37751011D01*
X106507113Y-37681853D01*
X106536138Y-37618297D01*
X106542170Y-37611819D01*
X106561989Y-37592000D01*
X106807000Y-37592000D01*
X106807000Y-37346988D01*
X107086434Y-37067553D01*
X107147755Y-37034070D01*
X107217443Y-37039053D01*
X107223978Y-37041491D01*
X107239648Y-37043175D01*
X107279853Y-37047499D01*
X107279870Y-37047500D01*
X107807130Y-37047500D01*
X107807144Y-37047499D01*
X107825897Y-37045482D01*
X107863022Y-37041491D01*
X107956166Y-37006749D01*
X108025858Y-37001766D01*
X108087181Y-37035251D01*
G37*
%TD.AperFunction*%
%TA.AperFunction,Conductor*%
G36*
X109814702Y-36838673D02*
G01*
X109819258Y-36838348D01*
X109846184Y-36853051D01*
X109874103Y-36865801D01*
X109876573Y-36869644D01*
X109880581Y-36871833D01*
X109895284Y-36898760D01*
X109911877Y-36924579D01*
X109912768Y-36930779D01*
X109914066Y-36933156D01*
X109916900Y-36959514D01*
X109916900Y-36966744D01*
X109922909Y-37022624D01*
X109970062Y-37149047D01*
X109970063Y-37149049D01*
X109998767Y-37187392D01*
X110006505Y-37208140D01*
X110018477Y-37226768D01*
X110021628Y-37248684D01*
X110023184Y-37252856D01*
X110023500Y-37261703D01*
X110023500Y-37322734D01*
X110003815Y-37389773D01*
X109951011Y-37435528D01*
X109881853Y-37445472D01*
X109870254Y-37443070D01*
X109843794Y-37440000D01*
X109724000Y-37440000D01*
X109724000Y-38146000D01*
X109704315Y-38213039D01*
X109651511Y-38258794D01*
X109600000Y-38270000D01*
X109348000Y-38270000D01*
X109280961Y-38250315D01*
X109235206Y-38197511D01*
X109224000Y-38146000D01*
X109224000Y-37440000D01*
X109104215Y-37440000D01*
X109104191Y-37440002D01*
X109069859Y-37443984D01*
X109069647Y-37442158D01*
X109055823Y-37441881D01*
X109030853Y-37445472D01*
X109021484Y-37441193D01*
X109011188Y-37440987D01*
X108990246Y-37426927D01*
X108967297Y-37416447D01*
X108961728Y-37407781D01*
X108953179Y-37402042D01*
X108943162Y-37378892D01*
X108929523Y-37357669D01*
X108927305Y-37342245D01*
X108925433Y-37337918D01*
X108924500Y-37322734D01*
X108924500Y-37171500D01*
X108944185Y-37104461D01*
X108996989Y-37058706D01*
X109048500Y-37047500D01*
X109382130Y-37047500D01*
X109382144Y-37047499D01*
X109404023Y-37045146D01*
X109438022Y-37041491D01*
X109564450Y-36994336D01*
X109672472Y-36913472D01*
X109693633Y-36885203D01*
X109718204Y-36866809D01*
X109741389Y-36846720D01*
X109745908Y-36846070D01*
X109749566Y-36843332D01*
X109780176Y-36841142D01*
X109810547Y-36836776D01*
X109814702Y-36838673D01*
G37*
%TD.AperFunction*%
%TA.AperFunction,Conductor*%
G36*
X113004500Y-78486000D02*
G01*
X107315000Y-78486000D01*
X107315000Y-75438000D01*
X113004500Y-75438000D01*
X113004500Y-78486000D01*
G37*
%TD.AperFunction*%
M02*
