M48
; DRILL file {KiCad 7.0.6} date Fri Nov 17 09:16:27 2023
; FORMAT={-:-/ absolute / inch / decimal}
; #@! TF.CreationDate,2023-11-17T09:16:27+01:00
; #@! TF.GenerationSoftware,Kicad,Pcbnew,7.0.6
; #@! TF.FileFunction,Plated,1,4,PTH
FMAT,2
INCH
; #@! TA.AperFunction,Plated,PTH,ViaDrill
T1C0.0118
; #@! TA.AperFunction,Plated,PTH,ComponentDrill
T2C0.0394
; #@! TA.AperFunction,Plated,PTH,ComponentDrill
T3C0.0472
; #@! TA.AperFunction,Plated,PTH,ComponentDrill
T4C0.0591
%
G90
G05
T1
X3.845Y-1.93
X3.85Y-1.765
X3.89Y-2.07
X3.92Y-1.83
X3.92Y-2.07
X3.95Y-2.07
X3.965Y-1.71
X3.965Y-2.385
X3.965Y-2.415
X3.965Y-2.445
X3.965Y-2.475
X3.965Y-2.505
X3.965Y-2.535
X3.965Y-2.565
X3.965Y-2.99
X3.97Y-1.95
X3.98Y-2.07
X3.995Y-2.385
X3.995Y-2.415
X3.995Y-2.445
X3.995Y-2.475
X3.995Y-2.505
X3.995Y-2.535
X3.995Y-2.565
X4.01Y-2.07
X4.015Y-2.635
X4.015Y-2.695
X4.015Y-2.755
X4.015Y-2.815
X4.015Y-2.935
X4.015Y-3.105
X4.015Y-3.165
X4.02Y-2.13
X4.025Y-1.63
X4.03Y-1.54
X4.03Y-2.85
X4.035Y-1.855
X4.04Y-1.46
X4.04Y-1.68
X4.04Y-2.07
X4.045Y-2.385
X4.045Y-2.445
X4.045Y-2.505
X4.045Y-2.565
X4.06Y-1.8
X4.065Y-2.13
X4.07Y-2.07
X4.07Y-2.625
X4.155Y-1.6281
X4.155Y-2.086
X4.185Y-2.086
X4.19Y-2.191
X4.195Y-1.78
X4.215Y-1.87
X4.215Y-2.086
X4.234Y-2.42
X4.234Y-2.45
X4.234Y-2.48
X4.24Y-2.68
X4.245Y-1.34
X4.245Y-2.985
X4.245Y-3.015
X4.245Y-3.045
X4.245Y-3.075
X4.25Y-3.175
X4.25Y-3.365
X4.255Y-2.735
X4.255Y-2.765
X4.255Y-2.795
X4.265Y-1.53
X4.265Y-1.69
X4.27Y-1.84
X4.27Y-1.895
X4.3Y-2.68
X4.32Y-1.615
X4.325Y-1.47
X4.325Y-1.895
X4.349Y-2.41
X4.359Y-2.665
X4.37Y-1.66
X4.37Y-1.895
X4.385Y-1.961
X4.39Y-1.345
X4.405Y-1.5
X4.41Y-2.171
X4.41Y-2.201
X4.41Y-2.231
X4.41Y-2.261
X4.41Y-2.291
X4.41Y-2.321
X4.415Y-2.585
X4.415Y-2.81
X4.415Y-2.935
X4.415Y-3.145
X4.42Y-2.046
T2
X3.8752Y-1.3756
X3.8752Y-1.4756
X3.8752Y-1.5756
X3.9752Y-1.3756
X3.9752Y-1.4756
X3.9752Y-1.5756
T3
X4.125Y-1.4
X4.125Y-3.3
T4
X3.9Y-3.1
X4.35Y-3.3
T0
M30
