%TF.GenerationSoftware,KiCad,Pcbnew,7.0.6*%
%TF.CreationDate,2023-11-17T09:16:20+01:00*%
%TF.ProjectId,dc_64d,64635f36-3464-42e6-9b69-6361645f7063,0.1*%
%TF.SameCoordinates,Original*%
%TF.FileFunction,Copper,L3,Inr*%
%TF.FilePolarity,Positive*%
%FSLAX46Y46*%
G04 Gerber Fmt 4.6, Leading zero omitted, Abs format (unit mm)*
G04 Created by KiCad (PCBNEW 7.0.6) date 2023-11-17 09:16:20*
%MOMM*%
%LPD*%
G01*
G04 APERTURE LIST*
%TA.AperFunction,ComponentPad*%
%ADD10C,3.000000*%
%TD*%
%TA.AperFunction,ComponentPad*%
%ADD11C,2.500000*%
%TD*%
%TA.AperFunction,ComponentPad*%
%ADD12R,1.700000X1.700000*%
%TD*%
%TA.AperFunction,ComponentPad*%
%ADD13O,1.700000X1.700000*%
%TD*%
%TA.AperFunction,ViaPad*%
%ADD14C,0.600000*%
%TD*%
G04 APERTURE END LIST*
D10*
X99060000Y-78740000D03*
X110490000Y-83820000D03*
D11*
X104775000Y-83820000D03*
X104775000Y-35560000D03*
D12*
X100970000Y-34940000D03*
D13*
X98430000Y-34940000D03*
X100970000Y-37480000D03*
X98430000Y-37480000D03*
X100970000Y-40020000D03*
X98430000Y-40020000D03*
D14*
X111887000Y-38100000D03*
X105537000Y-41352498D03*
X106426000Y-55651500D03*
X107823000Y-76581000D03*
X110998000Y-42164000D03*
X112141000Y-79883000D03*
X107543500Y-62230000D03*
X102743000Y-63627000D03*
X110998000Y-48133000D03*
X97663000Y-49022000D03*
X105537000Y-52984500D03*
X99568000Y-46482000D03*
X112014000Y-55905500D03*
X110464500Y-61214000D03*
X102108000Y-54102000D03*
X112268000Y-51968500D03*
X108331000Y-38862000D03*
X101981000Y-78867000D03*
X101981000Y-66929000D03*
X101981000Y-80391000D03*
X108458000Y-46736000D03*
X109855000Y-37338000D03*
X102743000Y-65151000D03*
X107543500Y-62992000D03*
X108077000Y-70993000D03*
X100711000Y-75946000D03*
X101981000Y-74549000D03*
X100838000Y-49530000D03*
X107696000Y-68072000D03*
X102616000Y-37084000D03*
X101981000Y-71501000D03*
X107950000Y-80645000D03*
X107061000Y-47498000D03*
X111379000Y-49809500D03*
X101981000Y-68453000D03*
X102743000Y-62103000D03*
X101981000Y-69977000D03*
X108077000Y-70231000D03*
X107543500Y-61468000D03*
X102235000Y-41402000D03*
X102489000Y-47117000D03*
X112141000Y-71374000D03*
X111506000Y-34163000D03*
X102743000Y-60579000D03*
X106553000Y-45212000D03*
X106299000Y-52984500D03*
X108077000Y-69469000D03*
X97790000Y-44831000D03*
X109728000Y-41021000D03*
X112014000Y-57429500D03*
X112014000Y-58953500D03*
X109855000Y-48133000D03*
X102362000Y-39116000D03*
X112014000Y-55143500D03*
X107823000Y-34036000D03*
X112014000Y-58191500D03*
X100711000Y-43434000D03*
X103251000Y-54102000D03*
X107950000Y-85471000D03*
X108458000Y-48133000D03*
X103124000Y-45720000D03*
X112141000Y-65659000D03*
X112141000Y-74549000D03*
X109220000Y-68072000D03*
X112014000Y-56667500D03*
X107823000Y-75819000D03*
X103378000Y-66675000D03*
X107823000Y-77343000D03*
X107061000Y-52984500D03*
X107823000Y-78105000D03*
X98806000Y-52578000D03*
X102616000Y-52578000D03*
X101092000Y-52578000D03*
X101854000Y-52578000D03*
X100330000Y-52578000D03*
X99568000Y-52578000D03*
X103378000Y-52578000D03*
X100711000Y-62103000D03*
X100711000Y-63627000D03*
X101473000Y-63627000D03*
X100711000Y-62865000D03*
X102362000Y-72390000D03*
X101473000Y-60579000D03*
X100711000Y-60579000D03*
X100711000Y-64389000D03*
X108331000Y-42926000D03*
X110718500Y-67691000D03*
X101473000Y-62865000D03*
X100711000Y-65151000D03*
X102616000Y-42672000D03*
X101473000Y-62103000D03*
X101473000Y-65151000D03*
X100711000Y-61341000D03*
X101473000Y-61341000D03*
X101473000Y-64389000D03*
%TA.AperFunction,Conductor*%
G36*
X103829039Y-52089685D02*
G01*
X103874794Y-52142489D01*
X103886000Y-52194000D01*
X103886000Y-53216000D01*
X103866315Y-53283039D01*
X103813511Y-53328794D01*
X103762000Y-53340000D01*
X101218999Y-53340000D01*
X99441000Y-55117999D01*
X99441000Y-55118000D01*
X99441000Y-72136000D01*
X100457000Y-73152000D01*
X106556000Y-73152000D01*
X106623039Y-73171685D01*
X106668794Y-73224489D01*
X106680000Y-73276000D01*
X106680000Y-86210500D01*
X106660315Y-86277539D01*
X106607511Y-86323294D01*
X106556000Y-86334500D01*
X103019500Y-86334500D01*
X102952461Y-86314815D01*
X102906706Y-86262011D01*
X102895500Y-86210500D01*
X102895500Y-81309738D01*
X102897601Y-81299177D01*
X102897601Y-81279999D01*
X102889517Y-81260483D01*
X102875072Y-81254500D01*
X102870000Y-81252399D01*
X102850824Y-81252399D01*
X102840262Y-81254500D01*
X96669500Y-81254500D01*
X96602461Y-81234815D01*
X96556706Y-81182011D01*
X96545500Y-81130500D01*
X96545500Y-78740004D01*
X97304592Y-78740004D01*
X97324196Y-79001620D01*
X97324197Y-79001625D01*
X97382576Y-79257402D01*
X97382578Y-79257411D01*
X97382580Y-79257416D01*
X97478432Y-79501643D01*
X97609614Y-79728857D01*
X97741736Y-79894533D01*
X97773198Y-79933985D01*
X97954753Y-80102441D01*
X97965521Y-80112433D01*
X98182296Y-80260228D01*
X98182301Y-80260230D01*
X98182302Y-80260231D01*
X98182303Y-80260232D01*
X98307843Y-80320688D01*
X98418673Y-80374061D01*
X98418674Y-80374061D01*
X98418677Y-80374063D01*
X98669385Y-80451396D01*
X98928818Y-80490500D01*
X99191182Y-80490500D01*
X99450615Y-80451396D01*
X99646414Y-80391000D01*
X101425750Y-80391000D01*
X101444670Y-80534708D01*
X101444671Y-80534712D01*
X101500137Y-80668622D01*
X101500138Y-80668624D01*
X101500139Y-80668625D01*
X101588379Y-80783621D01*
X101703375Y-80871861D01*
X101837291Y-80927330D01*
X101964280Y-80944048D01*
X101980999Y-80946250D01*
X101981000Y-80946250D01*
X101981001Y-80946250D01*
X101995977Y-80944278D01*
X102124709Y-80927330D01*
X102258625Y-80871861D01*
X102373621Y-80783621D01*
X102461861Y-80668625D01*
X102517330Y-80534709D01*
X102536250Y-80391000D01*
X102517330Y-80247291D01*
X102461861Y-80113375D01*
X102373621Y-79998379D01*
X102258625Y-79910139D01*
X102258624Y-79910138D01*
X102258622Y-79910137D01*
X102124712Y-79854671D01*
X102124710Y-79854670D01*
X102124709Y-79854670D01*
X102052854Y-79845210D01*
X101981001Y-79835750D01*
X101980999Y-79835750D01*
X101837291Y-79854670D01*
X101837287Y-79854671D01*
X101703377Y-79910137D01*
X101588379Y-79998379D01*
X101500137Y-80113377D01*
X101444671Y-80247287D01*
X101444670Y-80247291D01*
X101425750Y-80390999D01*
X101425750Y-80391000D01*
X99646414Y-80391000D01*
X99701323Y-80374063D01*
X99937704Y-80260228D01*
X100154479Y-80112433D01*
X100346805Y-79933981D01*
X100510386Y-79728857D01*
X100641568Y-79501643D01*
X100737420Y-79257416D01*
X100795802Y-79001630D01*
X100805891Y-78867000D01*
X101425750Y-78867000D01*
X101443473Y-79001620D01*
X101444670Y-79010708D01*
X101444671Y-79010712D01*
X101500137Y-79144622D01*
X101500138Y-79144624D01*
X101500139Y-79144625D01*
X101588379Y-79259621D01*
X101703375Y-79347861D01*
X101837291Y-79403330D01*
X101964280Y-79420048D01*
X101980999Y-79422250D01*
X101981000Y-79422250D01*
X101981001Y-79422250D01*
X101995977Y-79420278D01*
X102124709Y-79403330D01*
X102258625Y-79347861D01*
X102373621Y-79259621D01*
X102461861Y-79144625D01*
X102517330Y-79010709D01*
X102536250Y-78867000D01*
X102517330Y-78723291D01*
X102461861Y-78589375D01*
X102373621Y-78474379D01*
X102258625Y-78386139D01*
X102258624Y-78386138D01*
X102258622Y-78386137D01*
X102124712Y-78330671D01*
X102124710Y-78330670D01*
X102124709Y-78330670D01*
X102052854Y-78321210D01*
X101981001Y-78311750D01*
X101980999Y-78311750D01*
X101837291Y-78330670D01*
X101837287Y-78330671D01*
X101703377Y-78386137D01*
X101588379Y-78474379D01*
X101500137Y-78589377D01*
X101444671Y-78723287D01*
X101444670Y-78723291D01*
X101425750Y-78867000D01*
X100805891Y-78867000D01*
X100815408Y-78740000D01*
X100804120Y-78589375D01*
X100795803Y-78478379D01*
X100795802Y-78478374D01*
X100795802Y-78478370D01*
X100737420Y-78222584D01*
X100641568Y-77978357D01*
X100510386Y-77751143D01*
X100346805Y-77546019D01*
X100346804Y-77546018D01*
X100346801Y-77546014D01*
X100154479Y-77367567D01*
X100154478Y-77367566D01*
X99937704Y-77219772D01*
X99937700Y-77219770D01*
X99937697Y-77219768D01*
X99937696Y-77219767D01*
X99701325Y-77105938D01*
X99701327Y-77105938D01*
X99450623Y-77028606D01*
X99450619Y-77028605D01*
X99450615Y-77028604D01*
X99325823Y-77009794D01*
X99191187Y-76989500D01*
X99191182Y-76989500D01*
X98928818Y-76989500D01*
X98928812Y-76989500D01*
X98767247Y-77013853D01*
X98669385Y-77028604D01*
X98669381Y-77028605D01*
X98669382Y-77028605D01*
X98669376Y-77028606D01*
X98418673Y-77105938D01*
X98182303Y-77219767D01*
X98182302Y-77219768D01*
X97965520Y-77367567D01*
X97773198Y-77546014D01*
X97609614Y-77751143D01*
X97478432Y-77978356D01*
X97382582Y-78222578D01*
X97382576Y-78222597D01*
X97324197Y-78478374D01*
X97324196Y-78478379D01*
X97304592Y-78739995D01*
X97304592Y-78740004D01*
X96545500Y-78740004D01*
X96545500Y-75946000D01*
X100155750Y-75946000D01*
X100174670Y-76089708D01*
X100174671Y-76089712D01*
X100230137Y-76223622D01*
X100230138Y-76223624D01*
X100230139Y-76223625D01*
X100318379Y-76338621D01*
X100433375Y-76426861D01*
X100567291Y-76482330D01*
X100694280Y-76499048D01*
X100710999Y-76501250D01*
X100711000Y-76501250D01*
X100711001Y-76501250D01*
X100725977Y-76499278D01*
X100854709Y-76482330D01*
X100988625Y-76426861D01*
X101103621Y-76338621D01*
X101191861Y-76223625D01*
X101247330Y-76089709D01*
X101266250Y-75946000D01*
X101247330Y-75802291D01*
X101191861Y-75668375D01*
X101103621Y-75553379D01*
X100988625Y-75465139D01*
X100988624Y-75465138D01*
X100988622Y-75465137D01*
X100854712Y-75409671D01*
X100854710Y-75409670D01*
X100854709Y-75409670D01*
X100782854Y-75400210D01*
X100711001Y-75390750D01*
X100710999Y-75390750D01*
X100567291Y-75409670D01*
X100567287Y-75409671D01*
X100433377Y-75465137D01*
X100318379Y-75553379D01*
X100230137Y-75668377D01*
X100174671Y-75802287D01*
X100174670Y-75802291D01*
X100155750Y-75945999D01*
X100155750Y-75946000D01*
X96545500Y-75946000D01*
X96545500Y-74549000D01*
X101425750Y-74549000D01*
X101444670Y-74692708D01*
X101444671Y-74692712D01*
X101500137Y-74826622D01*
X101500138Y-74826624D01*
X101500139Y-74826625D01*
X101588379Y-74941621D01*
X101703375Y-75029861D01*
X101837291Y-75085330D01*
X101964280Y-75102048D01*
X101980999Y-75104250D01*
X101981000Y-75104250D01*
X101981001Y-75104250D01*
X101995977Y-75102278D01*
X102124709Y-75085330D01*
X102258625Y-75029861D01*
X102373621Y-74941621D01*
X102461861Y-74826625D01*
X102517330Y-74692709D01*
X102536250Y-74549000D01*
X102517330Y-74405291D01*
X102461861Y-74271375D01*
X102373621Y-74156379D01*
X102258625Y-74068139D01*
X102258624Y-74068138D01*
X102258622Y-74068137D01*
X102124712Y-74012671D01*
X102124710Y-74012670D01*
X102124709Y-74012670D01*
X102052854Y-74003210D01*
X101981001Y-73993750D01*
X101980999Y-73993750D01*
X101837291Y-74012670D01*
X101837287Y-74012671D01*
X101703377Y-74068137D01*
X101588379Y-74156379D01*
X101500137Y-74271377D01*
X101444671Y-74405287D01*
X101444670Y-74405291D01*
X101425750Y-74548999D01*
X101425750Y-74549000D01*
X96545500Y-74549000D01*
X96545500Y-52194000D01*
X96565185Y-52126961D01*
X96617989Y-52081206D01*
X96669500Y-52070000D01*
X103762000Y-52070000D01*
X103829039Y-52089685D01*
G37*
%TD.AperFunction*%
%TA.AperFunction,Conductor*%
G36*
X112947539Y-33065185D02*
G01*
X112993294Y-33117989D01*
X113004500Y-33169500D01*
X113004500Y-51684652D01*
X112984815Y-51751691D01*
X112932011Y-51797446D01*
X112862853Y-51807390D01*
X112799297Y-51778365D01*
X112765939Y-51732105D01*
X112759870Y-51717453D01*
X112748861Y-51690875D01*
X112660621Y-51575879D01*
X112545625Y-51487639D01*
X112545624Y-51487638D01*
X112545622Y-51487637D01*
X112411712Y-51432171D01*
X112411710Y-51432170D01*
X112411709Y-51432170D01*
X112339854Y-51422710D01*
X112268001Y-51413250D01*
X112267999Y-51413250D01*
X112124291Y-51432170D01*
X112124287Y-51432171D01*
X111990377Y-51487637D01*
X111875379Y-51575879D01*
X111787137Y-51690877D01*
X111731671Y-51824787D01*
X111731670Y-51824791D01*
X111712750Y-51968499D01*
X111712750Y-51968500D01*
X111731670Y-52112208D01*
X111731671Y-52112212D01*
X111787137Y-52246122D01*
X111787138Y-52246124D01*
X111787139Y-52246125D01*
X111875379Y-52361121D01*
X111990375Y-52449361D01*
X112124291Y-52504830D01*
X112251280Y-52521548D01*
X112267999Y-52523750D01*
X112268000Y-52523750D01*
X112268001Y-52523750D01*
X112282977Y-52521778D01*
X112411709Y-52504830D01*
X112545625Y-52449361D01*
X112660621Y-52361121D01*
X112748861Y-52246125D01*
X112765938Y-52204895D01*
X112809779Y-52150491D01*
X112876073Y-52128426D01*
X112943773Y-52145705D01*
X112991384Y-52196842D01*
X113004500Y-52252347D01*
X113004500Y-86210500D01*
X112984815Y-86277539D01*
X112932011Y-86323294D01*
X112880500Y-86334500D01*
X107059500Y-86334500D01*
X106992461Y-86314815D01*
X106946706Y-86262011D01*
X106935500Y-86210500D01*
X106935500Y-85471000D01*
X107394750Y-85471000D01*
X107413670Y-85614708D01*
X107413671Y-85614712D01*
X107469137Y-85748622D01*
X107469138Y-85748624D01*
X107469139Y-85748625D01*
X107557379Y-85863621D01*
X107672375Y-85951861D01*
X107806291Y-86007330D01*
X107933280Y-86024048D01*
X107949999Y-86026250D01*
X107950000Y-86026250D01*
X107950001Y-86026250D01*
X107964977Y-86024278D01*
X108093709Y-86007330D01*
X108227625Y-85951861D01*
X108342621Y-85863621D01*
X108430861Y-85748625D01*
X108486330Y-85614709D01*
X108505250Y-85471000D01*
X108486330Y-85327291D01*
X108430861Y-85193375D01*
X108342621Y-85078379D01*
X108227625Y-84990139D01*
X108227624Y-84990138D01*
X108227622Y-84990137D01*
X108093712Y-84934671D01*
X108093710Y-84934670D01*
X108093709Y-84934670D01*
X108021854Y-84925210D01*
X107950001Y-84915750D01*
X107949999Y-84915750D01*
X107806291Y-84934670D01*
X107806287Y-84934671D01*
X107672377Y-84990137D01*
X107557379Y-85078379D01*
X107469137Y-85193377D01*
X107413671Y-85327287D01*
X107413670Y-85327291D01*
X107394750Y-85470999D01*
X107394750Y-85471000D01*
X106935500Y-85471000D01*
X106935500Y-83820001D01*
X108484891Y-83820001D01*
X108505300Y-84105362D01*
X108566109Y-84384895D01*
X108666091Y-84652958D01*
X108803191Y-84904038D01*
X108803196Y-84904046D01*
X108909882Y-85046561D01*
X108909883Y-85046562D01*
X109812803Y-84143641D01*
X109836059Y-84197553D01*
X109940756Y-84338185D01*
X110075062Y-84450882D01*
X110166665Y-84496886D01*
X109263436Y-85400115D01*
X109405960Y-85506807D01*
X109405961Y-85506808D01*
X109657042Y-85643908D01*
X109657041Y-85643908D01*
X109925104Y-85743890D01*
X110204637Y-85804699D01*
X110489999Y-85825109D01*
X110490001Y-85825109D01*
X110775362Y-85804699D01*
X111054895Y-85743890D01*
X111322958Y-85643908D01*
X111574047Y-85506803D01*
X111716561Y-85400116D01*
X111716562Y-85400115D01*
X110815946Y-84499498D01*
X110828891Y-84494787D01*
X110975373Y-84398445D01*
X111095688Y-84270918D01*
X111168447Y-84144893D01*
X112070115Y-85046562D01*
X112070116Y-85046561D01*
X112176803Y-84904047D01*
X112313908Y-84652958D01*
X112413890Y-84384895D01*
X112474699Y-84105362D01*
X112495108Y-83820001D01*
X112495108Y-83819998D01*
X112474699Y-83534637D01*
X112413890Y-83255104D01*
X112313908Y-82987041D01*
X112176808Y-82735961D01*
X112176807Y-82735960D01*
X112070115Y-82593436D01*
X111167195Y-83496356D01*
X111143941Y-83442447D01*
X111039244Y-83301815D01*
X110904938Y-83189118D01*
X110813333Y-83143112D01*
X111716562Y-82239883D01*
X111716561Y-82239882D01*
X111574046Y-82133196D01*
X111574038Y-82133191D01*
X111322957Y-81996091D01*
X111322958Y-81996091D01*
X111054895Y-81896109D01*
X110775362Y-81835300D01*
X110490001Y-81814891D01*
X110489999Y-81814891D01*
X110204637Y-81835300D01*
X109925104Y-81896109D01*
X109657041Y-81996091D01*
X109405961Y-82133191D01*
X109405953Y-82133196D01*
X109263437Y-82239882D01*
X109263436Y-82239883D01*
X110164054Y-83140501D01*
X110151109Y-83145213D01*
X110004627Y-83241555D01*
X109884312Y-83369082D01*
X109811552Y-83495105D01*
X108909883Y-82593436D01*
X108909882Y-82593436D01*
X108803196Y-82735953D01*
X108803191Y-82735961D01*
X108666091Y-82987041D01*
X108566109Y-83255104D01*
X108505300Y-83534637D01*
X108484891Y-83819998D01*
X108484891Y-83820001D01*
X106935500Y-83820001D01*
X106935500Y-80645000D01*
X107394750Y-80645000D01*
X107413670Y-80788708D01*
X107413671Y-80788712D01*
X107469137Y-80922622D01*
X107469138Y-80922624D01*
X107469139Y-80922625D01*
X107557379Y-81037621D01*
X107672375Y-81125861D01*
X107672376Y-81125861D01*
X107672377Y-81125862D01*
X107717013Y-81144350D01*
X107806291Y-81181330D01*
X107933280Y-81198048D01*
X107949999Y-81200250D01*
X107950000Y-81200250D01*
X107950001Y-81200250D01*
X107964977Y-81198278D01*
X108093709Y-81181330D01*
X108227625Y-81125861D01*
X108342621Y-81037621D01*
X108430861Y-80922625D01*
X108486330Y-80788709D01*
X108505250Y-80645000D01*
X108486330Y-80501291D01*
X108430861Y-80367375D01*
X108342621Y-80252379D01*
X108227625Y-80164139D01*
X108227624Y-80164138D01*
X108227622Y-80164137D01*
X108093712Y-80108671D01*
X108093710Y-80108670D01*
X108093709Y-80108670D01*
X108021854Y-80099210D01*
X107950001Y-80089750D01*
X107949999Y-80089750D01*
X107806291Y-80108670D01*
X107806287Y-80108671D01*
X107672377Y-80164137D01*
X107557379Y-80252379D01*
X107469137Y-80367377D01*
X107413671Y-80501287D01*
X107413670Y-80501291D01*
X107394750Y-80644999D01*
X107394750Y-80645000D01*
X106935500Y-80645000D01*
X106935500Y-79883000D01*
X111585750Y-79883000D01*
X111604670Y-80026708D01*
X111604671Y-80026712D01*
X111660137Y-80160622D01*
X111660138Y-80160624D01*
X111660139Y-80160625D01*
X111748379Y-80275621D01*
X111863375Y-80363861D01*
X111863376Y-80363861D01*
X111863377Y-80363862D01*
X111908013Y-80382350D01*
X111997291Y-80419330D01*
X112124280Y-80436048D01*
X112140999Y-80438250D01*
X112141000Y-80438250D01*
X112141001Y-80438250D01*
X112155977Y-80436278D01*
X112284709Y-80419330D01*
X112418625Y-80363861D01*
X112533621Y-80275621D01*
X112621861Y-80160625D01*
X112677330Y-80026709D01*
X112696250Y-79883000D01*
X112677330Y-79739291D01*
X112621861Y-79605375D01*
X112533621Y-79490379D01*
X112418625Y-79402139D01*
X112418624Y-79402138D01*
X112418622Y-79402137D01*
X112284712Y-79346671D01*
X112284710Y-79346670D01*
X112284709Y-79346670D01*
X112212854Y-79337210D01*
X112141001Y-79327750D01*
X112140999Y-79327750D01*
X111997291Y-79346670D01*
X111997287Y-79346671D01*
X111863377Y-79402137D01*
X111748379Y-79490379D01*
X111660137Y-79605377D01*
X111604671Y-79739287D01*
X111604670Y-79739291D01*
X111585750Y-79882999D01*
X111585750Y-79883000D01*
X106935500Y-79883000D01*
X106935500Y-78105000D01*
X107267750Y-78105000D01*
X107286670Y-78248708D01*
X107286671Y-78248712D01*
X107342137Y-78382622D01*
X107342138Y-78382624D01*
X107342139Y-78382625D01*
X107430379Y-78497621D01*
X107545375Y-78585861D01*
X107679291Y-78641330D01*
X107806280Y-78658048D01*
X107822999Y-78660250D01*
X107823000Y-78660250D01*
X107823001Y-78660250D01*
X107837977Y-78658278D01*
X107966709Y-78641330D01*
X108100625Y-78585861D01*
X108215621Y-78497621D01*
X108303861Y-78382625D01*
X108359330Y-78248709D01*
X108378250Y-78105000D01*
X108359330Y-77961291D01*
X108303861Y-77827375D01*
X108282460Y-77799485D01*
X108257267Y-77734317D01*
X108271305Y-77665873D01*
X108282460Y-77648515D01*
X108303861Y-77620625D01*
X108359330Y-77486709D01*
X108378250Y-77343000D01*
X108359330Y-77199291D01*
X108303861Y-77065375D01*
X108282460Y-77037485D01*
X108257267Y-76972317D01*
X108271305Y-76903873D01*
X108282460Y-76886515D01*
X108303861Y-76858625D01*
X108359330Y-76724709D01*
X108378250Y-76581000D01*
X108359330Y-76437291D01*
X108303861Y-76303375D01*
X108282460Y-76275485D01*
X108257267Y-76210317D01*
X108271305Y-76141873D01*
X108282460Y-76124515D01*
X108303861Y-76096625D01*
X108359330Y-75962709D01*
X108378250Y-75819000D01*
X108359330Y-75675291D01*
X108303861Y-75541375D01*
X108215621Y-75426379D01*
X108100625Y-75338139D01*
X108100624Y-75338138D01*
X108100622Y-75338137D01*
X107966712Y-75282671D01*
X107966710Y-75282670D01*
X107966709Y-75282670D01*
X107894854Y-75273210D01*
X107823001Y-75263750D01*
X107822999Y-75263750D01*
X107679291Y-75282670D01*
X107679287Y-75282671D01*
X107545377Y-75338137D01*
X107430379Y-75426379D01*
X107342137Y-75541377D01*
X107286671Y-75675287D01*
X107286670Y-75675291D01*
X107267750Y-75818999D01*
X107267750Y-75819000D01*
X107286670Y-75962708D01*
X107286671Y-75962712D01*
X107342138Y-76096624D01*
X107363539Y-76124515D01*
X107388732Y-76189684D01*
X107374693Y-76258129D01*
X107363539Y-76275485D01*
X107342138Y-76303375D01*
X107286671Y-76437287D01*
X107286670Y-76437291D01*
X107267750Y-76580999D01*
X107267750Y-76581000D01*
X107286670Y-76724708D01*
X107286671Y-76724712D01*
X107342138Y-76858624D01*
X107363539Y-76886515D01*
X107388732Y-76951684D01*
X107374693Y-77020129D01*
X107363539Y-77037485D01*
X107342138Y-77065375D01*
X107286671Y-77199287D01*
X107286670Y-77199291D01*
X107267750Y-77342999D01*
X107267750Y-77343000D01*
X107286670Y-77486708D01*
X107286671Y-77486712D01*
X107342138Y-77620624D01*
X107363539Y-77648515D01*
X107388732Y-77713684D01*
X107374693Y-77782129D01*
X107363539Y-77799485D01*
X107342138Y-77827375D01*
X107286671Y-77961287D01*
X107286670Y-77961291D01*
X107267750Y-78104999D01*
X107267750Y-78105000D01*
X106935500Y-78105000D01*
X106935500Y-74549000D01*
X111585750Y-74549000D01*
X111604670Y-74692708D01*
X111604671Y-74692712D01*
X111660137Y-74826622D01*
X111660138Y-74826624D01*
X111660139Y-74826625D01*
X111748379Y-74941621D01*
X111863375Y-75029861D01*
X111997291Y-75085330D01*
X112124280Y-75102048D01*
X112140999Y-75104250D01*
X112141000Y-75104250D01*
X112141001Y-75104250D01*
X112155977Y-75102278D01*
X112284709Y-75085330D01*
X112418625Y-75029861D01*
X112533621Y-74941621D01*
X112621861Y-74826625D01*
X112677330Y-74692709D01*
X112696250Y-74549000D01*
X112677330Y-74405291D01*
X112621861Y-74271375D01*
X112533621Y-74156379D01*
X112418625Y-74068139D01*
X112418624Y-74068138D01*
X112418622Y-74068137D01*
X112284712Y-74012671D01*
X112284710Y-74012670D01*
X112284709Y-74012670D01*
X112212854Y-74003210D01*
X112141001Y-73993750D01*
X112140999Y-73993750D01*
X111997291Y-74012670D01*
X111997287Y-74012671D01*
X111863377Y-74068137D01*
X111748379Y-74156379D01*
X111660137Y-74271377D01*
X111604671Y-74405287D01*
X111604670Y-74405291D01*
X111585750Y-74548999D01*
X111585750Y-74549000D01*
X106935500Y-74549000D01*
X106935500Y-73276000D01*
X106929661Y-73221687D01*
X106918455Y-73170176D01*
X106911219Y-73143802D01*
X106911216Y-73143796D01*
X106861894Y-73057181D01*
X106861888Y-73057172D01*
X106816136Y-73004371D01*
X106783359Y-72972743D01*
X106695022Y-72926534D01*
X106695022Y-72926533D01*
X106627990Y-72906851D01*
X106627978Y-72906848D01*
X106556001Y-72896500D01*
X106556000Y-72896500D01*
X100614194Y-72896500D01*
X100547155Y-72876815D01*
X100526513Y-72860181D01*
X99732819Y-72066487D01*
X99699334Y-72005164D01*
X99696500Y-71978806D01*
X99696500Y-71501000D01*
X101425750Y-71501000D01*
X101444670Y-71644708D01*
X101444671Y-71644712D01*
X101500137Y-71778622D01*
X101500138Y-71778624D01*
X101500139Y-71778625D01*
X101588379Y-71893621D01*
X101703375Y-71981861D01*
X101837291Y-72037330D01*
X101964280Y-72054048D01*
X101980999Y-72056250D01*
X101981000Y-72056250D01*
X101981001Y-72056250D01*
X101995977Y-72054278D01*
X102124709Y-72037330D01*
X102258625Y-71981861D01*
X102373621Y-71893621D01*
X102461861Y-71778625D01*
X102517330Y-71644709D01*
X102536250Y-71501000D01*
X102517330Y-71357291D01*
X102461861Y-71223375D01*
X102373621Y-71108379D01*
X102258625Y-71020139D01*
X102258624Y-71020138D01*
X102258622Y-71020137D01*
X102193106Y-70993000D01*
X107521750Y-70993000D01*
X107540670Y-71136708D01*
X107540671Y-71136712D01*
X107596137Y-71270622D01*
X107596138Y-71270624D01*
X107596139Y-71270625D01*
X107684379Y-71385621D01*
X107799375Y-71473861D01*
X107933291Y-71529330D01*
X108060280Y-71546048D01*
X108076999Y-71548250D01*
X108077000Y-71548250D01*
X108077001Y-71548250D01*
X108091977Y-71546278D01*
X108220709Y-71529330D01*
X108354625Y-71473861D01*
X108469621Y-71385621D01*
X108478538Y-71374000D01*
X111585750Y-71374000D01*
X111604670Y-71517708D01*
X111604671Y-71517712D01*
X111660137Y-71651622D01*
X111660138Y-71651624D01*
X111660139Y-71651625D01*
X111748379Y-71766621D01*
X111863375Y-71854861D01*
X111997291Y-71910330D01*
X112124280Y-71927048D01*
X112140999Y-71929250D01*
X112141000Y-71929250D01*
X112141001Y-71929250D01*
X112155977Y-71927278D01*
X112284709Y-71910330D01*
X112418625Y-71854861D01*
X112533621Y-71766621D01*
X112621861Y-71651625D01*
X112677330Y-71517709D01*
X112696250Y-71374000D01*
X112677330Y-71230291D01*
X112621861Y-71096375D01*
X112533621Y-70981379D01*
X112418625Y-70893139D01*
X112418624Y-70893138D01*
X112418622Y-70893137D01*
X112284712Y-70837671D01*
X112284710Y-70837670D01*
X112284709Y-70837670D01*
X112212854Y-70828210D01*
X112141001Y-70818750D01*
X112140999Y-70818750D01*
X111997291Y-70837670D01*
X111997287Y-70837671D01*
X111863377Y-70893137D01*
X111748379Y-70981379D01*
X111660137Y-71096377D01*
X111604671Y-71230287D01*
X111604670Y-71230291D01*
X111585750Y-71373999D01*
X111585750Y-71374000D01*
X108478538Y-71374000D01*
X108557861Y-71270625D01*
X108613330Y-71136709D01*
X108632250Y-70993000D01*
X108613330Y-70849291D01*
X108557861Y-70715375D01*
X108536460Y-70687485D01*
X108511267Y-70622317D01*
X108525305Y-70553873D01*
X108536460Y-70536515D01*
X108557861Y-70508625D01*
X108613330Y-70374709D01*
X108632250Y-70231000D01*
X108613330Y-70087291D01*
X108557861Y-69953375D01*
X108536460Y-69925485D01*
X108511267Y-69860317D01*
X108525305Y-69791873D01*
X108536460Y-69774515D01*
X108557861Y-69746625D01*
X108613330Y-69612709D01*
X108632250Y-69469000D01*
X108613330Y-69325291D01*
X108557861Y-69191375D01*
X108469621Y-69076379D01*
X108354625Y-68988139D01*
X108354624Y-68988138D01*
X108354622Y-68988137D01*
X108220712Y-68932671D01*
X108220710Y-68932670D01*
X108220709Y-68932670D01*
X108148854Y-68923210D01*
X108077001Y-68913750D01*
X108076999Y-68913750D01*
X107933291Y-68932670D01*
X107933287Y-68932671D01*
X107799377Y-68988137D01*
X107684379Y-69076379D01*
X107596137Y-69191377D01*
X107540671Y-69325287D01*
X107540670Y-69325291D01*
X107521750Y-69468999D01*
X107521750Y-69469000D01*
X107540670Y-69612708D01*
X107540671Y-69612712D01*
X107596138Y-69746624D01*
X107617539Y-69774515D01*
X107642732Y-69839684D01*
X107628693Y-69908129D01*
X107617539Y-69925485D01*
X107596138Y-69953375D01*
X107540671Y-70087287D01*
X107540670Y-70087291D01*
X107521750Y-70230999D01*
X107521750Y-70231000D01*
X107540670Y-70374708D01*
X107540671Y-70374712D01*
X107596138Y-70508624D01*
X107617539Y-70536515D01*
X107642732Y-70601684D01*
X107628693Y-70670129D01*
X107617539Y-70687485D01*
X107596138Y-70715375D01*
X107540671Y-70849287D01*
X107540670Y-70849291D01*
X107521750Y-70992999D01*
X107521750Y-70993000D01*
X102193106Y-70993000D01*
X102124712Y-70964671D01*
X102124710Y-70964670D01*
X102124709Y-70964670D01*
X102052854Y-70955210D01*
X101981001Y-70945750D01*
X101980999Y-70945750D01*
X101837291Y-70964670D01*
X101837287Y-70964671D01*
X101703377Y-71020137D01*
X101588379Y-71108379D01*
X101500137Y-71223377D01*
X101444671Y-71357287D01*
X101444670Y-71357291D01*
X101425750Y-71500999D01*
X101425750Y-71501000D01*
X99696500Y-71501000D01*
X99696500Y-69977000D01*
X101425750Y-69977000D01*
X101444670Y-70120708D01*
X101444671Y-70120712D01*
X101500137Y-70254622D01*
X101500138Y-70254624D01*
X101500139Y-70254625D01*
X101588379Y-70369621D01*
X101703375Y-70457861D01*
X101837291Y-70513330D01*
X101964280Y-70530048D01*
X101980999Y-70532250D01*
X101981000Y-70532250D01*
X101981001Y-70532250D01*
X101995977Y-70530278D01*
X102124709Y-70513330D01*
X102258625Y-70457861D01*
X102373621Y-70369621D01*
X102461861Y-70254625D01*
X102517330Y-70120709D01*
X102536250Y-69977000D01*
X102517330Y-69833291D01*
X102461861Y-69699375D01*
X102373621Y-69584379D01*
X102258625Y-69496139D01*
X102258624Y-69496138D01*
X102258622Y-69496137D01*
X102124712Y-69440671D01*
X102124710Y-69440670D01*
X102124709Y-69440670D01*
X102052854Y-69431210D01*
X101981001Y-69421750D01*
X101980999Y-69421750D01*
X101837291Y-69440670D01*
X101837287Y-69440671D01*
X101703377Y-69496137D01*
X101588379Y-69584379D01*
X101500137Y-69699377D01*
X101444671Y-69833287D01*
X101444670Y-69833291D01*
X101425750Y-69976999D01*
X101425750Y-69977000D01*
X99696500Y-69977000D01*
X99696500Y-68453000D01*
X101425750Y-68453000D01*
X101444670Y-68596708D01*
X101444671Y-68596712D01*
X101500137Y-68730622D01*
X101500138Y-68730624D01*
X101500139Y-68730625D01*
X101588379Y-68845621D01*
X101703375Y-68933861D01*
X101837291Y-68989330D01*
X101964280Y-69006048D01*
X101980999Y-69008250D01*
X101981000Y-69008250D01*
X101981001Y-69008250D01*
X101995977Y-69006278D01*
X102124709Y-68989330D01*
X102258625Y-68933861D01*
X102373621Y-68845621D01*
X102461861Y-68730625D01*
X102517330Y-68596709D01*
X102536250Y-68453000D01*
X102517330Y-68309291D01*
X102461861Y-68175375D01*
X102382538Y-68072000D01*
X107140750Y-68072000D01*
X107159670Y-68215708D01*
X107159671Y-68215712D01*
X107215137Y-68349622D01*
X107215138Y-68349624D01*
X107215139Y-68349625D01*
X107303379Y-68464621D01*
X107418375Y-68552861D01*
X107552291Y-68608330D01*
X107679280Y-68625048D01*
X107695999Y-68627250D01*
X107696000Y-68627250D01*
X107696001Y-68627250D01*
X107710977Y-68625278D01*
X107839709Y-68608330D01*
X107973625Y-68552861D01*
X108088621Y-68464621D01*
X108176861Y-68349625D01*
X108232330Y-68215709D01*
X108251250Y-68072000D01*
X108664750Y-68072000D01*
X108683670Y-68215708D01*
X108683671Y-68215712D01*
X108739137Y-68349622D01*
X108739138Y-68349624D01*
X108739139Y-68349625D01*
X108827379Y-68464621D01*
X108942375Y-68552861D01*
X109076291Y-68608330D01*
X109203280Y-68625048D01*
X109219999Y-68627250D01*
X109220000Y-68627250D01*
X109220001Y-68627250D01*
X109234977Y-68625278D01*
X109363709Y-68608330D01*
X109497625Y-68552861D01*
X109612621Y-68464621D01*
X109700861Y-68349625D01*
X109756330Y-68215709D01*
X109775250Y-68072000D01*
X109756330Y-67928291D01*
X109700861Y-67794375D01*
X109612621Y-67679379D01*
X109497625Y-67591139D01*
X109497624Y-67591138D01*
X109497622Y-67591137D01*
X109363712Y-67535671D01*
X109363710Y-67535670D01*
X109363709Y-67535670D01*
X109291854Y-67526210D01*
X109220001Y-67516750D01*
X109219999Y-67516750D01*
X109076291Y-67535670D01*
X109076287Y-67535671D01*
X108942377Y-67591137D01*
X108827379Y-67679379D01*
X108739137Y-67794377D01*
X108683671Y-67928287D01*
X108683670Y-67928291D01*
X108664750Y-68071999D01*
X108664750Y-68072000D01*
X108251250Y-68072000D01*
X108232330Y-67928291D01*
X108176861Y-67794375D01*
X108088621Y-67679379D01*
X107973625Y-67591139D01*
X107973624Y-67591138D01*
X107973622Y-67591137D01*
X107839712Y-67535671D01*
X107839710Y-67535670D01*
X107839709Y-67535670D01*
X107767854Y-67526210D01*
X107696001Y-67516750D01*
X107695999Y-67516750D01*
X107552291Y-67535670D01*
X107552287Y-67535671D01*
X107418377Y-67591137D01*
X107303379Y-67679379D01*
X107215137Y-67794377D01*
X107159671Y-67928287D01*
X107159670Y-67928291D01*
X107140750Y-68071999D01*
X107140750Y-68072000D01*
X102382538Y-68072000D01*
X102373621Y-68060379D01*
X102258625Y-67972139D01*
X102258624Y-67972138D01*
X102258622Y-67972137D01*
X102124712Y-67916671D01*
X102124710Y-67916670D01*
X102124709Y-67916670D01*
X102052854Y-67907210D01*
X101981001Y-67897750D01*
X101980999Y-67897750D01*
X101837291Y-67916670D01*
X101837287Y-67916671D01*
X101703377Y-67972137D01*
X101588379Y-68060379D01*
X101500137Y-68175377D01*
X101444671Y-68309287D01*
X101444670Y-68309291D01*
X101425750Y-68452999D01*
X101425750Y-68453000D01*
X99696500Y-68453000D01*
X99696500Y-66929000D01*
X101425750Y-66929000D01*
X101444670Y-67072708D01*
X101444671Y-67072712D01*
X101500137Y-67206622D01*
X101500138Y-67206624D01*
X101500139Y-67206625D01*
X101588379Y-67321621D01*
X101703375Y-67409861D01*
X101837291Y-67465330D01*
X101964280Y-67482048D01*
X101980999Y-67484250D01*
X101981000Y-67484250D01*
X101981001Y-67484250D01*
X101995977Y-67482278D01*
X102124709Y-67465330D01*
X102258625Y-67409861D01*
X102373621Y-67321621D01*
X102461861Y-67206625D01*
X102517330Y-67072709D01*
X102536250Y-66929000D01*
X102517330Y-66785291D01*
X102471647Y-66675000D01*
X102822750Y-66675000D01*
X102841670Y-66818708D01*
X102841671Y-66818712D01*
X102897137Y-66952622D01*
X102897138Y-66952624D01*
X102897139Y-66952625D01*
X102985379Y-67067621D01*
X103100375Y-67155861D01*
X103234291Y-67211330D01*
X103361280Y-67228048D01*
X103377999Y-67230250D01*
X103378000Y-67230250D01*
X103378001Y-67230250D01*
X103392977Y-67228278D01*
X103521709Y-67211330D01*
X103655625Y-67155861D01*
X103770621Y-67067621D01*
X103858861Y-66952625D01*
X103914330Y-66818709D01*
X103933250Y-66675000D01*
X103914330Y-66531291D01*
X103858861Y-66397375D01*
X103770621Y-66282379D01*
X103655625Y-66194139D01*
X103655624Y-66194138D01*
X103655622Y-66194137D01*
X103521712Y-66138671D01*
X103521710Y-66138670D01*
X103521709Y-66138670D01*
X103449854Y-66129210D01*
X103378001Y-66119750D01*
X103377999Y-66119750D01*
X103234291Y-66138670D01*
X103234287Y-66138671D01*
X103100377Y-66194137D01*
X102985379Y-66282379D01*
X102897137Y-66397377D01*
X102841671Y-66531287D01*
X102841670Y-66531291D01*
X102822750Y-66674999D01*
X102822750Y-66675000D01*
X102471647Y-66675000D01*
X102461861Y-66651375D01*
X102373621Y-66536379D01*
X102258625Y-66448139D01*
X102258624Y-66448138D01*
X102258622Y-66448137D01*
X102124712Y-66392671D01*
X102124710Y-66392670D01*
X102124709Y-66392670D01*
X102052854Y-66383210D01*
X101981001Y-66373750D01*
X101980999Y-66373750D01*
X101837291Y-66392670D01*
X101837287Y-66392671D01*
X101703377Y-66448137D01*
X101588379Y-66536379D01*
X101500137Y-66651377D01*
X101444671Y-66785287D01*
X101444670Y-66785291D01*
X101425750Y-66928999D01*
X101425750Y-66929000D01*
X99696500Y-66929000D01*
X99696500Y-65151000D01*
X102187750Y-65151000D01*
X102206670Y-65294708D01*
X102206671Y-65294712D01*
X102262137Y-65428622D01*
X102262138Y-65428624D01*
X102262139Y-65428625D01*
X102350379Y-65543621D01*
X102465375Y-65631861D01*
X102599291Y-65687330D01*
X102726280Y-65704048D01*
X102742999Y-65706250D01*
X102743000Y-65706250D01*
X102743001Y-65706250D01*
X102757977Y-65704278D01*
X102886709Y-65687330D01*
X102955105Y-65659000D01*
X111585750Y-65659000D01*
X111604670Y-65802708D01*
X111604671Y-65802712D01*
X111660137Y-65936622D01*
X111660138Y-65936624D01*
X111660139Y-65936625D01*
X111748379Y-66051621D01*
X111863375Y-66139861D01*
X111997291Y-66195330D01*
X112124280Y-66212048D01*
X112140999Y-66214250D01*
X112141000Y-66214250D01*
X112141001Y-66214250D01*
X112155977Y-66212278D01*
X112284709Y-66195330D01*
X112418625Y-66139861D01*
X112533621Y-66051621D01*
X112621861Y-65936625D01*
X112677330Y-65802709D01*
X112696250Y-65659000D01*
X112677330Y-65515291D01*
X112621861Y-65381375D01*
X112533621Y-65266379D01*
X112418625Y-65178139D01*
X112418624Y-65178138D01*
X112418622Y-65178137D01*
X112284712Y-65122671D01*
X112284710Y-65122670D01*
X112284709Y-65122670D01*
X112212854Y-65113210D01*
X112141001Y-65103750D01*
X112140999Y-65103750D01*
X111997291Y-65122670D01*
X111997287Y-65122671D01*
X111863377Y-65178137D01*
X111748379Y-65266379D01*
X111660137Y-65381377D01*
X111604671Y-65515287D01*
X111604670Y-65515291D01*
X111585750Y-65658999D01*
X111585750Y-65659000D01*
X102955105Y-65659000D01*
X103020625Y-65631861D01*
X103135621Y-65543621D01*
X103223861Y-65428625D01*
X103279330Y-65294709D01*
X103298250Y-65151000D01*
X103279330Y-65007291D01*
X103223861Y-64873375D01*
X103135621Y-64758379D01*
X103020625Y-64670139D01*
X103020624Y-64670138D01*
X103020622Y-64670137D01*
X102886712Y-64614671D01*
X102886710Y-64614670D01*
X102886709Y-64614670D01*
X102814854Y-64605210D01*
X102743001Y-64595750D01*
X102742999Y-64595750D01*
X102599291Y-64614670D01*
X102599287Y-64614671D01*
X102465377Y-64670137D01*
X102350379Y-64758379D01*
X102262137Y-64873377D01*
X102206671Y-65007287D01*
X102206670Y-65007291D01*
X102187750Y-65150999D01*
X102187750Y-65151000D01*
X99696500Y-65151000D01*
X99696500Y-63627000D01*
X102187750Y-63627000D01*
X102206670Y-63770708D01*
X102206671Y-63770712D01*
X102262137Y-63904622D01*
X102262138Y-63904624D01*
X102262139Y-63904625D01*
X102350379Y-64019621D01*
X102465375Y-64107861D01*
X102599291Y-64163330D01*
X102726280Y-64180048D01*
X102742999Y-64182250D01*
X102743000Y-64182250D01*
X102743001Y-64182250D01*
X102757977Y-64180278D01*
X102886709Y-64163330D01*
X103020625Y-64107861D01*
X103135621Y-64019621D01*
X103223861Y-63904625D01*
X103279330Y-63770709D01*
X103298250Y-63627000D01*
X103279330Y-63483291D01*
X103223861Y-63349375D01*
X103135621Y-63234379D01*
X103020625Y-63146139D01*
X103020624Y-63146138D01*
X103020622Y-63146137D01*
X102886712Y-63090671D01*
X102886710Y-63090670D01*
X102886709Y-63090670D01*
X102814854Y-63081210D01*
X102743001Y-63071750D01*
X102742999Y-63071750D01*
X102599291Y-63090670D01*
X102599287Y-63090671D01*
X102465377Y-63146137D01*
X102350379Y-63234379D01*
X102262137Y-63349377D01*
X102206671Y-63483287D01*
X102206670Y-63483291D01*
X102187750Y-63626999D01*
X102187750Y-63627000D01*
X99696500Y-63627000D01*
X99696500Y-62992000D01*
X106988250Y-62992000D01*
X106998749Y-63071750D01*
X107007170Y-63135708D01*
X107007171Y-63135712D01*
X107062637Y-63269622D01*
X107062638Y-63269624D01*
X107062639Y-63269625D01*
X107150879Y-63384621D01*
X107265875Y-63472861D01*
X107265876Y-63472861D01*
X107265877Y-63472862D01*
X107310513Y-63491350D01*
X107399791Y-63528330D01*
X107526780Y-63545048D01*
X107543499Y-63547250D01*
X107543500Y-63547250D01*
X107543501Y-63547250D01*
X107558477Y-63545278D01*
X107687209Y-63528330D01*
X107821125Y-63472861D01*
X107936121Y-63384621D01*
X108024361Y-63269625D01*
X108079830Y-63135709D01*
X108098750Y-62992000D01*
X108079830Y-62848291D01*
X108024361Y-62714375D01*
X108002960Y-62686485D01*
X107977767Y-62621317D01*
X107991805Y-62552873D01*
X108002960Y-62535515D01*
X108024361Y-62507625D01*
X108079830Y-62373709D01*
X108098750Y-62230000D01*
X108079830Y-62086291D01*
X108024361Y-61952375D01*
X108002960Y-61924485D01*
X107977767Y-61859317D01*
X107991805Y-61790873D01*
X108002960Y-61773515D01*
X108024361Y-61745625D01*
X108079830Y-61611709D01*
X108098750Y-61468000D01*
X108079830Y-61324291D01*
X108034147Y-61214000D01*
X109909250Y-61214000D01*
X109928170Y-61357708D01*
X109928171Y-61357712D01*
X109983637Y-61491622D01*
X109983638Y-61491624D01*
X109983639Y-61491625D01*
X110071879Y-61606621D01*
X110186875Y-61694861D01*
X110320791Y-61750330D01*
X110447780Y-61767048D01*
X110464499Y-61769250D01*
X110464500Y-61769250D01*
X110464501Y-61769250D01*
X110479477Y-61767278D01*
X110608209Y-61750330D01*
X110742125Y-61694861D01*
X110857121Y-61606621D01*
X110945361Y-61491625D01*
X111000830Y-61357709D01*
X111019750Y-61214000D01*
X111000830Y-61070291D01*
X110945361Y-60936375D01*
X110857121Y-60821379D01*
X110742125Y-60733139D01*
X110742124Y-60733138D01*
X110742122Y-60733137D01*
X110608212Y-60677671D01*
X110608210Y-60677670D01*
X110608209Y-60677670D01*
X110536354Y-60668210D01*
X110464501Y-60658750D01*
X110464499Y-60658750D01*
X110320791Y-60677670D01*
X110320787Y-60677671D01*
X110186877Y-60733137D01*
X110071879Y-60821379D01*
X109983637Y-60936377D01*
X109928171Y-61070287D01*
X109928170Y-61070291D01*
X109909250Y-61213999D01*
X109909250Y-61214000D01*
X108034147Y-61214000D01*
X108024361Y-61190375D01*
X107936121Y-61075379D01*
X107821125Y-60987139D01*
X107821124Y-60987138D01*
X107821122Y-60987137D01*
X107687212Y-60931671D01*
X107687210Y-60931670D01*
X107687209Y-60931670D01*
X107615354Y-60922210D01*
X107543501Y-60912750D01*
X107543499Y-60912750D01*
X107399791Y-60931670D01*
X107399787Y-60931671D01*
X107265877Y-60987137D01*
X107150879Y-61075379D01*
X107062637Y-61190377D01*
X107007171Y-61324287D01*
X107007170Y-61324291D01*
X106988250Y-61468000D01*
X106998749Y-61547750D01*
X107007170Y-61611708D01*
X107007171Y-61611712D01*
X107062638Y-61745624D01*
X107084039Y-61773515D01*
X107109232Y-61838684D01*
X107095193Y-61907129D01*
X107084039Y-61924485D01*
X107062638Y-61952375D01*
X107007171Y-62086287D01*
X107007170Y-62086291D01*
X106988250Y-62229999D01*
X106988250Y-62230000D01*
X107007170Y-62373708D01*
X107007171Y-62373712D01*
X107062638Y-62507624D01*
X107084039Y-62535515D01*
X107109232Y-62600684D01*
X107095193Y-62669129D01*
X107084039Y-62686485D01*
X107062638Y-62714375D01*
X107007171Y-62848287D01*
X107007170Y-62848291D01*
X106988250Y-62992000D01*
X99696500Y-62992000D01*
X99696500Y-62103000D01*
X102187750Y-62103000D01*
X102206670Y-62246708D01*
X102206671Y-62246712D01*
X102262137Y-62380622D01*
X102262138Y-62380624D01*
X102262139Y-62380625D01*
X102350379Y-62495621D01*
X102465375Y-62583861D01*
X102599291Y-62639330D01*
X102726280Y-62656048D01*
X102742999Y-62658250D01*
X102743000Y-62658250D01*
X102743001Y-62658250D01*
X102757977Y-62656278D01*
X102886709Y-62639330D01*
X103020625Y-62583861D01*
X103135621Y-62495621D01*
X103223861Y-62380625D01*
X103279330Y-62246709D01*
X103298250Y-62103000D01*
X103279330Y-61959291D01*
X103223861Y-61825375D01*
X103135621Y-61710379D01*
X103020625Y-61622139D01*
X103020624Y-61622138D01*
X103020622Y-61622137D01*
X102886712Y-61566671D01*
X102886710Y-61566670D01*
X102886709Y-61566670D01*
X102814854Y-61557210D01*
X102743001Y-61547750D01*
X102742999Y-61547750D01*
X102599291Y-61566670D01*
X102599287Y-61566671D01*
X102465377Y-61622137D01*
X102350379Y-61710379D01*
X102262137Y-61825377D01*
X102206671Y-61959287D01*
X102206670Y-61959291D01*
X102187750Y-62102999D01*
X102187750Y-62103000D01*
X99696500Y-62103000D01*
X99696500Y-60579000D01*
X102187750Y-60579000D01*
X102198249Y-60658750D01*
X102206670Y-60722708D01*
X102206671Y-60722712D01*
X102262137Y-60856622D01*
X102262138Y-60856624D01*
X102262139Y-60856625D01*
X102350379Y-60971621D01*
X102465375Y-61059861D01*
X102465376Y-61059861D01*
X102465377Y-61059862D01*
X102502839Y-61075379D01*
X102599291Y-61115330D01*
X102726280Y-61132048D01*
X102742999Y-61134250D01*
X102743000Y-61134250D01*
X102743001Y-61134250D01*
X102757977Y-61132278D01*
X102886709Y-61115330D01*
X103020625Y-61059861D01*
X103135621Y-60971621D01*
X103223861Y-60856625D01*
X103279330Y-60722709D01*
X103298250Y-60579000D01*
X103279330Y-60435291D01*
X103223861Y-60301375D01*
X103135621Y-60186379D01*
X103020625Y-60098139D01*
X103020624Y-60098138D01*
X103020622Y-60098137D01*
X102886712Y-60042671D01*
X102886710Y-60042670D01*
X102886709Y-60042670D01*
X102814854Y-60033210D01*
X102743001Y-60023750D01*
X102742999Y-60023750D01*
X102599291Y-60042670D01*
X102599287Y-60042671D01*
X102465377Y-60098137D01*
X102350379Y-60186379D01*
X102262137Y-60301377D01*
X102206671Y-60435287D01*
X102206670Y-60435291D01*
X102187750Y-60579000D01*
X99696500Y-60579000D01*
X99696500Y-58953500D01*
X111458750Y-58953500D01*
X111477670Y-59097208D01*
X111477671Y-59097212D01*
X111533137Y-59231122D01*
X111533138Y-59231124D01*
X111533139Y-59231125D01*
X111621379Y-59346121D01*
X111736375Y-59434361D01*
X111870291Y-59489830D01*
X111997280Y-59506548D01*
X112013999Y-59508750D01*
X112014000Y-59508750D01*
X112014001Y-59508750D01*
X112028977Y-59506778D01*
X112157709Y-59489830D01*
X112291625Y-59434361D01*
X112406621Y-59346121D01*
X112494861Y-59231125D01*
X112550330Y-59097209D01*
X112569250Y-58953500D01*
X112550330Y-58809791D01*
X112494861Y-58675875D01*
X112494860Y-58675875D01*
X112473460Y-58647984D01*
X112448267Y-58582815D01*
X112462306Y-58514370D01*
X112473455Y-58497020D01*
X112494861Y-58469125D01*
X112550330Y-58335209D01*
X112569250Y-58191500D01*
X112550330Y-58047791D01*
X112494861Y-57913875D01*
X112473460Y-57885985D01*
X112448267Y-57820817D01*
X112462305Y-57752373D01*
X112473460Y-57735015D01*
X112494861Y-57707125D01*
X112550330Y-57573209D01*
X112569250Y-57429500D01*
X112550330Y-57285791D01*
X112494861Y-57151875D01*
X112494860Y-57151875D01*
X112473460Y-57123984D01*
X112448267Y-57058815D01*
X112462306Y-56990370D01*
X112473455Y-56973020D01*
X112494861Y-56945125D01*
X112550330Y-56811209D01*
X112569250Y-56667500D01*
X112550330Y-56523791D01*
X112494861Y-56389875D01*
X112473459Y-56361983D01*
X112448267Y-56296817D01*
X112462305Y-56228373D01*
X112473457Y-56211018D01*
X112494861Y-56183125D01*
X112550330Y-56049209D01*
X112569250Y-55905500D01*
X112550330Y-55761791D01*
X112494861Y-55627875D01*
X112473459Y-55599983D01*
X112448267Y-55534817D01*
X112462305Y-55466373D01*
X112473457Y-55449018D01*
X112494861Y-55421125D01*
X112550330Y-55287209D01*
X112569250Y-55143500D01*
X112550330Y-54999791D01*
X112494861Y-54865875D01*
X112406621Y-54750879D01*
X112291625Y-54662639D01*
X112291624Y-54662638D01*
X112291622Y-54662637D01*
X112157712Y-54607171D01*
X112157710Y-54607170D01*
X112157709Y-54607170D01*
X112085854Y-54597710D01*
X112014001Y-54588250D01*
X112013999Y-54588250D01*
X111870291Y-54607170D01*
X111870287Y-54607171D01*
X111736377Y-54662637D01*
X111621379Y-54750879D01*
X111533137Y-54865877D01*
X111477671Y-54999787D01*
X111477670Y-54999791D01*
X111458750Y-55143499D01*
X111458750Y-55143500D01*
X111477670Y-55287208D01*
X111477671Y-55287212D01*
X111533137Y-55421122D01*
X111533138Y-55421124D01*
X111533139Y-55421125D01*
X111554538Y-55449013D01*
X111579732Y-55514182D01*
X111565694Y-55582626D01*
X111554540Y-55599983D01*
X111533138Y-55627875D01*
X111477671Y-55761787D01*
X111477670Y-55761791D01*
X111458750Y-55905499D01*
X111458750Y-55905500D01*
X111477670Y-56049208D01*
X111477671Y-56049212D01*
X111533137Y-56183122D01*
X111533138Y-56183124D01*
X111533139Y-56183125D01*
X111554538Y-56211013D01*
X111579732Y-56276182D01*
X111565694Y-56344626D01*
X111554540Y-56361983D01*
X111533138Y-56389875D01*
X111477671Y-56523787D01*
X111477670Y-56523791D01*
X111458750Y-56667499D01*
X111458750Y-56667500D01*
X111477670Y-56811208D01*
X111477671Y-56811212D01*
X111533137Y-56945122D01*
X111533138Y-56945124D01*
X111533139Y-56945125D01*
X111554538Y-56973013D01*
X111579732Y-57038182D01*
X111565694Y-57106626D01*
X111554540Y-57123983D01*
X111533138Y-57151875D01*
X111477671Y-57285787D01*
X111477670Y-57285791D01*
X111458750Y-57429499D01*
X111458750Y-57429500D01*
X111477670Y-57573208D01*
X111477671Y-57573212D01*
X111533138Y-57707124D01*
X111554539Y-57735015D01*
X111579732Y-57800184D01*
X111565693Y-57868629D01*
X111554539Y-57885985D01*
X111533138Y-57913875D01*
X111477671Y-58047787D01*
X111477670Y-58047791D01*
X111458750Y-58191499D01*
X111458750Y-58191500D01*
X111477670Y-58335208D01*
X111477671Y-58335212D01*
X111533138Y-58469124D01*
X111554539Y-58497015D01*
X111579732Y-58562184D01*
X111565693Y-58630629D01*
X111554539Y-58647985D01*
X111533138Y-58675875D01*
X111477671Y-58809787D01*
X111477670Y-58809791D01*
X111458750Y-58953499D01*
X111458750Y-58953500D01*
X99696500Y-58953500D01*
X99696500Y-55651500D01*
X105870750Y-55651500D01*
X105889670Y-55795208D01*
X105889671Y-55795212D01*
X105945137Y-55929122D01*
X105945138Y-55929124D01*
X105945139Y-55929125D01*
X106033379Y-56044121D01*
X106148375Y-56132361D01*
X106282291Y-56187830D01*
X106409280Y-56204548D01*
X106425999Y-56206750D01*
X106426000Y-56206750D01*
X106426001Y-56206750D01*
X106440977Y-56204778D01*
X106569709Y-56187830D01*
X106703625Y-56132361D01*
X106818621Y-56044121D01*
X106906861Y-55929125D01*
X106962330Y-55795209D01*
X106981250Y-55651500D01*
X106962330Y-55507791D01*
X106906861Y-55373875D01*
X106818621Y-55258879D01*
X106703625Y-55170639D01*
X106703624Y-55170638D01*
X106703622Y-55170637D01*
X106569712Y-55115171D01*
X106569710Y-55115170D01*
X106569709Y-55115170D01*
X106497854Y-55105710D01*
X106426001Y-55096250D01*
X106425999Y-55096250D01*
X106282291Y-55115170D01*
X106282287Y-55115171D01*
X106148377Y-55170637D01*
X106033379Y-55258879D01*
X105945137Y-55373877D01*
X105889671Y-55507787D01*
X105889670Y-55507791D01*
X105870750Y-55651499D01*
X105870750Y-55651500D01*
X99696500Y-55651500D01*
X99696500Y-55275193D01*
X99716185Y-55208154D01*
X99732819Y-55187512D01*
X101288512Y-53631819D01*
X101349835Y-53598334D01*
X101376193Y-53595500D01*
X101551314Y-53595500D01*
X101618353Y-53615185D01*
X101664108Y-53667989D01*
X101674052Y-53737147D01*
X101649690Y-53794985D01*
X101636336Y-53812388D01*
X101627137Y-53824377D01*
X101571671Y-53958287D01*
X101571670Y-53958291D01*
X101552750Y-54101999D01*
X101552750Y-54102000D01*
X101571670Y-54245708D01*
X101571671Y-54245712D01*
X101627137Y-54379622D01*
X101627138Y-54379624D01*
X101627139Y-54379625D01*
X101715379Y-54494621D01*
X101830375Y-54582861D01*
X101964291Y-54638330D01*
X102091280Y-54655048D01*
X102107999Y-54657250D01*
X102108000Y-54657250D01*
X102108001Y-54657250D01*
X102122977Y-54655278D01*
X102251709Y-54638330D01*
X102385625Y-54582861D01*
X102500621Y-54494621D01*
X102581125Y-54389705D01*
X102637552Y-54348504D01*
X102707298Y-54344349D01*
X102768218Y-54378561D01*
X102777869Y-54389699D01*
X102858379Y-54494621D01*
X102973375Y-54582861D01*
X103107291Y-54638330D01*
X103234280Y-54655048D01*
X103250999Y-54657250D01*
X103251000Y-54657250D01*
X103251001Y-54657250D01*
X103265977Y-54655278D01*
X103394709Y-54638330D01*
X103528625Y-54582861D01*
X103643621Y-54494621D01*
X103731861Y-54379625D01*
X103787330Y-54245709D01*
X103806250Y-54102000D01*
X103787330Y-53958291D01*
X103731861Y-53824375D01*
X103706334Y-53791108D01*
X103681141Y-53725941D01*
X103695179Y-53657496D01*
X103743993Y-53607506D01*
X103791457Y-53592333D01*
X103816313Y-53589661D01*
X103832440Y-53586152D01*
X103867817Y-53578457D01*
X103867817Y-53578456D01*
X103867824Y-53578455D01*
X103894198Y-53571219D01*
X103949461Y-53539750D01*
X103980818Y-53521894D01*
X103980821Y-53521891D01*
X103980828Y-53521888D01*
X104033632Y-53476133D01*
X104065257Y-53443359D01*
X104111465Y-53355024D01*
X104131150Y-53287985D01*
X104141500Y-53216000D01*
X104141500Y-52984500D01*
X104981750Y-52984500D01*
X105000670Y-53128208D01*
X105000671Y-53128212D01*
X105056137Y-53262122D01*
X105056138Y-53262124D01*
X105056139Y-53262125D01*
X105144379Y-53377121D01*
X105259375Y-53465361D01*
X105259376Y-53465361D01*
X105259377Y-53465362D01*
X105304013Y-53483850D01*
X105393291Y-53520830D01*
X105520280Y-53537548D01*
X105536999Y-53539750D01*
X105537000Y-53539750D01*
X105537001Y-53539750D01*
X105551977Y-53537778D01*
X105680709Y-53520830D01*
X105814625Y-53465361D01*
X105842514Y-53443960D01*
X105907683Y-53418767D01*
X105976127Y-53432805D01*
X105993481Y-53443957D01*
X106021375Y-53465361D01*
X106021376Y-53465361D01*
X106021377Y-53465362D01*
X106066013Y-53483850D01*
X106155291Y-53520830D01*
X106282280Y-53537548D01*
X106298999Y-53539750D01*
X106299000Y-53539750D01*
X106299001Y-53539750D01*
X106313977Y-53537778D01*
X106442709Y-53520830D01*
X106576625Y-53465361D01*
X106604514Y-53443960D01*
X106669683Y-53418767D01*
X106738127Y-53432805D01*
X106755481Y-53443957D01*
X106783375Y-53465361D01*
X106783376Y-53465361D01*
X106783377Y-53465362D01*
X106828013Y-53483850D01*
X106917291Y-53520830D01*
X107044280Y-53537548D01*
X107060999Y-53539750D01*
X107061000Y-53539750D01*
X107061001Y-53539750D01*
X107075977Y-53537778D01*
X107204709Y-53520830D01*
X107338625Y-53465361D01*
X107453621Y-53377121D01*
X107541861Y-53262125D01*
X107597330Y-53128209D01*
X107616250Y-52984500D01*
X107597330Y-52840791D01*
X107541861Y-52706875D01*
X107453621Y-52591879D01*
X107338625Y-52503639D01*
X107338624Y-52503638D01*
X107338622Y-52503637D01*
X107204712Y-52448171D01*
X107204710Y-52448170D01*
X107204709Y-52448170D01*
X107132854Y-52438710D01*
X107061001Y-52429250D01*
X107060999Y-52429250D01*
X106917291Y-52448170D01*
X106917287Y-52448171D01*
X106783375Y-52503638D01*
X106755485Y-52525039D01*
X106690316Y-52550232D01*
X106621871Y-52536193D01*
X106604515Y-52525039D01*
X106578177Y-52504830D01*
X106576625Y-52503639D01*
X106576623Y-52503638D01*
X106576625Y-52503638D01*
X106442712Y-52448171D01*
X106442710Y-52448170D01*
X106442709Y-52448170D01*
X106370854Y-52438710D01*
X106299001Y-52429250D01*
X106298999Y-52429250D01*
X106155291Y-52448170D01*
X106155287Y-52448171D01*
X106021375Y-52503638D01*
X105993483Y-52525040D01*
X105928313Y-52550232D01*
X105859868Y-52536192D01*
X105842514Y-52525039D01*
X105814625Y-52503639D01*
X105814624Y-52503638D01*
X105814622Y-52503637D01*
X105680712Y-52448171D01*
X105680710Y-52448170D01*
X105680709Y-52448170D01*
X105608854Y-52438710D01*
X105537001Y-52429250D01*
X105536999Y-52429250D01*
X105393291Y-52448170D01*
X105393287Y-52448171D01*
X105259377Y-52503637D01*
X105144379Y-52591879D01*
X105056137Y-52706877D01*
X105000671Y-52840787D01*
X105000670Y-52840791D01*
X104981750Y-52984499D01*
X104981750Y-52984500D01*
X104141500Y-52984500D01*
X104141500Y-52194000D01*
X104135661Y-52139687D01*
X104129684Y-52112212D01*
X104124457Y-52088183D01*
X104124456Y-52088182D01*
X104124455Y-52088176D01*
X104117219Y-52061802D01*
X104113332Y-52054976D01*
X104067894Y-51975181D01*
X104067888Y-51975172D01*
X104022136Y-51922371D01*
X103989359Y-51890743D01*
X103901022Y-51844534D01*
X103901022Y-51844533D01*
X103833990Y-51824851D01*
X103833978Y-51824848D01*
X103762001Y-51814500D01*
X103762000Y-51814500D01*
X96669500Y-51814500D01*
X96602461Y-51794815D01*
X96556706Y-51742011D01*
X96545500Y-51690500D01*
X96545500Y-49022000D01*
X97107750Y-49022000D01*
X97126670Y-49165708D01*
X97126671Y-49165712D01*
X97182137Y-49299622D01*
X97182138Y-49299624D01*
X97182139Y-49299625D01*
X97270379Y-49414621D01*
X97385375Y-49502861D01*
X97519291Y-49558330D01*
X97646280Y-49575048D01*
X97662999Y-49577250D01*
X97663000Y-49577250D01*
X97663001Y-49577250D01*
X97677977Y-49575278D01*
X97806709Y-49558330D01*
X97875105Y-49530000D01*
X100282750Y-49530000D01*
X100301670Y-49673708D01*
X100301671Y-49673712D01*
X100357137Y-49807622D01*
X100357138Y-49807624D01*
X100357139Y-49807625D01*
X100445379Y-49922621D01*
X100560375Y-50010861D01*
X100694291Y-50066330D01*
X100821280Y-50083048D01*
X100837999Y-50085250D01*
X100838000Y-50085250D01*
X100838001Y-50085250D01*
X100852977Y-50083278D01*
X100981709Y-50066330D01*
X101115625Y-50010861D01*
X101230621Y-49922621D01*
X101317422Y-49809500D01*
X110823750Y-49809500D01*
X110842670Y-49953208D01*
X110842671Y-49953212D01*
X110898137Y-50087122D01*
X110898138Y-50087124D01*
X110898139Y-50087125D01*
X110986379Y-50202121D01*
X111101375Y-50290361D01*
X111235291Y-50345830D01*
X111362280Y-50362548D01*
X111378999Y-50364750D01*
X111379000Y-50364750D01*
X111379001Y-50364750D01*
X111393977Y-50362778D01*
X111522709Y-50345830D01*
X111656625Y-50290361D01*
X111771621Y-50202121D01*
X111859861Y-50087125D01*
X111915330Y-49953209D01*
X111934250Y-49809500D01*
X111915330Y-49665791D01*
X111870819Y-49558330D01*
X111859862Y-49531877D01*
X111859861Y-49531876D01*
X111859861Y-49531875D01*
X111771621Y-49416879D01*
X111656625Y-49328639D01*
X111656624Y-49328638D01*
X111656622Y-49328637D01*
X111522712Y-49273171D01*
X111522710Y-49273170D01*
X111522709Y-49273170D01*
X111450854Y-49263710D01*
X111379001Y-49254250D01*
X111378999Y-49254250D01*
X111235291Y-49273170D01*
X111235287Y-49273171D01*
X111101377Y-49328637D01*
X110986379Y-49416879D01*
X110898137Y-49531877D01*
X110842671Y-49665787D01*
X110842670Y-49665791D01*
X110823750Y-49809499D01*
X110823750Y-49809500D01*
X101317422Y-49809500D01*
X101318861Y-49807625D01*
X101374330Y-49673709D01*
X101393250Y-49530000D01*
X101374330Y-49386291D01*
X101327475Y-49273171D01*
X101318862Y-49252377D01*
X101318861Y-49252376D01*
X101318861Y-49252375D01*
X101230621Y-49137379D01*
X101115625Y-49049139D01*
X101115624Y-49049138D01*
X101115622Y-49049137D01*
X100981712Y-48993671D01*
X100981710Y-48993670D01*
X100981709Y-48993670D01*
X100909854Y-48984210D01*
X100838001Y-48974750D01*
X100837999Y-48974750D01*
X100694291Y-48993670D01*
X100694287Y-48993671D01*
X100560377Y-49049137D01*
X100445379Y-49137379D01*
X100357137Y-49252377D01*
X100301671Y-49386287D01*
X100301670Y-49386291D01*
X100282750Y-49529999D01*
X100282750Y-49530000D01*
X97875105Y-49530000D01*
X97940625Y-49502861D01*
X98055621Y-49414621D01*
X98143861Y-49299625D01*
X98199330Y-49165709D01*
X98218250Y-49022000D01*
X98199330Y-48878291D01*
X98143861Y-48744375D01*
X98055621Y-48629379D01*
X97940625Y-48541139D01*
X97940624Y-48541138D01*
X97940622Y-48541137D01*
X97806712Y-48485671D01*
X97806710Y-48485670D01*
X97806709Y-48485670D01*
X97734854Y-48476210D01*
X97663001Y-48466750D01*
X97662999Y-48466750D01*
X97519291Y-48485670D01*
X97519287Y-48485671D01*
X97385377Y-48541137D01*
X97270379Y-48629379D01*
X97182137Y-48744377D01*
X97126671Y-48878287D01*
X97126670Y-48878291D01*
X97107750Y-49021999D01*
X97107750Y-49022000D01*
X96545500Y-49022000D01*
X96545500Y-48133000D01*
X107902750Y-48133000D01*
X107921670Y-48276708D01*
X107921671Y-48276712D01*
X107977137Y-48410622D01*
X107977138Y-48410624D01*
X107977139Y-48410625D01*
X108065379Y-48525621D01*
X108180375Y-48613861D01*
X108314291Y-48669330D01*
X108441280Y-48686048D01*
X108457999Y-48688250D01*
X108458000Y-48688250D01*
X108458001Y-48688250D01*
X108472977Y-48686278D01*
X108601709Y-48669330D01*
X108735625Y-48613861D01*
X108850621Y-48525621D01*
X108938861Y-48410625D01*
X108994330Y-48276709D01*
X109013250Y-48133000D01*
X109299750Y-48133000D01*
X109318670Y-48276708D01*
X109318671Y-48276712D01*
X109374137Y-48410622D01*
X109374138Y-48410624D01*
X109374139Y-48410625D01*
X109462379Y-48525621D01*
X109577375Y-48613861D01*
X109711291Y-48669330D01*
X109838280Y-48686048D01*
X109854999Y-48688250D01*
X109855000Y-48688250D01*
X109855001Y-48688250D01*
X109869977Y-48686278D01*
X109998709Y-48669330D01*
X110132625Y-48613861D01*
X110247621Y-48525621D01*
X110328125Y-48420705D01*
X110384552Y-48379504D01*
X110454298Y-48375349D01*
X110515218Y-48409561D01*
X110524869Y-48420699D01*
X110605379Y-48525621D01*
X110720375Y-48613861D01*
X110854291Y-48669330D01*
X110981280Y-48686048D01*
X110997999Y-48688250D01*
X110998000Y-48688250D01*
X110998001Y-48688250D01*
X111012977Y-48686278D01*
X111141709Y-48669330D01*
X111275625Y-48613861D01*
X111390621Y-48525621D01*
X111478861Y-48410625D01*
X111534330Y-48276709D01*
X111553250Y-48133000D01*
X111534330Y-47989291D01*
X111478861Y-47855375D01*
X111390621Y-47740379D01*
X111275625Y-47652139D01*
X111275624Y-47652138D01*
X111275622Y-47652137D01*
X111141712Y-47596671D01*
X111141710Y-47596670D01*
X111141709Y-47596670D01*
X111069854Y-47587210D01*
X110998001Y-47577750D01*
X110997999Y-47577750D01*
X110854291Y-47596670D01*
X110854287Y-47596671D01*
X110720377Y-47652137D01*
X110694166Y-47672250D01*
X110605379Y-47740379D01*
X110524874Y-47845294D01*
X110468448Y-47886495D01*
X110398701Y-47890650D01*
X110337781Y-47856437D01*
X110328130Y-47845300D01*
X110247621Y-47740379D01*
X110132625Y-47652139D01*
X110132624Y-47652138D01*
X110132622Y-47652137D01*
X109998712Y-47596671D01*
X109998710Y-47596670D01*
X109998709Y-47596670D01*
X109926854Y-47587210D01*
X109855001Y-47577750D01*
X109854999Y-47577750D01*
X109711291Y-47596670D01*
X109711287Y-47596671D01*
X109577377Y-47652137D01*
X109462379Y-47740379D01*
X109374137Y-47855377D01*
X109318671Y-47989287D01*
X109318670Y-47989291D01*
X109299750Y-48132999D01*
X109299750Y-48133000D01*
X109013250Y-48133000D01*
X108994330Y-47989291D01*
X108938861Y-47855375D01*
X108850621Y-47740379D01*
X108735625Y-47652139D01*
X108735624Y-47652138D01*
X108735622Y-47652137D01*
X108601712Y-47596671D01*
X108601710Y-47596670D01*
X108601709Y-47596670D01*
X108529854Y-47587210D01*
X108458001Y-47577750D01*
X108457999Y-47577750D01*
X108314291Y-47596670D01*
X108314287Y-47596671D01*
X108180377Y-47652137D01*
X108065379Y-47740379D01*
X107977137Y-47855377D01*
X107921671Y-47989287D01*
X107921670Y-47989291D01*
X107902750Y-48132999D01*
X107902750Y-48133000D01*
X96545500Y-48133000D01*
X96545500Y-47117000D01*
X101933750Y-47117000D01*
X101952670Y-47260708D01*
X101952671Y-47260712D01*
X102008137Y-47394622D01*
X102008138Y-47394624D01*
X102008139Y-47394625D01*
X102096379Y-47509621D01*
X102211375Y-47597861D01*
X102345291Y-47653330D01*
X102472280Y-47670048D01*
X102488999Y-47672250D01*
X102489000Y-47672250D01*
X102489001Y-47672250D01*
X102503977Y-47670278D01*
X102632709Y-47653330D01*
X102766625Y-47597861D01*
X102881621Y-47509621D01*
X102890538Y-47498000D01*
X106505750Y-47498000D01*
X106516249Y-47577750D01*
X106524670Y-47641708D01*
X106524671Y-47641712D01*
X106580137Y-47775622D01*
X106580138Y-47775624D01*
X106580139Y-47775625D01*
X106668379Y-47890621D01*
X106783375Y-47978861D01*
X106783376Y-47978861D01*
X106783377Y-47978862D01*
X106828013Y-47997350D01*
X106917291Y-48034330D01*
X107044280Y-48051048D01*
X107060999Y-48053250D01*
X107061000Y-48053250D01*
X107061001Y-48053250D01*
X107075977Y-48051278D01*
X107204709Y-48034330D01*
X107338625Y-47978861D01*
X107453621Y-47890621D01*
X107541861Y-47775625D01*
X107597330Y-47641709D01*
X107616250Y-47498000D01*
X107597330Y-47354291D01*
X107541861Y-47220375D01*
X107453621Y-47105379D01*
X107338625Y-47017139D01*
X107338624Y-47017138D01*
X107338622Y-47017137D01*
X107204712Y-46961671D01*
X107204710Y-46961670D01*
X107204709Y-46961670D01*
X107132854Y-46952210D01*
X107061001Y-46942750D01*
X107060999Y-46942750D01*
X106917291Y-46961670D01*
X106917287Y-46961671D01*
X106783377Y-47017137D01*
X106668379Y-47105379D01*
X106580137Y-47220377D01*
X106524671Y-47354287D01*
X106524670Y-47354291D01*
X106505750Y-47498000D01*
X102890538Y-47498000D01*
X102969861Y-47394625D01*
X103025330Y-47260709D01*
X103044250Y-47117000D01*
X103025330Y-46973291D01*
X102969861Y-46839375D01*
X102890538Y-46736000D01*
X107902750Y-46736000D01*
X107921670Y-46879708D01*
X107921671Y-46879712D01*
X107977137Y-47013622D01*
X107977138Y-47013624D01*
X107977139Y-47013625D01*
X108065379Y-47128621D01*
X108180375Y-47216861D01*
X108180376Y-47216861D01*
X108180377Y-47216862D01*
X108225013Y-47235350D01*
X108314291Y-47272330D01*
X108441280Y-47289048D01*
X108457999Y-47291250D01*
X108458000Y-47291250D01*
X108458001Y-47291250D01*
X108472977Y-47289278D01*
X108601709Y-47272330D01*
X108735625Y-47216861D01*
X108850621Y-47128621D01*
X108938861Y-47013625D01*
X108994330Y-46879709D01*
X109013250Y-46736000D01*
X108994330Y-46592291D01*
X108938861Y-46458375D01*
X108850621Y-46343379D01*
X108735625Y-46255139D01*
X108735624Y-46255138D01*
X108735622Y-46255137D01*
X108601712Y-46199671D01*
X108601710Y-46199670D01*
X108601709Y-46199670D01*
X108529854Y-46190210D01*
X108458001Y-46180750D01*
X108457999Y-46180750D01*
X108314291Y-46199670D01*
X108314287Y-46199671D01*
X108180377Y-46255137D01*
X108065379Y-46343379D01*
X107977137Y-46458377D01*
X107921671Y-46592287D01*
X107921670Y-46592291D01*
X107902750Y-46735999D01*
X107902750Y-46736000D01*
X102890538Y-46736000D01*
X102881621Y-46724379D01*
X102766625Y-46636139D01*
X102766624Y-46636138D01*
X102766622Y-46636137D01*
X102632712Y-46580671D01*
X102632710Y-46580670D01*
X102632709Y-46580670D01*
X102560854Y-46571210D01*
X102489001Y-46561750D01*
X102488999Y-46561750D01*
X102345291Y-46580670D01*
X102345287Y-46580671D01*
X102211377Y-46636137D01*
X102096379Y-46724379D01*
X102008137Y-46839377D01*
X101952671Y-46973287D01*
X101952670Y-46973291D01*
X101933750Y-47116999D01*
X101933750Y-47117000D01*
X96545500Y-47117000D01*
X96545500Y-46482000D01*
X99012750Y-46482000D01*
X99023249Y-46561750D01*
X99031670Y-46625708D01*
X99031671Y-46625712D01*
X99087137Y-46759622D01*
X99087138Y-46759624D01*
X99087139Y-46759625D01*
X99175379Y-46874621D01*
X99290375Y-46962861D01*
X99290376Y-46962861D01*
X99290377Y-46962862D01*
X99335013Y-46981350D01*
X99424291Y-47018330D01*
X99551280Y-47035048D01*
X99567999Y-47037250D01*
X99568000Y-47037250D01*
X99568001Y-47037250D01*
X99582977Y-47035278D01*
X99711709Y-47018330D01*
X99845625Y-46962861D01*
X99960621Y-46874621D01*
X100048861Y-46759625D01*
X100104330Y-46625709D01*
X100123250Y-46482000D01*
X100104330Y-46338291D01*
X100048861Y-46204375D01*
X99960621Y-46089379D01*
X99845625Y-46001139D01*
X99845624Y-46001138D01*
X99845622Y-46001137D01*
X99711712Y-45945671D01*
X99711710Y-45945670D01*
X99711709Y-45945670D01*
X99639854Y-45936210D01*
X99568001Y-45926750D01*
X99567999Y-45926750D01*
X99424291Y-45945670D01*
X99424287Y-45945671D01*
X99290377Y-46001137D01*
X99175379Y-46089379D01*
X99087137Y-46204377D01*
X99031671Y-46338287D01*
X99031670Y-46338291D01*
X99012750Y-46482000D01*
X96545500Y-46482000D01*
X96545500Y-45720000D01*
X102568750Y-45720000D01*
X102587670Y-45863708D01*
X102587671Y-45863712D01*
X102643137Y-45997622D01*
X102643138Y-45997624D01*
X102643139Y-45997625D01*
X102731379Y-46112621D01*
X102846375Y-46200861D01*
X102846376Y-46200861D01*
X102846377Y-46200862D01*
X102891013Y-46219350D01*
X102980291Y-46256330D01*
X103107280Y-46273048D01*
X103123999Y-46275250D01*
X103124000Y-46275250D01*
X103124001Y-46275250D01*
X103138977Y-46273278D01*
X103267709Y-46256330D01*
X103401625Y-46200861D01*
X103516621Y-46112621D01*
X103604861Y-45997625D01*
X103660330Y-45863709D01*
X103679250Y-45720000D01*
X103660330Y-45576291D01*
X103604861Y-45442375D01*
X103516621Y-45327379D01*
X103401625Y-45239139D01*
X103401624Y-45239138D01*
X103401622Y-45239137D01*
X103336106Y-45212000D01*
X105997750Y-45212000D01*
X106016670Y-45355708D01*
X106016671Y-45355712D01*
X106072137Y-45489622D01*
X106072138Y-45489624D01*
X106072139Y-45489625D01*
X106160379Y-45604621D01*
X106275375Y-45692861D01*
X106409291Y-45748330D01*
X106536280Y-45765048D01*
X106552999Y-45767250D01*
X106553000Y-45767250D01*
X106553001Y-45767250D01*
X106567977Y-45765278D01*
X106696709Y-45748330D01*
X106830625Y-45692861D01*
X106945621Y-45604621D01*
X107033861Y-45489625D01*
X107089330Y-45355709D01*
X107108250Y-45212000D01*
X107089330Y-45068291D01*
X107033861Y-44934375D01*
X106945621Y-44819379D01*
X106830625Y-44731139D01*
X106830624Y-44731138D01*
X106830622Y-44731137D01*
X106696712Y-44675671D01*
X106696710Y-44675670D01*
X106696709Y-44675670D01*
X106624854Y-44666210D01*
X106553001Y-44656750D01*
X106552999Y-44656750D01*
X106409291Y-44675670D01*
X106409287Y-44675671D01*
X106275377Y-44731137D01*
X106160379Y-44819379D01*
X106072137Y-44934377D01*
X106016671Y-45068287D01*
X106016670Y-45068291D01*
X105997750Y-45211999D01*
X105997750Y-45212000D01*
X103336106Y-45212000D01*
X103267712Y-45183671D01*
X103267710Y-45183670D01*
X103267709Y-45183670D01*
X103195854Y-45174210D01*
X103124001Y-45164750D01*
X103123999Y-45164750D01*
X102980291Y-45183670D01*
X102980287Y-45183671D01*
X102846377Y-45239137D01*
X102731379Y-45327379D01*
X102643137Y-45442377D01*
X102587671Y-45576287D01*
X102587670Y-45576291D01*
X102568750Y-45719999D01*
X102568750Y-45720000D01*
X96545500Y-45720000D01*
X96545500Y-44831000D01*
X97234750Y-44831000D01*
X97253670Y-44974708D01*
X97253671Y-44974712D01*
X97309137Y-45108622D01*
X97309138Y-45108624D01*
X97309139Y-45108625D01*
X97397379Y-45223621D01*
X97512375Y-45311861D01*
X97646291Y-45367330D01*
X97773280Y-45384048D01*
X97789999Y-45386250D01*
X97790000Y-45386250D01*
X97790001Y-45386250D01*
X97804977Y-45384278D01*
X97933709Y-45367330D01*
X98067625Y-45311861D01*
X98182621Y-45223621D01*
X98270861Y-45108625D01*
X98326330Y-44974709D01*
X98345250Y-44831000D01*
X98326330Y-44687291D01*
X98270861Y-44553375D01*
X98182621Y-44438379D01*
X98067625Y-44350139D01*
X98067624Y-44350138D01*
X98067622Y-44350137D01*
X97933712Y-44294671D01*
X97933710Y-44294670D01*
X97933709Y-44294670D01*
X97861854Y-44285210D01*
X97790001Y-44275750D01*
X97789999Y-44275750D01*
X97646291Y-44294670D01*
X97646287Y-44294671D01*
X97512377Y-44350137D01*
X97397379Y-44438379D01*
X97309137Y-44553377D01*
X97253671Y-44687287D01*
X97253670Y-44687291D01*
X97234750Y-44830999D01*
X97234750Y-44831000D01*
X96545500Y-44831000D01*
X96545500Y-43434000D01*
X100155750Y-43434000D01*
X100174670Y-43577708D01*
X100174671Y-43577712D01*
X100230137Y-43711622D01*
X100230138Y-43711624D01*
X100230139Y-43711625D01*
X100318379Y-43826621D01*
X100433375Y-43914861D01*
X100567291Y-43970330D01*
X100694280Y-43987048D01*
X100710999Y-43989250D01*
X100711000Y-43989250D01*
X100711001Y-43989250D01*
X100725977Y-43987278D01*
X100854709Y-43970330D01*
X100988625Y-43914861D01*
X101103621Y-43826621D01*
X101191861Y-43711625D01*
X101247330Y-43577709D01*
X101266250Y-43434000D01*
X101247330Y-43290291D01*
X101191861Y-43156375D01*
X101103621Y-43041379D01*
X100988625Y-42953139D01*
X100988624Y-42953138D01*
X100988622Y-42953137D01*
X100854712Y-42897671D01*
X100854710Y-42897670D01*
X100854709Y-42897670D01*
X100782854Y-42888210D01*
X100711001Y-42878750D01*
X100710999Y-42878750D01*
X100567291Y-42897670D01*
X100567287Y-42897671D01*
X100433377Y-42953137D01*
X100318379Y-43041379D01*
X100230137Y-43156377D01*
X100174671Y-43290287D01*
X100174670Y-43290291D01*
X100155750Y-43433999D01*
X100155750Y-43434000D01*
X96545500Y-43434000D01*
X96545500Y-42164000D01*
X110442750Y-42164000D01*
X110461670Y-42307708D01*
X110461671Y-42307712D01*
X110517137Y-42441622D01*
X110517138Y-42441624D01*
X110517139Y-42441625D01*
X110605379Y-42556621D01*
X110720375Y-42644861D01*
X110854291Y-42700330D01*
X110981280Y-42717048D01*
X110997999Y-42719250D01*
X110998000Y-42719250D01*
X110998001Y-42719250D01*
X111012977Y-42717278D01*
X111141709Y-42700330D01*
X111275625Y-42644861D01*
X111390621Y-42556621D01*
X111478861Y-42441625D01*
X111534330Y-42307709D01*
X111553250Y-42164000D01*
X111534330Y-42020291D01*
X111478861Y-41886375D01*
X111390621Y-41771379D01*
X111275625Y-41683139D01*
X111275624Y-41683138D01*
X111275622Y-41683137D01*
X111141712Y-41627671D01*
X111141710Y-41627670D01*
X111141709Y-41627670D01*
X111069854Y-41618210D01*
X110998001Y-41608750D01*
X110997999Y-41608750D01*
X110854291Y-41627670D01*
X110854287Y-41627671D01*
X110720377Y-41683137D01*
X110605379Y-41771379D01*
X110517137Y-41886377D01*
X110461671Y-42020287D01*
X110461670Y-42020291D01*
X110442750Y-42163999D01*
X110442750Y-42164000D01*
X96545500Y-42164000D01*
X96545500Y-40020000D01*
X97324785Y-40020000D01*
X97343602Y-40223082D01*
X97399417Y-40419247D01*
X97399422Y-40419260D01*
X97490327Y-40601821D01*
X97613237Y-40764581D01*
X97763958Y-40901980D01*
X97763960Y-40901982D01*
X97857464Y-40959877D01*
X97937363Y-41009348D01*
X98127544Y-41083024D01*
X98328024Y-41120500D01*
X98328026Y-41120500D01*
X98531974Y-41120500D01*
X98531976Y-41120500D01*
X98732456Y-41083024D01*
X98922637Y-41009348D01*
X99096041Y-40901981D01*
X99246764Y-40764579D01*
X99369673Y-40601821D01*
X99460582Y-40419250D01*
X99516397Y-40223083D01*
X99535215Y-40020000D01*
X99864785Y-40020000D01*
X99883602Y-40223082D01*
X99939417Y-40419247D01*
X99939422Y-40419260D01*
X100030327Y-40601821D01*
X100153237Y-40764581D01*
X100303958Y-40901980D01*
X100303960Y-40901982D01*
X100397464Y-40959877D01*
X100477363Y-41009348D01*
X100667544Y-41083024D01*
X100868024Y-41120500D01*
X100868026Y-41120500D01*
X101071974Y-41120500D01*
X101071976Y-41120500D01*
X101272456Y-41083024D01*
X101462637Y-41009348D01*
X101609892Y-40918171D01*
X101677251Y-40899616D01*
X101743950Y-40920424D01*
X101788812Y-40973989D01*
X101797592Y-41043305D01*
X101773545Y-41099084D01*
X101754138Y-41124375D01*
X101754138Y-41124376D01*
X101698671Y-41258287D01*
X101698670Y-41258291D01*
X101679750Y-41401999D01*
X101679750Y-41402000D01*
X101698670Y-41545708D01*
X101698671Y-41545712D01*
X101754137Y-41679622D01*
X101754138Y-41679624D01*
X101754139Y-41679625D01*
X101842379Y-41794621D01*
X101957375Y-41882861D01*
X101957376Y-41882861D01*
X101957377Y-41882862D01*
X101971776Y-41888826D01*
X102091291Y-41938330D01*
X102218280Y-41955048D01*
X102234999Y-41957250D01*
X102235000Y-41957250D01*
X102235001Y-41957250D01*
X102249977Y-41955278D01*
X102378709Y-41938330D01*
X102512625Y-41882861D01*
X102627621Y-41794621D01*
X102715861Y-41679625D01*
X102771330Y-41545709D01*
X102790250Y-41402000D01*
X102783733Y-41352498D01*
X104981750Y-41352498D01*
X105000670Y-41496206D01*
X105000671Y-41496210D01*
X105056137Y-41630120D01*
X105056138Y-41630122D01*
X105056139Y-41630123D01*
X105144379Y-41745119D01*
X105259375Y-41833359D01*
X105393291Y-41888828D01*
X105520280Y-41905546D01*
X105536999Y-41907748D01*
X105537000Y-41907748D01*
X105537001Y-41907748D01*
X105551977Y-41905776D01*
X105680709Y-41888828D01*
X105814625Y-41833359D01*
X105929621Y-41745119D01*
X106017861Y-41630123D01*
X106073330Y-41496207D01*
X106092250Y-41352498D01*
X106073330Y-41208789D01*
X106021237Y-41083024D01*
X106017862Y-41074875D01*
X106017861Y-41074874D01*
X106017861Y-41074873D01*
X105976523Y-41021000D01*
X109172750Y-41021000D01*
X109191670Y-41164708D01*
X109191671Y-41164712D01*
X109247137Y-41298622D01*
X109247138Y-41298624D01*
X109247139Y-41298625D01*
X109335379Y-41413621D01*
X109450375Y-41501861D01*
X109584291Y-41557330D01*
X109711280Y-41574048D01*
X109727999Y-41576250D01*
X109728000Y-41576250D01*
X109728001Y-41576250D01*
X109742977Y-41574278D01*
X109871709Y-41557330D01*
X110005625Y-41501861D01*
X110120621Y-41413621D01*
X110208861Y-41298625D01*
X110264330Y-41164709D01*
X110283250Y-41021000D01*
X110264330Y-40877291D01*
X110208861Y-40743375D01*
X110120621Y-40628379D01*
X110005625Y-40540139D01*
X110005624Y-40540138D01*
X110005622Y-40540137D01*
X109871712Y-40484671D01*
X109871710Y-40484670D01*
X109871709Y-40484670D01*
X109799854Y-40475210D01*
X109728001Y-40465750D01*
X109727999Y-40465750D01*
X109584291Y-40484670D01*
X109584287Y-40484671D01*
X109450377Y-40540137D01*
X109335379Y-40628379D01*
X109247137Y-40743377D01*
X109191671Y-40877287D01*
X109191670Y-40877291D01*
X109172750Y-41020999D01*
X109172750Y-41021000D01*
X105976523Y-41021000D01*
X105929621Y-40959877D01*
X105814625Y-40871637D01*
X105814624Y-40871636D01*
X105814622Y-40871635D01*
X105680712Y-40816169D01*
X105680710Y-40816168D01*
X105680709Y-40816168D01*
X105608854Y-40806708D01*
X105537001Y-40797248D01*
X105536999Y-40797248D01*
X105393291Y-40816168D01*
X105393287Y-40816169D01*
X105259377Y-40871635D01*
X105144379Y-40959877D01*
X105056137Y-41074875D01*
X105000671Y-41208785D01*
X105000670Y-41208789D01*
X104981750Y-41352497D01*
X104981750Y-41352498D01*
X102783733Y-41352498D01*
X102771330Y-41258291D01*
X102715861Y-41124375D01*
X102627621Y-41009379D01*
X102512625Y-40921139D01*
X102512624Y-40921138D01*
X102512622Y-40921137D01*
X102378712Y-40865671D01*
X102378710Y-40865670D01*
X102378709Y-40865670D01*
X102306854Y-40856210D01*
X102235001Y-40846750D01*
X102234999Y-40846750D01*
X102091291Y-40865670D01*
X102091287Y-40865671D01*
X101958117Y-40920831D01*
X101888647Y-40928300D01*
X101826168Y-40897024D01*
X101790517Y-40836935D01*
X101793011Y-40767110D01*
X101811709Y-40731545D01*
X101909673Y-40601821D01*
X102000582Y-40419250D01*
X102056397Y-40223083D01*
X102075215Y-40020000D01*
X102056397Y-39816917D01*
X102051851Y-39800939D01*
X102052437Y-39731074D01*
X102090703Y-39672615D01*
X102154500Y-39644124D01*
X102210138Y-39651350D01*
X102210440Y-39650226D01*
X102218284Y-39652327D01*
X102218291Y-39652330D01*
X102345280Y-39669048D01*
X102361999Y-39671250D01*
X102362000Y-39671250D01*
X102362001Y-39671250D01*
X102376977Y-39669278D01*
X102505709Y-39652330D01*
X102639625Y-39596861D01*
X102754621Y-39508621D01*
X102842861Y-39393625D01*
X102898330Y-39259709D01*
X102917250Y-39116000D01*
X102898330Y-38972291D01*
X102852647Y-38862000D01*
X107775750Y-38862000D01*
X107794670Y-39005708D01*
X107794671Y-39005712D01*
X107850137Y-39139622D01*
X107850138Y-39139624D01*
X107850139Y-39139625D01*
X107938379Y-39254621D01*
X108053375Y-39342861D01*
X108187291Y-39398330D01*
X108314280Y-39415048D01*
X108330999Y-39417250D01*
X108331000Y-39417250D01*
X108331001Y-39417250D01*
X108345977Y-39415278D01*
X108474709Y-39398330D01*
X108608625Y-39342861D01*
X108723621Y-39254621D01*
X108811861Y-39139625D01*
X108867330Y-39005709D01*
X108886250Y-38862000D01*
X108867330Y-38718291D01*
X108811861Y-38584375D01*
X108723621Y-38469379D01*
X108608625Y-38381139D01*
X108608624Y-38381138D01*
X108608622Y-38381137D01*
X108474712Y-38325671D01*
X108474710Y-38325670D01*
X108474709Y-38325670D01*
X108402854Y-38316210D01*
X108331001Y-38306750D01*
X108330999Y-38306750D01*
X108187291Y-38325670D01*
X108187287Y-38325671D01*
X108053377Y-38381137D01*
X107938379Y-38469379D01*
X107850137Y-38584377D01*
X107794671Y-38718287D01*
X107794670Y-38718291D01*
X107775750Y-38861999D01*
X107775750Y-38862000D01*
X102852647Y-38862000D01*
X102842861Y-38838375D01*
X102754621Y-38723379D01*
X102639625Y-38635139D01*
X102639624Y-38635138D01*
X102639622Y-38635137D01*
X102505712Y-38579671D01*
X102505710Y-38579670D01*
X102505709Y-38579670D01*
X102433854Y-38570210D01*
X102362001Y-38560750D01*
X102361999Y-38560750D01*
X102218291Y-38579670D01*
X102218287Y-38579671D01*
X102084377Y-38635137D01*
X101969379Y-38723379D01*
X101881137Y-38838377D01*
X101825671Y-38972287D01*
X101825670Y-38972291D01*
X101816252Y-39043822D01*
X101787984Y-39107718D01*
X101729659Y-39146189D01*
X101659795Y-39147019D01*
X101628036Y-39133062D01*
X101462642Y-39030655D01*
X101462635Y-39030651D01*
X101311989Y-38972291D01*
X101272456Y-38956976D01*
X101071976Y-38919500D01*
X100868024Y-38919500D01*
X100667544Y-38956976D01*
X100667541Y-38956976D01*
X100667541Y-38956977D01*
X100477364Y-39030651D01*
X100477357Y-39030655D01*
X100303960Y-39138017D01*
X100303958Y-39138019D01*
X100153237Y-39275418D01*
X100030327Y-39438178D01*
X99939422Y-39620739D01*
X99939417Y-39620752D01*
X99883602Y-39816917D01*
X99864785Y-40019999D01*
X99864785Y-40020000D01*
X99535215Y-40020000D01*
X99516397Y-39816917D01*
X99460582Y-39620750D01*
X99448687Y-39596862D01*
X99404748Y-39508620D01*
X99369673Y-39438179D01*
X99246764Y-39275421D01*
X99246762Y-39275418D01*
X99096041Y-39138019D01*
X99096039Y-39138017D01*
X98922642Y-39030655D01*
X98922635Y-39030651D01*
X98771989Y-38972291D01*
X98732456Y-38956976D01*
X98531976Y-38919500D01*
X98328024Y-38919500D01*
X98127544Y-38956976D01*
X98127541Y-38956976D01*
X98127541Y-38956977D01*
X97937364Y-39030651D01*
X97937357Y-39030655D01*
X97763960Y-39138017D01*
X97763958Y-39138019D01*
X97613237Y-39275418D01*
X97490327Y-39438178D01*
X97399422Y-39620739D01*
X97399417Y-39620752D01*
X97343602Y-39816917D01*
X97324785Y-40019999D01*
X97324785Y-40020000D01*
X96545500Y-40020000D01*
X96545500Y-35190000D01*
X97099364Y-35190000D01*
X97156567Y-35403486D01*
X97156570Y-35403492D01*
X97256399Y-35617578D01*
X97391894Y-35811082D01*
X97558917Y-35978105D01*
X97752421Y-36113600D01*
X97966507Y-36213429D01*
X97966516Y-36213433D01*
X98005583Y-36223901D01*
X98065244Y-36260266D01*
X98095773Y-36323113D01*
X98087479Y-36392488D01*
X98042993Y-36446366D01*
X98018284Y-36459302D01*
X97937373Y-36490647D01*
X97937357Y-36490655D01*
X97763960Y-36598017D01*
X97763958Y-36598019D01*
X97613237Y-36735418D01*
X97490327Y-36898178D01*
X97399422Y-37080739D01*
X97399417Y-37080752D01*
X97343602Y-37276917D01*
X97324785Y-37479999D01*
X97324785Y-37480000D01*
X97343602Y-37683082D01*
X97399417Y-37879247D01*
X97399422Y-37879260D01*
X97490327Y-38061821D01*
X97613237Y-38224581D01*
X97763958Y-38361980D01*
X97763960Y-38361982D01*
X97789220Y-38377622D01*
X97937363Y-38469348D01*
X98127544Y-38543024D01*
X98328024Y-38580500D01*
X98328026Y-38580500D01*
X98531974Y-38580500D01*
X98531976Y-38580500D01*
X98732456Y-38543024D01*
X98922637Y-38469348D01*
X99096041Y-38361981D01*
X99246764Y-38224579D01*
X99369673Y-38061821D01*
X99460582Y-37879250D01*
X99516397Y-37683083D01*
X99535215Y-37480000D01*
X99864785Y-37480000D01*
X99883602Y-37683082D01*
X99939417Y-37879247D01*
X99939422Y-37879260D01*
X100030327Y-38061821D01*
X100153237Y-38224581D01*
X100303958Y-38361980D01*
X100303960Y-38361982D01*
X100329220Y-38377622D01*
X100477363Y-38469348D01*
X100667544Y-38543024D01*
X100868024Y-38580500D01*
X100868026Y-38580500D01*
X101071974Y-38580500D01*
X101071976Y-38580500D01*
X101272456Y-38543024D01*
X101462637Y-38469348D01*
X101636041Y-38361981D01*
X101786764Y-38224579D01*
X101880842Y-38100000D01*
X111331750Y-38100000D01*
X111348151Y-38224579D01*
X111350670Y-38243708D01*
X111350671Y-38243712D01*
X111406137Y-38377622D01*
X111406138Y-38377624D01*
X111406139Y-38377625D01*
X111494379Y-38492621D01*
X111609375Y-38580861D01*
X111609376Y-38580861D01*
X111609377Y-38580862D01*
X111654013Y-38599350D01*
X111743291Y-38636330D01*
X111870280Y-38653048D01*
X111886999Y-38655250D01*
X111887000Y-38655250D01*
X111887001Y-38655250D01*
X111901977Y-38653278D01*
X112030709Y-38636330D01*
X112164625Y-38580861D01*
X112279621Y-38492621D01*
X112367861Y-38377625D01*
X112423330Y-38243709D01*
X112442250Y-38100000D01*
X112423330Y-37956291D01*
X112367861Y-37822375D01*
X112279621Y-37707379D01*
X112164625Y-37619139D01*
X112164624Y-37619138D01*
X112164622Y-37619137D01*
X112030712Y-37563671D01*
X112030710Y-37563670D01*
X112030709Y-37563670D01*
X111958854Y-37554210D01*
X111887001Y-37544750D01*
X111886999Y-37544750D01*
X111743291Y-37563670D01*
X111743287Y-37563671D01*
X111609377Y-37619137D01*
X111494379Y-37707379D01*
X111406137Y-37822377D01*
X111350671Y-37956287D01*
X111350670Y-37956291D01*
X111331750Y-38100000D01*
X101880842Y-38100000D01*
X101909673Y-38061821D01*
X102000582Y-37879250D01*
X102056397Y-37683083D01*
X102064614Y-37594395D01*
X102090399Y-37529461D01*
X102147199Y-37488772D01*
X102216980Y-37485252D01*
X102263571Y-37507462D01*
X102292241Y-37529461D01*
X102338375Y-37564861D01*
X102472291Y-37620330D01*
X102599280Y-37637048D01*
X102615999Y-37639250D01*
X102616000Y-37639250D01*
X102616001Y-37639250D01*
X102630977Y-37637278D01*
X102759709Y-37620330D01*
X102893625Y-37564861D01*
X103008621Y-37476621D01*
X103096861Y-37361625D01*
X103106647Y-37338000D01*
X109299750Y-37338000D01*
X109318670Y-37481708D01*
X109318671Y-37481712D01*
X109374137Y-37615622D01*
X109374138Y-37615624D01*
X109374139Y-37615625D01*
X109462379Y-37730621D01*
X109577375Y-37818861D01*
X109577376Y-37818861D01*
X109577377Y-37818862D01*
X109622013Y-37837350D01*
X109711291Y-37874330D01*
X109838280Y-37891048D01*
X109854999Y-37893250D01*
X109855000Y-37893250D01*
X109855001Y-37893250D01*
X109869977Y-37891278D01*
X109998709Y-37874330D01*
X110132625Y-37818861D01*
X110247621Y-37730621D01*
X110335861Y-37615625D01*
X110391330Y-37481709D01*
X110410250Y-37338000D01*
X110391330Y-37194291D01*
X110344301Y-37080752D01*
X110335862Y-37060377D01*
X110335861Y-37060376D01*
X110335861Y-37060375D01*
X110247621Y-36945379D01*
X110132625Y-36857139D01*
X110132624Y-36857138D01*
X110132622Y-36857137D01*
X109998712Y-36801671D01*
X109998710Y-36801670D01*
X109998709Y-36801670D01*
X109926854Y-36792210D01*
X109855001Y-36782750D01*
X109854999Y-36782750D01*
X109711291Y-36801670D01*
X109711287Y-36801671D01*
X109577377Y-36857137D01*
X109462379Y-36945379D01*
X109374137Y-37060377D01*
X109318671Y-37194287D01*
X109318670Y-37194291D01*
X109299750Y-37337999D01*
X109299750Y-37338000D01*
X103106647Y-37338000D01*
X103152330Y-37227709D01*
X103171250Y-37084000D01*
X103152330Y-36940291D01*
X103096861Y-36806375D01*
X103008621Y-36691379D01*
X102893625Y-36603139D01*
X102893624Y-36603138D01*
X102893622Y-36603137D01*
X102759712Y-36547671D01*
X102759710Y-36547670D01*
X102759709Y-36547670D01*
X102687854Y-36538210D01*
X102616001Y-36528750D01*
X102615999Y-36528750D01*
X102472291Y-36547670D01*
X102472287Y-36547671D01*
X102338377Y-36603137D01*
X102223379Y-36691379D01*
X102135138Y-36806376D01*
X102113644Y-36858268D01*
X102069802Y-36912671D01*
X102003508Y-36934735D01*
X101935808Y-36917455D01*
X101900129Y-36885541D01*
X101878679Y-36857137D01*
X101786764Y-36735421D01*
X101786762Y-36735418D01*
X101636041Y-36598019D01*
X101636039Y-36598017D01*
X101462642Y-36490655D01*
X101462635Y-36490651D01*
X101348321Y-36446366D01*
X101272456Y-36416976D01*
X101071976Y-36379500D01*
X100868024Y-36379500D01*
X100667544Y-36416976D01*
X100667541Y-36416976D01*
X100667541Y-36416977D01*
X100477364Y-36490651D01*
X100477357Y-36490655D01*
X100303960Y-36598017D01*
X100303958Y-36598019D01*
X100153237Y-36735418D01*
X100030327Y-36898178D01*
X99939422Y-37080739D01*
X99939417Y-37080752D01*
X99883602Y-37276917D01*
X99864785Y-37479999D01*
X99864785Y-37480000D01*
X99535215Y-37480000D01*
X99516397Y-37276917D01*
X99460582Y-37080750D01*
X99369673Y-36898179D01*
X99246764Y-36735421D01*
X99246762Y-36735418D01*
X99096041Y-36598019D01*
X99096039Y-36598017D01*
X98922642Y-36490655D01*
X98922635Y-36490651D01*
X98841715Y-36459303D01*
X98786313Y-36416730D01*
X98762723Y-36350963D01*
X98778434Y-36282883D01*
X98828458Y-36234104D01*
X98854417Y-36223901D01*
X98893481Y-36213434D01*
X98893492Y-36213429D01*
X99107578Y-36113600D01*
X99301082Y-35978105D01*
X99468105Y-35811082D01*
X99603600Y-35617577D01*
X99603601Y-35617575D01*
X99633118Y-35554277D01*
X99679290Y-35501837D01*
X99746483Y-35482685D01*
X99813364Y-35502900D01*
X99858699Y-35556065D01*
X99869500Y-35606681D01*
X99869500Y-35814678D01*
X99884032Y-35887735D01*
X99884033Y-35887739D01*
X99884034Y-35887740D01*
X99939399Y-35970601D01*
X100022259Y-36025966D01*
X100022260Y-36025966D01*
X100022264Y-36025967D01*
X100095321Y-36040499D01*
X100095324Y-36040500D01*
X100095326Y-36040500D01*
X101844676Y-36040500D01*
X101844677Y-36040499D01*
X101917740Y-36025966D01*
X102000601Y-35970601D01*
X102055966Y-35887740D01*
X102070500Y-35814674D01*
X102070500Y-35560005D01*
X103269357Y-35560005D01*
X103289890Y-35807812D01*
X103289892Y-35807824D01*
X103350936Y-36048881D01*
X103450826Y-36276606D01*
X103586833Y-36484782D01*
X103586836Y-36484785D01*
X103755256Y-36667738D01*
X103951491Y-36820474D01*
X104170190Y-36938828D01*
X104405386Y-37019571D01*
X104650665Y-37060500D01*
X104899335Y-37060500D01*
X105144614Y-37019571D01*
X105379810Y-36938828D01*
X105598509Y-36820474D01*
X105794744Y-36667738D01*
X105963164Y-36484785D01*
X106099173Y-36276607D01*
X106199063Y-36048881D01*
X106260108Y-35807821D01*
X106275872Y-35617577D01*
X106280643Y-35560005D01*
X106280643Y-35559994D01*
X106260109Y-35312187D01*
X106260107Y-35312175D01*
X106199063Y-35071118D01*
X106099173Y-34843393D01*
X105963166Y-34635217D01*
X105905272Y-34572328D01*
X105794744Y-34452262D01*
X105598509Y-34299526D01*
X105598507Y-34299525D01*
X105598506Y-34299524D01*
X105379811Y-34181172D01*
X105379802Y-34181169D01*
X105144616Y-34100429D01*
X104899335Y-34059500D01*
X104650665Y-34059500D01*
X104405383Y-34100429D01*
X104170197Y-34181169D01*
X104170188Y-34181172D01*
X103951493Y-34299524D01*
X103755257Y-34452261D01*
X103586833Y-34635217D01*
X103450826Y-34843393D01*
X103350936Y-35071118D01*
X103289892Y-35312175D01*
X103289890Y-35312187D01*
X103269357Y-35559994D01*
X103269357Y-35560005D01*
X102070500Y-35560005D01*
X102070500Y-34065326D01*
X102070500Y-34065323D01*
X102070499Y-34065321D01*
X102064667Y-34036000D01*
X107267750Y-34036000D01*
X107286670Y-34179708D01*
X107286671Y-34179712D01*
X107342137Y-34313622D01*
X107342138Y-34313624D01*
X107342139Y-34313625D01*
X107430379Y-34428621D01*
X107545375Y-34516861D01*
X107679291Y-34572330D01*
X107806280Y-34589048D01*
X107822999Y-34591250D01*
X107823000Y-34591250D01*
X107823001Y-34591250D01*
X107837977Y-34589278D01*
X107966709Y-34572330D01*
X108100625Y-34516861D01*
X108215621Y-34428621D01*
X108303861Y-34313625D01*
X108359330Y-34179709D01*
X108361530Y-34163000D01*
X110950750Y-34163000D01*
X110969670Y-34306708D01*
X110969671Y-34306712D01*
X111025137Y-34440622D01*
X111025138Y-34440624D01*
X111025139Y-34440625D01*
X111113379Y-34555621D01*
X111228375Y-34643861D01*
X111362291Y-34699330D01*
X111489280Y-34716048D01*
X111505999Y-34718250D01*
X111506000Y-34718250D01*
X111506001Y-34718250D01*
X111520977Y-34716278D01*
X111649709Y-34699330D01*
X111783625Y-34643861D01*
X111898621Y-34555621D01*
X111986861Y-34440625D01*
X112042330Y-34306709D01*
X112061250Y-34163000D01*
X112042330Y-34019291D01*
X111986861Y-33885375D01*
X111898621Y-33770379D01*
X111783625Y-33682139D01*
X111783624Y-33682138D01*
X111783622Y-33682137D01*
X111649712Y-33626671D01*
X111649710Y-33626670D01*
X111649709Y-33626670D01*
X111577854Y-33617210D01*
X111506001Y-33607750D01*
X111505999Y-33607750D01*
X111362291Y-33626670D01*
X111362287Y-33626671D01*
X111228377Y-33682137D01*
X111113379Y-33770379D01*
X111025137Y-33885377D01*
X110969671Y-34019287D01*
X110969670Y-34019291D01*
X110950750Y-34162999D01*
X110950750Y-34163000D01*
X108361530Y-34163000D01*
X108378250Y-34036000D01*
X108359330Y-33892291D01*
X108303861Y-33758375D01*
X108215621Y-33643379D01*
X108100625Y-33555139D01*
X108100624Y-33555138D01*
X108100622Y-33555137D01*
X107966712Y-33499671D01*
X107966710Y-33499670D01*
X107966709Y-33499670D01*
X107894854Y-33490210D01*
X107823001Y-33480750D01*
X107822999Y-33480750D01*
X107679291Y-33499670D01*
X107679287Y-33499671D01*
X107545377Y-33555137D01*
X107430379Y-33643379D01*
X107342137Y-33758377D01*
X107286671Y-33892287D01*
X107286670Y-33892291D01*
X107267750Y-34035999D01*
X107267750Y-34036000D01*
X102064667Y-34036000D01*
X102055967Y-33992264D01*
X102055966Y-33992260D01*
X102055965Y-33992260D01*
X102000601Y-33909399D01*
X101917740Y-33854034D01*
X101917739Y-33854033D01*
X101917735Y-33854032D01*
X101844677Y-33839500D01*
X101844674Y-33839500D01*
X100095326Y-33839500D01*
X100095323Y-33839500D01*
X100022264Y-33854032D01*
X100022260Y-33854033D01*
X99939399Y-33909399D01*
X99884033Y-33992260D01*
X99884032Y-33992264D01*
X99869500Y-34065321D01*
X99869500Y-34273318D01*
X99849815Y-34340357D01*
X99797011Y-34386112D01*
X99727853Y-34396056D01*
X99664297Y-34367031D01*
X99633118Y-34325723D01*
X99603600Y-34262422D01*
X99603599Y-34262420D01*
X99468113Y-34068926D01*
X99468108Y-34068920D01*
X99301082Y-33901894D01*
X99107578Y-33766399D01*
X98893492Y-33666570D01*
X98893486Y-33666567D01*
X98680000Y-33609364D01*
X98680000Y-34504498D01*
X98572315Y-34455320D01*
X98465763Y-34440000D01*
X98394237Y-34440000D01*
X98287685Y-34455320D01*
X98180000Y-34504498D01*
X98180000Y-33609364D01*
X98179999Y-33609364D01*
X97966513Y-33666567D01*
X97966507Y-33666570D01*
X97752422Y-33766399D01*
X97752420Y-33766400D01*
X97558926Y-33901886D01*
X97558920Y-33901891D01*
X97391891Y-34068920D01*
X97391886Y-34068926D01*
X97256400Y-34262420D01*
X97256399Y-34262422D01*
X97156570Y-34476507D01*
X97156567Y-34476513D01*
X97099364Y-34689999D01*
X97099364Y-34690000D01*
X97996314Y-34690000D01*
X97970507Y-34730156D01*
X97930000Y-34868111D01*
X97930000Y-35011889D01*
X97970507Y-35149844D01*
X97996314Y-35190000D01*
X97099364Y-35190000D01*
X96545500Y-35190000D01*
X96545500Y-33169500D01*
X96565185Y-33102461D01*
X96617989Y-33056706D01*
X96669500Y-33045500D01*
X112880500Y-33045500D01*
X112947539Y-33065185D01*
G37*
%TD.AperFunction*%
M02*
