%TF.GenerationSoftware,KiCad,Pcbnew,8.0.4*%
%TF.CreationDate,2024-09-22T15:30:35+02:00*%
%TF.ProjectId,dc_64d,64635f36-3464-42e6-9b69-6361645f7063,0.1*%
%TF.SameCoordinates,Original*%
%TF.FileFunction,Soldermask,Top*%
%TF.FilePolarity,Negative*%
%FSLAX46Y46*%
G04 Gerber Fmt 4.6, Leading zero omitted, Abs format (unit mm)*
G04 Created by KiCad (PCBNEW 8.0.4) date 2024-09-22 15:30:35*
%MOMM*%
%LPD*%
G01*
G04 APERTURE LIST*
G04 Aperture macros list*
%AMRoundRect*
0 Rectangle with rounded corners*
0 $1 Rounding radius*
0 $2 $3 $4 $5 $6 $7 $8 $9 X,Y pos of 4 corners*
0 Add a 4 corners polygon primitive as box body*
4,1,4,$2,$3,$4,$5,$6,$7,$8,$9,$2,$3,0*
0 Add four circle primitives for the rounded corners*
1,1,$1+$1,$2,$3*
1,1,$1+$1,$4,$5*
1,1,$1+$1,$6,$7*
1,1,$1+$1,$8,$9*
0 Add four rect primitives between the rounded corners*
20,1,$1+$1,$2,$3,$4,$5,0*
20,1,$1+$1,$4,$5,$6,$7,0*
20,1,$1+$1,$6,$7,$8,$9,0*
20,1,$1+$1,$8,$9,$2,$3,0*%
%AMFreePoly0*
4,1,19,0.500000,-0.750000,0.000000,-0.750000,0.000000,-0.744911,-0.071157,-0.744911,-0.207708,-0.704816,-0.327430,-0.627875,-0.420627,-0.520320,-0.479746,-0.390866,-0.500000,-0.250000,-0.500000,0.250000,-0.479746,0.390866,-0.420627,0.520320,-0.327430,0.627875,-0.207708,0.704816,-0.071157,0.744911,0.000000,0.744911,0.000000,0.750000,0.500000,0.750000,0.500000,-0.750000,0.500000,-0.750000,
$1*%
%AMFreePoly1*
4,1,19,0.000000,0.744911,0.071157,0.744911,0.207708,0.704816,0.327430,0.627875,0.420627,0.520320,0.479746,0.390866,0.500000,0.250000,0.500000,-0.250000,0.479746,-0.390866,0.420627,-0.520320,0.327430,-0.627875,0.207708,-0.704816,0.071157,-0.744911,0.000000,-0.744911,0.000000,-0.750000,-0.500000,-0.750000,-0.500000,0.750000,0.000000,0.750000,0.000000,0.744911,0.000000,0.744911,
$1*%
G04 Aperture macros list end*
%ADD10RoundRect,0.218750X-0.218750X-0.256250X0.218750X-0.256250X0.218750X0.256250X-0.218750X0.256250X0*%
%ADD11RoundRect,0.218750X-0.256250X0.218750X-0.256250X-0.218750X0.256250X-0.218750X0.256250X0.218750X0*%
%ADD12FreePoly0,180.000000*%
%ADD13FreePoly1,180.000000*%
%ADD14R,1.220000X0.650000*%
%ADD15RoundRect,0.218750X0.256250X-0.218750X0.256250X0.218750X-0.256250X0.218750X-0.256250X-0.218750X0*%
%ADD16C,2.500000*%
%ADD17RoundRect,0.218750X0.218750X0.256250X-0.218750X0.256250X-0.218750X-0.256250X0.218750X-0.256250X0*%
%ADD18RoundRect,0.250000X-1.825000X-0.700000X1.825000X-0.700000X1.825000X0.700000X-1.825000X0.700000X0*%
%ADD19R,1.600000X5.700000*%
%ADD20R,1.000000X1.000000*%
%ADD21R,5.700000X1.600000*%
%ADD22C,3.000000*%
%ADD23RoundRect,0.250000X-1.000000X-0.900000X1.000000X-0.900000X1.000000X0.900000X-1.000000X0.900000X0*%
%ADD24R,1.400000X1.200000*%
%ADD25R,0.650000X1.220000*%
%ADD26R,0.650000X1.060000*%
%ADD27R,1.700000X1.700000*%
%ADD28O,1.700000X1.700000*%
G04 APERTURE END LIST*
D10*
X106121000Y-65405000D03*
X107696000Y-65405000D03*
D11*
X110642400Y-35128100D03*
X110642400Y-36703100D03*
D12*
X100345000Y-34945000D03*
D13*
X99045000Y-34945000D03*
D10*
X99542500Y-66929000D03*
X101117500Y-66929000D03*
D14*
X106227000Y-61915000D03*
X106227000Y-62865000D03*
X106227000Y-63815000D03*
X108847000Y-63815000D03*
X108847000Y-62865000D03*
X108847000Y-61915000D03*
D15*
X109194500Y-66954500D03*
X109194500Y-65379500D03*
D10*
X109321500Y-57429500D03*
X110896500Y-57429500D03*
D16*
X104775000Y-43180000D03*
D17*
X107066500Y-49961800D03*
X105491500Y-49961800D03*
D10*
X99542500Y-69977000D03*
X101117500Y-69977000D03*
D18*
X103459000Y-76962000D03*
X110409000Y-76962000D03*
D11*
X108819000Y-49758500D03*
X108819000Y-51333500D03*
X108819000Y-52806500D03*
X108819000Y-54381500D03*
D19*
X104172000Y-62865000D03*
X99472000Y-62865000D03*
D17*
X101574700Y-49530000D03*
X99999700Y-49530000D03*
D11*
X107950000Y-42138500D03*
X107950000Y-43713500D03*
D10*
X109321500Y-55905500D03*
X110896500Y-55905500D03*
D20*
X107783000Y-56159400D03*
X105283000Y-56159400D03*
D11*
X110718500Y-65379500D03*
X110718500Y-66954500D03*
D21*
X101092000Y-51371000D03*
X101092000Y-56071000D03*
D22*
X99060000Y-78740000D03*
D11*
X110363000Y-52806500D03*
X110363000Y-54381500D03*
D10*
X106121000Y-66929000D03*
X107696000Y-66929000D03*
X109321500Y-58953500D03*
X110896500Y-58953500D03*
X99542500Y-73025000D03*
X101117500Y-73025000D03*
D23*
X105537000Y-70231000D03*
X109837000Y-70231000D03*
D24*
X103702000Y-40574000D03*
X106102000Y-40574000D03*
X106102000Y-38674000D03*
X103702000Y-38674000D03*
D10*
X106089000Y-60325000D03*
X107664000Y-60325000D03*
D15*
X110464500Y-63906500D03*
X110464500Y-62331500D03*
D10*
X99542500Y-68453000D03*
X101117500Y-68453000D03*
D17*
X109118500Y-36322000D03*
X107543500Y-36322000D03*
X101269900Y-42570400D03*
X99694900Y-42570400D03*
D10*
X99542500Y-71501000D03*
X101117500Y-71501000D03*
D25*
X105349000Y-54294500D03*
X106299000Y-54294500D03*
X107249000Y-54294500D03*
X107249000Y-51674500D03*
X105349000Y-51674500D03*
D11*
X110363000Y-49758500D03*
X110363000Y-51333500D03*
D15*
X103073200Y-49555500D03*
X103073200Y-47980500D03*
X110998000Y-43713500D03*
X110998000Y-42138500D03*
D22*
X110490000Y-83820000D03*
D16*
X104775000Y-83820000D03*
D26*
X110424000Y-38270000D03*
X109474000Y-38270000D03*
X108524000Y-38270000D03*
X108524000Y-40470000D03*
X109474000Y-40470000D03*
X110424000Y-40470000D03*
D11*
X109474000Y-42138500D03*
X109474000Y-43713500D03*
D16*
X104775000Y-45720000D03*
D10*
X99542500Y-74549000D03*
X101117500Y-74549000D03*
D16*
X104775000Y-35560000D03*
D17*
X111023500Y-45212000D03*
X109448500Y-45212000D03*
D10*
X105511500Y-48412500D03*
X107086500Y-48412500D03*
D27*
X100970000Y-34940000D03*
D28*
X98430000Y-34940000D03*
X100970000Y-37480000D03*
X98430000Y-37480000D03*
X100970000Y-40020000D03*
X98430000Y-40020000D03*
M02*
