%TF.GenerationSoftware,KiCad,Pcbnew,7.0.6*%
%TF.CreationDate,2024-02-23T16:16:52+01:00*%
%TF.ProjectId,dc_64d,64635f36-3464-42e6-9b69-6361645f7063,0.1*%
%TF.SameCoordinates,Original*%
%TF.FileFunction,Copper,L2,Inr*%
%TF.FilePolarity,Positive*%
%FSLAX46Y46*%
G04 Gerber Fmt 4.6, Leading zero omitted, Abs format (unit mm)*
G04 Created by KiCad (PCBNEW 7.0.6) date 2024-02-23 16:16:52*
%MOMM*%
%LPD*%
G01*
G04 APERTURE LIST*
%TA.AperFunction,ComponentPad*%
%ADD10C,2.500000*%
%TD*%
%TA.AperFunction,ComponentPad*%
%ADD11C,3.000000*%
%TD*%
%TA.AperFunction,ComponentPad*%
%ADD12R,1.700000X1.700000*%
%TD*%
%TA.AperFunction,ComponentPad*%
%ADD13O,1.700000X1.700000*%
%TD*%
%TA.AperFunction,ViaPad*%
%ADD14C,0.600000*%
%TD*%
G04 APERTURE END LIST*
D10*
X104775000Y-43180000D03*
D11*
X99060000Y-78740000D03*
X110490000Y-83820000D03*
D10*
X104775000Y-83820000D03*
X104775000Y-45720000D03*
X104775000Y-35560000D03*
D12*
X100970000Y-34940000D03*
D13*
X98430000Y-34940000D03*
X100970000Y-37480000D03*
X98430000Y-37480000D03*
X100970000Y-40020000D03*
X98430000Y-40020000D03*
D14*
X109474000Y-37338000D03*
X106426000Y-55651500D03*
X107823000Y-76581000D03*
X112141000Y-79883000D03*
X107543500Y-62230000D03*
X102743000Y-63627000D03*
X110998000Y-48133000D03*
X97485200Y-50901600D03*
X105537000Y-52984500D03*
X112014000Y-55905500D03*
X110464500Y-61214000D03*
X102108000Y-54102000D03*
X112268000Y-51968500D03*
X101981000Y-78867000D03*
X101981000Y-66929000D03*
X101981000Y-80391000D03*
X108077000Y-45212000D03*
X102743000Y-65151000D03*
X107543500Y-62992000D03*
X108077000Y-70993000D03*
X100711000Y-75946000D03*
X101981000Y-74549000D03*
X100025200Y-48463200D03*
X107696000Y-68072000D03*
X102616000Y-37084000D03*
X101981000Y-71501000D03*
X107950000Y-80645000D03*
X107061000Y-47498000D03*
X111379000Y-49809500D03*
X101981000Y-68453000D03*
X109474000Y-46355000D03*
X102743000Y-62103000D03*
X112141000Y-43688000D03*
X98958400Y-49479200D03*
X104902000Y-40513000D03*
X101981000Y-69977000D03*
X102057200Y-48006000D03*
X108077000Y-70231000D03*
X102362000Y-45339000D03*
X107543500Y-61468000D03*
X102235000Y-41402000D03*
X104292400Y-48412400D03*
X112141000Y-71374000D03*
X111760000Y-35153600D03*
X102743000Y-60579000D03*
X106299000Y-52984500D03*
X108077000Y-69469000D03*
X97790000Y-43688000D03*
X112014000Y-39370000D03*
X112014000Y-57429500D03*
X107442000Y-37465000D03*
X112014000Y-58953500D03*
X109855000Y-48133000D03*
X102362000Y-39116000D03*
X112014000Y-55143500D03*
X108712000Y-34036000D03*
X112014000Y-58191500D03*
X103251000Y-54102000D03*
X107950000Y-85471000D03*
X108458000Y-48133000D03*
X107442000Y-40513000D03*
X112141000Y-65659000D03*
X110642400Y-33985200D03*
X112141000Y-74549000D03*
X109220000Y-68072000D03*
X112014000Y-56667500D03*
X107823000Y-75819000D03*
X103378000Y-66675000D03*
X107823000Y-77343000D03*
X107061000Y-52984500D03*
X107823000Y-78105000D03*
X98806000Y-52578000D03*
X102616000Y-52578000D03*
X101092000Y-52578000D03*
X101854000Y-52578000D03*
X100330000Y-52578000D03*
X99568000Y-52578000D03*
X103378000Y-52578000D03*
X100711000Y-62103000D03*
X100711000Y-63627000D03*
X101473000Y-63627000D03*
X100711000Y-62865000D03*
X102362000Y-72390000D03*
X101473000Y-60579000D03*
X104775000Y-38608000D03*
X100711000Y-60579000D03*
X100711000Y-64389000D03*
X109474000Y-41402000D03*
X110718500Y-67691000D03*
X101473000Y-62865000D03*
X100711000Y-65151000D03*
X101473000Y-62103000D03*
X101473000Y-65151000D03*
X100711000Y-61341000D03*
X101473000Y-61341000D03*
X101473000Y-64389000D03*
%TA.AperFunction,Conductor*%
G36*
X106807000Y-37592000D02*
G01*
X102743000Y-37592000D01*
X102743000Y-33045500D01*
X106807000Y-33045500D01*
X106807000Y-37592000D01*
G37*
%TD.AperFunction*%
%TA.AperFunction,Conductor*%
G36*
X102743000Y-37592000D02*
G01*
X106807000Y-37592000D01*
X106807000Y-33045500D01*
X112880500Y-33045500D01*
X112947539Y-33065185D01*
X112993294Y-33117989D01*
X113004500Y-33169500D01*
X113004500Y-75438000D01*
X107315000Y-75438000D01*
X107315000Y-78486000D01*
X113004500Y-78486000D01*
X113004500Y-86210500D01*
X112984815Y-86277539D01*
X112932011Y-86323294D01*
X112880500Y-86334500D01*
X103019500Y-86334500D01*
X102952461Y-86314815D01*
X102906706Y-86262011D01*
X102895500Y-86210500D01*
X102895500Y-83820005D01*
X103269357Y-83820005D01*
X103289890Y-84067812D01*
X103289892Y-84067824D01*
X103350936Y-84308881D01*
X103450826Y-84536606D01*
X103586833Y-84744782D01*
X103586836Y-84744785D01*
X103755256Y-84927738D01*
X103951491Y-85080474D01*
X104170190Y-85198828D01*
X104405386Y-85279571D01*
X104650665Y-85320500D01*
X104899335Y-85320500D01*
X105144614Y-85279571D01*
X105379810Y-85198828D01*
X105598509Y-85080474D01*
X105794744Y-84927738D01*
X105963164Y-84744785D01*
X106099173Y-84536607D01*
X106199063Y-84308881D01*
X106260108Y-84067821D01*
X106280643Y-83820004D01*
X108734592Y-83820004D01*
X108754196Y-84081620D01*
X108754197Y-84081625D01*
X108812576Y-84337402D01*
X108812578Y-84337411D01*
X108812580Y-84337416D01*
X108908432Y-84581643D01*
X109039614Y-84808857D01*
X109171736Y-84974533D01*
X109203198Y-85013985D01*
X109384753Y-85182441D01*
X109395521Y-85192433D01*
X109612296Y-85340228D01*
X109612301Y-85340230D01*
X109612302Y-85340231D01*
X109612303Y-85340232D01*
X109737843Y-85400688D01*
X109848673Y-85454061D01*
X109848674Y-85454061D01*
X109848677Y-85454063D01*
X110099385Y-85531396D01*
X110358818Y-85570500D01*
X110621182Y-85570500D01*
X110880615Y-85531396D01*
X111131323Y-85454063D01*
X111367704Y-85340228D01*
X111584479Y-85192433D01*
X111776805Y-85013981D01*
X111940386Y-84808857D01*
X112071568Y-84581643D01*
X112167420Y-84337416D01*
X112225802Y-84081630D01*
X112226837Y-84067821D01*
X112245408Y-83820004D01*
X112245408Y-83819995D01*
X112225803Y-83558379D01*
X112225802Y-83558374D01*
X112225802Y-83558370D01*
X112167420Y-83302584D01*
X112071568Y-83058357D01*
X111940386Y-82831143D01*
X111776805Y-82626019D01*
X111776804Y-82626018D01*
X111776801Y-82626014D01*
X111584479Y-82447567D01*
X111456671Y-82360429D01*
X111367704Y-82299772D01*
X111367700Y-82299770D01*
X111367697Y-82299768D01*
X111367696Y-82299767D01*
X111131325Y-82185938D01*
X111131327Y-82185938D01*
X110880623Y-82108606D01*
X110880619Y-82108605D01*
X110880615Y-82108604D01*
X110755823Y-82089794D01*
X110621187Y-82069500D01*
X110621182Y-82069500D01*
X110358818Y-82069500D01*
X110358812Y-82069500D01*
X110197247Y-82093853D01*
X110099385Y-82108604D01*
X110099381Y-82108605D01*
X110099382Y-82108605D01*
X110099376Y-82108606D01*
X109848673Y-82185938D01*
X109612303Y-82299767D01*
X109612302Y-82299768D01*
X109395520Y-82447567D01*
X109203198Y-82626014D01*
X109039614Y-82831143D01*
X108908432Y-83058356D01*
X108812582Y-83302578D01*
X108812576Y-83302597D01*
X108754197Y-83558374D01*
X108754196Y-83558379D01*
X108734592Y-83819995D01*
X108734592Y-83820004D01*
X106280643Y-83820004D01*
X106280643Y-83820000D01*
X106260108Y-83572179D01*
X106199063Y-83331119D01*
X106186546Y-83302584D01*
X106099173Y-83103393D01*
X105963166Y-82895217D01*
X105941557Y-82871744D01*
X105794744Y-82712262D01*
X105598509Y-82559526D01*
X105598507Y-82559525D01*
X105598506Y-82559524D01*
X105379811Y-82441172D01*
X105379802Y-82441169D01*
X105144616Y-82360429D01*
X104899335Y-82319500D01*
X104650665Y-82319500D01*
X104405383Y-82360429D01*
X104170197Y-82441169D01*
X104170188Y-82441172D01*
X103951493Y-82559524D01*
X103755257Y-82712261D01*
X103586833Y-82895217D01*
X103450826Y-83103393D01*
X103350936Y-83331118D01*
X103289892Y-83572175D01*
X103289890Y-83572187D01*
X103269357Y-83819994D01*
X103269357Y-83820005D01*
X102895500Y-83820005D01*
X102895500Y-81309738D01*
X102897601Y-81299177D01*
X102897601Y-81279999D01*
X102889517Y-81260483D01*
X102875072Y-81254500D01*
X102870000Y-81252399D01*
X102850824Y-81252399D01*
X102840262Y-81254500D01*
X96669500Y-81254500D01*
X96602461Y-81234815D01*
X96556706Y-81182011D01*
X96545500Y-81130500D01*
X96545500Y-78740004D01*
X97304592Y-78740004D01*
X97324196Y-79001620D01*
X97324197Y-79001625D01*
X97382576Y-79257402D01*
X97382578Y-79257411D01*
X97382580Y-79257416D01*
X97478432Y-79501643D01*
X97609614Y-79728857D01*
X97741736Y-79894533D01*
X97773198Y-79933985D01*
X97954753Y-80102441D01*
X97965521Y-80112433D01*
X98182296Y-80260228D01*
X98182301Y-80260230D01*
X98182302Y-80260231D01*
X98182303Y-80260232D01*
X98307843Y-80320688D01*
X98418673Y-80374061D01*
X98418674Y-80374061D01*
X98418677Y-80374063D01*
X98669385Y-80451396D01*
X98928818Y-80490500D01*
X99191182Y-80490500D01*
X99450615Y-80451396D01*
X99701323Y-80374063D01*
X99937704Y-80260228D01*
X100154479Y-80112433D01*
X100346805Y-79933981D01*
X100510386Y-79728857D01*
X100641568Y-79501643D01*
X100737420Y-79257416D01*
X100795802Y-79001630D01*
X100815408Y-78740000D01*
X100795802Y-78478370D01*
X100737420Y-78222584D01*
X100641568Y-77978357D01*
X100510386Y-77751143D01*
X100346805Y-77546019D01*
X100346804Y-77546018D01*
X100346801Y-77546014D01*
X100154479Y-77367567D01*
X100154478Y-77367566D01*
X99937704Y-77219772D01*
X99937700Y-77219770D01*
X99937697Y-77219768D01*
X99937696Y-77219767D01*
X99701325Y-77105938D01*
X99701327Y-77105938D01*
X99450623Y-77028606D01*
X99450619Y-77028605D01*
X99450615Y-77028604D01*
X99325823Y-77009794D01*
X99191187Y-76989500D01*
X99191182Y-76989500D01*
X98928818Y-76989500D01*
X98928812Y-76989500D01*
X98767247Y-77013853D01*
X98669385Y-77028604D01*
X98669381Y-77028605D01*
X98669382Y-77028605D01*
X98669376Y-77028606D01*
X98418673Y-77105938D01*
X98182303Y-77219767D01*
X98182302Y-77219768D01*
X97965520Y-77367567D01*
X97773198Y-77546014D01*
X97609614Y-77751143D01*
X97478432Y-77978356D01*
X97382582Y-78222578D01*
X97382576Y-78222597D01*
X97324197Y-78478374D01*
X97324196Y-78478379D01*
X97304592Y-78739995D01*
X97304592Y-78740004D01*
X96545500Y-78740004D01*
X96545500Y-72390000D01*
X101806750Y-72390000D01*
X101825670Y-72533708D01*
X101825671Y-72533712D01*
X101881137Y-72667622D01*
X101881138Y-72667624D01*
X101881139Y-72667625D01*
X101969379Y-72782621D01*
X102084375Y-72870861D01*
X102218291Y-72926330D01*
X102345280Y-72943048D01*
X102361999Y-72945250D01*
X102362000Y-72945250D01*
X102362001Y-72945250D01*
X102376977Y-72943278D01*
X102505709Y-72926330D01*
X102639625Y-72870861D01*
X102754621Y-72782621D01*
X102842861Y-72667625D01*
X102898330Y-72533709D01*
X102917250Y-72390000D01*
X102898330Y-72246291D01*
X102842861Y-72112375D01*
X102754621Y-71997379D01*
X102639625Y-71909139D01*
X102639624Y-71909138D01*
X102639622Y-71909137D01*
X102505712Y-71853671D01*
X102505710Y-71853670D01*
X102505709Y-71853670D01*
X102433854Y-71844210D01*
X102362001Y-71834750D01*
X102361999Y-71834750D01*
X102218291Y-71853670D01*
X102218287Y-71853671D01*
X102084377Y-71909137D01*
X101969379Y-71997379D01*
X101881137Y-72112377D01*
X101825671Y-72246287D01*
X101825670Y-72246291D01*
X101806750Y-72389999D01*
X101806750Y-72390000D01*
X96545500Y-72390000D01*
X96545500Y-67691000D01*
X110163250Y-67691000D01*
X110182170Y-67834708D01*
X110182171Y-67834712D01*
X110237637Y-67968622D01*
X110237638Y-67968624D01*
X110237639Y-67968625D01*
X110325879Y-68083621D01*
X110440875Y-68171861D01*
X110574791Y-68227330D01*
X110701780Y-68244048D01*
X110718499Y-68246250D01*
X110718500Y-68246250D01*
X110718501Y-68246250D01*
X110733477Y-68244278D01*
X110862209Y-68227330D01*
X110996125Y-68171861D01*
X111111121Y-68083621D01*
X111199361Y-67968625D01*
X111254830Y-67834709D01*
X111273750Y-67691000D01*
X111254830Y-67547291D01*
X111199361Y-67413375D01*
X111111121Y-67298379D01*
X110996125Y-67210139D01*
X110996124Y-67210138D01*
X110996122Y-67210137D01*
X110862212Y-67154671D01*
X110862210Y-67154670D01*
X110862209Y-67154670D01*
X110790354Y-67145210D01*
X110718501Y-67135750D01*
X110718499Y-67135750D01*
X110574791Y-67154670D01*
X110574787Y-67154671D01*
X110440877Y-67210137D01*
X110325879Y-67298379D01*
X110237637Y-67413377D01*
X110182171Y-67547287D01*
X110182170Y-67547291D01*
X110163250Y-67690999D01*
X110163250Y-67691000D01*
X96545500Y-67691000D01*
X96545500Y-65151000D01*
X100155750Y-65151000D01*
X100174670Y-65294708D01*
X100174671Y-65294712D01*
X100230137Y-65428622D01*
X100230138Y-65428624D01*
X100230139Y-65428625D01*
X100318379Y-65543621D01*
X100433375Y-65631861D01*
X100567291Y-65687330D01*
X100694280Y-65704048D01*
X100710999Y-65706250D01*
X100711000Y-65706250D01*
X100711001Y-65706250D01*
X100725977Y-65704278D01*
X100854709Y-65687330D01*
X100988625Y-65631861D01*
X101016514Y-65610460D01*
X101081683Y-65585267D01*
X101150127Y-65599305D01*
X101167481Y-65610457D01*
X101195375Y-65631861D01*
X101329291Y-65687330D01*
X101456280Y-65704048D01*
X101472999Y-65706250D01*
X101473000Y-65706250D01*
X101473001Y-65706250D01*
X101487977Y-65704278D01*
X101616709Y-65687330D01*
X101750625Y-65631861D01*
X101865621Y-65543621D01*
X101953861Y-65428625D01*
X102009330Y-65294709D01*
X102028250Y-65151000D01*
X102009330Y-65007291D01*
X101953861Y-64873375D01*
X101932460Y-64845485D01*
X101907267Y-64780317D01*
X101921305Y-64711873D01*
X101932460Y-64694515D01*
X101953861Y-64666625D01*
X102009330Y-64532709D01*
X102028250Y-64389000D01*
X102009330Y-64245291D01*
X101953861Y-64111375D01*
X101932460Y-64083485D01*
X101907267Y-64018317D01*
X101921305Y-63949873D01*
X101932460Y-63932515D01*
X101953861Y-63904625D01*
X102009330Y-63770709D01*
X102028250Y-63627000D01*
X102009330Y-63483291D01*
X101953861Y-63349375D01*
X101932460Y-63321485D01*
X101907267Y-63256317D01*
X101921305Y-63187873D01*
X101932460Y-63170515D01*
X101953861Y-63142625D01*
X102009330Y-63008709D01*
X102028250Y-62865000D01*
X102009330Y-62721291D01*
X101953861Y-62587375D01*
X101932460Y-62559484D01*
X101907267Y-62494315D01*
X101921306Y-62425870D01*
X101932455Y-62408520D01*
X101953861Y-62380625D01*
X102009330Y-62246709D01*
X102028250Y-62103000D01*
X102009330Y-61959291D01*
X101953861Y-61825375D01*
X101932460Y-61797485D01*
X101907267Y-61732317D01*
X101921305Y-61663873D01*
X101932460Y-61646515D01*
X101953861Y-61618625D01*
X102009330Y-61484709D01*
X102028250Y-61341000D01*
X102009330Y-61197291D01*
X101953861Y-61063375D01*
X101932459Y-61035483D01*
X101907267Y-60970317D01*
X101921305Y-60901873D01*
X101932457Y-60884518D01*
X101953861Y-60856625D01*
X102009330Y-60722709D01*
X102028250Y-60579000D01*
X102009330Y-60435291D01*
X101953861Y-60301375D01*
X101865621Y-60186379D01*
X101750625Y-60098139D01*
X101750624Y-60098138D01*
X101750622Y-60098137D01*
X101616712Y-60042671D01*
X101616710Y-60042670D01*
X101616709Y-60042670D01*
X101544854Y-60033210D01*
X101473001Y-60023750D01*
X101472999Y-60023750D01*
X101329291Y-60042670D01*
X101329287Y-60042671D01*
X101195375Y-60098138D01*
X101167485Y-60119539D01*
X101102316Y-60144732D01*
X101033871Y-60130693D01*
X101016515Y-60119539D01*
X101001379Y-60107925D01*
X100988625Y-60098139D01*
X100988623Y-60098138D01*
X100988625Y-60098138D01*
X100854712Y-60042671D01*
X100854710Y-60042670D01*
X100854709Y-60042670D01*
X100782854Y-60033210D01*
X100711001Y-60023750D01*
X100710999Y-60023750D01*
X100567291Y-60042670D01*
X100567287Y-60042671D01*
X100433377Y-60098137D01*
X100318379Y-60186379D01*
X100230137Y-60301377D01*
X100174671Y-60435287D01*
X100174670Y-60435291D01*
X100155750Y-60578999D01*
X100155750Y-60579000D01*
X100174670Y-60722708D01*
X100174671Y-60722712D01*
X100230137Y-60856622D01*
X100230138Y-60856624D01*
X100230139Y-60856625D01*
X100251538Y-60884513D01*
X100276732Y-60949682D01*
X100262694Y-61018126D01*
X100251540Y-61035483D01*
X100230138Y-61063375D01*
X100174671Y-61197287D01*
X100174670Y-61197291D01*
X100155750Y-61340999D01*
X100155750Y-61341000D01*
X100174670Y-61484708D01*
X100174671Y-61484712D01*
X100230138Y-61618624D01*
X100251539Y-61646515D01*
X100276732Y-61711684D01*
X100262693Y-61780129D01*
X100251539Y-61797485D01*
X100230138Y-61825375D01*
X100174671Y-61959287D01*
X100174670Y-61959291D01*
X100155750Y-62102999D01*
X100155750Y-62103000D01*
X100174670Y-62246708D01*
X100174671Y-62246712D01*
X100230138Y-62380624D01*
X100251539Y-62408515D01*
X100276732Y-62473684D01*
X100262693Y-62542129D01*
X100251539Y-62559485D01*
X100230138Y-62587375D01*
X100174671Y-62721287D01*
X100174670Y-62721291D01*
X100155750Y-62864999D01*
X100155750Y-62865000D01*
X100174670Y-63008708D01*
X100174671Y-63008712D01*
X100230138Y-63142624D01*
X100251539Y-63170515D01*
X100276732Y-63235684D01*
X100262693Y-63304129D01*
X100251539Y-63321485D01*
X100230138Y-63349375D01*
X100174671Y-63483287D01*
X100174670Y-63483291D01*
X100155750Y-63626999D01*
X100155750Y-63627000D01*
X100174670Y-63770708D01*
X100174671Y-63770712D01*
X100230138Y-63904624D01*
X100251539Y-63932515D01*
X100276732Y-63997684D01*
X100262693Y-64066129D01*
X100251539Y-64083485D01*
X100230138Y-64111375D01*
X100174671Y-64245287D01*
X100174670Y-64245291D01*
X100155750Y-64388999D01*
X100155750Y-64389000D01*
X100174670Y-64532708D01*
X100174671Y-64532712D01*
X100230138Y-64666624D01*
X100251539Y-64694515D01*
X100276732Y-64759684D01*
X100262693Y-64828129D01*
X100251539Y-64845485D01*
X100230138Y-64873375D01*
X100174671Y-65007287D01*
X100174670Y-65007291D01*
X100155750Y-65150999D01*
X100155750Y-65151000D01*
X96545500Y-65151000D01*
X96545500Y-52578000D01*
X98250750Y-52578000D01*
X98269670Y-52721708D01*
X98269671Y-52721712D01*
X98325137Y-52855622D01*
X98325138Y-52855624D01*
X98325139Y-52855625D01*
X98413379Y-52970621D01*
X98528375Y-53058861D01*
X98662291Y-53114330D01*
X98789280Y-53131048D01*
X98805999Y-53133250D01*
X98806000Y-53133250D01*
X98806001Y-53133250D01*
X98820977Y-53131278D01*
X98949709Y-53114330D01*
X99083625Y-53058861D01*
X99111514Y-53037460D01*
X99176680Y-53012267D01*
X99245125Y-53026304D01*
X99262484Y-53037460D01*
X99262487Y-53037462D01*
X99290375Y-53058861D01*
X99424291Y-53114330D01*
X99551280Y-53131048D01*
X99567999Y-53133250D01*
X99568000Y-53133250D01*
X99568001Y-53133250D01*
X99582977Y-53131278D01*
X99711709Y-53114330D01*
X99845625Y-53058861D01*
X99873514Y-53037460D01*
X99938683Y-53012267D01*
X100007127Y-53026305D01*
X100024481Y-53037457D01*
X100052375Y-53058861D01*
X100186291Y-53114330D01*
X100313280Y-53131048D01*
X100329999Y-53133250D01*
X100330000Y-53133250D01*
X100330001Y-53133250D01*
X100344977Y-53131278D01*
X100473709Y-53114330D01*
X100607625Y-53058861D01*
X100635514Y-53037460D01*
X100700683Y-53012267D01*
X100769127Y-53026305D01*
X100786481Y-53037457D01*
X100814375Y-53058861D01*
X100948291Y-53114330D01*
X101075280Y-53131048D01*
X101091999Y-53133250D01*
X101092000Y-53133250D01*
X101092001Y-53133250D01*
X101106977Y-53131278D01*
X101235709Y-53114330D01*
X101369625Y-53058861D01*
X101397514Y-53037460D01*
X101462683Y-53012267D01*
X101531127Y-53026305D01*
X101548481Y-53037457D01*
X101576375Y-53058861D01*
X101710291Y-53114330D01*
X101837280Y-53131048D01*
X101853999Y-53133250D01*
X101854000Y-53133250D01*
X101854001Y-53133250D01*
X101868977Y-53131278D01*
X101997709Y-53114330D01*
X102131625Y-53058861D01*
X102159514Y-53037460D01*
X102224683Y-53012267D01*
X102293127Y-53026305D01*
X102310481Y-53037457D01*
X102338375Y-53058861D01*
X102472291Y-53114330D01*
X102599280Y-53131048D01*
X102615999Y-53133250D01*
X102616000Y-53133250D01*
X102616001Y-53133250D01*
X102630977Y-53131278D01*
X102759709Y-53114330D01*
X102893625Y-53058861D01*
X102921514Y-53037460D01*
X102986683Y-53012267D01*
X103055127Y-53026305D01*
X103072481Y-53037457D01*
X103100375Y-53058861D01*
X103234291Y-53114330D01*
X103361280Y-53131048D01*
X103377999Y-53133250D01*
X103378000Y-53133250D01*
X103378001Y-53133250D01*
X103392977Y-53131278D01*
X103521709Y-53114330D01*
X103655625Y-53058861D01*
X103770621Y-52970621D01*
X103858861Y-52855625D01*
X103914330Y-52721709D01*
X103933250Y-52578000D01*
X103914330Y-52434291D01*
X103858861Y-52300375D01*
X103770621Y-52185379D01*
X103655625Y-52097139D01*
X103655624Y-52097138D01*
X103655622Y-52097137D01*
X103521712Y-52041671D01*
X103521710Y-52041670D01*
X103521709Y-52041670D01*
X103449854Y-52032210D01*
X103378001Y-52022750D01*
X103377999Y-52022750D01*
X103234291Y-52041670D01*
X103234287Y-52041671D01*
X103100375Y-52097138D01*
X103072485Y-52118539D01*
X103007316Y-52143732D01*
X102938871Y-52129693D01*
X102921515Y-52118539D01*
X102906379Y-52106925D01*
X102893625Y-52097139D01*
X102893623Y-52097138D01*
X102893625Y-52097138D01*
X102759712Y-52041671D01*
X102759710Y-52041670D01*
X102759709Y-52041670D01*
X102687854Y-52032210D01*
X102616001Y-52022750D01*
X102615999Y-52022750D01*
X102472291Y-52041670D01*
X102472287Y-52041671D01*
X102338375Y-52097138D01*
X102310483Y-52118540D01*
X102245313Y-52143732D01*
X102176868Y-52129692D01*
X102159514Y-52118539D01*
X102131625Y-52097139D01*
X102131624Y-52097138D01*
X102131622Y-52097137D01*
X101997712Y-52041671D01*
X101997710Y-52041670D01*
X101997709Y-52041670D01*
X101925854Y-52032210D01*
X101854001Y-52022750D01*
X101853999Y-52022750D01*
X101710291Y-52041670D01*
X101710287Y-52041671D01*
X101576375Y-52097138D01*
X101548483Y-52118540D01*
X101483313Y-52143732D01*
X101414868Y-52129692D01*
X101397514Y-52118539D01*
X101369625Y-52097139D01*
X101369624Y-52097138D01*
X101369622Y-52097137D01*
X101235712Y-52041671D01*
X101235710Y-52041670D01*
X101235709Y-52041670D01*
X101163854Y-52032210D01*
X101092001Y-52022750D01*
X101091999Y-52022750D01*
X100948291Y-52041670D01*
X100948287Y-52041671D01*
X100814375Y-52097138D01*
X100786485Y-52118539D01*
X100721316Y-52143732D01*
X100652871Y-52129693D01*
X100635515Y-52118539D01*
X100620379Y-52106925D01*
X100607625Y-52097139D01*
X100607623Y-52097138D01*
X100607625Y-52097138D01*
X100473712Y-52041671D01*
X100473710Y-52041670D01*
X100473709Y-52041670D01*
X100401854Y-52032210D01*
X100330001Y-52022750D01*
X100329999Y-52022750D01*
X100186291Y-52041670D01*
X100186287Y-52041671D01*
X100052375Y-52097138D01*
X100024485Y-52118539D01*
X99959316Y-52143732D01*
X99890871Y-52129693D01*
X99873515Y-52118539D01*
X99858379Y-52106925D01*
X99845625Y-52097139D01*
X99845623Y-52097138D01*
X99845625Y-52097138D01*
X99711712Y-52041671D01*
X99711710Y-52041670D01*
X99711709Y-52041670D01*
X99639854Y-52032210D01*
X99568001Y-52022750D01*
X99567999Y-52022750D01*
X99424291Y-52041670D01*
X99424287Y-52041671D01*
X99290375Y-52097138D01*
X99262485Y-52118539D01*
X99197316Y-52143732D01*
X99128871Y-52129693D01*
X99111515Y-52118539D01*
X99096379Y-52106925D01*
X99083625Y-52097139D01*
X99083623Y-52097138D01*
X99083625Y-52097138D01*
X98949712Y-52041671D01*
X98949710Y-52041670D01*
X98949709Y-52041670D01*
X98877854Y-52032210D01*
X98806001Y-52022750D01*
X98805999Y-52022750D01*
X98662291Y-52041670D01*
X98662287Y-52041671D01*
X98528377Y-52097137D01*
X98413379Y-52185379D01*
X98325137Y-52300377D01*
X98269671Y-52434287D01*
X98269670Y-52434291D01*
X98250750Y-52577999D01*
X98250750Y-52578000D01*
X96545500Y-52578000D01*
X96545500Y-45720000D01*
X103220207Y-45720000D01*
X103239348Y-45963219D01*
X103296303Y-46200457D01*
X103389668Y-46425861D01*
X103513504Y-46627942D01*
X104212226Y-45929219D01*
X104250901Y-46022588D01*
X104347075Y-46147925D01*
X104472412Y-46244099D01*
X104565779Y-46282772D01*
X103867056Y-46981494D01*
X104069138Y-47105331D01*
X104294542Y-47198696D01*
X104531780Y-47255651D01*
X104531779Y-47255651D01*
X104774999Y-47274792D01*
X105018219Y-47255651D01*
X105255457Y-47198696D01*
X105480861Y-47105331D01*
X105682942Y-46981494D01*
X104984220Y-46282772D01*
X105077588Y-46244099D01*
X105202925Y-46147925D01*
X105299099Y-46022589D01*
X105337773Y-45929219D01*
X106036494Y-46627942D01*
X106160331Y-46425861D01*
X106253696Y-46200457D01*
X106310651Y-45963219D01*
X106329792Y-45720000D01*
X106310651Y-45476780D01*
X106253696Y-45239542D01*
X106160331Y-45014138D01*
X106036494Y-44812056D01*
X105337772Y-45510778D01*
X105299099Y-45417412D01*
X105202925Y-45292075D01*
X105077588Y-45195901D01*
X104984220Y-45157227D01*
X105683659Y-44457787D01*
X105683659Y-44442211D01*
X104984220Y-43742772D01*
X105077588Y-43704099D01*
X105202925Y-43607925D01*
X105299099Y-43482589D01*
X105337773Y-43389220D01*
X106036494Y-44087942D01*
X106160331Y-43885861D01*
X106253696Y-43660457D01*
X106310651Y-43423219D01*
X106329792Y-43180000D01*
X106310651Y-42936780D01*
X106253696Y-42699542D01*
X106160331Y-42474138D01*
X106036494Y-42272056D01*
X105337772Y-42970778D01*
X105299099Y-42877412D01*
X105202925Y-42752075D01*
X105077588Y-42655901D01*
X104984218Y-42617226D01*
X105682942Y-41918504D01*
X105480861Y-41794668D01*
X105255457Y-41701303D01*
X105018219Y-41644348D01*
X105018220Y-41644348D01*
X104774999Y-41625207D01*
X104531780Y-41644348D01*
X104294542Y-41701303D01*
X104069146Y-41794665D01*
X104069141Y-41794668D01*
X103867056Y-41918504D01*
X104565779Y-42617227D01*
X104472412Y-42655901D01*
X104347075Y-42752075D01*
X104250901Y-42877411D01*
X104212227Y-42970779D01*
X103513504Y-42272056D01*
X103389668Y-42474141D01*
X103389665Y-42474146D01*
X103296303Y-42699542D01*
X103239348Y-42936780D01*
X103220207Y-43180000D01*
X103239348Y-43423219D01*
X103296303Y-43660457D01*
X103389668Y-43885861D01*
X103513504Y-44087942D01*
X104212226Y-43389219D01*
X104250901Y-43482588D01*
X104347075Y-43607925D01*
X104472412Y-43704099D01*
X104565779Y-43742772D01*
X103866338Y-44442213D01*
X103866338Y-44457785D01*
X104565779Y-45157226D01*
X104472412Y-45195901D01*
X104347075Y-45292075D01*
X104250901Y-45417411D01*
X104212227Y-45510779D01*
X103513504Y-44812056D01*
X103389668Y-45014141D01*
X103389665Y-45014146D01*
X103296303Y-45239542D01*
X103239348Y-45476780D01*
X103220207Y-45720000D01*
X96545500Y-45720000D01*
X96545500Y-41402000D01*
X108918750Y-41402000D01*
X108937670Y-41545708D01*
X108937671Y-41545712D01*
X108993137Y-41679622D01*
X108993138Y-41679624D01*
X108993139Y-41679625D01*
X109081379Y-41794621D01*
X109196375Y-41882861D01*
X109330291Y-41938330D01*
X109457280Y-41955048D01*
X109473999Y-41957250D01*
X109474000Y-41957250D01*
X109474001Y-41957250D01*
X109488977Y-41955278D01*
X109617709Y-41938330D01*
X109751625Y-41882861D01*
X109866621Y-41794621D01*
X109954861Y-41679625D01*
X110010330Y-41545709D01*
X110029250Y-41402000D01*
X110010330Y-41258291D01*
X109954861Y-41124375D01*
X109866621Y-41009379D01*
X109751625Y-40921139D01*
X109751624Y-40921138D01*
X109751622Y-40921137D01*
X109617712Y-40865671D01*
X109617710Y-40865670D01*
X109617709Y-40865670D01*
X109545854Y-40856210D01*
X109474001Y-40846750D01*
X109473999Y-40846750D01*
X109330291Y-40865670D01*
X109330287Y-40865671D01*
X109196377Y-40921137D01*
X109081379Y-41009379D01*
X108993137Y-41124377D01*
X108937671Y-41258287D01*
X108937670Y-41258291D01*
X108918750Y-41401999D01*
X108918750Y-41402000D01*
X96545500Y-41402000D01*
X96545500Y-39769999D01*
X97305487Y-39769999D01*
X97305488Y-39770000D01*
X97996314Y-39770000D01*
X97970507Y-39810156D01*
X97930000Y-39948111D01*
X97930000Y-40091889D01*
X97970507Y-40229844D01*
X97996314Y-40270000D01*
X97305488Y-40270000D01*
X97353062Y-40437205D01*
X97353067Y-40437218D01*
X97448061Y-40627991D01*
X97576500Y-40798071D01*
X97734000Y-40941651D01*
X97734002Y-40941653D01*
X97915201Y-41053846D01*
X97915207Y-41053849D01*
X98113941Y-41130838D01*
X98180000Y-41143186D01*
X98180000Y-40455501D01*
X98287685Y-40504680D01*
X98394237Y-40520000D01*
X98465763Y-40520000D01*
X98572315Y-40504680D01*
X98680000Y-40455501D01*
X98680000Y-41143185D01*
X98746058Y-41130838D01*
X98944792Y-41053849D01*
X98944798Y-41053846D01*
X99125997Y-40941653D01*
X99125999Y-40941651D01*
X99283499Y-40798071D01*
X99411938Y-40627991D01*
X99506932Y-40437218D01*
X99506937Y-40437205D01*
X99554512Y-40270000D01*
X98863686Y-40270000D01*
X98889493Y-40229844D01*
X98930000Y-40091889D01*
X98930000Y-40020000D01*
X99864785Y-40020000D01*
X99883602Y-40223082D01*
X99939417Y-40419247D01*
X99939422Y-40419260D01*
X100030327Y-40601821D01*
X100153237Y-40764581D01*
X100303958Y-40901980D01*
X100303960Y-40901982D01*
X100403141Y-40963392D01*
X100477363Y-41009348D01*
X100667544Y-41083024D01*
X100868024Y-41120500D01*
X100868026Y-41120500D01*
X101071974Y-41120500D01*
X101071976Y-41120500D01*
X101272456Y-41083024D01*
X101462637Y-41009348D01*
X101636041Y-40901981D01*
X101786764Y-40764579D01*
X101909673Y-40601821D01*
X102000582Y-40419250D01*
X102056397Y-40223083D01*
X102075215Y-40020000D01*
X102056397Y-39816917D01*
X102000582Y-39620750D01*
X101909673Y-39438179D01*
X101786764Y-39275421D01*
X101786762Y-39275418D01*
X101636041Y-39138019D01*
X101636039Y-39138017D01*
X101462642Y-39030655D01*
X101462635Y-39030651D01*
X101347761Y-38986149D01*
X101272456Y-38956976D01*
X101071976Y-38919500D01*
X100868024Y-38919500D01*
X100667544Y-38956976D01*
X100667541Y-38956976D01*
X100667541Y-38956977D01*
X100477364Y-39030651D01*
X100477357Y-39030655D01*
X100303960Y-39138017D01*
X100303958Y-39138019D01*
X100153237Y-39275418D01*
X100030327Y-39438178D01*
X99939422Y-39620739D01*
X99939417Y-39620752D01*
X99883602Y-39816917D01*
X99864785Y-40019999D01*
X99864785Y-40020000D01*
X98930000Y-40020000D01*
X98930000Y-39948111D01*
X98889493Y-39810156D01*
X98863686Y-39770000D01*
X99554512Y-39770000D01*
X99554512Y-39769999D01*
X99506937Y-39602794D01*
X99506932Y-39602781D01*
X99411938Y-39412008D01*
X99283499Y-39241928D01*
X99125999Y-39098348D01*
X99125997Y-39098346D01*
X98944798Y-38986153D01*
X98944789Y-38986149D01*
X98746063Y-38909163D01*
X98746058Y-38909162D01*
X98680000Y-38896813D01*
X98680000Y-39584498D01*
X98572315Y-39535320D01*
X98465763Y-39520000D01*
X98394237Y-39520000D01*
X98287685Y-39535320D01*
X98180000Y-39584498D01*
X98180000Y-38896813D01*
X98113941Y-38909162D01*
X98113936Y-38909163D01*
X97915210Y-38986149D01*
X97915201Y-38986153D01*
X97734002Y-39098346D01*
X97734000Y-39098348D01*
X97576500Y-39241928D01*
X97448061Y-39412008D01*
X97353067Y-39602781D01*
X97353062Y-39602794D01*
X97305487Y-39769999D01*
X96545500Y-39769999D01*
X96545500Y-38608000D01*
X104219750Y-38608000D01*
X104238670Y-38751708D01*
X104238671Y-38751712D01*
X104294137Y-38885622D01*
X104294138Y-38885624D01*
X104294139Y-38885625D01*
X104382379Y-39000621D01*
X104497375Y-39088861D01*
X104631291Y-39144330D01*
X104758280Y-39161048D01*
X104774999Y-39163250D01*
X104775000Y-39163250D01*
X104775001Y-39163250D01*
X104789977Y-39161278D01*
X104918709Y-39144330D01*
X105052625Y-39088861D01*
X105167621Y-39000621D01*
X105255861Y-38885625D01*
X105311330Y-38751709D01*
X105330250Y-38608000D01*
X105311330Y-38464291D01*
X105255861Y-38330375D01*
X105167621Y-38215379D01*
X105052625Y-38127139D01*
X105052624Y-38127138D01*
X105052622Y-38127137D01*
X104918712Y-38071671D01*
X104918710Y-38071670D01*
X104918709Y-38071670D01*
X104843900Y-38061821D01*
X104775001Y-38052750D01*
X104774999Y-38052750D01*
X104631291Y-38071670D01*
X104631287Y-38071671D01*
X104497377Y-38127137D01*
X104382379Y-38215379D01*
X104294137Y-38330377D01*
X104238671Y-38464287D01*
X104238670Y-38464291D01*
X104219750Y-38607999D01*
X104219750Y-38608000D01*
X96545500Y-38608000D01*
X96545500Y-37480000D01*
X97324785Y-37480000D01*
X97343602Y-37683082D01*
X97399417Y-37879247D01*
X97399422Y-37879260D01*
X97490327Y-38061821D01*
X97613237Y-38224581D01*
X97763958Y-38361980D01*
X97763960Y-38361982D01*
X97863141Y-38423392D01*
X97937363Y-38469348D01*
X98127544Y-38543024D01*
X98328024Y-38580500D01*
X98328026Y-38580500D01*
X98531974Y-38580500D01*
X98531976Y-38580500D01*
X98732456Y-38543024D01*
X98922637Y-38469348D01*
X99096041Y-38361981D01*
X99246764Y-38224579D01*
X99369673Y-38061821D01*
X99460582Y-37879250D01*
X99516397Y-37683083D01*
X99535215Y-37480000D01*
X99864785Y-37480000D01*
X99883602Y-37683082D01*
X99939417Y-37879247D01*
X99939422Y-37879260D01*
X100030327Y-38061821D01*
X100153237Y-38224581D01*
X100303958Y-38361980D01*
X100303960Y-38361982D01*
X100403141Y-38423392D01*
X100477363Y-38469348D01*
X100667544Y-38543024D01*
X100868024Y-38580500D01*
X100868026Y-38580500D01*
X101071974Y-38580500D01*
X101071976Y-38580500D01*
X101272456Y-38543024D01*
X101462637Y-38469348D01*
X101636041Y-38361981D01*
X101786764Y-38224579D01*
X101909673Y-38061821D01*
X102000582Y-37879250D01*
X102056397Y-37683083D01*
X102075215Y-37480000D01*
X102056397Y-37276917D01*
X102000582Y-37080750D01*
X101909673Y-36898179D01*
X101786764Y-36735421D01*
X101786762Y-36735418D01*
X101636041Y-36598019D01*
X101636039Y-36598017D01*
X101462642Y-36490655D01*
X101462635Y-36490651D01*
X101367546Y-36453814D01*
X101272456Y-36416976D01*
X101071976Y-36379500D01*
X100868024Y-36379500D01*
X100667544Y-36416976D01*
X100667541Y-36416976D01*
X100667541Y-36416977D01*
X100477364Y-36490651D01*
X100477357Y-36490655D01*
X100303960Y-36598017D01*
X100303958Y-36598019D01*
X100153237Y-36735418D01*
X100030327Y-36898178D01*
X99939422Y-37080739D01*
X99939417Y-37080752D01*
X99883602Y-37276917D01*
X99864785Y-37479999D01*
X99864785Y-37480000D01*
X99535215Y-37480000D01*
X99516397Y-37276917D01*
X99460582Y-37080750D01*
X99369673Y-36898179D01*
X99246764Y-36735421D01*
X99246762Y-36735418D01*
X99096041Y-36598019D01*
X99096039Y-36598017D01*
X98922642Y-36490655D01*
X98922635Y-36490651D01*
X98827546Y-36453814D01*
X98732456Y-36416976D01*
X98531976Y-36379500D01*
X98328024Y-36379500D01*
X98127544Y-36416976D01*
X98127541Y-36416976D01*
X98127541Y-36416977D01*
X97937364Y-36490651D01*
X97937357Y-36490655D01*
X97763960Y-36598017D01*
X97763958Y-36598019D01*
X97613237Y-36735418D01*
X97490327Y-36898178D01*
X97399422Y-37080739D01*
X97399417Y-37080752D01*
X97343602Y-37276917D01*
X97324785Y-37479999D01*
X97324785Y-37480000D01*
X96545500Y-37480000D01*
X96545500Y-34940000D01*
X97324785Y-34940000D01*
X97343602Y-35143082D01*
X97399417Y-35339247D01*
X97399422Y-35339260D01*
X97490327Y-35521821D01*
X97613237Y-35684581D01*
X97763958Y-35821980D01*
X97763960Y-35821982D01*
X97829543Y-35862589D01*
X97937363Y-35929348D01*
X98127544Y-36003024D01*
X98328024Y-36040500D01*
X98328026Y-36040500D01*
X98531974Y-36040500D01*
X98531976Y-36040500D01*
X98732456Y-36003024D01*
X98922637Y-35929348D01*
X99096041Y-35821981D01*
X99104052Y-35814678D01*
X99869500Y-35814678D01*
X99884032Y-35887735D01*
X99884033Y-35887739D01*
X99884034Y-35887740D01*
X99939399Y-35970601D01*
X100022259Y-36025966D01*
X100022260Y-36025966D01*
X100022264Y-36025967D01*
X100095321Y-36040499D01*
X100095324Y-36040500D01*
X100095326Y-36040500D01*
X101844676Y-36040500D01*
X101844677Y-36040499D01*
X101917740Y-36025966D01*
X102000601Y-35970601D01*
X102055966Y-35887740D01*
X102070500Y-35814674D01*
X102070500Y-34065326D01*
X102070500Y-34065323D01*
X102070499Y-34065321D01*
X102055967Y-33992264D01*
X102055966Y-33992260D01*
X102055965Y-33992260D01*
X102000601Y-33909399D01*
X101917740Y-33854034D01*
X101917739Y-33854033D01*
X101917735Y-33854032D01*
X101844677Y-33839500D01*
X101844674Y-33839500D01*
X100095326Y-33839500D01*
X100095323Y-33839500D01*
X100022264Y-33854032D01*
X100022260Y-33854033D01*
X99939399Y-33909399D01*
X99884033Y-33992260D01*
X99884032Y-33992264D01*
X99869500Y-34065321D01*
X99869500Y-35814678D01*
X99104052Y-35814678D01*
X99246764Y-35684579D01*
X99369673Y-35521821D01*
X99460582Y-35339250D01*
X99516397Y-35143083D01*
X99535215Y-34940000D01*
X99516397Y-34736917D01*
X99460582Y-34540750D01*
X99369673Y-34358179D01*
X99246764Y-34195421D01*
X99246762Y-34195418D01*
X99096041Y-34058019D01*
X99096039Y-34058017D01*
X98922642Y-33950655D01*
X98922635Y-33950651D01*
X98816150Y-33909399D01*
X98732456Y-33876976D01*
X98531976Y-33839500D01*
X98328024Y-33839500D01*
X98127544Y-33876976D01*
X98127541Y-33876976D01*
X98127541Y-33876977D01*
X97937364Y-33950651D01*
X97937357Y-33950655D01*
X97763960Y-34058017D01*
X97763958Y-34058019D01*
X97613237Y-34195418D01*
X97490327Y-34358178D01*
X97399422Y-34540739D01*
X97399417Y-34540752D01*
X97343602Y-34736917D01*
X97324785Y-34939999D01*
X97324785Y-34940000D01*
X96545500Y-34940000D01*
X96545500Y-33169500D01*
X96565185Y-33102461D01*
X96617989Y-33056706D01*
X96669500Y-33045500D01*
X102743000Y-33045500D01*
X102743000Y-37592000D01*
G37*
%TD.AperFunction*%
%TA.AperFunction,Conductor*%
G36*
X113004500Y-78486000D02*
G01*
X107315000Y-78486000D01*
X107315000Y-75438000D01*
X113004500Y-75438000D01*
X113004500Y-78486000D01*
G37*
%TD.AperFunction*%
M02*
