%TF.GenerationSoftware,KiCad,Pcbnew,7.0.6*%
%TF.CreationDate,2023-11-17T13:49:41+01:00*%
%TF.ProjectId,dc_64a,64635f36-3461-42e6-9b69-6361645f7063,rev?*%
%TF.SameCoordinates,Original*%
%TF.FileFunction,Copper,L3,Inr*%
%TF.FilePolarity,Positive*%
%FSLAX46Y46*%
G04 Gerber Fmt 4.6, Leading zero omitted, Abs format (unit mm)*
G04 Created by KiCad (PCBNEW 7.0.6) date 2023-11-17 13:49:41*
%MOMM*%
%LPD*%
G01*
G04 APERTURE LIST*
%TA.AperFunction,ComponentPad*%
%ADD10C,3.000000*%
%TD*%
%TA.AperFunction,ComponentPad*%
%ADD11R,1.700000X1.700000*%
%TD*%
%TA.AperFunction,ComponentPad*%
%ADD12O,1.700000X1.700000*%
%TD*%
%TA.AperFunction,ComponentPad*%
%ADD13C,2.500000*%
%TD*%
%TA.AperFunction,ViaPad*%
%ADD14C,0.600000*%
%TD*%
G04 APERTURE END LIST*
D10*
X93980000Y-78740000D03*
D11*
X93345000Y-34920000D03*
D12*
X93345000Y-37460000D03*
D10*
X105410000Y-83820000D03*
D13*
X99695000Y-83820000D03*
X99695000Y-35560000D03*
D14*
X106637000Y-41275000D03*
X101346000Y-55651500D03*
X102743000Y-76581000D03*
X107061000Y-79883000D03*
X102463500Y-62230000D03*
X96520000Y-38608000D03*
X105283000Y-48666500D03*
X92202000Y-50800000D03*
X106172000Y-37846000D03*
X100457000Y-52984500D03*
X94107000Y-47625000D03*
X106934000Y-55905500D03*
X105384500Y-61214000D03*
X104521000Y-46355000D03*
X97028000Y-54102000D03*
X107188000Y-51968500D03*
X96901000Y-78867000D03*
X96901000Y-66929000D03*
X96901000Y-80391000D03*
X101981000Y-47498000D03*
X102463500Y-62992000D03*
X102997000Y-70993000D03*
X95631000Y-75946000D03*
X96901000Y-74549000D03*
X95758000Y-49530000D03*
X102616000Y-68072000D03*
X96901000Y-71501000D03*
X102870000Y-80645000D03*
X98933000Y-47117000D03*
X106299000Y-49809500D03*
X96901000Y-68453000D03*
X96901000Y-69977000D03*
X96647000Y-36195000D03*
X102997000Y-70231000D03*
X92159000Y-44831000D03*
X102463500Y-61468000D03*
X97409000Y-47117000D03*
X107061000Y-71374000D03*
X106553000Y-34290000D03*
X93345000Y-49022000D03*
X101219000Y-52984500D03*
X102997000Y-69469000D03*
X106934000Y-57429500D03*
X106934000Y-58953500D03*
X106807000Y-46736000D03*
X106934000Y-55143500D03*
X106934000Y-58191500D03*
X93175000Y-40386000D03*
X98806000Y-42672000D03*
X98171000Y-54102000D03*
X102870000Y-85471000D03*
X103124000Y-48412500D03*
X101600000Y-38354000D03*
X107061000Y-65659000D03*
X107061000Y-74549000D03*
X104140000Y-68072000D03*
X106934000Y-56667500D03*
X102997000Y-34417000D03*
X102743000Y-75819000D03*
X98298000Y-66675000D03*
X102743000Y-77343000D03*
X101981000Y-52984500D03*
X102743000Y-78105000D03*
X103378000Y-41656000D03*
X93726000Y-52578000D03*
X97536000Y-52578000D03*
X96012000Y-52578000D03*
X96774000Y-52578000D03*
X95250000Y-52578000D03*
X94488000Y-52578000D03*
X98298000Y-52578000D03*
X95631000Y-62103000D03*
X95631000Y-63627000D03*
X96393000Y-63627000D03*
X95631000Y-62865000D03*
X97282000Y-72390000D03*
X96393000Y-60579000D03*
X97028000Y-40767000D03*
X95631000Y-60579000D03*
X95631000Y-64389000D03*
X105638500Y-67691000D03*
X96393000Y-62865000D03*
X95631000Y-65151000D03*
X96393000Y-62103000D03*
X96393000Y-65151000D03*
X95631000Y-61341000D03*
X96393000Y-61341000D03*
X96393000Y-64389000D03*
%TA.AperFunction,Conductor*%
G36*
X98749039Y-52089685D02*
G01*
X98794794Y-52142489D01*
X98806000Y-52194000D01*
X98806000Y-53216000D01*
X98786315Y-53283039D01*
X98733511Y-53328794D01*
X98682000Y-53340000D01*
X96138999Y-53340000D01*
X94361000Y-55117999D01*
X94361000Y-55118000D01*
X94361000Y-72136000D01*
X95377000Y-73152000D01*
X101476000Y-73152000D01*
X101543039Y-73171685D01*
X101588794Y-73224489D01*
X101600000Y-73276000D01*
X101600000Y-86210500D01*
X101580315Y-86277539D01*
X101527511Y-86323294D01*
X101476000Y-86334500D01*
X97939500Y-86334500D01*
X97872461Y-86314815D01*
X97826706Y-86262011D01*
X97815500Y-86210500D01*
X97815500Y-81309738D01*
X97817601Y-81299177D01*
X97817601Y-81279999D01*
X97809517Y-81260483D01*
X97795072Y-81254500D01*
X97790000Y-81252399D01*
X97770824Y-81252399D01*
X97760262Y-81254500D01*
X91589500Y-81254500D01*
X91522461Y-81234815D01*
X91476706Y-81182011D01*
X91465500Y-81130500D01*
X91465500Y-78740004D01*
X92224592Y-78740004D01*
X92244196Y-79001620D01*
X92244197Y-79001625D01*
X92302576Y-79257402D01*
X92302578Y-79257411D01*
X92302580Y-79257416D01*
X92398432Y-79501643D01*
X92529614Y-79728857D01*
X92661736Y-79894533D01*
X92693198Y-79933985D01*
X92874753Y-80102441D01*
X92885521Y-80112433D01*
X93102296Y-80260228D01*
X93102301Y-80260230D01*
X93102302Y-80260231D01*
X93102303Y-80260232D01*
X93227843Y-80320688D01*
X93338673Y-80374061D01*
X93338674Y-80374061D01*
X93338677Y-80374063D01*
X93589385Y-80451396D01*
X93848818Y-80490500D01*
X94111182Y-80490500D01*
X94370615Y-80451396D01*
X94566414Y-80391000D01*
X96345750Y-80391000D01*
X96364670Y-80534708D01*
X96364671Y-80534712D01*
X96420137Y-80668622D01*
X96420138Y-80668624D01*
X96420139Y-80668625D01*
X96508379Y-80783621D01*
X96623375Y-80871861D01*
X96757291Y-80927330D01*
X96884280Y-80944048D01*
X96900999Y-80946250D01*
X96901000Y-80946250D01*
X96901001Y-80946250D01*
X96915977Y-80944278D01*
X97044709Y-80927330D01*
X97178625Y-80871861D01*
X97293621Y-80783621D01*
X97381861Y-80668625D01*
X97437330Y-80534709D01*
X97456250Y-80391000D01*
X97437330Y-80247291D01*
X97381861Y-80113375D01*
X97293621Y-79998379D01*
X97178625Y-79910139D01*
X97178624Y-79910138D01*
X97178622Y-79910137D01*
X97044712Y-79854671D01*
X97044710Y-79854670D01*
X97044709Y-79854670D01*
X96972854Y-79845210D01*
X96901001Y-79835750D01*
X96900999Y-79835750D01*
X96757291Y-79854670D01*
X96757287Y-79854671D01*
X96623377Y-79910137D01*
X96508379Y-79998379D01*
X96420137Y-80113377D01*
X96364671Y-80247287D01*
X96364670Y-80247291D01*
X96345750Y-80390999D01*
X96345750Y-80391000D01*
X94566414Y-80391000D01*
X94621323Y-80374063D01*
X94857704Y-80260228D01*
X95074479Y-80112433D01*
X95266805Y-79933981D01*
X95430386Y-79728857D01*
X95561568Y-79501643D01*
X95657420Y-79257416D01*
X95715802Y-79001630D01*
X95725891Y-78867000D01*
X96345750Y-78867000D01*
X96363473Y-79001620D01*
X96364670Y-79010708D01*
X96364671Y-79010712D01*
X96420137Y-79144622D01*
X96420138Y-79144624D01*
X96420139Y-79144625D01*
X96508379Y-79259621D01*
X96623375Y-79347861D01*
X96757291Y-79403330D01*
X96884280Y-79420048D01*
X96900999Y-79422250D01*
X96901000Y-79422250D01*
X96901001Y-79422250D01*
X96915977Y-79420278D01*
X97044709Y-79403330D01*
X97178625Y-79347861D01*
X97293621Y-79259621D01*
X97381861Y-79144625D01*
X97437330Y-79010709D01*
X97456250Y-78867000D01*
X97437330Y-78723291D01*
X97381861Y-78589375D01*
X97293621Y-78474379D01*
X97178625Y-78386139D01*
X97178624Y-78386138D01*
X97178622Y-78386137D01*
X97044712Y-78330671D01*
X97044710Y-78330670D01*
X97044709Y-78330670D01*
X96972854Y-78321210D01*
X96901001Y-78311750D01*
X96900999Y-78311750D01*
X96757291Y-78330670D01*
X96757287Y-78330671D01*
X96623377Y-78386137D01*
X96508379Y-78474379D01*
X96420137Y-78589377D01*
X96364671Y-78723287D01*
X96364670Y-78723291D01*
X96345750Y-78867000D01*
X95725891Y-78867000D01*
X95735408Y-78740000D01*
X95724120Y-78589375D01*
X95715803Y-78478379D01*
X95715802Y-78478374D01*
X95715802Y-78478370D01*
X95657420Y-78222584D01*
X95561568Y-77978357D01*
X95430386Y-77751143D01*
X95266805Y-77546019D01*
X95266804Y-77546018D01*
X95266801Y-77546014D01*
X95074479Y-77367567D01*
X95074478Y-77367566D01*
X94857704Y-77219772D01*
X94857700Y-77219770D01*
X94857697Y-77219768D01*
X94857696Y-77219767D01*
X94621325Y-77105938D01*
X94621327Y-77105938D01*
X94370623Y-77028606D01*
X94370619Y-77028605D01*
X94370615Y-77028604D01*
X94245823Y-77009794D01*
X94111187Y-76989500D01*
X94111182Y-76989500D01*
X93848818Y-76989500D01*
X93848812Y-76989500D01*
X93687247Y-77013853D01*
X93589385Y-77028604D01*
X93589381Y-77028605D01*
X93589382Y-77028605D01*
X93589376Y-77028606D01*
X93338673Y-77105938D01*
X93102303Y-77219767D01*
X93102302Y-77219768D01*
X92885520Y-77367567D01*
X92693198Y-77546014D01*
X92529614Y-77751143D01*
X92398432Y-77978356D01*
X92302582Y-78222578D01*
X92302576Y-78222597D01*
X92244197Y-78478374D01*
X92244196Y-78478379D01*
X92224592Y-78739995D01*
X92224592Y-78740004D01*
X91465500Y-78740004D01*
X91465500Y-75946000D01*
X95075750Y-75946000D01*
X95094670Y-76089708D01*
X95094671Y-76089712D01*
X95150137Y-76223622D01*
X95150138Y-76223624D01*
X95150139Y-76223625D01*
X95238379Y-76338621D01*
X95353375Y-76426861D01*
X95487291Y-76482330D01*
X95614280Y-76499048D01*
X95630999Y-76501250D01*
X95631000Y-76501250D01*
X95631001Y-76501250D01*
X95645977Y-76499278D01*
X95774709Y-76482330D01*
X95908625Y-76426861D01*
X96023621Y-76338621D01*
X96111861Y-76223625D01*
X96167330Y-76089709D01*
X96186250Y-75946000D01*
X96167330Y-75802291D01*
X96111861Y-75668375D01*
X96023621Y-75553379D01*
X95908625Y-75465139D01*
X95908624Y-75465138D01*
X95908622Y-75465137D01*
X95774712Y-75409671D01*
X95774710Y-75409670D01*
X95774709Y-75409670D01*
X95702854Y-75400210D01*
X95631001Y-75390750D01*
X95630999Y-75390750D01*
X95487291Y-75409670D01*
X95487287Y-75409671D01*
X95353377Y-75465137D01*
X95238379Y-75553379D01*
X95150137Y-75668377D01*
X95094671Y-75802287D01*
X95094670Y-75802291D01*
X95075750Y-75945999D01*
X95075750Y-75946000D01*
X91465500Y-75946000D01*
X91465500Y-74549000D01*
X96345750Y-74549000D01*
X96364670Y-74692708D01*
X96364671Y-74692712D01*
X96420137Y-74826622D01*
X96420138Y-74826624D01*
X96420139Y-74826625D01*
X96508379Y-74941621D01*
X96623375Y-75029861D01*
X96757291Y-75085330D01*
X96884280Y-75102048D01*
X96900999Y-75104250D01*
X96901000Y-75104250D01*
X96901001Y-75104250D01*
X96915977Y-75102278D01*
X97044709Y-75085330D01*
X97178625Y-75029861D01*
X97293621Y-74941621D01*
X97381861Y-74826625D01*
X97437330Y-74692709D01*
X97456250Y-74549000D01*
X97437330Y-74405291D01*
X97381861Y-74271375D01*
X97293621Y-74156379D01*
X97178625Y-74068139D01*
X97178624Y-74068138D01*
X97178622Y-74068137D01*
X97044712Y-74012671D01*
X97044710Y-74012670D01*
X97044709Y-74012670D01*
X96972854Y-74003210D01*
X96901001Y-73993750D01*
X96900999Y-73993750D01*
X96757291Y-74012670D01*
X96757287Y-74012671D01*
X96623377Y-74068137D01*
X96508379Y-74156379D01*
X96420137Y-74271377D01*
X96364671Y-74405287D01*
X96364670Y-74405291D01*
X96345750Y-74548999D01*
X96345750Y-74549000D01*
X91465500Y-74549000D01*
X91465500Y-52194000D01*
X91485185Y-52126961D01*
X91537989Y-52081206D01*
X91589500Y-52070000D01*
X98682000Y-52070000D01*
X98749039Y-52089685D01*
G37*
%TD.AperFunction*%
%TA.AperFunction,Conductor*%
G36*
X107867539Y-33065185D02*
G01*
X107913294Y-33117989D01*
X107924500Y-33169500D01*
X107924500Y-51684652D01*
X107904815Y-51751691D01*
X107852011Y-51797446D01*
X107782853Y-51807390D01*
X107719297Y-51778365D01*
X107685939Y-51732105D01*
X107679870Y-51717453D01*
X107668861Y-51690875D01*
X107580621Y-51575879D01*
X107465625Y-51487639D01*
X107465624Y-51487638D01*
X107465622Y-51487637D01*
X107331712Y-51432171D01*
X107331710Y-51432170D01*
X107331709Y-51432170D01*
X107259854Y-51422710D01*
X107188001Y-51413250D01*
X107187999Y-51413250D01*
X107044291Y-51432170D01*
X107044287Y-51432171D01*
X106910377Y-51487637D01*
X106795379Y-51575879D01*
X106707137Y-51690877D01*
X106651671Y-51824787D01*
X106651670Y-51824791D01*
X106632750Y-51968499D01*
X106632750Y-51968500D01*
X106651670Y-52112208D01*
X106651671Y-52112212D01*
X106707137Y-52246122D01*
X106707138Y-52246124D01*
X106707139Y-52246125D01*
X106795379Y-52361121D01*
X106910375Y-52449361D01*
X107044291Y-52504830D01*
X107171280Y-52521548D01*
X107187999Y-52523750D01*
X107188000Y-52523750D01*
X107188001Y-52523750D01*
X107202977Y-52521778D01*
X107331709Y-52504830D01*
X107465625Y-52449361D01*
X107580621Y-52361121D01*
X107668861Y-52246125D01*
X107685938Y-52204895D01*
X107729779Y-52150491D01*
X107796073Y-52128426D01*
X107863773Y-52145705D01*
X107911384Y-52196842D01*
X107924500Y-52252347D01*
X107924500Y-86210500D01*
X107904815Y-86277539D01*
X107852011Y-86323294D01*
X107800500Y-86334500D01*
X101979500Y-86334500D01*
X101912461Y-86314815D01*
X101866706Y-86262011D01*
X101855500Y-86210500D01*
X101855500Y-85471000D01*
X102314750Y-85471000D01*
X102333670Y-85614708D01*
X102333671Y-85614712D01*
X102389137Y-85748622D01*
X102389138Y-85748624D01*
X102389139Y-85748625D01*
X102477379Y-85863621D01*
X102592375Y-85951861D01*
X102726291Y-86007330D01*
X102853280Y-86024048D01*
X102869999Y-86026250D01*
X102870000Y-86026250D01*
X102870001Y-86026250D01*
X102884977Y-86024278D01*
X103013709Y-86007330D01*
X103147625Y-85951861D01*
X103262621Y-85863621D01*
X103350861Y-85748625D01*
X103406330Y-85614709D01*
X103425250Y-85471000D01*
X103406330Y-85327291D01*
X103350861Y-85193375D01*
X103262621Y-85078379D01*
X103147625Y-84990139D01*
X103147624Y-84990138D01*
X103147622Y-84990137D01*
X103013712Y-84934671D01*
X103013710Y-84934670D01*
X103013709Y-84934670D01*
X102941854Y-84925210D01*
X102870001Y-84915750D01*
X102869999Y-84915750D01*
X102726291Y-84934670D01*
X102726287Y-84934671D01*
X102592377Y-84990137D01*
X102477379Y-85078379D01*
X102389137Y-85193377D01*
X102333671Y-85327287D01*
X102333670Y-85327291D01*
X102314750Y-85470999D01*
X102314750Y-85471000D01*
X101855500Y-85471000D01*
X101855500Y-83820001D01*
X103404891Y-83820001D01*
X103425300Y-84105362D01*
X103486109Y-84384895D01*
X103586091Y-84652958D01*
X103723191Y-84904038D01*
X103723196Y-84904046D01*
X103829882Y-85046561D01*
X103829883Y-85046562D01*
X104732803Y-84143641D01*
X104756059Y-84197553D01*
X104860756Y-84338185D01*
X104995062Y-84450882D01*
X105086665Y-84496886D01*
X104183436Y-85400115D01*
X104325960Y-85506807D01*
X104325961Y-85506808D01*
X104577042Y-85643908D01*
X104577041Y-85643908D01*
X104845104Y-85743890D01*
X105124637Y-85804699D01*
X105409999Y-85825109D01*
X105410001Y-85825109D01*
X105695362Y-85804699D01*
X105974895Y-85743890D01*
X106242958Y-85643908D01*
X106494047Y-85506803D01*
X106636561Y-85400116D01*
X106636562Y-85400115D01*
X105735946Y-84499498D01*
X105748891Y-84494787D01*
X105895373Y-84398445D01*
X106015688Y-84270918D01*
X106088447Y-84144894D01*
X106990115Y-85046562D01*
X106990116Y-85046561D01*
X107096803Y-84904047D01*
X107233908Y-84652958D01*
X107333890Y-84384895D01*
X107394699Y-84105362D01*
X107415108Y-83820001D01*
X107415108Y-83819998D01*
X107394699Y-83534637D01*
X107333890Y-83255104D01*
X107233908Y-82987041D01*
X107096808Y-82735961D01*
X107096807Y-82735960D01*
X106990115Y-82593436D01*
X106087195Y-83496356D01*
X106063941Y-83442447D01*
X105959244Y-83301815D01*
X105824938Y-83189118D01*
X105733333Y-83143112D01*
X106636562Y-82239883D01*
X106636561Y-82239882D01*
X106494046Y-82133196D01*
X106494038Y-82133191D01*
X106242957Y-81996091D01*
X106242958Y-81996091D01*
X105974895Y-81896109D01*
X105695362Y-81835300D01*
X105410001Y-81814891D01*
X105409999Y-81814891D01*
X105124637Y-81835300D01*
X104845104Y-81896109D01*
X104577041Y-81996091D01*
X104325961Y-82133191D01*
X104325953Y-82133196D01*
X104183437Y-82239882D01*
X104183436Y-82239883D01*
X105084054Y-83140501D01*
X105071109Y-83145213D01*
X104924627Y-83241555D01*
X104804312Y-83369082D01*
X104731552Y-83495105D01*
X103829883Y-82593436D01*
X103829882Y-82593437D01*
X103723196Y-82735953D01*
X103723191Y-82735961D01*
X103586091Y-82987041D01*
X103486109Y-83255104D01*
X103425300Y-83534637D01*
X103404891Y-83819998D01*
X103404891Y-83820001D01*
X101855500Y-83820001D01*
X101855500Y-80645000D01*
X102314750Y-80645000D01*
X102333670Y-80788708D01*
X102333671Y-80788712D01*
X102389137Y-80922622D01*
X102389138Y-80922624D01*
X102389139Y-80922625D01*
X102477379Y-81037621D01*
X102592375Y-81125861D01*
X102592376Y-81125861D01*
X102592377Y-81125862D01*
X102637013Y-81144350D01*
X102726291Y-81181330D01*
X102853280Y-81198048D01*
X102869999Y-81200250D01*
X102870000Y-81200250D01*
X102870001Y-81200250D01*
X102884977Y-81198278D01*
X103013709Y-81181330D01*
X103147625Y-81125861D01*
X103262621Y-81037621D01*
X103350861Y-80922625D01*
X103406330Y-80788709D01*
X103425250Y-80645000D01*
X103406330Y-80501291D01*
X103350861Y-80367375D01*
X103262621Y-80252379D01*
X103147625Y-80164139D01*
X103147624Y-80164138D01*
X103147622Y-80164137D01*
X103013712Y-80108671D01*
X103013710Y-80108670D01*
X103013709Y-80108670D01*
X102941854Y-80099210D01*
X102870001Y-80089750D01*
X102869999Y-80089750D01*
X102726291Y-80108670D01*
X102726287Y-80108671D01*
X102592377Y-80164137D01*
X102477379Y-80252379D01*
X102389137Y-80367377D01*
X102333671Y-80501287D01*
X102333670Y-80501291D01*
X102314750Y-80644999D01*
X102314750Y-80645000D01*
X101855500Y-80645000D01*
X101855500Y-79883000D01*
X106505750Y-79883000D01*
X106524670Y-80026708D01*
X106524671Y-80026712D01*
X106580137Y-80160622D01*
X106580138Y-80160624D01*
X106580139Y-80160625D01*
X106668379Y-80275621D01*
X106783375Y-80363861D01*
X106783376Y-80363861D01*
X106783377Y-80363862D01*
X106828013Y-80382350D01*
X106917291Y-80419330D01*
X107044280Y-80436048D01*
X107060999Y-80438250D01*
X107061000Y-80438250D01*
X107061001Y-80438250D01*
X107075977Y-80436278D01*
X107204709Y-80419330D01*
X107338625Y-80363861D01*
X107453621Y-80275621D01*
X107541861Y-80160625D01*
X107597330Y-80026709D01*
X107616250Y-79883000D01*
X107597330Y-79739291D01*
X107541861Y-79605375D01*
X107453621Y-79490379D01*
X107338625Y-79402139D01*
X107338624Y-79402138D01*
X107338622Y-79402137D01*
X107204712Y-79346671D01*
X107204710Y-79346670D01*
X107204709Y-79346670D01*
X107132854Y-79337210D01*
X107061001Y-79327750D01*
X107060999Y-79327750D01*
X106917291Y-79346670D01*
X106917287Y-79346671D01*
X106783377Y-79402137D01*
X106668379Y-79490379D01*
X106580137Y-79605377D01*
X106524671Y-79739287D01*
X106524670Y-79739291D01*
X106505750Y-79882999D01*
X106505750Y-79883000D01*
X101855500Y-79883000D01*
X101855500Y-78105000D01*
X102187750Y-78105000D01*
X102206670Y-78248708D01*
X102206671Y-78248712D01*
X102262137Y-78382622D01*
X102262138Y-78382624D01*
X102262139Y-78382625D01*
X102350379Y-78497621D01*
X102465375Y-78585861D01*
X102599291Y-78641330D01*
X102726280Y-78658048D01*
X102742999Y-78660250D01*
X102743000Y-78660250D01*
X102743001Y-78660250D01*
X102757977Y-78658278D01*
X102886709Y-78641330D01*
X103020625Y-78585861D01*
X103135621Y-78497621D01*
X103223861Y-78382625D01*
X103279330Y-78248709D01*
X103298250Y-78105000D01*
X103279330Y-77961291D01*
X103223861Y-77827375D01*
X103202460Y-77799485D01*
X103177267Y-77734317D01*
X103191305Y-77665873D01*
X103202460Y-77648515D01*
X103223861Y-77620625D01*
X103279330Y-77486709D01*
X103298250Y-77343000D01*
X103279330Y-77199291D01*
X103223861Y-77065375D01*
X103202460Y-77037485D01*
X103177267Y-76972317D01*
X103191305Y-76903873D01*
X103202460Y-76886515D01*
X103223861Y-76858625D01*
X103279330Y-76724709D01*
X103298250Y-76581000D01*
X103279330Y-76437291D01*
X103223861Y-76303375D01*
X103202459Y-76275483D01*
X103177267Y-76210317D01*
X103191305Y-76141873D01*
X103202457Y-76124518D01*
X103223861Y-76096625D01*
X103279330Y-75962709D01*
X103298250Y-75819000D01*
X103279330Y-75675291D01*
X103223861Y-75541375D01*
X103135621Y-75426379D01*
X103020625Y-75338139D01*
X103020624Y-75338138D01*
X103020622Y-75338137D01*
X102886712Y-75282671D01*
X102886710Y-75282670D01*
X102886709Y-75282670D01*
X102814854Y-75273210D01*
X102743001Y-75263750D01*
X102742999Y-75263750D01*
X102599291Y-75282670D01*
X102599287Y-75282671D01*
X102465377Y-75338137D01*
X102350379Y-75426379D01*
X102262137Y-75541377D01*
X102206671Y-75675287D01*
X102206670Y-75675291D01*
X102187750Y-75818999D01*
X102187750Y-75819000D01*
X102206670Y-75962708D01*
X102206671Y-75962712D01*
X102262137Y-76096622D01*
X102262138Y-76096624D01*
X102262139Y-76096625D01*
X102283538Y-76124513D01*
X102308732Y-76189682D01*
X102294694Y-76258126D01*
X102283540Y-76275483D01*
X102262138Y-76303375D01*
X102206671Y-76437287D01*
X102206670Y-76437291D01*
X102187750Y-76580999D01*
X102187750Y-76581000D01*
X102206670Y-76724708D01*
X102206671Y-76724712D01*
X102262138Y-76858624D01*
X102283539Y-76886515D01*
X102308732Y-76951684D01*
X102294693Y-77020129D01*
X102283539Y-77037485D01*
X102262138Y-77065375D01*
X102206671Y-77199287D01*
X102206670Y-77199291D01*
X102187750Y-77342999D01*
X102187750Y-77343000D01*
X102206670Y-77486708D01*
X102206671Y-77486712D01*
X102262138Y-77620624D01*
X102283539Y-77648515D01*
X102308732Y-77713684D01*
X102294693Y-77782129D01*
X102283539Y-77799485D01*
X102262138Y-77827375D01*
X102206671Y-77961287D01*
X102206670Y-77961291D01*
X102187750Y-78104999D01*
X102187750Y-78105000D01*
X101855500Y-78105000D01*
X101855500Y-74549000D01*
X106505750Y-74549000D01*
X106524670Y-74692708D01*
X106524671Y-74692712D01*
X106580137Y-74826622D01*
X106580138Y-74826624D01*
X106580139Y-74826625D01*
X106668379Y-74941621D01*
X106783375Y-75029861D01*
X106917291Y-75085330D01*
X107044280Y-75102048D01*
X107060999Y-75104250D01*
X107061000Y-75104250D01*
X107061001Y-75104250D01*
X107075977Y-75102278D01*
X107204709Y-75085330D01*
X107338625Y-75029861D01*
X107453621Y-74941621D01*
X107541861Y-74826625D01*
X107597330Y-74692709D01*
X107616250Y-74549000D01*
X107597330Y-74405291D01*
X107541861Y-74271375D01*
X107453621Y-74156379D01*
X107338625Y-74068139D01*
X107338624Y-74068138D01*
X107338622Y-74068137D01*
X107204712Y-74012671D01*
X107204710Y-74012670D01*
X107204709Y-74012670D01*
X107132854Y-74003210D01*
X107061001Y-73993750D01*
X107060999Y-73993750D01*
X106917291Y-74012670D01*
X106917287Y-74012671D01*
X106783377Y-74068137D01*
X106668379Y-74156379D01*
X106580137Y-74271377D01*
X106524671Y-74405287D01*
X106524670Y-74405291D01*
X106505750Y-74548999D01*
X106505750Y-74549000D01*
X101855500Y-74549000D01*
X101855500Y-73276000D01*
X101849661Y-73221687D01*
X101838455Y-73170176D01*
X101831219Y-73143802D01*
X101831216Y-73143796D01*
X101781894Y-73057181D01*
X101781888Y-73057172D01*
X101736136Y-73004371D01*
X101703359Y-72972743D01*
X101615022Y-72926534D01*
X101615022Y-72926533D01*
X101547990Y-72906851D01*
X101547978Y-72906848D01*
X101476001Y-72896500D01*
X101476000Y-72896500D01*
X95534194Y-72896500D01*
X95467155Y-72876815D01*
X95446513Y-72860181D01*
X94652819Y-72066487D01*
X94619334Y-72005164D01*
X94616500Y-71978806D01*
X94616500Y-71501000D01*
X96345750Y-71501000D01*
X96364670Y-71644708D01*
X96364671Y-71644712D01*
X96420137Y-71778622D01*
X96420138Y-71778624D01*
X96420139Y-71778625D01*
X96508379Y-71893621D01*
X96623375Y-71981861D01*
X96757291Y-72037330D01*
X96884280Y-72054048D01*
X96900999Y-72056250D01*
X96901000Y-72056250D01*
X96901001Y-72056250D01*
X96915977Y-72054278D01*
X97044709Y-72037330D01*
X97178625Y-71981861D01*
X97293621Y-71893621D01*
X97381861Y-71778625D01*
X97437330Y-71644709D01*
X97456250Y-71501000D01*
X97437330Y-71357291D01*
X97381861Y-71223375D01*
X97293621Y-71108379D01*
X97178625Y-71020139D01*
X97178624Y-71020138D01*
X97178622Y-71020137D01*
X97113106Y-70993000D01*
X102441750Y-70993000D01*
X102460670Y-71136708D01*
X102460671Y-71136712D01*
X102516137Y-71270622D01*
X102516138Y-71270624D01*
X102516139Y-71270625D01*
X102604379Y-71385621D01*
X102719375Y-71473861D01*
X102853291Y-71529330D01*
X102980280Y-71546048D01*
X102996999Y-71548250D01*
X102997000Y-71548250D01*
X102997001Y-71548250D01*
X103011977Y-71546278D01*
X103140709Y-71529330D01*
X103274625Y-71473861D01*
X103389621Y-71385621D01*
X103398538Y-71374000D01*
X106505750Y-71374000D01*
X106524670Y-71517708D01*
X106524671Y-71517712D01*
X106580137Y-71651622D01*
X106580138Y-71651624D01*
X106580139Y-71651625D01*
X106668379Y-71766621D01*
X106783375Y-71854861D01*
X106917291Y-71910330D01*
X107044280Y-71927048D01*
X107060999Y-71929250D01*
X107061000Y-71929250D01*
X107061001Y-71929250D01*
X107075977Y-71927278D01*
X107204709Y-71910330D01*
X107338625Y-71854861D01*
X107453621Y-71766621D01*
X107541861Y-71651625D01*
X107597330Y-71517709D01*
X107616250Y-71374000D01*
X107597330Y-71230291D01*
X107541861Y-71096375D01*
X107453621Y-70981379D01*
X107338625Y-70893139D01*
X107338624Y-70893138D01*
X107338622Y-70893137D01*
X107204712Y-70837671D01*
X107204710Y-70837670D01*
X107204709Y-70837670D01*
X107132854Y-70828210D01*
X107061001Y-70818750D01*
X107060999Y-70818750D01*
X106917291Y-70837670D01*
X106917287Y-70837671D01*
X106783377Y-70893137D01*
X106668379Y-70981379D01*
X106580137Y-71096377D01*
X106524671Y-71230287D01*
X106524670Y-71230291D01*
X106505750Y-71373999D01*
X106505750Y-71374000D01*
X103398538Y-71374000D01*
X103477861Y-71270625D01*
X103533330Y-71136709D01*
X103552250Y-70993000D01*
X103533330Y-70849291D01*
X103477861Y-70715375D01*
X103456460Y-70687485D01*
X103431267Y-70622317D01*
X103445305Y-70553873D01*
X103456460Y-70536515D01*
X103477861Y-70508625D01*
X103533330Y-70374709D01*
X103552250Y-70231000D01*
X103533330Y-70087291D01*
X103477861Y-69953375D01*
X103456460Y-69925485D01*
X103431267Y-69860317D01*
X103445305Y-69791873D01*
X103456460Y-69774515D01*
X103477861Y-69746625D01*
X103533330Y-69612709D01*
X103552250Y-69469000D01*
X103533330Y-69325291D01*
X103477861Y-69191375D01*
X103389621Y-69076379D01*
X103274625Y-68988139D01*
X103274624Y-68988138D01*
X103274622Y-68988137D01*
X103140712Y-68932671D01*
X103140710Y-68932670D01*
X103140709Y-68932670D01*
X103068854Y-68923210D01*
X102997001Y-68913750D01*
X102996999Y-68913750D01*
X102853291Y-68932670D01*
X102853287Y-68932671D01*
X102719377Y-68988137D01*
X102604379Y-69076379D01*
X102516137Y-69191377D01*
X102460671Y-69325287D01*
X102460670Y-69325291D01*
X102441750Y-69468999D01*
X102441750Y-69469000D01*
X102460670Y-69612708D01*
X102460671Y-69612712D01*
X102516138Y-69746624D01*
X102537539Y-69774515D01*
X102562732Y-69839684D01*
X102548693Y-69908129D01*
X102537539Y-69925485D01*
X102516138Y-69953375D01*
X102460671Y-70087287D01*
X102460670Y-70087291D01*
X102441750Y-70230999D01*
X102441750Y-70231000D01*
X102460670Y-70374708D01*
X102460671Y-70374712D01*
X102516138Y-70508624D01*
X102537539Y-70536515D01*
X102562732Y-70601684D01*
X102548693Y-70670129D01*
X102537539Y-70687485D01*
X102516138Y-70715375D01*
X102460671Y-70849287D01*
X102460670Y-70849291D01*
X102441750Y-70992999D01*
X102441750Y-70993000D01*
X97113106Y-70993000D01*
X97044712Y-70964671D01*
X97044710Y-70964670D01*
X97044709Y-70964670D01*
X96972854Y-70955210D01*
X96901001Y-70945750D01*
X96900999Y-70945750D01*
X96757291Y-70964670D01*
X96757287Y-70964671D01*
X96623377Y-71020137D01*
X96508379Y-71108379D01*
X96420137Y-71223377D01*
X96364671Y-71357287D01*
X96364670Y-71357291D01*
X96345750Y-71500999D01*
X96345750Y-71501000D01*
X94616500Y-71501000D01*
X94616500Y-69977000D01*
X96345750Y-69977000D01*
X96364670Y-70120708D01*
X96364671Y-70120712D01*
X96420137Y-70254622D01*
X96420138Y-70254624D01*
X96420139Y-70254625D01*
X96508379Y-70369621D01*
X96623375Y-70457861D01*
X96757291Y-70513330D01*
X96884280Y-70530048D01*
X96900999Y-70532250D01*
X96901000Y-70532250D01*
X96901001Y-70532250D01*
X96915977Y-70530278D01*
X97044709Y-70513330D01*
X97178625Y-70457861D01*
X97293621Y-70369621D01*
X97381861Y-70254625D01*
X97437330Y-70120709D01*
X97456250Y-69977000D01*
X97437330Y-69833291D01*
X97381861Y-69699375D01*
X97293621Y-69584379D01*
X97178625Y-69496139D01*
X97178624Y-69496138D01*
X97178622Y-69496137D01*
X97044712Y-69440671D01*
X97044710Y-69440670D01*
X97044709Y-69440670D01*
X96972854Y-69431210D01*
X96901001Y-69421750D01*
X96900999Y-69421750D01*
X96757291Y-69440670D01*
X96757287Y-69440671D01*
X96623377Y-69496137D01*
X96508379Y-69584379D01*
X96420137Y-69699377D01*
X96364671Y-69833287D01*
X96364670Y-69833291D01*
X96345750Y-69976999D01*
X96345750Y-69977000D01*
X94616500Y-69977000D01*
X94616500Y-68453000D01*
X96345750Y-68453000D01*
X96364670Y-68596708D01*
X96364671Y-68596712D01*
X96420137Y-68730622D01*
X96420138Y-68730624D01*
X96420139Y-68730625D01*
X96508379Y-68845621D01*
X96623375Y-68933861D01*
X96757291Y-68989330D01*
X96884280Y-69006048D01*
X96900999Y-69008250D01*
X96901000Y-69008250D01*
X96901001Y-69008250D01*
X96915977Y-69006278D01*
X97044709Y-68989330D01*
X97178625Y-68933861D01*
X97293621Y-68845621D01*
X97381861Y-68730625D01*
X97437330Y-68596709D01*
X97456250Y-68453000D01*
X97437330Y-68309291D01*
X97381861Y-68175375D01*
X97302538Y-68072000D01*
X102060750Y-68072000D01*
X102079670Y-68215708D01*
X102079671Y-68215712D01*
X102135137Y-68349622D01*
X102135138Y-68349624D01*
X102135139Y-68349625D01*
X102223379Y-68464621D01*
X102338375Y-68552861D01*
X102472291Y-68608330D01*
X102599280Y-68625048D01*
X102615999Y-68627250D01*
X102616000Y-68627250D01*
X102616001Y-68627250D01*
X102630977Y-68625278D01*
X102759709Y-68608330D01*
X102893625Y-68552861D01*
X103008621Y-68464621D01*
X103096861Y-68349625D01*
X103152330Y-68215709D01*
X103171250Y-68072000D01*
X103584750Y-68072000D01*
X103603670Y-68215708D01*
X103603671Y-68215712D01*
X103659137Y-68349622D01*
X103659138Y-68349624D01*
X103659139Y-68349625D01*
X103747379Y-68464621D01*
X103862375Y-68552861D01*
X103996291Y-68608330D01*
X104123280Y-68625048D01*
X104139999Y-68627250D01*
X104140000Y-68627250D01*
X104140001Y-68627250D01*
X104154977Y-68625278D01*
X104283709Y-68608330D01*
X104417625Y-68552861D01*
X104532621Y-68464621D01*
X104620861Y-68349625D01*
X104676330Y-68215709D01*
X104695250Y-68072000D01*
X104676330Y-67928291D01*
X104620861Y-67794375D01*
X104532621Y-67679379D01*
X104417625Y-67591139D01*
X104417624Y-67591138D01*
X104417622Y-67591137D01*
X104283712Y-67535671D01*
X104283710Y-67535670D01*
X104283709Y-67535670D01*
X104211854Y-67526210D01*
X104140001Y-67516750D01*
X104139999Y-67516750D01*
X103996291Y-67535670D01*
X103996287Y-67535671D01*
X103862377Y-67591137D01*
X103747379Y-67679379D01*
X103659137Y-67794377D01*
X103603671Y-67928287D01*
X103603670Y-67928291D01*
X103584750Y-68071999D01*
X103584750Y-68072000D01*
X103171250Y-68072000D01*
X103152330Y-67928291D01*
X103096861Y-67794375D01*
X103008621Y-67679379D01*
X102893625Y-67591139D01*
X102893624Y-67591138D01*
X102893622Y-67591137D01*
X102759712Y-67535671D01*
X102759710Y-67535670D01*
X102759709Y-67535670D01*
X102687854Y-67526210D01*
X102616001Y-67516750D01*
X102615999Y-67516750D01*
X102472291Y-67535670D01*
X102472287Y-67535671D01*
X102338377Y-67591137D01*
X102223379Y-67679379D01*
X102135137Y-67794377D01*
X102079671Y-67928287D01*
X102079670Y-67928291D01*
X102060750Y-68071999D01*
X102060750Y-68072000D01*
X97302538Y-68072000D01*
X97293621Y-68060379D01*
X97178625Y-67972139D01*
X97178624Y-67972138D01*
X97178622Y-67972137D01*
X97044712Y-67916671D01*
X97044710Y-67916670D01*
X97044709Y-67916670D01*
X96972854Y-67907210D01*
X96901001Y-67897750D01*
X96900999Y-67897750D01*
X96757291Y-67916670D01*
X96757287Y-67916671D01*
X96623377Y-67972137D01*
X96508379Y-68060379D01*
X96420137Y-68175377D01*
X96364671Y-68309287D01*
X96364670Y-68309291D01*
X96345750Y-68452999D01*
X96345750Y-68453000D01*
X94616500Y-68453000D01*
X94616500Y-66929000D01*
X96345750Y-66929000D01*
X96364670Y-67072708D01*
X96364671Y-67072712D01*
X96420137Y-67206622D01*
X96420138Y-67206624D01*
X96420139Y-67206625D01*
X96508379Y-67321621D01*
X96623375Y-67409861D01*
X96757291Y-67465330D01*
X96884280Y-67482048D01*
X96900999Y-67484250D01*
X96901000Y-67484250D01*
X96901001Y-67484250D01*
X96915977Y-67482278D01*
X97044709Y-67465330D01*
X97178625Y-67409861D01*
X97293621Y-67321621D01*
X97381861Y-67206625D01*
X97437330Y-67072709D01*
X97456250Y-66929000D01*
X97437330Y-66785291D01*
X97391647Y-66675000D01*
X97742750Y-66675000D01*
X97761670Y-66818708D01*
X97761671Y-66818712D01*
X97817137Y-66952622D01*
X97817138Y-66952624D01*
X97817139Y-66952625D01*
X97905379Y-67067621D01*
X98020375Y-67155861D01*
X98154291Y-67211330D01*
X98281280Y-67228048D01*
X98297999Y-67230250D01*
X98298000Y-67230250D01*
X98298001Y-67230250D01*
X98312977Y-67228278D01*
X98441709Y-67211330D01*
X98575625Y-67155861D01*
X98690621Y-67067621D01*
X98778861Y-66952625D01*
X98834330Y-66818709D01*
X98853250Y-66675000D01*
X98834330Y-66531291D01*
X98778861Y-66397375D01*
X98690621Y-66282379D01*
X98575625Y-66194139D01*
X98575624Y-66194138D01*
X98575622Y-66194137D01*
X98441712Y-66138671D01*
X98441710Y-66138670D01*
X98441709Y-66138670D01*
X98369854Y-66129210D01*
X98298001Y-66119750D01*
X98297999Y-66119750D01*
X98154291Y-66138670D01*
X98154287Y-66138671D01*
X98020377Y-66194137D01*
X97905379Y-66282379D01*
X97817137Y-66397377D01*
X97761671Y-66531287D01*
X97761670Y-66531291D01*
X97742750Y-66674999D01*
X97742750Y-66675000D01*
X97391647Y-66675000D01*
X97381861Y-66651375D01*
X97293621Y-66536379D01*
X97178625Y-66448139D01*
X97178624Y-66448138D01*
X97178622Y-66448137D01*
X97044712Y-66392671D01*
X97044710Y-66392670D01*
X97044709Y-66392670D01*
X96972854Y-66383210D01*
X96901001Y-66373750D01*
X96900999Y-66373750D01*
X96757291Y-66392670D01*
X96757287Y-66392671D01*
X96623377Y-66448137D01*
X96508379Y-66536379D01*
X96420137Y-66651377D01*
X96364671Y-66785287D01*
X96364670Y-66785291D01*
X96345750Y-66928999D01*
X96345750Y-66929000D01*
X94616500Y-66929000D01*
X94616500Y-65659000D01*
X106505750Y-65659000D01*
X106524670Y-65802708D01*
X106524671Y-65802712D01*
X106580137Y-65936622D01*
X106580138Y-65936624D01*
X106580139Y-65936625D01*
X106668379Y-66051621D01*
X106783375Y-66139861D01*
X106917291Y-66195330D01*
X107044280Y-66212048D01*
X107060999Y-66214250D01*
X107061000Y-66214250D01*
X107061001Y-66214250D01*
X107075977Y-66212278D01*
X107204709Y-66195330D01*
X107338625Y-66139861D01*
X107453621Y-66051621D01*
X107541861Y-65936625D01*
X107597330Y-65802709D01*
X107616250Y-65659000D01*
X107597330Y-65515291D01*
X107541861Y-65381375D01*
X107453621Y-65266379D01*
X107338625Y-65178139D01*
X107338624Y-65178138D01*
X107338622Y-65178137D01*
X107204712Y-65122671D01*
X107204710Y-65122670D01*
X107204709Y-65122670D01*
X107132854Y-65113210D01*
X107061001Y-65103750D01*
X107060999Y-65103750D01*
X106917291Y-65122670D01*
X106917287Y-65122671D01*
X106783377Y-65178137D01*
X106668379Y-65266379D01*
X106580137Y-65381377D01*
X106524671Y-65515287D01*
X106524670Y-65515291D01*
X106505750Y-65658999D01*
X106505750Y-65659000D01*
X94616500Y-65659000D01*
X94616500Y-62992000D01*
X101908250Y-62992000D01*
X101927170Y-63135708D01*
X101927171Y-63135712D01*
X101982637Y-63269622D01*
X101982638Y-63269624D01*
X101982639Y-63269625D01*
X102070879Y-63384621D01*
X102185875Y-63472861D01*
X102319791Y-63528330D01*
X102446780Y-63545048D01*
X102463499Y-63547250D01*
X102463500Y-63547250D01*
X102463501Y-63547250D01*
X102478477Y-63545278D01*
X102607209Y-63528330D01*
X102741125Y-63472861D01*
X102856121Y-63384621D01*
X102944361Y-63269625D01*
X102999830Y-63135709D01*
X103018750Y-62992000D01*
X102999830Y-62848291D01*
X102944361Y-62714375D01*
X102922960Y-62686485D01*
X102897767Y-62621317D01*
X102911805Y-62552873D01*
X102922960Y-62535515D01*
X102944361Y-62507625D01*
X102999830Y-62373709D01*
X103018750Y-62230000D01*
X102999830Y-62086291D01*
X102944361Y-61952375D01*
X102922960Y-61924485D01*
X102897767Y-61859317D01*
X102911805Y-61790873D01*
X102922960Y-61773515D01*
X102944361Y-61745625D01*
X102999830Y-61611709D01*
X103018750Y-61468000D01*
X102999830Y-61324291D01*
X102954147Y-61214000D01*
X104829250Y-61214000D01*
X104848170Y-61357708D01*
X104848171Y-61357712D01*
X104903637Y-61491622D01*
X104903638Y-61491624D01*
X104903639Y-61491625D01*
X104991879Y-61606621D01*
X105106875Y-61694861D01*
X105240791Y-61750330D01*
X105367780Y-61767048D01*
X105384499Y-61769250D01*
X105384500Y-61769250D01*
X105384501Y-61769250D01*
X105399477Y-61767278D01*
X105528209Y-61750330D01*
X105662125Y-61694861D01*
X105777121Y-61606621D01*
X105865361Y-61491625D01*
X105920830Y-61357709D01*
X105939750Y-61214000D01*
X105920830Y-61070291D01*
X105865361Y-60936375D01*
X105777121Y-60821379D01*
X105662125Y-60733139D01*
X105662124Y-60733138D01*
X105662122Y-60733137D01*
X105528212Y-60677671D01*
X105528210Y-60677670D01*
X105528209Y-60677670D01*
X105456354Y-60668210D01*
X105384501Y-60658750D01*
X105384499Y-60658750D01*
X105240791Y-60677670D01*
X105240787Y-60677671D01*
X105106877Y-60733137D01*
X104991879Y-60821379D01*
X104903637Y-60936377D01*
X104848171Y-61070287D01*
X104848170Y-61070291D01*
X104829250Y-61213999D01*
X104829250Y-61214000D01*
X102954147Y-61214000D01*
X102944361Y-61190375D01*
X102856121Y-61075379D01*
X102741125Y-60987139D01*
X102741124Y-60987138D01*
X102741122Y-60987137D01*
X102607212Y-60931671D01*
X102607210Y-60931670D01*
X102607209Y-60931670D01*
X102535354Y-60922210D01*
X102463501Y-60912750D01*
X102463499Y-60912750D01*
X102319791Y-60931670D01*
X102319787Y-60931671D01*
X102185877Y-60987137D01*
X102070879Y-61075379D01*
X101982637Y-61190377D01*
X101927171Y-61324287D01*
X101927170Y-61324291D01*
X101908250Y-61467999D01*
X101908250Y-61468000D01*
X101927170Y-61611708D01*
X101927171Y-61611712D01*
X101982638Y-61745624D01*
X102004039Y-61773515D01*
X102029232Y-61838684D01*
X102015193Y-61907129D01*
X102004039Y-61924485D01*
X101982638Y-61952375D01*
X101927171Y-62086287D01*
X101927170Y-62086291D01*
X101908250Y-62229999D01*
X101908250Y-62230000D01*
X101927170Y-62373708D01*
X101927171Y-62373712D01*
X101982638Y-62507624D01*
X102004039Y-62535515D01*
X102029232Y-62600684D01*
X102015193Y-62669129D01*
X102004039Y-62686485D01*
X101982638Y-62714375D01*
X101927171Y-62848287D01*
X101927170Y-62848291D01*
X101908250Y-62991999D01*
X101908250Y-62992000D01*
X94616500Y-62992000D01*
X94616500Y-58953500D01*
X106378750Y-58953500D01*
X106397670Y-59097208D01*
X106397671Y-59097212D01*
X106453137Y-59231122D01*
X106453138Y-59231124D01*
X106453139Y-59231125D01*
X106541379Y-59346121D01*
X106656375Y-59434361D01*
X106790291Y-59489830D01*
X106917280Y-59506548D01*
X106933999Y-59508750D01*
X106934000Y-59508750D01*
X106934001Y-59508750D01*
X106948977Y-59506778D01*
X107077709Y-59489830D01*
X107211625Y-59434361D01*
X107326621Y-59346121D01*
X107414861Y-59231125D01*
X107470330Y-59097209D01*
X107489250Y-58953500D01*
X107470330Y-58809791D01*
X107414861Y-58675875D01*
X107393460Y-58647985D01*
X107368267Y-58582817D01*
X107382305Y-58514373D01*
X107393460Y-58497015D01*
X107414861Y-58469125D01*
X107470330Y-58335209D01*
X107489250Y-58191500D01*
X107470330Y-58047791D01*
X107414861Y-57913875D01*
X107414860Y-57913875D01*
X107393460Y-57885984D01*
X107368267Y-57820815D01*
X107382306Y-57752370D01*
X107393455Y-57735020D01*
X107414861Y-57707125D01*
X107470330Y-57573209D01*
X107489250Y-57429500D01*
X107470330Y-57285791D01*
X107414861Y-57151875D01*
X107414860Y-57151875D01*
X107393460Y-57123984D01*
X107368267Y-57058815D01*
X107382306Y-56990370D01*
X107393455Y-56973020D01*
X107414861Y-56945125D01*
X107470330Y-56811209D01*
X107489250Y-56667500D01*
X107470330Y-56523791D01*
X107414861Y-56389875D01*
X107393460Y-56361985D01*
X107368267Y-56296817D01*
X107382305Y-56228373D01*
X107393460Y-56211015D01*
X107414861Y-56183125D01*
X107470330Y-56049209D01*
X107489250Y-55905500D01*
X107470330Y-55761791D01*
X107414861Y-55627875D01*
X107393459Y-55599983D01*
X107368267Y-55534817D01*
X107382305Y-55466373D01*
X107393457Y-55449018D01*
X107414861Y-55421125D01*
X107470330Y-55287209D01*
X107489250Y-55143500D01*
X107470330Y-54999791D01*
X107414861Y-54865875D01*
X107326621Y-54750879D01*
X107211625Y-54662639D01*
X107211624Y-54662638D01*
X107211622Y-54662637D01*
X107077712Y-54607171D01*
X107077710Y-54607170D01*
X107077709Y-54607170D01*
X107005854Y-54597710D01*
X106934001Y-54588250D01*
X106933999Y-54588250D01*
X106790291Y-54607170D01*
X106790287Y-54607171D01*
X106656377Y-54662637D01*
X106541379Y-54750879D01*
X106453137Y-54865877D01*
X106397671Y-54999787D01*
X106397670Y-54999791D01*
X106378750Y-55143499D01*
X106378750Y-55143500D01*
X106397670Y-55287208D01*
X106397671Y-55287212D01*
X106453137Y-55421122D01*
X106453138Y-55421124D01*
X106453139Y-55421125D01*
X106474538Y-55449013D01*
X106499732Y-55514182D01*
X106485694Y-55582626D01*
X106474540Y-55599983D01*
X106453138Y-55627875D01*
X106397671Y-55761787D01*
X106397670Y-55761791D01*
X106378750Y-55905499D01*
X106378750Y-55905500D01*
X106397670Y-56049208D01*
X106397671Y-56049212D01*
X106453138Y-56183124D01*
X106474539Y-56211015D01*
X106499732Y-56276184D01*
X106485693Y-56344629D01*
X106474539Y-56361985D01*
X106453138Y-56389875D01*
X106397671Y-56523787D01*
X106397670Y-56523791D01*
X106378750Y-56667499D01*
X106378750Y-56667500D01*
X106397670Y-56811208D01*
X106397671Y-56811212D01*
X106453138Y-56945124D01*
X106474539Y-56973015D01*
X106499732Y-57038184D01*
X106485693Y-57106629D01*
X106474539Y-57123985D01*
X106453138Y-57151875D01*
X106397671Y-57285787D01*
X106397670Y-57285791D01*
X106378750Y-57429499D01*
X106378750Y-57429500D01*
X106397670Y-57573208D01*
X106397671Y-57573212D01*
X106453138Y-57707124D01*
X106474539Y-57735015D01*
X106499732Y-57800184D01*
X106485693Y-57868629D01*
X106474539Y-57885985D01*
X106453138Y-57913875D01*
X106397671Y-58047787D01*
X106397670Y-58047791D01*
X106378750Y-58191499D01*
X106378750Y-58191500D01*
X106397670Y-58335208D01*
X106397671Y-58335212D01*
X106453138Y-58469124D01*
X106474539Y-58497015D01*
X106499732Y-58562184D01*
X106485693Y-58630629D01*
X106474539Y-58647985D01*
X106453138Y-58675875D01*
X106397671Y-58809787D01*
X106397670Y-58809791D01*
X106378750Y-58953499D01*
X106378750Y-58953500D01*
X94616500Y-58953500D01*
X94616500Y-55651500D01*
X100790750Y-55651500D01*
X100809670Y-55795208D01*
X100809671Y-55795212D01*
X100865137Y-55929122D01*
X100865138Y-55929124D01*
X100865139Y-55929125D01*
X100953379Y-56044121D01*
X101068375Y-56132361D01*
X101202291Y-56187830D01*
X101329280Y-56204548D01*
X101345999Y-56206750D01*
X101346000Y-56206750D01*
X101346001Y-56206750D01*
X101360977Y-56204778D01*
X101489709Y-56187830D01*
X101623625Y-56132361D01*
X101738621Y-56044121D01*
X101826861Y-55929125D01*
X101882330Y-55795209D01*
X101901250Y-55651500D01*
X101882330Y-55507791D01*
X101826861Y-55373875D01*
X101738621Y-55258879D01*
X101623625Y-55170639D01*
X101623624Y-55170638D01*
X101623622Y-55170637D01*
X101489712Y-55115171D01*
X101489710Y-55115170D01*
X101489709Y-55115170D01*
X101417854Y-55105710D01*
X101346001Y-55096250D01*
X101345999Y-55096250D01*
X101202291Y-55115170D01*
X101202287Y-55115171D01*
X101068377Y-55170637D01*
X100953379Y-55258879D01*
X100865137Y-55373877D01*
X100809671Y-55507787D01*
X100809670Y-55507791D01*
X100790750Y-55651499D01*
X100790750Y-55651500D01*
X94616500Y-55651500D01*
X94616500Y-55275193D01*
X94636185Y-55208154D01*
X94652819Y-55187512D01*
X96208512Y-53631819D01*
X96269835Y-53598334D01*
X96296193Y-53595500D01*
X96471314Y-53595500D01*
X96538353Y-53615185D01*
X96584108Y-53667989D01*
X96594052Y-53737147D01*
X96569690Y-53794985D01*
X96556336Y-53812388D01*
X96547137Y-53824377D01*
X96491671Y-53958287D01*
X96491670Y-53958291D01*
X96472750Y-54101999D01*
X96472750Y-54102000D01*
X96491670Y-54245708D01*
X96491671Y-54245712D01*
X96547137Y-54379622D01*
X96547138Y-54379624D01*
X96547139Y-54379625D01*
X96635379Y-54494621D01*
X96750375Y-54582861D01*
X96884291Y-54638330D01*
X97011280Y-54655048D01*
X97027999Y-54657250D01*
X97028000Y-54657250D01*
X97028001Y-54657250D01*
X97042977Y-54655278D01*
X97171709Y-54638330D01*
X97305625Y-54582861D01*
X97420621Y-54494621D01*
X97501125Y-54389705D01*
X97557552Y-54348504D01*
X97627298Y-54344349D01*
X97688218Y-54378561D01*
X97697869Y-54389699D01*
X97778379Y-54494621D01*
X97893375Y-54582861D01*
X98027291Y-54638330D01*
X98154280Y-54655048D01*
X98170999Y-54657250D01*
X98171000Y-54657250D01*
X98171001Y-54657250D01*
X98185977Y-54655278D01*
X98314709Y-54638330D01*
X98448625Y-54582861D01*
X98563621Y-54494621D01*
X98651861Y-54379625D01*
X98707330Y-54245709D01*
X98726250Y-54102000D01*
X98707330Y-53958291D01*
X98651861Y-53824375D01*
X98626334Y-53791108D01*
X98601141Y-53725941D01*
X98615179Y-53657496D01*
X98663993Y-53607506D01*
X98711457Y-53592333D01*
X98736313Y-53589661D01*
X98752440Y-53586152D01*
X98787817Y-53578457D01*
X98787817Y-53578456D01*
X98787824Y-53578455D01*
X98814198Y-53571219D01*
X98869461Y-53539750D01*
X98900818Y-53521894D01*
X98900821Y-53521891D01*
X98900828Y-53521888D01*
X98953632Y-53476133D01*
X98985257Y-53443359D01*
X99031465Y-53355024D01*
X99051150Y-53287985D01*
X99061500Y-53216000D01*
X99061500Y-52984500D01*
X99901750Y-52984500D01*
X99920670Y-53128208D01*
X99920671Y-53128212D01*
X99976137Y-53262122D01*
X99976138Y-53262124D01*
X99976139Y-53262125D01*
X100064379Y-53377121D01*
X100179375Y-53465361D01*
X100179376Y-53465361D01*
X100179377Y-53465362D01*
X100224013Y-53483850D01*
X100313291Y-53520830D01*
X100440280Y-53537548D01*
X100456999Y-53539750D01*
X100457000Y-53539750D01*
X100457001Y-53539750D01*
X100471977Y-53537778D01*
X100600709Y-53520830D01*
X100734625Y-53465361D01*
X100762514Y-53443960D01*
X100827683Y-53418767D01*
X100896127Y-53432805D01*
X100913481Y-53443957D01*
X100941375Y-53465361D01*
X100941376Y-53465361D01*
X100941377Y-53465362D01*
X100986013Y-53483850D01*
X101075291Y-53520830D01*
X101202280Y-53537548D01*
X101218999Y-53539750D01*
X101219000Y-53539750D01*
X101219001Y-53539750D01*
X101233977Y-53537778D01*
X101362709Y-53520830D01*
X101496625Y-53465361D01*
X101524514Y-53443960D01*
X101589683Y-53418767D01*
X101658127Y-53432805D01*
X101675481Y-53443957D01*
X101703375Y-53465361D01*
X101703376Y-53465361D01*
X101703377Y-53465362D01*
X101748013Y-53483850D01*
X101837291Y-53520830D01*
X101964280Y-53537548D01*
X101980999Y-53539750D01*
X101981000Y-53539750D01*
X101981001Y-53539750D01*
X101995977Y-53537778D01*
X102124709Y-53520830D01*
X102258625Y-53465361D01*
X102373621Y-53377121D01*
X102461861Y-53262125D01*
X102517330Y-53128209D01*
X102536250Y-52984500D01*
X102517330Y-52840791D01*
X102461861Y-52706875D01*
X102373621Y-52591879D01*
X102258625Y-52503639D01*
X102258624Y-52503638D01*
X102258622Y-52503637D01*
X102124712Y-52448171D01*
X102124710Y-52448170D01*
X102124709Y-52448170D01*
X102052854Y-52438710D01*
X101981001Y-52429250D01*
X101980999Y-52429250D01*
X101837291Y-52448170D01*
X101837287Y-52448171D01*
X101703375Y-52503638D01*
X101675485Y-52525039D01*
X101610316Y-52550232D01*
X101541871Y-52536193D01*
X101524515Y-52525039D01*
X101498177Y-52504830D01*
X101496625Y-52503639D01*
X101496623Y-52503638D01*
X101496625Y-52503638D01*
X101362712Y-52448171D01*
X101362710Y-52448170D01*
X101362709Y-52448170D01*
X101290854Y-52438710D01*
X101219001Y-52429250D01*
X101218999Y-52429250D01*
X101075291Y-52448170D01*
X101075287Y-52448171D01*
X100941375Y-52503638D01*
X100913485Y-52525039D01*
X100848316Y-52550232D01*
X100779871Y-52536193D01*
X100762515Y-52525039D01*
X100736177Y-52504830D01*
X100734625Y-52503639D01*
X100734623Y-52503638D01*
X100734625Y-52503638D01*
X100600712Y-52448171D01*
X100600710Y-52448170D01*
X100600709Y-52448170D01*
X100528854Y-52438710D01*
X100457001Y-52429250D01*
X100456999Y-52429250D01*
X100313291Y-52448170D01*
X100313287Y-52448171D01*
X100179377Y-52503637D01*
X100064379Y-52591879D01*
X99976137Y-52706877D01*
X99920671Y-52840787D01*
X99920670Y-52840791D01*
X99901750Y-52984499D01*
X99901750Y-52984500D01*
X99061500Y-52984500D01*
X99061500Y-52194000D01*
X99055661Y-52139687D01*
X99049684Y-52112212D01*
X99044457Y-52088183D01*
X99044456Y-52088182D01*
X99044455Y-52088176D01*
X99037219Y-52061802D01*
X99033332Y-52054976D01*
X98987894Y-51975181D01*
X98987888Y-51975172D01*
X98942136Y-51922371D01*
X98909359Y-51890743D01*
X98821022Y-51844534D01*
X98821022Y-51844533D01*
X98753990Y-51824851D01*
X98753978Y-51824848D01*
X98682001Y-51814500D01*
X98682000Y-51814500D01*
X91589500Y-51814500D01*
X91522461Y-51794815D01*
X91476706Y-51742011D01*
X91465500Y-51690500D01*
X91465500Y-51083847D01*
X91485185Y-51016808D01*
X91537989Y-50971053D01*
X91607147Y-50961109D01*
X91670703Y-50990134D01*
X91704061Y-51036395D01*
X91721137Y-51077622D01*
X91721138Y-51077624D01*
X91721139Y-51077625D01*
X91809379Y-51192621D01*
X91924375Y-51280861D01*
X92058291Y-51336330D01*
X92185280Y-51353048D01*
X92201999Y-51355250D01*
X92202000Y-51355250D01*
X92202001Y-51355250D01*
X92216977Y-51353278D01*
X92345709Y-51336330D01*
X92479625Y-51280861D01*
X92594621Y-51192621D01*
X92682861Y-51077625D01*
X92738330Y-50943709D01*
X92757250Y-50800000D01*
X92738330Y-50656291D01*
X92682861Y-50522375D01*
X92594621Y-50407379D01*
X92479625Y-50319139D01*
X92479624Y-50319138D01*
X92479622Y-50319137D01*
X92345712Y-50263671D01*
X92345710Y-50263670D01*
X92345709Y-50263670D01*
X92273854Y-50254210D01*
X92202001Y-50244750D01*
X92201999Y-50244750D01*
X92058291Y-50263670D01*
X92058287Y-50263671D01*
X91924377Y-50319137D01*
X91809379Y-50407379D01*
X91721138Y-50522376D01*
X91704061Y-50563605D01*
X91660220Y-50618008D01*
X91593926Y-50640073D01*
X91526226Y-50622794D01*
X91478616Y-50571656D01*
X91465500Y-50516152D01*
X91465500Y-49022000D01*
X92789750Y-49022000D01*
X92806254Y-49147361D01*
X92808670Y-49165708D01*
X92808671Y-49165712D01*
X92864137Y-49299622D01*
X92864138Y-49299624D01*
X92864139Y-49299625D01*
X92952379Y-49414621D01*
X93067375Y-49502861D01*
X93201291Y-49558330D01*
X93328280Y-49575048D01*
X93344999Y-49577250D01*
X93345000Y-49577250D01*
X93345001Y-49577250D01*
X93359977Y-49575278D01*
X93488709Y-49558330D01*
X93557105Y-49530000D01*
X95202750Y-49530000D01*
X95221670Y-49673708D01*
X95221671Y-49673712D01*
X95277137Y-49807622D01*
X95277138Y-49807624D01*
X95277139Y-49807625D01*
X95365379Y-49922621D01*
X95480375Y-50010861D01*
X95614291Y-50066330D01*
X95741280Y-50083048D01*
X95757999Y-50085250D01*
X95758000Y-50085250D01*
X95758001Y-50085250D01*
X95772977Y-50083278D01*
X95901709Y-50066330D01*
X96035625Y-50010861D01*
X96150621Y-49922621D01*
X96237422Y-49809500D01*
X105743750Y-49809500D01*
X105762670Y-49953208D01*
X105762671Y-49953212D01*
X105818137Y-50087122D01*
X105818138Y-50087124D01*
X105818139Y-50087125D01*
X105906379Y-50202121D01*
X106021375Y-50290361D01*
X106155291Y-50345830D01*
X106282280Y-50362548D01*
X106298999Y-50364750D01*
X106299000Y-50364750D01*
X106299001Y-50364750D01*
X106313977Y-50362778D01*
X106442709Y-50345830D01*
X106576625Y-50290361D01*
X106691621Y-50202121D01*
X106779861Y-50087125D01*
X106835330Y-49953209D01*
X106854250Y-49809500D01*
X106835330Y-49665791D01*
X106790819Y-49558330D01*
X106779862Y-49531877D01*
X106779861Y-49531876D01*
X106779861Y-49531875D01*
X106691621Y-49416879D01*
X106576625Y-49328639D01*
X106576624Y-49328638D01*
X106576622Y-49328637D01*
X106442712Y-49273171D01*
X106442710Y-49273170D01*
X106442709Y-49273170D01*
X106370854Y-49263710D01*
X106299001Y-49254250D01*
X106298999Y-49254250D01*
X106155291Y-49273170D01*
X106155287Y-49273171D01*
X106021377Y-49328637D01*
X105906379Y-49416879D01*
X105818137Y-49531877D01*
X105762671Y-49665787D01*
X105762670Y-49665791D01*
X105743750Y-49809499D01*
X105743750Y-49809500D01*
X96237422Y-49809500D01*
X96238861Y-49807625D01*
X96294330Y-49673709D01*
X96313250Y-49530000D01*
X96294330Y-49386291D01*
X96247475Y-49273171D01*
X96238862Y-49252377D01*
X96238861Y-49252376D01*
X96238861Y-49252375D01*
X96150621Y-49137379D01*
X96035625Y-49049139D01*
X96035624Y-49049138D01*
X96035622Y-49049137D01*
X95901712Y-48993671D01*
X95901710Y-48993670D01*
X95901709Y-48993670D01*
X95829854Y-48984210D01*
X95758001Y-48974750D01*
X95757999Y-48974750D01*
X95614291Y-48993670D01*
X95614287Y-48993671D01*
X95480377Y-49049137D01*
X95365379Y-49137379D01*
X95277137Y-49252377D01*
X95221671Y-49386287D01*
X95221670Y-49386291D01*
X95202750Y-49529999D01*
X95202750Y-49530000D01*
X93557105Y-49530000D01*
X93622625Y-49502861D01*
X93737621Y-49414621D01*
X93825861Y-49299625D01*
X93881330Y-49165709D01*
X93900250Y-49022000D01*
X93881330Y-48878291D01*
X93825861Y-48744375D01*
X93737621Y-48629379D01*
X93622625Y-48541139D01*
X93622624Y-48541138D01*
X93622622Y-48541137D01*
X93488712Y-48485671D01*
X93488710Y-48485670D01*
X93488709Y-48485670D01*
X93416854Y-48476210D01*
X93345001Y-48466750D01*
X93344999Y-48466750D01*
X93201291Y-48485670D01*
X93201287Y-48485671D01*
X93067377Y-48541137D01*
X92952379Y-48629379D01*
X92864137Y-48744377D01*
X92808671Y-48878287D01*
X92808670Y-48878291D01*
X92789750Y-49022000D01*
X91465500Y-49022000D01*
X91465500Y-48412500D01*
X102568750Y-48412500D01*
X102587670Y-48556208D01*
X102587671Y-48556212D01*
X102643137Y-48690122D01*
X102643138Y-48690124D01*
X102643139Y-48690125D01*
X102731379Y-48805121D01*
X102846375Y-48893361D01*
X102980291Y-48948830D01*
X103107280Y-48965548D01*
X103123999Y-48967750D01*
X103124000Y-48967750D01*
X103124001Y-48967750D01*
X103138977Y-48965778D01*
X103267709Y-48948830D01*
X103401625Y-48893361D01*
X103516621Y-48805121D01*
X103604861Y-48690125D01*
X103614647Y-48666500D01*
X104727750Y-48666500D01*
X104746670Y-48810208D01*
X104746671Y-48810212D01*
X104802137Y-48944122D01*
X104802138Y-48944124D01*
X104802139Y-48944125D01*
X104890379Y-49059121D01*
X105005375Y-49147361D01*
X105139291Y-49202830D01*
X105266280Y-49219548D01*
X105282999Y-49221750D01*
X105283000Y-49221750D01*
X105283001Y-49221750D01*
X105297977Y-49219778D01*
X105426709Y-49202830D01*
X105560625Y-49147361D01*
X105675621Y-49059121D01*
X105763861Y-48944125D01*
X105819330Y-48810209D01*
X105838250Y-48666500D01*
X105819330Y-48522791D01*
X105763861Y-48388875D01*
X105675621Y-48273879D01*
X105560625Y-48185639D01*
X105560624Y-48185638D01*
X105560622Y-48185637D01*
X105426712Y-48130171D01*
X105426710Y-48130170D01*
X105426709Y-48130170D01*
X105354854Y-48120710D01*
X105283001Y-48111250D01*
X105282999Y-48111250D01*
X105139291Y-48130170D01*
X105139287Y-48130171D01*
X105005377Y-48185637D01*
X104890379Y-48273879D01*
X104802137Y-48388877D01*
X104746671Y-48522787D01*
X104746670Y-48522791D01*
X104727750Y-48666499D01*
X104727750Y-48666500D01*
X103614647Y-48666500D01*
X103660330Y-48556209D01*
X103679250Y-48412500D01*
X103660330Y-48268791D01*
X103615819Y-48161330D01*
X103604862Y-48134877D01*
X103604861Y-48134876D01*
X103604861Y-48134875D01*
X103516621Y-48019879D01*
X103401625Y-47931639D01*
X103401624Y-47931638D01*
X103401622Y-47931637D01*
X103267712Y-47876171D01*
X103267710Y-47876170D01*
X103267709Y-47876170D01*
X103195854Y-47866710D01*
X103124001Y-47857250D01*
X103123999Y-47857250D01*
X102980291Y-47876170D01*
X102980287Y-47876171D01*
X102846377Y-47931637D01*
X102731379Y-48019879D01*
X102643137Y-48134877D01*
X102587671Y-48268787D01*
X102587670Y-48268791D01*
X102568750Y-48412499D01*
X102568750Y-48412500D01*
X91465500Y-48412500D01*
X91465500Y-47625000D01*
X93551750Y-47625000D01*
X93570670Y-47768708D01*
X93570671Y-47768712D01*
X93626137Y-47902622D01*
X93626138Y-47902624D01*
X93626139Y-47902625D01*
X93714379Y-48017621D01*
X93829375Y-48105861D01*
X93963291Y-48161330D01*
X94090280Y-48178048D01*
X94106999Y-48180250D01*
X94107000Y-48180250D01*
X94107001Y-48180250D01*
X94121977Y-48178278D01*
X94250709Y-48161330D01*
X94384625Y-48105861D01*
X94499621Y-48017621D01*
X94587861Y-47902625D01*
X94643330Y-47768709D01*
X94662250Y-47625000D01*
X94643330Y-47481291D01*
X94587861Y-47347375D01*
X94499621Y-47232379D01*
X94384625Y-47144139D01*
X94384624Y-47144138D01*
X94384622Y-47144137D01*
X94319106Y-47117000D01*
X96853750Y-47117000D01*
X96872670Y-47260708D01*
X96872671Y-47260712D01*
X96928137Y-47394622D01*
X96928138Y-47394624D01*
X96928139Y-47394625D01*
X97016379Y-47509621D01*
X97131375Y-47597861D01*
X97265291Y-47653330D01*
X97392280Y-47670048D01*
X97408999Y-47672250D01*
X97409000Y-47672250D01*
X97409001Y-47672250D01*
X97423977Y-47670278D01*
X97552709Y-47653330D01*
X97686625Y-47597861D01*
X97801621Y-47509621D01*
X97889861Y-47394625D01*
X97945330Y-47260709D01*
X97964250Y-47117000D01*
X98377750Y-47117000D01*
X98396670Y-47260708D01*
X98396671Y-47260712D01*
X98452137Y-47394622D01*
X98452138Y-47394624D01*
X98452139Y-47394625D01*
X98540379Y-47509621D01*
X98655375Y-47597861D01*
X98789291Y-47653330D01*
X98916280Y-47670048D01*
X98932999Y-47672250D01*
X98933000Y-47672250D01*
X98933001Y-47672250D01*
X98947977Y-47670278D01*
X99076709Y-47653330D01*
X99210625Y-47597861D01*
X99325621Y-47509621D01*
X99334538Y-47498000D01*
X101425750Y-47498000D01*
X101444670Y-47641708D01*
X101444671Y-47641712D01*
X101500137Y-47775622D01*
X101500138Y-47775624D01*
X101500139Y-47775625D01*
X101588379Y-47890621D01*
X101703375Y-47978861D01*
X101837291Y-48034330D01*
X101964280Y-48051048D01*
X101980999Y-48053250D01*
X101981000Y-48053250D01*
X101981001Y-48053250D01*
X101995977Y-48051278D01*
X102124709Y-48034330D01*
X102258625Y-47978861D01*
X102373621Y-47890621D01*
X102461861Y-47775625D01*
X102517330Y-47641709D01*
X102536250Y-47498000D01*
X102517330Y-47354291D01*
X102461861Y-47220375D01*
X102373621Y-47105379D01*
X102258625Y-47017139D01*
X102258624Y-47017138D01*
X102258622Y-47017137D01*
X102124712Y-46961671D01*
X102124710Y-46961670D01*
X102124709Y-46961670D01*
X102052854Y-46952210D01*
X101981001Y-46942750D01*
X101980999Y-46942750D01*
X101837291Y-46961670D01*
X101837287Y-46961671D01*
X101703377Y-47017137D01*
X101588379Y-47105379D01*
X101500137Y-47220377D01*
X101444671Y-47354287D01*
X101444670Y-47354291D01*
X101425750Y-47497999D01*
X101425750Y-47498000D01*
X99334538Y-47498000D01*
X99413861Y-47394625D01*
X99469330Y-47260709D01*
X99488250Y-47117000D01*
X99469330Y-46973291D01*
X99413861Y-46839375D01*
X99325621Y-46724379D01*
X99210625Y-46636139D01*
X99210624Y-46636138D01*
X99210622Y-46636137D01*
X99076712Y-46580671D01*
X99076710Y-46580670D01*
X99076709Y-46580670D01*
X99004854Y-46571210D01*
X98933001Y-46561750D01*
X98932999Y-46561750D01*
X98789291Y-46580670D01*
X98789287Y-46580671D01*
X98655377Y-46636137D01*
X98540379Y-46724379D01*
X98452137Y-46839377D01*
X98396671Y-46973287D01*
X98396670Y-46973291D01*
X98377750Y-47116999D01*
X98377750Y-47117000D01*
X97964250Y-47117000D01*
X97945330Y-46973291D01*
X97889861Y-46839375D01*
X97801621Y-46724379D01*
X97686625Y-46636139D01*
X97686624Y-46636138D01*
X97686622Y-46636137D01*
X97552712Y-46580671D01*
X97552710Y-46580670D01*
X97552709Y-46580670D01*
X97480854Y-46571210D01*
X97409001Y-46561750D01*
X97408999Y-46561750D01*
X97265291Y-46580670D01*
X97265287Y-46580671D01*
X97131377Y-46636137D01*
X97016379Y-46724379D01*
X96928137Y-46839377D01*
X96872671Y-46973287D01*
X96872670Y-46973291D01*
X96853750Y-47116999D01*
X96853750Y-47117000D01*
X94319106Y-47117000D01*
X94250712Y-47088671D01*
X94250710Y-47088670D01*
X94250709Y-47088670D01*
X94178854Y-47079210D01*
X94107001Y-47069750D01*
X94106999Y-47069750D01*
X93963291Y-47088670D01*
X93963287Y-47088671D01*
X93829377Y-47144137D01*
X93714379Y-47232379D01*
X93626137Y-47347377D01*
X93570671Y-47481287D01*
X93570670Y-47481291D01*
X93551750Y-47624999D01*
X93551750Y-47625000D01*
X91465500Y-47625000D01*
X91465500Y-46355000D01*
X103965750Y-46355000D01*
X103984670Y-46498708D01*
X103984671Y-46498712D01*
X104040137Y-46632622D01*
X104040138Y-46632624D01*
X104040139Y-46632625D01*
X104128379Y-46747621D01*
X104243375Y-46835861D01*
X104243376Y-46835861D01*
X104243377Y-46835862D01*
X104288013Y-46854350D01*
X104377291Y-46891330D01*
X104504280Y-46908048D01*
X104520999Y-46910250D01*
X104521000Y-46910250D01*
X104521001Y-46910250D01*
X104535977Y-46908278D01*
X104664709Y-46891330D01*
X104798625Y-46835861D01*
X104913621Y-46747621D01*
X104922538Y-46736000D01*
X106251750Y-46736000D01*
X106270670Y-46879708D01*
X106270671Y-46879712D01*
X106326137Y-47013622D01*
X106326138Y-47013624D01*
X106326139Y-47013625D01*
X106414379Y-47128621D01*
X106529375Y-47216861D01*
X106529376Y-47216861D01*
X106529377Y-47216862D01*
X106566839Y-47232379D01*
X106663291Y-47272330D01*
X106790280Y-47289048D01*
X106806999Y-47291250D01*
X106807000Y-47291250D01*
X106807001Y-47291250D01*
X106821977Y-47289278D01*
X106950709Y-47272330D01*
X107084625Y-47216861D01*
X107199621Y-47128621D01*
X107287861Y-47013625D01*
X107343330Y-46879709D01*
X107362250Y-46736000D01*
X107343330Y-46592291D01*
X107287861Y-46458375D01*
X107199621Y-46343379D01*
X107084625Y-46255139D01*
X107084624Y-46255138D01*
X107084622Y-46255137D01*
X106950712Y-46199671D01*
X106950710Y-46199670D01*
X106950709Y-46199670D01*
X106878854Y-46190210D01*
X106807001Y-46180750D01*
X106806999Y-46180750D01*
X106663291Y-46199670D01*
X106663287Y-46199671D01*
X106529377Y-46255137D01*
X106414379Y-46343379D01*
X106326137Y-46458377D01*
X106270671Y-46592287D01*
X106270670Y-46592291D01*
X106251750Y-46735999D01*
X106251750Y-46736000D01*
X104922538Y-46736000D01*
X105001861Y-46632625D01*
X105057330Y-46498709D01*
X105076250Y-46355000D01*
X105057330Y-46211291D01*
X105001861Y-46077375D01*
X104913621Y-45962379D01*
X104798625Y-45874139D01*
X104798624Y-45874138D01*
X104798622Y-45874137D01*
X104664712Y-45818671D01*
X104664710Y-45818670D01*
X104664709Y-45818670D01*
X104592854Y-45809210D01*
X104521001Y-45799750D01*
X104520999Y-45799750D01*
X104377291Y-45818670D01*
X104377287Y-45818671D01*
X104243377Y-45874137D01*
X104128379Y-45962379D01*
X104040137Y-46077377D01*
X103984671Y-46211287D01*
X103984670Y-46211291D01*
X103965750Y-46354999D01*
X103965750Y-46355000D01*
X91465500Y-46355000D01*
X91465500Y-45196800D01*
X91485185Y-45129761D01*
X91537989Y-45084006D01*
X91607147Y-45074062D01*
X91670703Y-45103087D01*
X91687870Y-45121306D01*
X91766379Y-45223621D01*
X91881375Y-45311861D01*
X92015291Y-45367330D01*
X92142280Y-45384048D01*
X92158999Y-45386250D01*
X92159000Y-45386250D01*
X92159001Y-45386250D01*
X92173977Y-45384278D01*
X92302709Y-45367330D01*
X92436625Y-45311861D01*
X92551621Y-45223621D01*
X92639861Y-45108625D01*
X92695330Y-44974709D01*
X92714250Y-44831000D01*
X92695330Y-44687291D01*
X92639861Y-44553375D01*
X92551621Y-44438379D01*
X92436625Y-44350139D01*
X92436624Y-44350138D01*
X92436622Y-44350137D01*
X92302712Y-44294671D01*
X92302710Y-44294670D01*
X92302709Y-44294670D01*
X92230854Y-44285210D01*
X92159001Y-44275750D01*
X92158999Y-44275750D01*
X92015291Y-44294670D01*
X92015287Y-44294671D01*
X91881377Y-44350137D01*
X91823876Y-44394258D01*
X91766379Y-44438379D01*
X91766378Y-44438380D01*
X91766377Y-44438381D01*
X91687875Y-44540686D01*
X91631447Y-44581888D01*
X91561701Y-44586043D01*
X91500781Y-44551830D01*
X91468029Y-44490113D01*
X91465500Y-44465199D01*
X91465500Y-42672000D01*
X98250750Y-42672000D01*
X98269670Y-42815708D01*
X98269671Y-42815712D01*
X98325137Y-42949622D01*
X98325138Y-42949624D01*
X98325139Y-42949625D01*
X98413379Y-43064621D01*
X98528375Y-43152861D01*
X98662291Y-43208330D01*
X98789280Y-43225048D01*
X98805999Y-43227250D01*
X98806000Y-43227250D01*
X98806001Y-43227250D01*
X98820977Y-43225278D01*
X98949709Y-43208330D01*
X99083625Y-43152861D01*
X99198621Y-43064621D01*
X99286861Y-42949625D01*
X99342330Y-42815709D01*
X99361250Y-42672000D01*
X99342330Y-42528291D01*
X99286861Y-42394375D01*
X99198621Y-42279379D01*
X99083625Y-42191139D01*
X99083624Y-42191138D01*
X99083622Y-42191137D01*
X98949712Y-42135671D01*
X98949710Y-42135670D01*
X98949709Y-42135670D01*
X98877854Y-42126210D01*
X98806001Y-42116750D01*
X98805999Y-42116750D01*
X98662291Y-42135670D01*
X98662287Y-42135671D01*
X98528377Y-42191137D01*
X98413379Y-42279379D01*
X98325137Y-42394377D01*
X98269671Y-42528287D01*
X98269670Y-42528291D01*
X98250750Y-42671999D01*
X98250750Y-42672000D01*
X91465500Y-42672000D01*
X91465500Y-41656000D01*
X102822750Y-41656000D01*
X102841670Y-41799708D01*
X102841671Y-41799712D01*
X102897137Y-41933622D01*
X102897138Y-41933624D01*
X102897139Y-41933625D01*
X102985379Y-42048621D01*
X103100375Y-42136861D01*
X103234291Y-42192330D01*
X103361280Y-42209048D01*
X103377999Y-42211250D01*
X103378000Y-42211250D01*
X103378001Y-42211250D01*
X103392977Y-42209278D01*
X103521709Y-42192330D01*
X103655625Y-42136861D01*
X103770621Y-42048621D01*
X103858861Y-41933625D01*
X103914330Y-41799709D01*
X103933250Y-41656000D01*
X103914330Y-41512291D01*
X103858861Y-41378375D01*
X103779538Y-41275000D01*
X106081750Y-41275000D01*
X106100670Y-41418708D01*
X106100671Y-41418712D01*
X106156137Y-41552622D01*
X106156138Y-41552624D01*
X106156139Y-41552625D01*
X106244379Y-41667621D01*
X106359375Y-41755861D01*
X106493291Y-41811330D01*
X106620280Y-41828048D01*
X106636999Y-41830250D01*
X106637000Y-41830250D01*
X106637001Y-41830250D01*
X106651977Y-41828278D01*
X106780709Y-41811330D01*
X106914625Y-41755861D01*
X107029621Y-41667621D01*
X107117861Y-41552625D01*
X107173330Y-41418709D01*
X107192250Y-41275000D01*
X107173330Y-41131291D01*
X107117861Y-40997375D01*
X107029621Y-40882379D01*
X106914625Y-40794139D01*
X106914624Y-40794138D01*
X106914622Y-40794137D01*
X106780712Y-40738671D01*
X106780710Y-40738670D01*
X106780709Y-40738670D01*
X106708854Y-40729210D01*
X106637001Y-40719750D01*
X106636999Y-40719750D01*
X106493291Y-40738670D01*
X106493287Y-40738671D01*
X106359377Y-40794137D01*
X106244379Y-40882379D01*
X106156137Y-40997377D01*
X106100671Y-41131287D01*
X106100670Y-41131291D01*
X106081750Y-41274999D01*
X106081750Y-41275000D01*
X103779538Y-41275000D01*
X103770621Y-41263379D01*
X103655625Y-41175139D01*
X103655624Y-41175138D01*
X103655622Y-41175137D01*
X103521712Y-41119671D01*
X103521710Y-41119670D01*
X103521709Y-41119670D01*
X103449854Y-41110210D01*
X103378001Y-41100750D01*
X103377999Y-41100750D01*
X103234291Y-41119670D01*
X103234287Y-41119671D01*
X103100377Y-41175137D01*
X102985379Y-41263379D01*
X102897137Y-41378377D01*
X102841671Y-41512287D01*
X102841670Y-41512291D01*
X102822750Y-41655999D01*
X102822750Y-41656000D01*
X91465500Y-41656000D01*
X91465500Y-40386000D01*
X92619750Y-40386000D01*
X92638670Y-40529708D01*
X92638671Y-40529712D01*
X92694137Y-40663622D01*
X92694138Y-40663624D01*
X92694139Y-40663625D01*
X92782379Y-40778621D01*
X92897375Y-40866861D01*
X93031291Y-40922330D01*
X93158280Y-40939048D01*
X93174999Y-40941250D01*
X93175000Y-40941250D01*
X93175001Y-40941250D01*
X93189977Y-40939278D01*
X93318709Y-40922330D01*
X93452625Y-40866861D01*
X93567621Y-40778621D01*
X93655861Y-40663625D01*
X93711330Y-40529709D01*
X93730250Y-40386000D01*
X93711330Y-40242291D01*
X93655861Y-40108375D01*
X93567621Y-39993379D01*
X93452625Y-39905139D01*
X93452624Y-39905138D01*
X93452622Y-39905137D01*
X93318712Y-39849671D01*
X93318710Y-39849670D01*
X93318709Y-39849670D01*
X93246854Y-39840210D01*
X93175001Y-39830750D01*
X93174999Y-39830750D01*
X93031291Y-39849670D01*
X93031287Y-39849671D01*
X92897377Y-39905137D01*
X92782379Y-39993379D01*
X92694137Y-40108377D01*
X92638671Y-40242287D01*
X92638670Y-40242291D01*
X92619750Y-40385999D01*
X92619750Y-40386000D01*
X91465500Y-40386000D01*
X91465500Y-38608000D01*
X95964750Y-38608000D01*
X95983670Y-38751708D01*
X95983671Y-38751712D01*
X96039137Y-38885622D01*
X96039138Y-38885624D01*
X96039139Y-38885625D01*
X96127379Y-39000621D01*
X96242375Y-39088861D01*
X96376291Y-39144330D01*
X96503280Y-39161048D01*
X96519999Y-39163250D01*
X96520000Y-39163250D01*
X96520001Y-39163250D01*
X96534977Y-39161278D01*
X96663709Y-39144330D01*
X96797625Y-39088861D01*
X96912621Y-39000621D01*
X97000861Y-38885625D01*
X97056330Y-38751709D01*
X97075250Y-38608000D01*
X97056330Y-38464291D01*
X97010647Y-38354000D01*
X101044750Y-38354000D01*
X101063670Y-38497708D01*
X101063671Y-38497712D01*
X101119137Y-38631622D01*
X101119138Y-38631624D01*
X101119139Y-38631625D01*
X101207379Y-38746621D01*
X101322375Y-38834861D01*
X101456291Y-38890330D01*
X101583280Y-38907048D01*
X101599999Y-38909250D01*
X101600000Y-38909250D01*
X101600001Y-38909250D01*
X101614977Y-38907278D01*
X101743709Y-38890330D01*
X101877625Y-38834861D01*
X101992621Y-38746621D01*
X102080861Y-38631625D01*
X102136330Y-38497709D01*
X102155250Y-38354000D01*
X102136330Y-38210291D01*
X102080861Y-38076375D01*
X101992621Y-37961379D01*
X101877625Y-37873139D01*
X101877624Y-37873138D01*
X101877622Y-37873137D01*
X101812106Y-37846000D01*
X105616750Y-37846000D01*
X105635670Y-37989708D01*
X105635671Y-37989712D01*
X105691137Y-38123622D01*
X105691138Y-38123624D01*
X105691139Y-38123625D01*
X105779379Y-38238621D01*
X105894375Y-38326861D01*
X105894376Y-38326861D01*
X105894377Y-38326862D01*
X105930876Y-38341980D01*
X106028291Y-38382330D01*
X106155280Y-38399048D01*
X106171999Y-38401250D01*
X106172000Y-38401250D01*
X106172001Y-38401250D01*
X106186977Y-38399278D01*
X106315709Y-38382330D01*
X106449625Y-38326861D01*
X106564621Y-38238621D01*
X106652861Y-38123625D01*
X106708330Y-37989709D01*
X106727250Y-37846000D01*
X106708330Y-37702291D01*
X106652861Y-37568375D01*
X106564621Y-37453379D01*
X106449625Y-37365139D01*
X106449624Y-37365138D01*
X106449622Y-37365137D01*
X106315712Y-37309671D01*
X106315710Y-37309670D01*
X106315709Y-37309670D01*
X106243854Y-37300210D01*
X106172001Y-37290750D01*
X106171999Y-37290750D01*
X106028291Y-37309670D01*
X106028287Y-37309671D01*
X105894377Y-37365137D01*
X105779379Y-37453379D01*
X105691137Y-37568377D01*
X105635671Y-37702287D01*
X105635670Y-37702291D01*
X105616750Y-37845999D01*
X105616750Y-37846000D01*
X101812106Y-37846000D01*
X101743712Y-37817671D01*
X101743710Y-37817670D01*
X101743709Y-37817670D01*
X101671854Y-37808210D01*
X101600001Y-37798750D01*
X101599999Y-37798750D01*
X101456291Y-37817670D01*
X101456287Y-37817671D01*
X101322377Y-37873137D01*
X101207379Y-37961379D01*
X101119137Y-38076377D01*
X101063671Y-38210287D01*
X101063670Y-38210291D01*
X101044750Y-38353999D01*
X101044750Y-38354000D01*
X97010647Y-38354000D01*
X97000861Y-38330375D01*
X96912621Y-38215379D01*
X96797625Y-38127139D01*
X96797624Y-38127138D01*
X96797622Y-38127137D01*
X96663712Y-38071671D01*
X96663710Y-38071670D01*
X96663709Y-38071670D01*
X96591854Y-38062210D01*
X96520001Y-38052750D01*
X96519999Y-38052750D01*
X96376291Y-38071670D01*
X96376287Y-38071671D01*
X96242377Y-38127137D01*
X96127379Y-38215379D01*
X96039137Y-38330377D01*
X95983671Y-38464287D01*
X95983670Y-38464291D01*
X95964750Y-38607999D01*
X95964750Y-38608000D01*
X91465500Y-38608000D01*
X91465500Y-37460000D01*
X92239785Y-37460000D01*
X92258602Y-37663082D01*
X92314417Y-37859247D01*
X92314422Y-37859260D01*
X92405327Y-38041821D01*
X92528237Y-38204581D01*
X92678958Y-38341980D01*
X92678960Y-38341982D01*
X92698370Y-38354000D01*
X92852363Y-38449348D01*
X93042544Y-38523024D01*
X93243024Y-38560500D01*
X93243026Y-38560500D01*
X93446974Y-38560500D01*
X93446976Y-38560500D01*
X93647456Y-38523024D01*
X93837637Y-38449348D01*
X94011041Y-38341981D01*
X94161764Y-38204579D01*
X94284673Y-38041821D01*
X94375582Y-37859250D01*
X94431397Y-37663083D01*
X94450215Y-37460000D01*
X94449601Y-37453379D01*
X94431397Y-37256917D01*
X94431396Y-37256917D01*
X94375582Y-37060750D01*
X94355077Y-37019571D01*
X94314872Y-36938827D01*
X94284673Y-36878179D01*
X94173777Y-36731329D01*
X94161762Y-36715418D01*
X94011041Y-36578019D01*
X94011039Y-36578017D01*
X93837642Y-36470655D01*
X93837635Y-36470651D01*
X93742546Y-36433814D01*
X93647456Y-36396976D01*
X93446976Y-36359500D01*
X93243024Y-36359500D01*
X93042544Y-36396976D01*
X93042541Y-36396976D01*
X93042541Y-36396977D01*
X92852364Y-36470651D01*
X92852357Y-36470655D01*
X92678960Y-36578017D01*
X92678958Y-36578019D01*
X92528237Y-36715418D01*
X92405327Y-36878178D01*
X92314422Y-37060739D01*
X92314417Y-37060752D01*
X92258602Y-37256917D01*
X92239785Y-37459999D01*
X92239785Y-37460000D01*
X91465500Y-37460000D01*
X91465500Y-36195000D01*
X96091750Y-36195000D01*
X96110670Y-36338708D01*
X96110671Y-36338712D01*
X96166137Y-36472622D01*
X96166138Y-36472624D01*
X96166139Y-36472625D01*
X96254379Y-36587621D01*
X96369375Y-36675861D01*
X96503291Y-36731330D01*
X96630280Y-36748048D01*
X96646999Y-36750250D01*
X96647000Y-36750250D01*
X96647001Y-36750250D01*
X96661977Y-36748278D01*
X96790709Y-36731330D01*
X96924625Y-36675861D01*
X97039621Y-36587621D01*
X97127861Y-36472625D01*
X97183330Y-36338709D01*
X97202250Y-36195000D01*
X97183330Y-36051291D01*
X97127861Y-35917375D01*
X97039621Y-35802379D01*
X96924625Y-35714139D01*
X96924624Y-35714138D01*
X96924622Y-35714137D01*
X96790712Y-35658671D01*
X96790710Y-35658670D01*
X96790709Y-35658670D01*
X96718854Y-35649210D01*
X96647001Y-35639750D01*
X96646999Y-35639750D01*
X96503291Y-35658670D01*
X96503287Y-35658671D01*
X96369377Y-35714137D01*
X96254379Y-35802379D01*
X96166137Y-35917377D01*
X96110671Y-36051287D01*
X96110670Y-36051291D01*
X96091750Y-36194999D01*
X96091750Y-36195000D01*
X91465500Y-36195000D01*
X91465500Y-35794678D01*
X92244500Y-35794678D01*
X92259032Y-35867735D01*
X92259033Y-35867739D01*
X92259034Y-35867740D01*
X92314399Y-35950601D01*
X92397260Y-36005966D01*
X92397264Y-36005967D01*
X92470321Y-36020499D01*
X92470324Y-36020500D01*
X92470326Y-36020500D01*
X94219676Y-36020500D01*
X94219677Y-36020499D01*
X94292740Y-36005966D01*
X94375601Y-35950601D01*
X94430966Y-35867740D01*
X94445500Y-35794674D01*
X94445500Y-35560005D01*
X98189357Y-35560005D01*
X98209890Y-35807812D01*
X98209892Y-35807824D01*
X98270936Y-36048881D01*
X98370826Y-36276606D01*
X98506833Y-36484782D01*
X98506836Y-36484785D01*
X98675256Y-36667738D01*
X98871491Y-36820474D01*
X99090190Y-36938828D01*
X99325386Y-37019571D01*
X99570665Y-37060500D01*
X99819335Y-37060500D01*
X100064614Y-37019571D01*
X100299810Y-36938828D01*
X100518509Y-36820474D01*
X100714744Y-36667738D01*
X100883164Y-36484785D01*
X101019173Y-36276607D01*
X101119063Y-36048881D01*
X101180108Y-35807821D01*
X101181197Y-35794676D01*
X101200643Y-35560005D01*
X101200643Y-35559994D01*
X101180109Y-35312187D01*
X101180107Y-35312175D01*
X101119063Y-35071118D01*
X101019173Y-34843393D01*
X100883166Y-34635217D01*
X100814576Y-34560709D01*
X100714744Y-34452262D01*
X100669439Y-34417000D01*
X102441750Y-34417000D01*
X102460670Y-34560708D01*
X102460671Y-34560712D01*
X102516137Y-34694622D01*
X102516138Y-34694624D01*
X102516139Y-34694625D01*
X102604379Y-34809621D01*
X102719375Y-34897861D01*
X102853291Y-34953330D01*
X102980280Y-34970048D01*
X102996999Y-34972250D01*
X102997000Y-34972250D01*
X102997001Y-34972250D01*
X103011977Y-34970278D01*
X103140709Y-34953330D01*
X103274625Y-34897861D01*
X103389621Y-34809621D01*
X103477861Y-34694625D01*
X103533330Y-34560709D01*
X103552250Y-34417000D01*
X103535530Y-34290000D01*
X105997750Y-34290000D01*
X106016670Y-34433708D01*
X106016671Y-34433712D01*
X106072137Y-34567622D01*
X106072138Y-34567624D01*
X106072139Y-34567625D01*
X106160379Y-34682621D01*
X106275375Y-34770861D01*
X106409291Y-34826330D01*
X106536280Y-34843048D01*
X106552999Y-34845250D01*
X106553000Y-34845250D01*
X106553001Y-34845250D01*
X106567977Y-34843278D01*
X106696709Y-34826330D01*
X106830625Y-34770861D01*
X106945621Y-34682621D01*
X107033861Y-34567625D01*
X107089330Y-34433709D01*
X107108250Y-34290000D01*
X107089330Y-34146291D01*
X107047508Y-34045323D01*
X107033862Y-34012377D01*
X107033861Y-34012376D01*
X107033861Y-34012375D01*
X106945621Y-33897379D01*
X106830625Y-33809139D01*
X106830624Y-33809138D01*
X106830622Y-33809137D01*
X106696712Y-33753671D01*
X106696710Y-33753670D01*
X106696709Y-33753670D01*
X106624854Y-33744210D01*
X106553001Y-33734750D01*
X106552999Y-33734750D01*
X106409291Y-33753670D01*
X106409287Y-33753671D01*
X106275377Y-33809137D01*
X106160379Y-33897379D01*
X106072137Y-34012377D01*
X106016671Y-34146287D01*
X106016670Y-34146291D01*
X105997750Y-34289999D01*
X105997750Y-34290000D01*
X103535530Y-34290000D01*
X103533330Y-34273291D01*
X103477861Y-34139375D01*
X103389621Y-34024379D01*
X103274625Y-33936139D01*
X103274624Y-33936138D01*
X103274622Y-33936137D01*
X103140712Y-33880671D01*
X103140710Y-33880670D01*
X103140709Y-33880670D01*
X103068854Y-33871210D01*
X102997001Y-33861750D01*
X102996999Y-33861750D01*
X102853291Y-33880670D01*
X102853287Y-33880671D01*
X102719377Y-33936137D01*
X102604379Y-34024379D01*
X102516137Y-34139377D01*
X102460671Y-34273287D01*
X102460670Y-34273291D01*
X102441750Y-34416999D01*
X102441750Y-34417000D01*
X100669439Y-34417000D01*
X100518509Y-34299526D01*
X100518507Y-34299525D01*
X100518506Y-34299524D01*
X100299811Y-34181172D01*
X100299802Y-34181169D01*
X100064616Y-34100429D01*
X99819335Y-34059500D01*
X99570665Y-34059500D01*
X99325383Y-34100429D01*
X99090197Y-34181169D01*
X99090188Y-34181172D01*
X98871493Y-34299524D01*
X98675257Y-34452261D01*
X98506833Y-34635217D01*
X98370826Y-34843393D01*
X98270936Y-35071118D01*
X98209892Y-35312175D01*
X98209890Y-35312187D01*
X98189357Y-35559994D01*
X98189357Y-35560005D01*
X94445500Y-35560005D01*
X94445500Y-34045326D01*
X94445500Y-34045323D01*
X94445499Y-34045321D01*
X94430967Y-33972264D01*
X94430966Y-33972260D01*
X94406831Y-33936139D01*
X94375601Y-33889399D01*
X94292740Y-33834034D01*
X94292739Y-33834033D01*
X94292735Y-33834032D01*
X94219677Y-33819500D01*
X94219674Y-33819500D01*
X92470326Y-33819500D01*
X92470323Y-33819500D01*
X92397264Y-33834032D01*
X92397260Y-33834033D01*
X92314399Y-33889399D01*
X92259033Y-33972260D01*
X92259032Y-33972264D01*
X92244500Y-34045321D01*
X92244500Y-35794678D01*
X91465500Y-35794678D01*
X91465500Y-33169500D01*
X91485185Y-33102461D01*
X91537989Y-33056706D01*
X91589500Y-33045500D01*
X107800500Y-33045500D01*
X107867539Y-33065185D01*
G37*
%TD.AperFunction*%
M02*
