%TF.GenerationSoftware,KiCad,Pcbnew,8.0.4*%
%TF.CreationDate,2024-09-22T15:29:47+02:00*%
%TF.ProjectId,dc_64a,64635f36-3461-42e6-9b69-6361645f7063,rev?*%
%TF.SameCoordinates,Original*%
%TF.FileFunction,Legend,Bot*%
%TF.FilePolarity,Positive*%
%FSLAX46Y46*%
G04 Gerber Fmt 4.6, Leading zero omitted, Abs format (unit mm)*
G04 Created by KiCad (PCBNEW 8.0.4) date 2024-09-22 15:29:47*
%MOMM*%
%LPD*%
G01*
G04 APERTURE LIST*
%ADD10C,0.300000*%
G04 APERTURE END LIST*
D10*
X100622971Y-39511653D02*
X100694400Y-39440225D01*
X100694400Y-39440225D02*
X100765828Y-39225939D01*
X100765828Y-39225939D02*
X100765828Y-39083082D01*
X100765828Y-39083082D02*
X100694400Y-38868796D01*
X100694400Y-38868796D02*
X100551542Y-38725939D01*
X100551542Y-38725939D02*
X100408685Y-38654510D01*
X100408685Y-38654510D02*
X100122971Y-38583082D01*
X100122971Y-38583082D02*
X99908685Y-38583082D01*
X99908685Y-38583082D02*
X99622971Y-38654510D01*
X99622971Y-38654510D02*
X99480114Y-38725939D01*
X99480114Y-38725939D02*
X99337257Y-38868796D01*
X99337257Y-38868796D02*
X99265828Y-39083082D01*
X99265828Y-39083082D02*
X99265828Y-39225939D01*
X99265828Y-39225939D02*
X99337257Y-39440225D01*
X99337257Y-39440225D02*
X99408685Y-39511653D01*
X100765828Y-40940225D02*
X100765828Y-40083082D01*
X100765828Y-40511653D02*
X99265828Y-40511653D01*
X99265828Y-40511653D02*
X99480114Y-40368796D01*
X99480114Y-40368796D02*
X99622971Y-40225939D01*
X99622971Y-40225939D02*
X99694400Y-40083082D01*
X100765828Y-41654510D02*
X100765828Y-41940224D01*
X100765828Y-41940224D02*
X100694400Y-42083081D01*
X100694400Y-42083081D02*
X100622971Y-42154510D01*
X100622971Y-42154510D02*
X100408685Y-42297367D01*
X100408685Y-42297367D02*
X100122971Y-42368796D01*
X100122971Y-42368796D02*
X99551542Y-42368796D01*
X99551542Y-42368796D02*
X99408685Y-42297367D01*
X99408685Y-42297367D02*
X99337257Y-42225939D01*
X99337257Y-42225939D02*
X99265828Y-42083081D01*
X99265828Y-42083081D02*
X99265828Y-41797367D01*
X99265828Y-41797367D02*
X99337257Y-41654510D01*
X99337257Y-41654510D02*
X99408685Y-41583081D01*
X99408685Y-41583081D02*
X99551542Y-41511653D01*
X99551542Y-41511653D02*
X99908685Y-41511653D01*
X99908685Y-41511653D02*
X100051542Y-41583081D01*
X100051542Y-41583081D02*
X100122971Y-41654510D01*
X100122971Y-41654510D02*
X100194400Y-41797367D01*
X100194400Y-41797367D02*
X100194400Y-42083081D01*
X100194400Y-42083081D02*
X100122971Y-42225939D01*
X100122971Y-42225939D02*
X100051542Y-42297367D01*
X100051542Y-42297367D02*
X99908685Y-42368796D01*
X100194400Y-43011652D02*
X100194400Y-44154510D01*
X93052028Y-74788346D02*
X92980600Y-74859774D01*
X92980600Y-74859774D02*
X92909171Y-75074060D01*
X92909171Y-75074060D02*
X92909171Y-75216917D01*
X92909171Y-75216917D02*
X92980600Y-75431203D01*
X92980600Y-75431203D02*
X93123457Y-75574060D01*
X93123457Y-75574060D02*
X93266314Y-75645489D01*
X93266314Y-75645489D02*
X93552028Y-75716917D01*
X93552028Y-75716917D02*
X93766314Y-75716917D01*
X93766314Y-75716917D02*
X94052028Y-75645489D01*
X94052028Y-75645489D02*
X94194885Y-75574060D01*
X94194885Y-75574060D02*
X94337742Y-75431203D01*
X94337742Y-75431203D02*
X94409171Y-75216917D01*
X94409171Y-75216917D02*
X94409171Y-75074060D01*
X94409171Y-75074060D02*
X94337742Y-74859774D01*
X94337742Y-74859774D02*
X94266314Y-74788346D01*
X93766314Y-73931203D02*
X93837742Y-74074060D01*
X93837742Y-74074060D02*
X93909171Y-74145489D01*
X93909171Y-74145489D02*
X94052028Y-74216917D01*
X94052028Y-74216917D02*
X94123457Y-74216917D01*
X94123457Y-74216917D02*
X94266314Y-74145489D01*
X94266314Y-74145489D02*
X94337742Y-74074060D01*
X94337742Y-74074060D02*
X94409171Y-73931203D01*
X94409171Y-73931203D02*
X94409171Y-73645489D01*
X94409171Y-73645489D02*
X94337742Y-73502632D01*
X94337742Y-73502632D02*
X94266314Y-73431203D01*
X94266314Y-73431203D02*
X94123457Y-73359774D01*
X94123457Y-73359774D02*
X94052028Y-73359774D01*
X94052028Y-73359774D02*
X93909171Y-73431203D01*
X93909171Y-73431203D02*
X93837742Y-73502632D01*
X93837742Y-73502632D02*
X93766314Y-73645489D01*
X93766314Y-73645489D02*
X93766314Y-73931203D01*
X93766314Y-73931203D02*
X93694885Y-74074060D01*
X93694885Y-74074060D02*
X93623457Y-74145489D01*
X93623457Y-74145489D02*
X93480600Y-74216917D01*
X93480600Y-74216917D02*
X93194885Y-74216917D01*
X93194885Y-74216917D02*
X93052028Y-74145489D01*
X93052028Y-74145489D02*
X92980600Y-74074060D01*
X92980600Y-74074060D02*
X92909171Y-73931203D01*
X92909171Y-73931203D02*
X92909171Y-73645489D01*
X92909171Y-73645489D02*
X92980600Y-73502632D01*
X92980600Y-73502632D02*
X93052028Y-73431203D01*
X93052028Y-73431203D02*
X93194885Y-73359774D01*
X93194885Y-73359774D02*
X93480600Y-73359774D01*
X93480600Y-73359774D02*
X93623457Y-73431203D01*
X93623457Y-73431203D02*
X93694885Y-73502632D01*
X93694885Y-73502632D02*
X93766314Y-73645489D01*
X93766314Y-72502632D02*
X93837742Y-72645489D01*
X93837742Y-72645489D02*
X93909171Y-72716918D01*
X93909171Y-72716918D02*
X94052028Y-72788346D01*
X94052028Y-72788346D02*
X94123457Y-72788346D01*
X94123457Y-72788346D02*
X94266314Y-72716918D01*
X94266314Y-72716918D02*
X94337742Y-72645489D01*
X94337742Y-72645489D02*
X94409171Y-72502632D01*
X94409171Y-72502632D02*
X94409171Y-72216918D01*
X94409171Y-72216918D02*
X94337742Y-72074061D01*
X94337742Y-72074061D02*
X94266314Y-72002632D01*
X94266314Y-72002632D02*
X94123457Y-71931203D01*
X94123457Y-71931203D02*
X94052028Y-71931203D01*
X94052028Y-71931203D02*
X93909171Y-72002632D01*
X93909171Y-72002632D02*
X93837742Y-72074061D01*
X93837742Y-72074061D02*
X93766314Y-72216918D01*
X93766314Y-72216918D02*
X93766314Y-72502632D01*
X93766314Y-72502632D02*
X93694885Y-72645489D01*
X93694885Y-72645489D02*
X93623457Y-72716918D01*
X93623457Y-72716918D02*
X93480600Y-72788346D01*
X93480600Y-72788346D02*
X93194885Y-72788346D01*
X93194885Y-72788346D02*
X93052028Y-72716918D01*
X93052028Y-72716918D02*
X92980600Y-72645489D01*
X92980600Y-72645489D02*
X92909171Y-72502632D01*
X92909171Y-72502632D02*
X92909171Y-72216918D01*
X92909171Y-72216918D02*
X92980600Y-72074061D01*
X92980600Y-72074061D02*
X93052028Y-72002632D01*
X93052028Y-72002632D02*
X93194885Y-71931203D01*
X93194885Y-71931203D02*
X93480600Y-71931203D01*
X93480600Y-71931203D02*
X93623457Y-72002632D01*
X93623457Y-72002632D02*
X93694885Y-72074061D01*
X93694885Y-72074061D02*
X93766314Y-72216918D01*
X93480600Y-71288347D02*
X93480600Y-70145490D01*
X92909171Y-70716918D02*
X94052028Y-70716918D01*
X98624171Y-66120489D02*
X100124171Y-66120489D01*
X100124171Y-66120489D02*
X100124171Y-65763346D01*
X100124171Y-65763346D02*
X100052742Y-65549060D01*
X100052742Y-65549060D02*
X99909885Y-65406203D01*
X99909885Y-65406203D02*
X99767028Y-65334774D01*
X99767028Y-65334774D02*
X99481314Y-65263346D01*
X99481314Y-65263346D02*
X99267028Y-65263346D01*
X99267028Y-65263346D02*
X98981314Y-65334774D01*
X98981314Y-65334774D02*
X98838457Y-65406203D01*
X98838457Y-65406203D02*
X98695600Y-65549060D01*
X98695600Y-65549060D02*
X98624171Y-65763346D01*
X98624171Y-65763346D02*
X98624171Y-66120489D01*
X98767028Y-63763346D02*
X98695600Y-63834774D01*
X98695600Y-63834774D02*
X98624171Y-64049060D01*
X98624171Y-64049060D02*
X98624171Y-64191917D01*
X98624171Y-64191917D02*
X98695600Y-64406203D01*
X98695600Y-64406203D02*
X98838457Y-64549060D01*
X98838457Y-64549060D02*
X98981314Y-64620489D01*
X98981314Y-64620489D02*
X99267028Y-64691917D01*
X99267028Y-64691917D02*
X99481314Y-64691917D01*
X99481314Y-64691917D02*
X99767028Y-64620489D01*
X99767028Y-64620489D02*
X99909885Y-64549060D01*
X99909885Y-64549060D02*
X100052742Y-64406203D01*
X100052742Y-64406203D02*
X100124171Y-64191917D01*
X100124171Y-64191917D02*
X100124171Y-64049060D01*
X100124171Y-64049060D02*
X100052742Y-63834774D01*
X100052742Y-63834774D02*
X99981314Y-63763346D01*
X99195600Y-63120489D02*
X99195600Y-61977632D01*
X100124171Y-60620489D02*
X100124171Y-60906203D01*
X100124171Y-60906203D02*
X100052742Y-61049060D01*
X100052742Y-61049060D02*
X99981314Y-61120489D01*
X99981314Y-61120489D02*
X99767028Y-61263346D01*
X99767028Y-61263346D02*
X99481314Y-61334774D01*
X99481314Y-61334774D02*
X98909885Y-61334774D01*
X98909885Y-61334774D02*
X98767028Y-61263346D01*
X98767028Y-61263346D02*
X98695600Y-61191917D01*
X98695600Y-61191917D02*
X98624171Y-61049060D01*
X98624171Y-61049060D02*
X98624171Y-60763346D01*
X98624171Y-60763346D02*
X98695600Y-60620489D01*
X98695600Y-60620489D02*
X98767028Y-60549060D01*
X98767028Y-60549060D02*
X98909885Y-60477631D01*
X98909885Y-60477631D02*
X99267028Y-60477631D01*
X99267028Y-60477631D02*
X99409885Y-60549060D01*
X99409885Y-60549060D02*
X99481314Y-60620489D01*
X99481314Y-60620489D02*
X99552742Y-60763346D01*
X99552742Y-60763346D02*
X99552742Y-61049060D01*
X99552742Y-61049060D02*
X99481314Y-61191917D01*
X99481314Y-61191917D02*
X99409885Y-61263346D01*
X99409885Y-61263346D02*
X99267028Y-61334774D01*
X99624171Y-59191918D02*
X98624171Y-59191918D01*
X100195600Y-59549060D02*
X99124171Y-59906203D01*
X99124171Y-59906203D02*
X99124171Y-58977632D01*
X98624171Y-57763347D02*
X99409885Y-57763347D01*
X99409885Y-57763347D02*
X99552742Y-57834775D01*
X99552742Y-57834775D02*
X99624171Y-57977632D01*
X99624171Y-57977632D02*
X99624171Y-58263347D01*
X99624171Y-58263347D02*
X99552742Y-58406204D01*
X98695600Y-57763347D02*
X98624171Y-57906204D01*
X98624171Y-57906204D02*
X98624171Y-58263347D01*
X98624171Y-58263347D02*
X98695600Y-58406204D01*
X98695600Y-58406204D02*
X98838457Y-58477632D01*
X98838457Y-58477632D02*
X98981314Y-58477632D01*
X98981314Y-58477632D02*
X99124171Y-58406204D01*
X99124171Y-58406204D02*
X99195600Y-58263347D01*
X99195600Y-58263347D02*
X99195600Y-57906204D01*
X99195600Y-57906204D02*
X99267028Y-57763347D01*
X99624171Y-56049061D02*
X98624171Y-55691918D01*
X98624171Y-55691918D02*
X99624171Y-55334775D01*
X100124171Y-54477632D02*
X100124171Y-54334775D01*
X100124171Y-54334775D02*
X100052742Y-54191918D01*
X100052742Y-54191918D02*
X99981314Y-54120490D01*
X99981314Y-54120490D02*
X99838457Y-54049061D01*
X99838457Y-54049061D02*
X99552742Y-53977632D01*
X99552742Y-53977632D02*
X99195600Y-53977632D01*
X99195600Y-53977632D02*
X98909885Y-54049061D01*
X98909885Y-54049061D02*
X98767028Y-54120490D01*
X98767028Y-54120490D02*
X98695600Y-54191918D01*
X98695600Y-54191918D02*
X98624171Y-54334775D01*
X98624171Y-54334775D02*
X98624171Y-54477632D01*
X98624171Y-54477632D02*
X98695600Y-54620490D01*
X98695600Y-54620490D02*
X98767028Y-54691918D01*
X98767028Y-54691918D02*
X98909885Y-54763347D01*
X98909885Y-54763347D02*
X99195600Y-54834775D01*
X99195600Y-54834775D02*
X99552742Y-54834775D01*
X99552742Y-54834775D02*
X99838457Y-54763347D01*
X99838457Y-54763347D02*
X99981314Y-54691918D01*
X99981314Y-54691918D02*
X100052742Y-54620490D01*
X100052742Y-54620490D02*
X100124171Y-54477632D01*
X98767028Y-53334776D02*
X98695600Y-53263347D01*
X98695600Y-53263347D02*
X98624171Y-53334776D01*
X98624171Y-53334776D02*
X98695600Y-53406204D01*
X98695600Y-53406204D02*
X98767028Y-53334776D01*
X98767028Y-53334776D02*
X98624171Y-53334776D01*
X99981314Y-52691918D02*
X100052742Y-52620490D01*
X100052742Y-52620490D02*
X100124171Y-52477633D01*
X100124171Y-52477633D02*
X100124171Y-52120490D01*
X100124171Y-52120490D02*
X100052742Y-51977633D01*
X100052742Y-51977633D02*
X99981314Y-51906204D01*
X99981314Y-51906204D02*
X99838457Y-51834775D01*
X99838457Y-51834775D02*
X99695600Y-51834775D01*
X99695600Y-51834775D02*
X99481314Y-51906204D01*
X99481314Y-51906204D02*
X98624171Y-52763347D01*
X98624171Y-52763347D02*
X98624171Y-51834775D01*
X98767028Y-79868346D02*
X98695600Y-79939774D01*
X98695600Y-79939774D02*
X98624171Y-80154060D01*
X98624171Y-80154060D02*
X98624171Y-80296917D01*
X98624171Y-80296917D02*
X98695600Y-80511203D01*
X98695600Y-80511203D02*
X98838457Y-80654060D01*
X98838457Y-80654060D02*
X98981314Y-80725489D01*
X98981314Y-80725489D02*
X99267028Y-80796917D01*
X99267028Y-80796917D02*
X99481314Y-80796917D01*
X99481314Y-80796917D02*
X99767028Y-80725489D01*
X99767028Y-80725489D02*
X99909885Y-80654060D01*
X99909885Y-80654060D02*
X100052742Y-80511203D01*
X100052742Y-80511203D02*
X100124171Y-80296917D01*
X100124171Y-80296917D02*
X100124171Y-80154060D01*
X100124171Y-80154060D02*
X100052742Y-79939774D01*
X100052742Y-79939774D02*
X99981314Y-79868346D01*
X98624171Y-78439774D02*
X98624171Y-79296917D01*
X98624171Y-78868346D02*
X100124171Y-78868346D01*
X100124171Y-78868346D02*
X99909885Y-79011203D01*
X99909885Y-79011203D02*
X99767028Y-79154060D01*
X99767028Y-79154060D02*
X99695600Y-79296917D01*
X98624171Y-77725489D02*
X98624171Y-77439775D01*
X98624171Y-77439775D02*
X98695600Y-77296918D01*
X98695600Y-77296918D02*
X98767028Y-77225489D01*
X98767028Y-77225489D02*
X98981314Y-77082632D01*
X98981314Y-77082632D02*
X99267028Y-77011203D01*
X99267028Y-77011203D02*
X99838457Y-77011203D01*
X99838457Y-77011203D02*
X99981314Y-77082632D01*
X99981314Y-77082632D02*
X100052742Y-77154061D01*
X100052742Y-77154061D02*
X100124171Y-77296918D01*
X100124171Y-77296918D02*
X100124171Y-77582632D01*
X100124171Y-77582632D02*
X100052742Y-77725489D01*
X100052742Y-77725489D02*
X99981314Y-77796918D01*
X99981314Y-77796918D02*
X99838457Y-77868346D01*
X99838457Y-77868346D02*
X99481314Y-77868346D01*
X99481314Y-77868346D02*
X99338457Y-77796918D01*
X99338457Y-77796918D02*
X99267028Y-77725489D01*
X99267028Y-77725489D02*
X99195600Y-77582632D01*
X99195600Y-77582632D02*
X99195600Y-77296918D01*
X99195600Y-77296918D02*
X99267028Y-77154061D01*
X99267028Y-77154061D02*
X99338457Y-77082632D01*
X99338457Y-77082632D02*
X99481314Y-77011203D01*
X99195600Y-76368347D02*
X99195600Y-75225490D01*
X98624171Y-75796918D02*
X99767028Y-75796918D01*
X104482028Y-79868346D02*
X104410600Y-79939774D01*
X104410600Y-79939774D02*
X104339171Y-80154060D01*
X104339171Y-80154060D02*
X104339171Y-80296917D01*
X104339171Y-80296917D02*
X104410600Y-80511203D01*
X104410600Y-80511203D02*
X104553457Y-80654060D01*
X104553457Y-80654060D02*
X104696314Y-80725489D01*
X104696314Y-80725489D02*
X104982028Y-80796917D01*
X104982028Y-80796917D02*
X105196314Y-80796917D01*
X105196314Y-80796917D02*
X105482028Y-80725489D01*
X105482028Y-80725489D02*
X105624885Y-80654060D01*
X105624885Y-80654060D02*
X105767742Y-80511203D01*
X105767742Y-80511203D02*
X105839171Y-80296917D01*
X105839171Y-80296917D02*
X105839171Y-80154060D01*
X105839171Y-80154060D02*
X105767742Y-79939774D01*
X105767742Y-79939774D02*
X105696314Y-79868346D01*
X104339171Y-79154060D02*
X104339171Y-78868346D01*
X104339171Y-78868346D02*
X104410600Y-78725489D01*
X104410600Y-78725489D02*
X104482028Y-78654060D01*
X104482028Y-78654060D02*
X104696314Y-78511203D01*
X104696314Y-78511203D02*
X104982028Y-78439774D01*
X104982028Y-78439774D02*
X105553457Y-78439774D01*
X105553457Y-78439774D02*
X105696314Y-78511203D01*
X105696314Y-78511203D02*
X105767742Y-78582632D01*
X105767742Y-78582632D02*
X105839171Y-78725489D01*
X105839171Y-78725489D02*
X105839171Y-79011203D01*
X105839171Y-79011203D02*
X105767742Y-79154060D01*
X105767742Y-79154060D02*
X105696314Y-79225489D01*
X105696314Y-79225489D02*
X105553457Y-79296917D01*
X105553457Y-79296917D02*
X105196314Y-79296917D01*
X105196314Y-79296917D02*
X105053457Y-79225489D01*
X105053457Y-79225489D02*
X104982028Y-79154060D01*
X104982028Y-79154060D02*
X104910600Y-79011203D01*
X104910600Y-79011203D02*
X104910600Y-78725489D01*
X104910600Y-78725489D02*
X104982028Y-78582632D01*
X104982028Y-78582632D02*
X105053457Y-78511203D01*
X105053457Y-78511203D02*
X105196314Y-78439774D01*
X104339171Y-77011203D02*
X104339171Y-77868346D01*
X104339171Y-77439775D02*
X105839171Y-77439775D01*
X105839171Y-77439775D02*
X105624885Y-77582632D01*
X105624885Y-77582632D02*
X105482028Y-77725489D01*
X105482028Y-77725489D02*
X105410600Y-77868346D01*
X104910600Y-76368347D02*
X104910600Y-75225490D01*
X104339171Y-75796918D02*
X105482028Y-75796918D01*
M02*
