M48
; DRILL file {KiCad 7.0.6} date Fri Nov 17 13:49:44 2023
; FORMAT={-:-/ absolute / inch / decimal}
; #@! TF.CreationDate,2023-11-17T13:49:44+01:00
; #@! TF.GenerationSoftware,Kicad,Pcbnew,7.0.6
; #@! TF.FileFunction,Plated,1,4,PTH
FMAT,2
INCH
; #@! TA.AperFunction,Plated,PTH,ViaDrill
T1C0.0118
; #@! TA.AperFunction,Plated,PTH,ComponentDrill
T2C0.0394
; #@! TA.AperFunction,Plated,PTH,ComponentDrill
T3C0.0472
; #@! TA.AperFunction,Plated,PTH,ComponentDrill
T4C0.0591
%
G90
G05
T1
X3.6283Y-1.765
X3.63Y-2.0
X3.6683Y-1.59
X3.675Y-1.93
X3.69Y-2.07
X3.705Y-1.875
X3.72Y-2.07
X3.75Y-2.07
X3.765Y-2.385
X3.765Y-2.415
X3.765Y-2.445
X3.765Y-2.475
X3.765Y-2.505
X3.765Y-2.535
X3.765Y-2.565
X3.765Y-2.99
X3.77Y-1.95
X3.78Y-2.07
X3.795Y-2.385
X3.795Y-2.415
X3.795Y-2.445
X3.795Y-2.475
X3.795Y-2.505
X3.795Y-2.535
X3.795Y-2.565
X3.8Y-1.52
X3.805Y-1.425
X3.81Y-2.07
X3.815Y-2.635
X3.815Y-2.695
X3.815Y-2.755
X3.815Y-2.815
X3.815Y-2.935
X3.815Y-3.105
X3.815Y-3.165
X3.82Y-1.605
X3.82Y-2.13
X3.83Y-2.85
X3.835Y-1.855
X3.84Y-2.07
X3.865Y-2.13
X3.87Y-2.07
X3.87Y-2.625
X3.89Y-1.68
X3.895Y-1.855
X3.955Y-2.086
X3.985Y-2.086
X3.99Y-2.191
X4.0Y-1.51
X4.015Y-1.87
X4.015Y-2.086
X4.034Y-2.42
X4.034Y-2.45
X4.034Y-2.48
X4.04Y-2.68
X4.045Y-2.985
X4.045Y-3.015
X4.045Y-3.045
X4.045Y-3.075
X4.05Y-3.175
X4.05Y-3.365
X4.055Y-1.355
X4.055Y-2.735
X4.055Y-2.765
X4.055Y-2.795
X4.06Y-1.906
X4.07Y-1.64
X4.1Y-2.68
X4.115Y-1.825
X4.145Y-1.916
X4.149Y-2.41
X4.159Y-2.665
X4.18Y-1.49
X4.185Y-1.961
X4.195Y-1.35
X4.1983Y-1.625
X4.205Y-1.84
X4.21Y-2.171
X4.21Y-2.201
X4.21Y-2.231
X4.21Y-2.261
X4.21Y-2.291
X4.21Y-2.321
X4.215Y-2.585
X4.215Y-2.81
X4.215Y-2.935
X4.215Y-3.145
X4.22Y-2.046
T2
X3.675Y-1.3748
X3.675Y-1.4748
T3
X3.925Y-1.4
X3.925Y-3.3
T4
X3.7Y-3.1
X4.15Y-3.3
T0
M30
