%TF.GenerationSoftware,KiCad,Pcbnew,7.0.6*%
%TF.CreationDate,2023-12-10T23:04:23+01:00*%
%TF.ProjectId,dc_64a,64635f36-3461-42e6-9b69-6361645f7063,rev?*%
%TF.SameCoordinates,Original*%
%TF.FileFunction,Legend,Top*%
%TF.FilePolarity,Positive*%
%FSLAX46Y46*%
G04 Gerber Fmt 4.6, Leading zero omitted, Abs format (unit mm)*
G04 Created by KiCad (PCBNEW 7.0.6) date 2023-12-10 23:04:23*
%MOMM*%
%LPD*%
G01*
G04 APERTURE LIST*
%ADD10C,0.120000*%
%ADD11C,0.150000*%
%ADD12C,0.127000*%
G04 APERTURE END LIST*
D10*
X98806000Y-67691000D02*
X100203000Y-67310000D01*
D11*
X106648533Y-81316316D02*
X106648533Y-81649649D01*
X106648533Y-81649649D02*
X106981866Y-81682982D01*
X106981866Y-81682982D02*
X106948533Y-81649649D01*
X106948533Y-81649649D02*
X106915200Y-81582982D01*
X106915200Y-81582982D02*
X106915200Y-81416316D01*
X106915200Y-81416316D02*
X106948533Y-81349649D01*
X106948533Y-81349649D02*
X106981866Y-81316316D01*
X106981866Y-81316316D02*
X107048533Y-81282982D01*
X107048533Y-81282982D02*
X107215200Y-81282982D01*
X107215200Y-81282982D02*
X107281866Y-81316316D01*
X107281866Y-81316316D02*
X107315200Y-81349649D01*
X107315200Y-81349649D02*
X107348533Y-81416316D01*
X107348533Y-81416316D02*
X107348533Y-81582982D01*
X107348533Y-81582982D02*
X107315200Y-81649649D01*
X107315200Y-81649649D02*
X107281866Y-81682982D01*
X106881866Y-81049649D02*
X107348533Y-80882982D01*
X107348533Y-80882982D02*
X106881866Y-80716315D01*
X92199017Y-76487533D02*
X91799017Y-76487533D01*
X91999017Y-76487533D02*
X91999017Y-75787533D01*
X91999017Y-75787533D02*
X91932350Y-75887533D01*
X91932350Y-75887533D02*
X91865684Y-75954200D01*
X91865684Y-75954200D02*
X91799017Y-75987533D01*
X92832351Y-75787533D02*
X92499017Y-75787533D01*
X92499017Y-75787533D02*
X92465684Y-76120866D01*
X92465684Y-76120866D02*
X92499017Y-76087533D01*
X92499017Y-76087533D02*
X92565684Y-76054200D01*
X92565684Y-76054200D02*
X92732351Y-76054200D01*
X92732351Y-76054200D02*
X92799017Y-76087533D01*
X92799017Y-76087533D02*
X92832351Y-76120866D01*
X92832351Y-76120866D02*
X92865684Y-76187533D01*
X92865684Y-76187533D02*
X92865684Y-76354200D01*
X92865684Y-76354200D02*
X92832351Y-76420866D01*
X92832351Y-76420866D02*
X92799017Y-76454200D01*
X92799017Y-76454200D02*
X92732351Y-76487533D01*
X92732351Y-76487533D02*
X92565684Y-76487533D01*
X92565684Y-76487533D02*
X92499017Y-76454200D01*
X92499017Y-76454200D02*
X92465684Y-76420866D01*
X93099018Y-76020866D02*
X93265684Y-76487533D01*
X93265684Y-76487533D02*
X93432351Y-76020866D01*
X96898017Y-33402866D02*
X96831350Y-33369533D01*
X96831350Y-33369533D02*
X96731350Y-33369533D01*
X96731350Y-33369533D02*
X96631350Y-33402866D01*
X96631350Y-33402866D02*
X96564684Y-33469533D01*
X96564684Y-33469533D02*
X96531350Y-33536200D01*
X96531350Y-33536200D02*
X96498017Y-33669533D01*
X96498017Y-33669533D02*
X96498017Y-33769533D01*
X96498017Y-33769533D02*
X96531350Y-33902866D01*
X96531350Y-33902866D02*
X96564684Y-33969533D01*
X96564684Y-33969533D02*
X96631350Y-34036200D01*
X96631350Y-34036200D02*
X96731350Y-34069533D01*
X96731350Y-34069533D02*
X96798017Y-34069533D01*
X96798017Y-34069533D02*
X96898017Y-34036200D01*
X96898017Y-34036200D02*
X96931350Y-34002866D01*
X96931350Y-34002866D02*
X96931350Y-33769533D01*
X96931350Y-33769533D02*
X96798017Y-33769533D01*
X97231350Y-34069533D02*
X97231350Y-33369533D01*
X97231350Y-33369533D02*
X97631350Y-34069533D01*
X97631350Y-34069533D02*
X97631350Y-33369533D01*
X97964683Y-34069533D02*
X97964683Y-33369533D01*
X97964683Y-33369533D02*
X98131350Y-33369533D01*
X98131350Y-33369533D02*
X98231350Y-33402866D01*
X98231350Y-33402866D02*
X98298017Y-33469533D01*
X98298017Y-33469533D02*
X98331350Y-33536200D01*
X98331350Y-33536200D02*
X98364683Y-33669533D01*
X98364683Y-33669533D02*
X98364683Y-33769533D01*
X98364683Y-33769533D02*
X98331350Y-33902866D01*
X98331350Y-33902866D02*
X98298017Y-33969533D01*
X98298017Y-33969533D02*
X98231350Y-34036200D01*
X98231350Y-34036200D02*
X98131350Y-34069533D01*
X98131350Y-34069533D02*
X97964683Y-34069533D01*
X101470017Y-85885533D02*
X101070017Y-85885533D01*
X101270017Y-85885533D02*
X101270017Y-85185533D01*
X101270017Y-85185533D02*
X101203350Y-85285533D01*
X101203350Y-85285533D02*
X101136684Y-85352200D01*
X101136684Y-85352200D02*
X101070017Y-85385533D01*
X101736684Y-85252200D02*
X101770017Y-85218866D01*
X101770017Y-85218866D02*
X101836684Y-85185533D01*
X101836684Y-85185533D02*
X102003351Y-85185533D01*
X102003351Y-85185533D02*
X102070017Y-85218866D01*
X102070017Y-85218866D02*
X102103351Y-85252200D01*
X102103351Y-85252200D02*
X102136684Y-85318866D01*
X102136684Y-85318866D02*
X102136684Y-85385533D01*
X102136684Y-85385533D02*
X102103351Y-85485533D01*
X102103351Y-85485533D02*
X101703351Y-85885533D01*
X101703351Y-85885533D02*
X102136684Y-85885533D01*
X102370018Y-85418866D02*
X102536684Y-85885533D01*
X102536684Y-85885533D02*
X102703351Y-85418866D01*
X99324333Y-66924366D02*
X99291000Y-66957700D01*
X99291000Y-66957700D02*
X99191000Y-66991033D01*
X99191000Y-66991033D02*
X99124333Y-66991033D01*
X99124333Y-66991033D02*
X99024333Y-66957700D01*
X99024333Y-66957700D02*
X98957667Y-66891033D01*
X98957667Y-66891033D02*
X98924333Y-66824366D01*
X98924333Y-66824366D02*
X98891000Y-66691033D01*
X98891000Y-66691033D02*
X98891000Y-66591033D01*
X98891000Y-66591033D02*
X98924333Y-66457700D01*
X98924333Y-66457700D02*
X98957667Y-66391033D01*
X98957667Y-66391033D02*
X99024333Y-66324366D01*
X99024333Y-66324366D02*
X99124333Y-66291033D01*
X99124333Y-66291033D02*
X99191000Y-66291033D01*
X99191000Y-66291033D02*
X99291000Y-66324366D01*
X99291000Y-66324366D02*
X99324333Y-66357700D01*
X99991000Y-66991033D02*
X99591000Y-66991033D01*
X99791000Y-66991033D02*
X99791000Y-66291033D01*
X99791000Y-66291033D02*
X99724333Y-66391033D01*
X99724333Y-66391033D02*
X99657667Y-66457700D01*
X99657667Y-66457700D02*
X99591000Y-66491033D01*
X97847999Y-46798033D02*
X97614666Y-46464700D01*
X97447999Y-46798033D02*
X97447999Y-46098033D01*
X97447999Y-46098033D02*
X97714666Y-46098033D01*
X97714666Y-46098033D02*
X97781333Y-46131366D01*
X97781333Y-46131366D02*
X97814666Y-46164700D01*
X97814666Y-46164700D02*
X97847999Y-46231366D01*
X97847999Y-46231366D02*
X97847999Y-46331366D01*
X97847999Y-46331366D02*
X97814666Y-46398033D01*
X97814666Y-46398033D02*
X97781333Y-46431366D01*
X97781333Y-46431366D02*
X97714666Y-46464700D01*
X97714666Y-46464700D02*
X97447999Y-46464700D01*
X98514666Y-46798033D02*
X98114666Y-46798033D01*
X98314666Y-46798033D02*
X98314666Y-46098033D01*
X98314666Y-46098033D02*
X98247999Y-46198033D01*
X98247999Y-46198033D02*
X98181333Y-46264700D01*
X98181333Y-46264700D02*
X98114666Y-46298033D01*
X99181333Y-46798033D02*
X98781333Y-46798033D01*
X98981333Y-46798033D02*
X98981333Y-46098033D01*
X98981333Y-46098033D02*
X98914666Y-46198033D01*
X98914666Y-46198033D02*
X98848000Y-46264700D01*
X98848000Y-46264700D02*
X98781333Y-46298033D01*
X92974333Y-67178366D02*
X92941000Y-67211700D01*
X92941000Y-67211700D02*
X92841000Y-67245033D01*
X92841000Y-67245033D02*
X92774333Y-67245033D01*
X92774333Y-67245033D02*
X92674333Y-67211700D01*
X92674333Y-67211700D02*
X92607667Y-67145033D01*
X92607667Y-67145033D02*
X92574333Y-67078366D01*
X92574333Y-67078366D02*
X92541000Y-66945033D01*
X92541000Y-66945033D02*
X92541000Y-66845033D01*
X92541000Y-66845033D02*
X92574333Y-66711700D01*
X92574333Y-66711700D02*
X92607667Y-66645033D01*
X92607667Y-66645033D02*
X92674333Y-66578366D01*
X92674333Y-66578366D02*
X92774333Y-66545033D01*
X92774333Y-66545033D02*
X92841000Y-66545033D01*
X92841000Y-66545033D02*
X92941000Y-66578366D01*
X92941000Y-66578366D02*
X92974333Y-66611700D01*
X93207667Y-66545033D02*
X93674333Y-66545033D01*
X93674333Y-66545033D02*
X93374333Y-67245033D01*
X103574666Y-60195033D02*
X103574666Y-60761700D01*
X103574666Y-60761700D02*
X103608000Y-60828366D01*
X103608000Y-60828366D02*
X103641333Y-60861700D01*
X103641333Y-60861700D02*
X103708000Y-60895033D01*
X103708000Y-60895033D02*
X103841333Y-60895033D01*
X103841333Y-60895033D02*
X103908000Y-60861700D01*
X103908000Y-60861700D02*
X103941333Y-60828366D01*
X103941333Y-60828366D02*
X103974666Y-60761700D01*
X103974666Y-60761700D02*
X103974666Y-60195033D01*
X104607999Y-60428366D02*
X104607999Y-60895033D01*
X104441333Y-60161700D02*
X104274666Y-60661700D01*
X104274666Y-60661700D02*
X104707999Y-60661700D01*
X107250033Y-65601000D02*
X106916700Y-65834333D01*
X107250033Y-66001000D02*
X106550033Y-66001000D01*
X106550033Y-66001000D02*
X106550033Y-65734333D01*
X106550033Y-65734333D02*
X106583366Y-65667667D01*
X106583366Y-65667667D02*
X106616700Y-65634333D01*
X106616700Y-65634333D02*
X106683366Y-65601000D01*
X106683366Y-65601000D02*
X106783366Y-65601000D01*
X106783366Y-65601000D02*
X106850033Y-65634333D01*
X106850033Y-65634333D02*
X106883366Y-65667667D01*
X106883366Y-65667667D02*
X106916700Y-65734333D01*
X106916700Y-65734333D02*
X106916700Y-66001000D01*
X107250033Y-65267667D02*
X107250033Y-65134333D01*
X107250033Y-65134333D02*
X107216700Y-65067667D01*
X107216700Y-65067667D02*
X107183366Y-65034333D01*
X107183366Y-65034333D02*
X107083366Y-64967667D01*
X107083366Y-64967667D02*
X106950033Y-64934333D01*
X106950033Y-64934333D02*
X106683366Y-64934333D01*
X106683366Y-64934333D02*
X106616700Y-64967667D01*
X106616700Y-64967667D02*
X106583366Y-65001000D01*
X106583366Y-65001000D02*
X106550033Y-65067667D01*
X106550033Y-65067667D02*
X106550033Y-65201000D01*
X106550033Y-65201000D02*
X106583366Y-65267667D01*
X106583366Y-65267667D02*
X106616700Y-65301000D01*
X106616700Y-65301000D02*
X106683366Y-65334333D01*
X106683366Y-65334333D02*
X106850033Y-65334333D01*
X106850033Y-65334333D02*
X106916700Y-65301000D01*
X106916700Y-65301000D02*
X106950033Y-65267667D01*
X106950033Y-65267667D02*
X106983366Y-65201000D01*
X106983366Y-65201000D02*
X106983366Y-65067667D01*
X106983366Y-65067667D02*
X106950033Y-65001000D01*
X106950033Y-65001000D02*
X106916700Y-64967667D01*
X106916700Y-64967667D02*
X106850033Y-64934333D01*
X106550033Y-64301000D02*
X106550033Y-64634333D01*
X106550033Y-64634333D02*
X106883366Y-64667666D01*
X106883366Y-64667666D02*
X106850033Y-64634333D01*
X106850033Y-64634333D02*
X106816700Y-64567666D01*
X106816700Y-64567666D02*
X106816700Y-64401000D01*
X106816700Y-64401000D02*
X106850033Y-64334333D01*
X106850033Y-64334333D02*
X106883366Y-64301000D01*
X106883366Y-64301000D02*
X106950033Y-64267666D01*
X106950033Y-64267666D02*
X107116700Y-64267666D01*
X107116700Y-64267666D02*
X107183366Y-64301000D01*
X107183366Y-64301000D02*
X107216700Y-64334333D01*
X107216700Y-64334333D02*
X107250033Y-64401000D01*
X107250033Y-64401000D02*
X107250033Y-64567666D01*
X107250033Y-64567666D02*
X107216700Y-64634333D01*
X107216700Y-64634333D02*
X107183366Y-64667666D01*
X107310366Y-57546166D02*
X107343700Y-57579499D01*
X107343700Y-57579499D02*
X107377033Y-57679499D01*
X107377033Y-57679499D02*
X107377033Y-57746166D01*
X107377033Y-57746166D02*
X107343700Y-57846166D01*
X107343700Y-57846166D02*
X107277033Y-57912833D01*
X107277033Y-57912833D02*
X107210366Y-57946166D01*
X107210366Y-57946166D02*
X107077033Y-57979499D01*
X107077033Y-57979499D02*
X106977033Y-57979499D01*
X106977033Y-57979499D02*
X106843700Y-57946166D01*
X106843700Y-57946166D02*
X106777033Y-57912833D01*
X106777033Y-57912833D02*
X106710366Y-57846166D01*
X106710366Y-57846166D02*
X106677033Y-57746166D01*
X106677033Y-57746166D02*
X106677033Y-57679499D01*
X106677033Y-57679499D02*
X106710366Y-57579499D01*
X106710366Y-57579499D02*
X106743700Y-57546166D01*
X106743700Y-57279499D02*
X106710366Y-57246166D01*
X106710366Y-57246166D02*
X106677033Y-57179499D01*
X106677033Y-57179499D02*
X106677033Y-57012833D01*
X106677033Y-57012833D02*
X106710366Y-56946166D01*
X106710366Y-56946166D02*
X106743700Y-56912833D01*
X106743700Y-56912833D02*
X106810366Y-56879499D01*
X106810366Y-56879499D02*
X106877033Y-56879499D01*
X106877033Y-56879499D02*
X106977033Y-56912833D01*
X106977033Y-56912833D02*
X107377033Y-57312833D01*
X107377033Y-57312833D02*
X107377033Y-56879499D01*
X101102333Y-47433033D02*
X100869000Y-47099700D01*
X100702333Y-47433033D02*
X100702333Y-46733033D01*
X100702333Y-46733033D02*
X100969000Y-46733033D01*
X100969000Y-46733033D02*
X101035667Y-46766366D01*
X101035667Y-46766366D02*
X101069000Y-46799700D01*
X101069000Y-46799700D02*
X101102333Y-46866366D01*
X101102333Y-46866366D02*
X101102333Y-46966366D01*
X101102333Y-46966366D02*
X101069000Y-47033033D01*
X101069000Y-47033033D02*
X101035667Y-47066366D01*
X101035667Y-47066366D02*
X100969000Y-47099700D01*
X100969000Y-47099700D02*
X100702333Y-47099700D01*
X101369000Y-46799700D02*
X101402333Y-46766366D01*
X101402333Y-46766366D02*
X101469000Y-46733033D01*
X101469000Y-46733033D02*
X101635667Y-46733033D01*
X101635667Y-46733033D02*
X101702333Y-46766366D01*
X101702333Y-46766366D02*
X101735667Y-46799700D01*
X101735667Y-46799700D02*
X101769000Y-46866366D01*
X101769000Y-46866366D02*
X101769000Y-46933033D01*
X101769000Y-46933033D02*
X101735667Y-47033033D01*
X101735667Y-47033033D02*
X101335667Y-47433033D01*
X101335667Y-47433033D02*
X101769000Y-47433033D01*
X92259999Y-70226366D02*
X92226666Y-70259700D01*
X92226666Y-70259700D02*
X92126666Y-70293033D01*
X92126666Y-70293033D02*
X92059999Y-70293033D01*
X92059999Y-70293033D02*
X91959999Y-70259700D01*
X91959999Y-70259700D02*
X91893333Y-70193033D01*
X91893333Y-70193033D02*
X91859999Y-70126366D01*
X91859999Y-70126366D02*
X91826666Y-69993033D01*
X91826666Y-69993033D02*
X91826666Y-69893033D01*
X91826666Y-69893033D02*
X91859999Y-69759700D01*
X91859999Y-69759700D02*
X91893333Y-69693033D01*
X91893333Y-69693033D02*
X91959999Y-69626366D01*
X91959999Y-69626366D02*
X92059999Y-69593033D01*
X92059999Y-69593033D02*
X92126666Y-69593033D01*
X92126666Y-69593033D02*
X92226666Y-69626366D01*
X92226666Y-69626366D02*
X92259999Y-69659700D01*
X92926666Y-70293033D02*
X92526666Y-70293033D01*
X92726666Y-70293033D02*
X92726666Y-69593033D01*
X92726666Y-69593033D02*
X92659999Y-69693033D01*
X92659999Y-69693033D02*
X92593333Y-69759700D01*
X92593333Y-69759700D02*
X92526666Y-69793033D01*
X93160000Y-69593033D02*
X93626666Y-69593033D01*
X93626666Y-69593033D02*
X93326666Y-70293033D01*
X107176866Y-74745000D02*
X107210200Y-74778333D01*
X107210200Y-74778333D02*
X107243533Y-74878333D01*
X107243533Y-74878333D02*
X107243533Y-74945000D01*
X107243533Y-74945000D02*
X107210200Y-75045000D01*
X107210200Y-75045000D02*
X107143533Y-75111667D01*
X107143533Y-75111667D02*
X107076866Y-75145000D01*
X107076866Y-75145000D02*
X106943533Y-75178333D01*
X106943533Y-75178333D02*
X106843533Y-75178333D01*
X106843533Y-75178333D02*
X106710200Y-75145000D01*
X106710200Y-75145000D02*
X106643533Y-75111667D01*
X106643533Y-75111667D02*
X106576866Y-75045000D01*
X106576866Y-75045000D02*
X106543533Y-74945000D01*
X106543533Y-74945000D02*
X106543533Y-74878333D01*
X106543533Y-74878333D02*
X106576866Y-74778333D01*
X106576866Y-74778333D02*
X106610200Y-74745000D01*
X107243533Y-74078333D02*
X107243533Y-74478333D01*
X107243533Y-74278333D02*
X106543533Y-74278333D01*
X106543533Y-74278333D02*
X106643533Y-74345000D01*
X106643533Y-74345000D02*
X106710200Y-74411667D01*
X106710200Y-74411667D02*
X106743533Y-74478333D01*
X106543533Y-73645000D02*
X106543533Y-73578333D01*
X106543533Y-73578333D02*
X106576866Y-73511666D01*
X106576866Y-73511666D02*
X106610200Y-73478333D01*
X106610200Y-73478333D02*
X106676866Y-73445000D01*
X106676866Y-73445000D02*
X106810200Y-73411666D01*
X106810200Y-73411666D02*
X106976866Y-73411666D01*
X106976866Y-73411666D02*
X107110200Y-73445000D01*
X107110200Y-73445000D02*
X107176866Y-73478333D01*
X107176866Y-73478333D02*
X107210200Y-73511666D01*
X107210200Y-73511666D02*
X107243533Y-73578333D01*
X107243533Y-73578333D02*
X107243533Y-73645000D01*
X107243533Y-73645000D02*
X107210200Y-73711666D01*
X107210200Y-73711666D02*
X107176866Y-73745000D01*
X107176866Y-73745000D02*
X107110200Y-73778333D01*
X107110200Y-73778333D02*
X106976866Y-73811666D01*
X106976866Y-73811666D02*
X106810200Y-73811666D01*
X106810200Y-73811666D02*
X106676866Y-73778333D01*
X106676866Y-73778333D02*
X106610200Y-73745000D01*
X106610200Y-73745000D02*
X106576866Y-73711666D01*
X106576866Y-73711666D02*
X106543533Y-73645000D01*
X103642333Y-48830033D02*
X103409000Y-48496700D01*
X103242333Y-48830033D02*
X103242333Y-48130033D01*
X103242333Y-48130033D02*
X103509000Y-48130033D01*
X103509000Y-48130033D02*
X103575667Y-48163366D01*
X103575667Y-48163366D02*
X103609000Y-48196700D01*
X103609000Y-48196700D02*
X103642333Y-48263366D01*
X103642333Y-48263366D02*
X103642333Y-48363366D01*
X103642333Y-48363366D02*
X103609000Y-48430033D01*
X103609000Y-48430033D02*
X103575667Y-48463366D01*
X103575667Y-48463366D02*
X103509000Y-48496700D01*
X103509000Y-48496700D02*
X103242333Y-48496700D01*
X103875667Y-48130033D02*
X104309000Y-48130033D01*
X104309000Y-48130033D02*
X104075667Y-48396700D01*
X104075667Y-48396700D02*
X104175667Y-48396700D01*
X104175667Y-48396700D02*
X104242333Y-48430033D01*
X104242333Y-48430033D02*
X104275667Y-48463366D01*
X104275667Y-48463366D02*
X104309000Y-48530033D01*
X104309000Y-48530033D02*
X104309000Y-48696700D01*
X104309000Y-48696700D02*
X104275667Y-48763366D01*
X104275667Y-48763366D02*
X104242333Y-48796700D01*
X104242333Y-48796700D02*
X104175667Y-48830033D01*
X104175667Y-48830033D02*
X103975667Y-48830033D01*
X103975667Y-48830033D02*
X103909000Y-48796700D01*
X103909000Y-48796700D02*
X103875667Y-48763366D01*
X106996033Y-54345666D02*
X106662700Y-54578999D01*
X106996033Y-54745666D02*
X106296033Y-54745666D01*
X106296033Y-54745666D02*
X106296033Y-54478999D01*
X106296033Y-54478999D02*
X106329366Y-54412333D01*
X106329366Y-54412333D02*
X106362700Y-54378999D01*
X106362700Y-54378999D02*
X106429366Y-54345666D01*
X106429366Y-54345666D02*
X106529366Y-54345666D01*
X106529366Y-54345666D02*
X106596033Y-54378999D01*
X106596033Y-54378999D02*
X106629366Y-54412333D01*
X106629366Y-54412333D02*
X106662700Y-54478999D01*
X106662700Y-54478999D02*
X106662700Y-54745666D01*
X106529366Y-53745666D02*
X106996033Y-53745666D01*
X106262700Y-53912333D02*
X106762700Y-54078999D01*
X106762700Y-54078999D02*
X106762700Y-53645666D01*
X97292333Y-66991033D02*
X96958999Y-66991033D01*
X96958999Y-66991033D02*
X96958999Y-66291033D01*
X97892333Y-66991033D02*
X97492333Y-66991033D01*
X97692333Y-66991033D02*
X97692333Y-66291033D01*
X97692333Y-66291033D02*
X97625666Y-66391033D01*
X97625666Y-66391033D02*
X97559000Y-66457700D01*
X97559000Y-66457700D02*
X97492333Y-66491033D01*
X95372366Y-49218000D02*
X95405700Y-49251333D01*
X95405700Y-49251333D02*
X95439033Y-49351333D01*
X95439033Y-49351333D02*
X95439033Y-49418000D01*
X95439033Y-49418000D02*
X95405700Y-49518000D01*
X95405700Y-49518000D02*
X95339033Y-49584667D01*
X95339033Y-49584667D02*
X95272366Y-49618000D01*
X95272366Y-49618000D02*
X95139033Y-49651333D01*
X95139033Y-49651333D02*
X95039033Y-49651333D01*
X95039033Y-49651333D02*
X94905700Y-49618000D01*
X94905700Y-49618000D02*
X94839033Y-49584667D01*
X94839033Y-49584667D02*
X94772366Y-49518000D01*
X94772366Y-49518000D02*
X94739033Y-49418000D01*
X94739033Y-49418000D02*
X94739033Y-49351333D01*
X94739033Y-49351333D02*
X94772366Y-49251333D01*
X94772366Y-49251333D02*
X94805700Y-49218000D01*
X95439033Y-48551333D02*
X95439033Y-48951333D01*
X95439033Y-48751333D02*
X94739033Y-48751333D01*
X94739033Y-48751333D02*
X94839033Y-48818000D01*
X94839033Y-48818000D02*
X94905700Y-48884667D01*
X94905700Y-48884667D02*
X94939033Y-48951333D01*
X94805700Y-48284666D02*
X94772366Y-48251333D01*
X94772366Y-48251333D02*
X94739033Y-48184666D01*
X94739033Y-48184666D02*
X94739033Y-48018000D01*
X94739033Y-48018000D02*
X94772366Y-47951333D01*
X94772366Y-47951333D02*
X94805700Y-47918000D01*
X94805700Y-47918000D02*
X94872366Y-47884666D01*
X94872366Y-47884666D02*
X94939033Y-47884666D01*
X94939033Y-47884666D02*
X95039033Y-47918000D01*
X95039033Y-47918000D02*
X95439033Y-48318000D01*
X95439033Y-48318000D02*
X95439033Y-47884666D01*
X96069999Y-39873366D02*
X96036666Y-39906700D01*
X96036666Y-39906700D02*
X95936666Y-39940033D01*
X95936666Y-39940033D02*
X95869999Y-39940033D01*
X95869999Y-39940033D02*
X95769999Y-39906700D01*
X95769999Y-39906700D02*
X95703333Y-39840033D01*
X95703333Y-39840033D02*
X95669999Y-39773366D01*
X95669999Y-39773366D02*
X95636666Y-39640033D01*
X95636666Y-39640033D02*
X95636666Y-39540033D01*
X95636666Y-39540033D02*
X95669999Y-39406700D01*
X95669999Y-39406700D02*
X95703333Y-39340033D01*
X95703333Y-39340033D02*
X95769999Y-39273366D01*
X95769999Y-39273366D02*
X95869999Y-39240033D01*
X95869999Y-39240033D02*
X95936666Y-39240033D01*
X95936666Y-39240033D02*
X96036666Y-39273366D01*
X96036666Y-39273366D02*
X96069999Y-39306700D01*
X96736666Y-39940033D02*
X96336666Y-39940033D01*
X96536666Y-39940033D02*
X96536666Y-39240033D01*
X96536666Y-39240033D02*
X96469999Y-39340033D01*
X96469999Y-39340033D02*
X96403333Y-39406700D01*
X96403333Y-39406700D02*
X96336666Y-39440033D01*
X97370000Y-39240033D02*
X97036666Y-39240033D01*
X97036666Y-39240033D02*
X97003333Y-39573366D01*
X97003333Y-39573366D02*
X97036666Y-39540033D01*
X97036666Y-39540033D02*
X97103333Y-39506700D01*
X97103333Y-39506700D02*
X97270000Y-39506700D01*
X97270000Y-39506700D02*
X97336666Y-39540033D01*
X97336666Y-39540033D02*
X97370000Y-39573366D01*
X97370000Y-39573366D02*
X97403333Y-39640033D01*
X97403333Y-39640033D02*
X97403333Y-39806700D01*
X97403333Y-39806700D02*
X97370000Y-39873366D01*
X97370000Y-39873366D02*
X97336666Y-39906700D01*
X97336666Y-39906700D02*
X97270000Y-39940033D01*
X97270000Y-39940033D02*
X97103333Y-39940033D01*
X97103333Y-39940033D02*
X97036666Y-39906700D01*
X97036666Y-39906700D02*
X97003333Y-39873366D01*
X107310366Y-55895166D02*
X107343700Y-55928499D01*
X107343700Y-55928499D02*
X107377033Y-56028499D01*
X107377033Y-56028499D02*
X107377033Y-56095166D01*
X107377033Y-56095166D02*
X107343700Y-56195166D01*
X107343700Y-56195166D02*
X107277033Y-56261833D01*
X107277033Y-56261833D02*
X107210366Y-56295166D01*
X107210366Y-56295166D02*
X107077033Y-56328499D01*
X107077033Y-56328499D02*
X106977033Y-56328499D01*
X106977033Y-56328499D02*
X106843700Y-56295166D01*
X106843700Y-56295166D02*
X106777033Y-56261833D01*
X106777033Y-56261833D02*
X106710366Y-56195166D01*
X106710366Y-56195166D02*
X106677033Y-56095166D01*
X106677033Y-56095166D02*
X106677033Y-56028499D01*
X106677033Y-56028499D02*
X106710366Y-55928499D01*
X106710366Y-55928499D02*
X106743700Y-55895166D01*
X106910366Y-55295166D02*
X107377033Y-55295166D01*
X106643700Y-55461833D02*
X107143700Y-55628499D01*
X107143700Y-55628499D02*
X107143700Y-55195166D01*
X93523666Y-46352033D02*
X93523666Y-46852033D01*
X93523666Y-46852033D02*
X93490333Y-46952033D01*
X93490333Y-46952033D02*
X93423666Y-47018700D01*
X93423666Y-47018700D02*
X93323666Y-47052033D01*
X93323666Y-47052033D02*
X93257000Y-47052033D01*
X93856999Y-47052033D02*
X93856999Y-46352033D01*
X93856999Y-46352033D02*
X94123666Y-46352033D01*
X94123666Y-46352033D02*
X94190333Y-46385366D01*
X94190333Y-46385366D02*
X94223666Y-46418700D01*
X94223666Y-46418700D02*
X94256999Y-46485366D01*
X94256999Y-46485366D02*
X94256999Y-46585366D01*
X94256999Y-46585366D02*
X94223666Y-46652033D01*
X94223666Y-46652033D02*
X94190333Y-46685366D01*
X94190333Y-46685366D02*
X94123666Y-46718700D01*
X94123666Y-46718700D02*
X93856999Y-46718700D01*
X94923666Y-47052033D02*
X94523666Y-47052033D01*
X94723666Y-47052033D02*
X94723666Y-46352033D01*
X94723666Y-46352033D02*
X94656999Y-46452033D01*
X94656999Y-46452033D02*
X94590333Y-46518700D01*
X94590333Y-46518700D02*
X94523666Y-46552033D01*
X100702333Y-57999533D02*
X100702333Y-57299533D01*
X100702333Y-57299533D02*
X100869000Y-57299533D01*
X100869000Y-57299533D02*
X100969000Y-57332866D01*
X100969000Y-57332866D02*
X101035667Y-57399533D01*
X101035667Y-57399533D02*
X101069000Y-57466200D01*
X101069000Y-57466200D02*
X101102333Y-57599533D01*
X101102333Y-57599533D02*
X101102333Y-57699533D01*
X101102333Y-57699533D02*
X101069000Y-57832866D01*
X101069000Y-57832866D02*
X101035667Y-57899533D01*
X101035667Y-57899533D02*
X100969000Y-57966200D01*
X100969000Y-57966200D02*
X100869000Y-57999533D01*
X100869000Y-57999533D02*
X100702333Y-57999533D01*
X101702333Y-57299533D02*
X101569000Y-57299533D01*
X101569000Y-57299533D02*
X101502333Y-57332866D01*
X101502333Y-57332866D02*
X101469000Y-57366200D01*
X101469000Y-57366200D02*
X101402333Y-57466200D01*
X101402333Y-57466200D02*
X101369000Y-57599533D01*
X101369000Y-57599533D02*
X101369000Y-57866200D01*
X101369000Y-57866200D02*
X101402333Y-57932866D01*
X101402333Y-57932866D02*
X101435667Y-57966200D01*
X101435667Y-57966200D02*
X101502333Y-57999533D01*
X101502333Y-57999533D02*
X101635667Y-57999533D01*
X101635667Y-57999533D02*
X101702333Y-57966200D01*
X101702333Y-57966200D02*
X101735667Y-57932866D01*
X101735667Y-57932866D02*
X101769000Y-57866200D01*
X101769000Y-57866200D02*
X101769000Y-57699533D01*
X101769000Y-57699533D02*
X101735667Y-57632866D01*
X101735667Y-57632866D02*
X101702333Y-57599533D01*
X101702333Y-57599533D02*
X101635667Y-57566200D01*
X101635667Y-57566200D02*
X101502333Y-57566200D01*
X101502333Y-57566200D02*
X101435667Y-57599533D01*
X101435667Y-57599533D02*
X101402333Y-57632866D01*
X101402333Y-57632866D02*
X101369000Y-57699533D01*
X107250033Y-67172666D02*
X106916700Y-67405999D01*
X107250033Y-67572666D02*
X106550033Y-67572666D01*
X106550033Y-67572666D02*
X106550033Y-67305999D01*
X106550033Y-67305999D02*
X106583366Y-67239333D01*
X106583366Y-67239333D02*
X106616700Y-67205999D01*
X106616700Y-67205999D02*
X106683366Y-67172666D01*
X106683366Y-67172666D02*
X106783366Y-67172666D01*
X106783366Y-67172666D02*
X106850033Y-67205999D01*
X106850033Y-67205999D02*
X106883366Y-67239333D01*
X106883366Y-67239333D02*
X106916700Y-67305999D01*
X106916700Y-67305999D02*
X106916700Y-67572666D01*
X107250033Y-66505999D02*
X107250033Y-66905999D01*
X107250033Y-66705999D02*
X106550033Y-66705999D01*
X106550033Y-66705999D02*
X106650033Y-66772666D01*
X106650033Y-66772666D02*
X106716700Y-66839333D01*
X106716700Y-66839333D02*
X106750033Y-66905999D01*
X95768333Y-58126533D02*
X95434999Y-58126533D01*
X95434999Y-58126533D02*
X95434999Y-57426533D01*
X95935000Y-57426533D02*
X96368333Y-57426533D01*
X96368333Y-57426533D02*
X96135000Y-57693200D01*
X96135000Y-57693200D02*
X96235000Y-57693200D01*
X96235000Y-57693200D02*
X96301666Y-57726533D01*
X96301666Y-57726533D02*
X96335000Y-57759866D01*
X96335000Y-57759866D02*
X96368333Y-57826533D01*
X96368333Y-57826533D02*
X96368333Y-57993200D01*
X96368333Y-57993200D02*
X96335000Y-58059866D01*
X96335000Y-58059866D02*
X96301666Y-58093200D01*
X96301666Y-58093200D02*
X96235000Y-58126533D01*
X96235000Y-58126533D02*
X96035000Y-58126533D01*
X96035000Y-58126533D02*
X95968333Y-58093200D01*
X95968333Y-58093200D02*
X95935000Y-58059866D01*
X106996033Y-53221666D02*
X106296033Y-53221666D01*
X106296033Y-53221666D02*
X106296033Y-53054999D01*
X106296033Y-53054999D02*
X106329366Y-52954999D01*
X106329366Y-52954999D02*
X106396033Y-52888333D01*
X106396033Y-52888333D02*
X106462700Y-52854999D01*
X106462700Y-52854999D02*
X106596033Y-52821666D01*
X106596033Y-52821666D02*
X106696033Y-52821666D01*
X106696033Y-52821666D02*
X106829366Y-52854999D01*
X106829366Y-52854999D02*
X106896033Y-52888333D01*
X106896033Y-52888333D02*
X106962700Y-52954999D01*
X106962700Y-52954999D02*
X106996033Y-53054999D01*
X106996033Y-53054999D02*
X106996033Y-53221666D01*
X106296033Y-52588333D02*
X106296033Y-52154999D01*
X106296033Y-52154999D02*
X106562700Y-52388333D01*
X106562700Y-52388333D02*
X106562700Y-52288333D01*
X106562700Y-52288333D02*
X106596033Y-52221666D01*
X106596033Y-52221666D02*
X106629366Y-52188333D01*
X106629366Y-52188333D02*
X106696033Y-52154999D01*
X106696033Y-52154999D02*
X106862700Y-52154999D01*
X106862700Y-52154999D02*
X106929366Y-52188333D01*
X106929366Y-52188333D02*
X106962700Y-52221666D01*
X106962700Y-52221666D02*
X106996033Y-52288333D01*
X106996033Y-52288333D02*
X106996033Y-52488333D01*
X106996033Y-52488333D02*
X106962700Y-52554999D01*
X106962700Y-52554999D02*
X106929366Y-52588333D01*
X98547366Y-69157000D02*
X98580700Y-69190333D01*
X98580700Y-69190333D02*
X98614033Y-69290333D01*
X98614033Y-69290333D02*
X98614033Y-69357000D01*
X98614033Y-69357000D02*
X98580700Y-69457000D01*
X98580700Y-69457000D02*
X98514033Y-69523667D01*
X98514033Y-69523667D02*
X98447366Y-69557000D01*
X98447366Y-69557000D02*
X98314033Y-69590333D01*
X98314033Y-69590333D02*
X98214033Y-69590333D01*
X98214033Y-69590333D02*
X98080700Y-69557000D01*
X98080700Y-69557000D02*
X98014033Y-69523667D01*
X98014033Y-69523667D02*
X97947366Y-69457000D01*
X97947366Y-69457000D02*
X97914033Y-69357000D01*
X97914033Y-69357000D02*
X97914033Y-69290333D01*
X97914033Y-69290333D02*
X97947366Y-69190333D01*
X97947366Y-69190333D02*
X97980700Y-69157000D01*
X98614033Y-68490333D02*
X98614033Y-68890333D01*
X98614033Y-68690333D02*
X97914033Y-68690333D01*
X97914033Y-68690333D02*
X98014033Y-68757000D01*
X98014033Y-68757000D02*
X98080700Y-68823667D01*
X98080700Y-68823667D02*
X98114033Y-68890333D01*
X98147366Y-67890333D02*
X98614033Y-67890333D01*
X97880700Y-68057000D02*
X98380700Y-68223666D01*
X98380700Y-68223666D02*
X98380700Y-67790333D01*
X107310366Y-59070166D02*
X107343700Y-59103499D01*
X107343700Y-59103499D02*
X107377033Y-59203499D01*
X107377033Y-59203499D02*
X107377033Y-59270166D01*
X107377033Y-59270166D02*
X107343700Y-59370166D01*
X107343700Y-59370166D02*
X107277033Y-59436833D01*
X107277033Y-59436833D02*
X107210366Y-59470166D01*
X107210366Y-59470166D02*
X107077033Y-59503499D01*
X107077033Y-59503499D02*
X106977033Y-59503499D01*
X106977033Y-59503499D02*
X106843700Y-59470166D01*
X106843700Y-59470166D02*
X106777033Y-59436833D01*
X106777033Y-59436833D02*
X106710366Y-59370166D01*
X106710366Y-59370166D02*
X106677033Y-59270166D01*
X106677033Y-59270166D02*
X106677033Y-59203499D01*
X106677033Y-59203499D02*
X106710366Y-59103499D01*
X106710366Y-59103499D02*
X106743700Y-59070166D01*
X106977033Y-58670166D02*
X106943700Y-58736833D01*
X106943700Y-58736833D02*
X106910366Y-58770166D01*
X106910366Y-58770166D02*
X106843700Y-58803499D01*
X106843700Y-58803499D02*
X106810366Y-58803499D01*
X106810366Y-58803499D02*
X106743700Y-58770166D01*
X106743700Y-58770166D02*
X106710366Y-58736833D01*
X106710366Y-58736833D02*
X106677033Y-58670166D01*
X106677033Y-58670166D02*
X106677033Y-58536833D01*
X106677033Y-58536833D02*
X106710366Y-58470166D01*
X106710366Y-58470166D02*
X106743700Y-58436833D01*
X106743700Y-58436833D02*
X106810366Y-58403499D01*
X106810366Y-58403499D02*
X106843700Y-58403499D01*
X106843700Y-58403499D02*
X106910366Y-58436833D01*
X106910366Y-58436833D02*
X106943700Y-58470166D01*
X106943700Y-58470166D02*
X106977033Y-58536833D01*
X106977033Y-58536833D02*
X106977033Y-58670166D01*
X106977033Y-58670166D02*
X107010366Y-58736833D01*
X107010366Y-58736833D02*
X107043700Y-58770166D01*
X107043700Y-58770166D02*
X107110366Y-58803499D01*
X107110366Y-58803499D02*
X107243700Y-58803499D01*
X107243700Y-58803499D02*
X107310366Y-58770166D01*
X107310366Y-58770166D02*
X107343700Y-58736833D01*
X107343700Y-58736833D02*
X107377033Y-58670166D01*
X107377033Y-58670166D02*
X107377033Y-58536833D01*
X107377033Y-58536833D02*
X107343700Y-58470166D01*
X107343700Y-58470166D02*
X107310366Y-58436833D01*
X107310366Y-58436833D02*
X107243700Y-58403499D01*
X107243700Y-58403499D02*
X107110366Y-58403499D01*
X107110366Y-58403499D02*
X107043700Y-58436833D01*
X107043700Y-58436833D02*
X107010366Y-58470166D01*
X107010366Y-58470166D02*
X106977033Y-58536833D01*
X92447333Y-73341033D02*
X92447333Y-72641033D01*
X92447333Y-72641033D02*
X92614000Y-72641033D01*
X92614000Y-72641033D02*
X92714000Y-72674366D01*
X92714000Y-72674366D02*
X92780667Y-72741033D01*
X92780667Y-72741033D02*
X92814000Y-72807700D01*
X92814000Y-72807700D02*
X92847333Y-72941033D01*
X92847333Y-72941033D02*
X92847333Y-73041033D01*
X92847333Y-73041033D02*
X92814000Y-73174366D01*
X92814000Y-73174366D02*
X92780667Y-73241033D01*
X92780667Y-73241033D02*
X92714000Y-73307700D01*
X92714000Y-73307700D02*
X92614000Y-73341033D01*
X92614000Y-73341033D02*
X92447333Y-73341033D01*
X93514000Y-73341033D02*
X93114000Y-73341033D01*
X93314000Y-73341033D02*
X93314000Y-72641033D01*
X93314000Y-72641033D02*
X93247333Y-72741033D01*
X93247333Y-72741033D02*
X93180667Y-72807700D01*
X93180667Y-72807700D02*
X93114000Y-72841033D01*
X95374033Y-36047333D02*
X95874033Y-36047333D01*
X95874033Y-36047333D02*
X95974033Y-36080666D01*
X95974033Y-36080666D02*
X96040700Y-36147333D01*
X96040700Y-36147333D02*
X96074033Y-36247333D01*
X96074033Y-36247333D02*
X96074033Y-36314000D01*
X96074033Y-35347333D02*
X96074033Y-35747333D01*
X96074033Y-35547333D02*
X95374033Y-35547333D01*
X95374033Y-35547333D02*
X95474033Y-35614000D01*
X95474033Y-35614000D02*
X95540700Y-35680667D01*
X95540700Y-35680667D02*
X95574033Y-35747333D01*
X107250033Y-70747666D02*
X106550033Y-70747666D01*
X106550033Y-70747666D02*
X106550033Y-70580999D01*
X106550033Y-70580999D02*
X106583366Y-70480999D01*
X106583366Y-70480999D02*
X106650033Y-70414333D01*
X106650033Y-70414333D02*
X106716700Y-70380999D01*
X106716700Y-70380999D02*
X106850033Y-70347666D01*
X106850033Y-70347666D02*
X106950033Y-70347666D01*
X106950033Y-70347666D02*
X107083366Y-70380999D01*
X107083366Y-70380999D02*
X107150033Y-70414333D01*
X107150033Y-70414333D02*
X107216700Y-70480999D01*
X107216700Y-70480999D02*
X107250033Y-70580999D01*
X107250033Y-70580999D02*
X107250033Y-70747666D01*
X106616700Y-70080999D02*
X106583366Y-70047666D01*
X106583366Y-70047666D02*
X106550033Y-69980999D01*
X106550033Y-69980999D02*
X106550033Y-69814333D01*
X106550033Y-69814333D02*
X106583366Y-69747666D01*
X106583366Y-69747666D02*
X106616700Y-69714333D01*
X106616700Y-69714333D02*
X106683366Y-69680999D01*
X106683366Y-69680999D02*
X106750033Y-69680999D01*
X106750033Y-69680999D02*
X106850033Y-69714333D01*
X106850033Y-69714333D02*
X107250033Y-70114333D01*
X107250033Y-70114333D02*
X107250033Y-69680999D01*
X101679833Y-59304366D02*
X101646500Y-59337700D01*
X101646500Y-59337700D02*
X101546500Y-59371033D01*
X101546500Y-59371033D02*
X101479833Y-59371033D01*
X101479833Y-59371033D02*
X101379833Y-59337700D01*
X101379833Y-59337700D02*
X101313167Y-59271033D01*
X101313167Y-59271033D02*
X101279833Y-59204366D01*
X101279833Y-59204366D02*
X101246500Y-59071033D01*
X101246500Y-59071033D02*
X101246500Y-58971033D01*
X101246500Y-58971033D02*
X101279833Y-58837700D01*
X101279833Y-58837700D02*
X101313167Y-58771033D01*
X101313167Y-58771033D02*
X101379833Y-58704366D01*
X101379833Y-58704366D02*
X101479833Y-58671033D01*
X101479833Y-58671033D02*
X101546500Y-58671033D01*
X101546500Y-58671033D02*
X101646500Y-58704366D01*
X101646500Y-58704366D02*
X101679833Y-58737700D01*
X102313167Y-58671033D02*
X101979833Y-58671033D01*
X101979833Y-58671033D02*
X101946500Y-59004366D01*
X101946500Y-59004366D02*
X101979833Y-58971033D01*
X101979833Y-58971033D02*
X102046500Y-58937700D01*
X102046500Y-58937700D02*
X102213167Y-58937700D01*
X102213167Y-58937700D02*
X102279833Y-58971033D01*
X102279833Y-58971033D02*
X102313167Y-59004366D01*
X102313167Y-59004366D02*
X102346500Y-59071033D01*
X102346500Y-59071033D02*
X102346500Y-59237700D01*
X102346500Y-59237700D02*
X102313167Y-59304366D01*
X102313167Y-59304366D02*
X102279833Y-59337700D01*
X102279833Y-59337700D02*
X102213167Y-59371033D01*
X102213167Y-59371033D02*
X102046500Y-59371033D01*
X102046500Y-59371033D02*
X101979833Y-59337700D01*
X101979833Y-59337700D02*
X101946500Y-59304366D01*
X106929366Y-63235666D02*
X106962700Y-63268999D01*
X106962700Y-63268999D02*
X106996033Y-63368999D01*
X106996033Y-63368999D02*
X106996033Y-63435666D01*
X106996033Y-63435666D02*
X106962700Y-63535666D01*
X106962700Y-63535666D02*
X106896033Y-63602333D01*
X106896033Y-63602333D02*
X106829366Y-63635666D01*
X106829366Y-63635666D02*
X106696033Y-63668999D01*
X106696033Y-63668999D02*
X106596033Y-63668999D01*
X106596033Y-63668999D02*
X106462700Y-63635666D01*
X106462700Y-63635666D02*
X106396033Y-63602333D01*
X106396033Y-63602333D02*
X106329366Y-63535666D01*
X106329366Y-63535666D02*
X106296033Y-63435666D01*
X106296033Y-63435666D02*
X106296033Y-63368999D01*
X106296033Y-63368999D02*
X106329366Y-63268999D01*
X106329366Y-63268999D02*
X106362700Y-63235666D01*
X106296033Y-63002333D02*
X106296033Y-62568999D01*
X106296033Y-62568999D02*
X106562700Y-62802333D01*
X106562700Y-62802333D02*
X106562700Y-62702333D01*
X106562700Y-62702333D02*
X106596033Y-62635666D01*
X106596033Y-62635666D02*
X106629366Y-62602333D01*
X106629366Y-62602333D02*
X106696033Y-62568999D01*
X106696033Y-62568999D02*
X106862700Y-62568999D01*
X106862700Y-62568999D02*
X106929366Y-62602333D01*
X106929366Y-62602333D02*
X106962700Y-62635666D01*
X106962700Y-62635666D02*
X106996033Y-62702333D01*
X106996033Y-62702333D02*
X106996033Y-62902333D01*
X106996033Y-62902333D02*
X106962700Y-62968999D01*
X106962700Y-62968999D02*
X106929366Y-63002333D01*
X92974333Y-68702366D02*
X92941000Y-68735700D01*
X92941000Y-68735700D02*
X92841000Y-68769033D01*
X92841000Y-68769033D02*
X92774333Y-68769033D01*
X92774333Y-68769033D02*
X92674333Y-68735700D01*
X92674333Y-68735700D02*
X92607667Y-68669033D01*
X92607667Y-68669033D02*
X92574333Y-68602366D01*
X92574333Y-68602366D02*
X92541000Y-68469033D01*
X92541000Y-68469033D02*
X92541000Y-68369033D01*
X92541000Y-68369033D02*
X92574333Y-68235700D01*
X92574333Y-68235700D02*
X92607667Y-68169033D01*
X92607667Y-68169033D02*
X92674333Y-68102366D01*
X92674333Y-68102366D02*
X92774333Y-68069033D01*
X92774333Y-68069033D02*
X92841000Y-68069033D01*
X92841000Y-68069033D02*
X92941000Y-68102366D01*
X92941000Y-68102366D02*
X92974333Y-68135700D01*
X93307667Y-68769033D02*
X93441000Y-68769033D01*
X93441000Y-68769033D02*
X93507667Y-68735700D01*
X93507667Y-68735700D02*
X93541000Y-68702366D01*
X93541000Y-68702366D02*
X93607667Y-68602366D01*
X93607667Y-68602366D02*
X93641000Y-68469033D01*
X93641000Y-68469033D02*
X93641000Y-68202366D01*
X93641000Y-68202366D02*
X93607667Y-68135700D01*
X93607667Y-68135700D02*
X93574333Y-68102366D01*
X93574333Y-68102366D02*
X93507667Y-68069033D01*
X93507667Y-68069033D02*
X93374333Y-68069033D01*
X93374333Y-68069033D02*
X93307667Y-68102366D01*
X93307667Y-68102366D02*
X93274333Y-68135700D01*
X93274333Y-68135700D02*
X93241000Y-68202366D01*
X93241000Y-68202366D02*
X93241000Y-68369033D01*
X93241000Y-68369033D02*
X93274333Y-68435700D01*
X93274333Y-68435700D02*
X93307667Y-68469033D01*
X93307667Y-68469033D02*
X93374333Y-68502366D01*
X93374333Y-68502366D02*
X93507667Y-68502366D01*
X93507667Y-68502366D02*
X93574333Y-68469033D01*
X93574333Y-68469033D02*
X93607667Y-68435700D01*
X93607667Y-68435700D02*
X93641000Y-68369033D01*
X103388333Y-46925033D02*
X103155000Y-46591700D01*
X102988333Y-46925033D02*
X102988333Y-46225033D01*
X102988333Y-46225033D02*
X103255000Y-46225033D01*
X103255000Y-46225033D02*
X103321667Y-46258366D01*
X103321667Y-46258366D02*
X103355000Y-46291700D01*
X103355000Y-46291700D02*
X103388333Y-46358366D01*
X103388333Y-46358366D02*
X103388333Y-46458366D01*
X103388333Y-46458366D02*
X103355000Y-46525033D01*
X103355000Y-46525033D02*
X103321667Y-46558366D01*
X103321667Y-46558366D02*
X103255000Y-46591700D01*
X103255000Y-46591700D02*
X102988333Y-46591700D01*
X103721667Y-46925033D02*
X103855000Y-46925033D01*
X103855000Y-46925033D02*
X103921667Y-46891700D01*
X103921667Y-46891700D02*
X103955000Y-46858366D01*
X103955000Y-46858366D02*
X104021667Y-46758366D01*
X104021667Y-46758366D02*
X104055000Y-46625033D01*
X104055000Y-46625033D02*
X104055000Y-46358366D01*
X104055000Y-46358366D02*
X104021667Y-46291700D01*
X104021667Y-46291700D02*
X103988333Y-46258366D01*
X103988333Y-46258366D02*
X103921667Y-46225033D01*
X103921667Y-46225033D02*
X103788333Y-46225033D01*
X103788333Y-46225033D02*
X103721667Y-46258366D01*
X103721667Y-46258366D02*
X103688333Y-46291700D01*
X103688333Y-46291700D02*
X103655000Y-46358366D01*
X103655000Y-46358366D02*
X103655000Y-46525033D01*
X103655000Y-46525033D02*
X103688333Y-46591700D01*
X103688333Y-46591700D02*
X103721667Y-46625033D01*
X103721667Y-46625033D02*
X103788333Y-46658366D01*
X103788333Y-46658366D02*
X103921667Y-46658366D01*
X103921667Y-46658366D02*
X103988333Y-46625033D01*
X103988333Y-46625033D02*
X104021667Y-46591700D01*
X104021667Y-46591700D02*
X104055000Y-46525033D01*
X92259999Y-71750366D02*
X92226666Y-71783700D01*
X92226666Y-71783700D02*
X92126666Y-71817033D01*
X92126666Y-71817033D02*
X92059999Y-71817033D01*
X92059999Y-71817033D02*
X91959999Y-71783700D01*
X91959999Y-71783700D02*
X91893333Y-71717033D01*
X91893333Y-71717033D02*
X91859999Y-71650366D01*
X91859999Y-71650366D02*
X91826666Y-71517033D01*
X91826666Y-71517033D02*
X91826666Y-71417033D01*
X91826666Y-71417033D02*
X91859999Y-71283700D01*
X91859999Y-71283700D02*
X91893333Y-71217033D01*
X91893333Y-71217033D02*
X91959999Y-71150366D01*
X91959999Y-71150366D02*
X92059999Y-71117033D01*
X92059999Y-71117033D02*
X92126666Y-71117033D01*
X92126666Y-71117033D02*
X92226666Y-71150366D01*
X92226666Y-71150366D02*
X92259999Y-71183700D01*
X92926666Y-71817033D02*
X92526666Y-71817033D01*
X92726666Y-71817033D02*
X92726666Y-71117033D01*
X92726666Y-71117033D02*
X92659999Y-71217033D01*
X92659999Y-71217033D02*
X92593333Y-71283700D01*
X92593333Y-71283700D02*
X92526666Y-71317033D01*
X93526666Y-71117033D02*
X93393333Y-71117033D01*
X93393333Y-71117033D02*
X93326666Y-71150366D01*
X93326666Y-71150366D02*
X93293333Y-71183700D01*
X93293333Y-71183700D02*
X93226666Y-71283700D01*
X93226666Y-71283700D02*
X93193333Y-71417033D01*
X93193333Y-71417033D02*
X93193333Y-71683700D01*
X93193333Y-71683700D02*
X93226666Y-71750366D01*
X93226666Y-71750366D02*
X93260000Y-71783700D01*
X93260000Y-71783700D02*
X93326666Y-71817033D01*
X93326666Y-71817033D02*
X93460000Y-71817033D01*
X93460000Y-71817033D02*
X93526666Y-71783700D01*
X93526666Y-71783700D02*
X93560000Y-71750366D01*
X93560000Y-71750366D02*
X93593333Y-71683700D01*
X93593333Y-71683700D02*
X93593333Y-71517033D01*
X93593333Y-71517033D02*
X93560000Y-71450366D01*
X93560000Y-71450366D02*
X93526666Y-71417033D01*
X93526666Y-71417033D02*
X93460000Y-71383700D01*
X93460000Y-71383700D02*
X93326666Y-71383700D01*
X93326666Y-71383700D02*
X93260000Y-71417033D01*
X93260000Y-71417033D02*
X93226666Y-71450366D01*
X93226666Y-71450366D02*
X93193333Y-71517033D01*
X98653666Y-57401033D02*
X98653666Y-57967700D01*
X98653666Y-57967700D02*
X98687000Y-58034366D01*
X98687000Y-58034366D02*
X98720333Y-58067700D01*
X98720333Y-58067700D02*
X98787000Y-58101033D01*
X98787000Y-58101033D02*
X98920333Y-58101033D01*
X98920333Y-58101033D02*
X98987000Y-58067700D01*
X98987000Y-58067700D02*
X99020333Y-58034366D01*
X99020333Y-58034366D02*
X99053666Y-57967700D01*
X99053666Y-57967700D02*
X99053666Y-57401033D01*
X99353666Y-57467700D02*
X99386999Y-57434366D01*
X99386999Y-57434366D02*
X99453666Y-57401033D01*
X99453666Y-57401033D02*
X99620333Y-57401033D01*
X99620333Y-57401033D02*
X99686999Y-57434366D01*
X99686999Y-57434366D02*
X99720333Y-57467700D01*
X99720333Y-57467700D02*
X99753666Y-57534366D01*
X99753666Y-57534366D02*
X99753666Y-57601033D01*
X99753666Y-57601033D02*
X99720333Y-57701033D01*
X99720333Y-57701033D02*
X99320333Y-58101033D01*
X99320333Y-58101033D02*
X99753666Y-58101033D01*
X106996033Y-51069166D02*
X106662700Y-51302499D01*
X106996033Y-51469166D02*
X106296033Y-51469166D01*
X106296033Y-51469166D02*
X106296033Y-51202499D01*
X106296033Y-51202499D02*
X106329366Y-51135833D01*
X106329366Y-51135833D02*
X106362700Y-51102499D01*
X106362700Y-51102499D02*
X106429366Y-51069166D01*
X106429366Y-51069166D02*
X106529366Y-51069166D01*
X106529366Y-51069166D02*
X106596033Y-51102499D01*
X106596033Y-51102499D02*
X106629366Y-51135833D01*
X106629366Y-51135833D02*
X106662700Y-51202499D01*
X106662700Y-51202499D02*
X106662700Y-51469166D01*
X106296033Y-50435833D02*
X106296033Y-50769166D01*
X106296033Y-50769166D02*
X106629366Y-50802499D01*
X106629366Y-50802499D02*
X106596033Y-50769166D01*
X106596033Y-50769166D02*
X106562700Y-50702499D01*
X106562700Y-50702499D02*
X106562700Y-50535833D01*
X106562700Y-50535833D02*
X106596033Y-50469166D01*
X106596033Y-50469166D02*
X106629366Y-50435833D01*
X106629366Y-50435833D02*
X106696033Y-50402499D01*
X106696033Y-50402499D02*
X106862700Y-50402499D01*
X106862700Y-50402499D02*
X106929366Y-50435833D01*
X106929366Y-50435833D02*
X106962700Y-50469166D01*
X106962700Y-50469166D02*
X106996033Y-50535833D01*
X106996033Y-50535833D02*
X106996033Y-50702499D01*
X106996033Y-50702499D02*
X106962700Y-50769166D01*
X106962700Y-50769166D02*
X106929366Y-50802499D01*
X96388366Y-49218000D02*
X96421700Y-49251333D01*
X96421700Y-49251333D02*
X96455033Y-49351333D01*
X96455033Y-49351333D02*
X96455033Y-49418000D01*
X96455033Y-49418000D02*
X96421700Y-49518000D01*
X96421700Y-49518000D02*
X96355033Y-49584667D01*
X96355033Y-49584667D02*
X96288366Y-49618000D01*
X96288366Y-49618000D02*
X96155033Y-49651333D01*
X96155033Y-49651333D02*
X96055033Y-49651333D01*
X96055033Y-49651333D02*
X95921700Y-49618000D01*
X95921700Y-49618000D02*
X95855033Y-49584667D01*
X95855033Y-49584667D02*
X95788366Y-49518000D01*
X95788366Y-49518000D02*
X95755033Y-49418000D01*
X95755033Y-49418000D02*
X95755033Y-49351333D01*
X95755033Y-49351333D02*
X95788366Y-49251333D01*
X95788366Y-49251333D02*
X95821700Y-49218000D01*
X96455033Y-48551333D02*
X96455033Y-48951333D01*
X96455033Y-48751333D02*
X95755033Y-48751333D01*
X95755033Y-48751333D02*
X95855033Y-48818000D01*
X95855033Y-48818000D02*
X95921700Y-48884667D01*
X95921700Y-48884667D02*
X95955033Y-48951333D01*
X95755033Y-48318000D02*
X95755033Y-47884666D01*
X95755033Y-47884666D02*
X96021700Y-48118000D01*
X96021700Y-48118000D02*
X96021700Y-48018000D01*
X96021700Y-48018000D02*
X96055033Y-47951333D01*
X96055033Y-47951333D02*
X96088366Y-47918000D01*
X96088366Y-47918000D02*
X96155033Y-47884666D01*
X96155033Y-47884666D02*
X96321700Y-47884666D01*
X96321700Y-47884666D02*
X96388366Y-47918000D01*
X96388366Y-47918000D02*
X96421700Y-47951333D01*
X96421700Y-47951333D02*
X96455033Y-48018000D01*
X96455033Y-48018000D02*
X96455033Y-48218000D01*
X96455033Y-48218000D02*
X96421700Y-48284666D01*
X96421700Y-48284666D02*
X96388366Y-48318000D01*
X93661033Y-42026666D02*
X93327700Y-42259999D01*
X93661033Y-42426666D02*
X92961033Y-42426666D01*
X92961033Y-42426666D02*
X92961033Y-42159999D01*
X92961033Y-42159999D02*
X92994366Y-42093333D01*
X92994366Y-42093333D02*
X93027700Y-42059999D01*
X93027700Y-42059999D02*
X93094366Y-42026666D01*
X93094366Y-42026666D02*
X93194366Y-42026666D01*
X93194366Y-42026666D02*
X93261033Y-42059999D01*
X93261033Y-42059999D02*
X93294366Y-42093333D01*
X93294366Y-42093333D02*
X93327700Y-42159999D01*
X93327700Y-42159999D02*
X93327700Y-42426666D01*
X92961033Y-41793333D02*
X92961033Y-41326666D01*
X92961033Y-41326666D02*
X93661033Y-41626666D01*
X96022333Y-46798033D02*
X95789000Y-46464700D01*
X95622333Y-46798033D02*
X95622333Y-46098033D01*
X95622333Y-46098033D02*
X95889000Y-46098033D01*
X95889000Y-46098033D02*
X95955667Y-46131366D01*
X95955667Y-46131366D02*
X95989000Y-46164700D01*
X95989000Y-46164700D02*
X96022333Y-46231366D01*
X96022333Y-46231366D02*
X96022333Y-46331366D01*
X96022333Y-46331366D02*
X95989000Y-46398033D01*
X95989000Y-46398033D02*
X95955667Y-46431366D01*
X95955667Y-46431366D02*
X95889000Y-46464700D01*
X95889000Y-46464700D02*
X95622333Y-46464700D01*
X96422333Y-46398033D02*
X96355667Y-46364700D01*
X96355667Y-46364700D02*
X96322333Y-46331366D01*
X96322333Y-46331366D02*
X96289000Y-46264700D01*
X96289000Y-46264700D02*
X96289000Y-46231366D01*
X96289000Y-46231366D02*
X96322333Y-46164700D01*
X96322333Y-46164700D02*
X96355667Y-46131366D01*
X96355667Y-46131366D02*
X96422333Y-46098033D01*
X96422333Y-46098033D02*
X96555667Y-46098033D01*
X96555667Y-46098033D02*
X96622333Y-46131366D01*
X96622333Y-46131366D02*
X96655667Y-46164700D01*
X96655667Y-46164700D02*
X96689000Y-46231366D01*
X96689000Y-46231366D02*
X96689000Y-46264700D01*
X96689000Y-46264700D02*
X96655667Y-46331366D01*
X96655667Y-46331366D02*
X96622333Y-46364700D01*
X96622333Y-46364700D02*
X96555667Y-46398033D01*
X96555667Y-46398033D02*
X96422333Y-46398033D01*
X96422333Y-46398033D02*
X96355667Y-46431366D01*
X96355667Y-46431366D02*
X96322333Y-46464700D01*
X96322333Y-46464700D02*
X96289000Y-46531366D01*
X96289000Y-46531366D02*
X96289000Y-46664700D01*
X96289000Y-46664700D02*
X96322333Y-46731366D01*
X96322333Y-46731366D02*
X96355667Y-46764700D01*
X96355667Y-46764700D02*
X96422333Y-46798033D01*
X96422333Y-46798033D02*
X96555667Y-46798033D01*
X96555667Y-46798033D02*
X96622333Y-46764700D01*
X96622333Y-46764700D02*
X96655667Y-46731366D01*
X96655667Y-46731366D02*
X96689000Y-46664700D01*
X96689000Y-46664700D02*
X96689000Y-46531366D01*
X96689000Y-46531366D02*
X96655667Y-46464700D01*
X96655667Y-46464700D02*
X96622333Y-46431366D01*
X96622333Y-46431366D02*
X96555667Y-46398033D01*
X92974333Y-74865033D02*
X92741000Y-74531700D01*
X92574333Y-74865033D02*
X92574333Y-74165033D01*
X92574333Y-74165033D02*
X92841000Y-74165033D01*
X92841000Y-74165033D02*
X92907667Y-74198366D01*
X92907667Y-74198366D02*
X92941000Y-74231700D01*
X92941000Y-74231700D02*
X92974333Y-74298366D01*
X92974333Y-74298366D02*
X92974333Y-74398366D01*
X92974333Y-74398366D02*
X92941000Y-74465033D01*
X92941000Y-74465033D02*
X92907667Y-74498366D01*
X92907667Y-74498366D02*
X92841000Y-74531700D01*
X92841000Y-74531700D02*
X92574333Y-74531700D01*
X93574333Y-74165033D02*
X93441000Y-74165033D01*
X93441000Y-74165033D02*
X93374333Y-74198366D01*
X93374333Y-74198366D02*
X93341000Y-74231700D01*
X93341000Y-74231700D02*
X93274333Y-74331700D01*
X93274333Y-74331700D02*
X93241000Y-74465033D01*
X93241000Y-74465033D02*
X93241000Y-74731700D01*
X93241000Y-74731700D02*
X93274333Y-74798366D01*
X93274333Y-74798366D02*
X93307667Y-74831700D01*
X93307667Y-74831700D02*
X93374333Y-74865033D01*
X93374333Y-74865033D02*
X93507667Y-74865033D01*
X93507667Y-74865033D02*
X93574333Y-74831700D01*
X93574333Y-74831700D02*
X93607667Y-74798366D01*
X93607667Y-74798366D02*
X93641000Y-74731700D01*
X93641000Y-74731700D02*
X93641000Y-74565033D01*
X93641000Y-74565033D02*
X93607667Y-74498366D01*
X93607667Y-74498366D02*
X93574333Y-74465033D01*
X93574333Y-74465033D02*
X93507667Y-74431700D01*
X93507667Y-74431700D02*
X93374333Y-74431700D01*
X93374333Y-74431700D02*
X93307667Y-74465033D01*
X93307667Y-74465033D02*
X93274333Y-74498366D01*
X93274333Y-74498366D02*
X93241000Y-74565033D01*
X96044499Y-38730366D02*
X96011166Y-38763700D01*
X96011166Y-38763700D02*
X95911166Y-38797033D01*
X95911166Y-38797033D02*
X95844499Y-38797033D01*
X95844499Y-38797033D02*
X95744499Y-38763700D01*
X95744499Y-38763700D02*
X95677833Y-38697033D01*
X95677833Y-38697033D02*
X95644499Y-38630366D01*
X95644499Y-38630366D02*
X95611166Y-38497033D01*
X95611166Y-38497033D02*
X95611166Y-38397033D01*
X95611166Y-38397033D02*
X95644499Y-38263700D01*
X95644499Y-38263700D02*
X95677833Y-38197033D01*
X95677833Y-38197033D02*
X95744499Y-38130366D01*
X95744499Y-38130366D02*
X95844499Y-38097033D01*
X95844499Y-38097033D02*
X95911166Y-38097033D01*
X95911166Y-38097033D02*
X96011166Y-38130366D01*
X96011166Y-38130366D02*
X96044499Y-38163700D01*
X96711166Y-38797033D02*
X96311166Y-38797033D01*
X96511166Y-38797033D02*
X96511166Y-38097033D01*
X96511166Y-38097033D02*
X96444499Y-38197033D01*
X96444499Y-38197033D02*
X96377833Y-38263700D01*
X96377833Y-38263700D02*
X96311166Y-38297033D01*
X97377833Y-38797033D02*
X96977833Y-38797033D01*
X97177833Y-38797033D02*
X97177833Y-38097033D01*
X97177833Y-38097033D02*
X97111166Y-38197033D01*
X97111166Y-38197033D02*
X97044500Y-38263700D01*
X97044500Y-38263700D02*
X96977833Y-38297033D01*
X101610333Y-46477366D02*
X101577000Y-46510700D01*
X101577000Y-46510700D02*
X101477000Y-46544033D01*
X101477000Y-46544033D02*
X101410333Y-46544033D01*
X101410333Y-46544033D02*
X101310333Y-46510700D01*
X101310333Y-46510700D02*
X101243667Y-46444033D01*
X101243667Y-46444033D02*
X101210333Y-46377366D01*
X101210333Y-46377366D02*
X101177000Y-46244033D01*
X101177000Y-46244033D02*
X101177000Y-46144033D01*
X101177000Y-46144033D02*
X101210333Y-46010700D01*
X101210333Y-46010700D02*
X101243667Y-45944033D01*
X101243667Y-45944033D02*
X101310333Y-45877366D01*
X101310333Y-45877366D02*
X101410333Y-45844033D01*
X101410333Y-45844033D02*
X101477000Y-45844033D01*
X101477000Y-45844033D02*
X101577000Y-45877366D01*
X101577000Y-45877366D02*
X101610333Y-45910700D01*
X102210333Y-45844033D02*
X102077000Y-45844033D01*
X102077000Y-45844033D02*
X102010333Y-45877366D01*
X102010333Y-45877366D02*
X101977000Y-45910700D01*
X101977000Y-45910700D02*
X101910333Y-46010700D01*
X101910333Y-46010700D02*
X101877000Y-46144033D01*
X101877000Y-46144033D02*
X101877000Y-46410700D01*
X101877000Y-46410700D02*
X101910333Y-46477366D01*
X101910333Y-46477366D02*
X101943667Y-46510700D01*
X101943667Y-46510700D02*
X102010333Y-46544033D01*
X102010333Y-46544033D02*
X102143667Y-46544033D01*
X102143667Y-46544033D02*
X102210333Y-46510700D01*
X102210333Y-46510700D02*
X102243667Y-46477366D01*
X102243667Y-46477366D02*
X102277000Y-46410700D01*
X102277000Y-46410700D02*
X102277000Y-46244033D01*
X102277000Y-46244033D02*
X102243667Y-46177366D01*
X102243667Y-46177366D02*
X102210333Y-46144033D01*
X102210333Y-46144033D02*
X102143667Y-46110700D01*
X102143667Y-46110700D02*
X102010333Y-46110700D01*
X102010333Y-46110700D02*
X101943667Y-46144033D01*
X101943667Y-46144033D02*
X101910333Y-46177366D01*
X101910333Y-46177366D02*
X101877000Y-46244033D01*
X95605666Y-40383033D02*
X95605666Y-40949700D01*
X95605666Y-40949700D02*
X95639000Y-41016366D01*
X95639000Y-41016366D02*
X95672333Y-41049700D01*
X95672333Y-41049700D02*
X95739000Y-41083033D01*
X95739000Y-41083033D02*
X95872333Y-41083033D01*
X95872333Y-41083033D02*
X95939000Y-41049700D01*
X95939000Y-41049700D02*
X95972333Y-41016366D01*
X95972333Y-41016366D02*
X96005666Y-40949700D01*
X96005666Y-40949700D02*
X96005666Y-40383033D01*
X96272333Y-40383033D02*
X96705666Y-40383033D01*
X96705666Y-40383033D02*
X96472333Y-40649700D01*
X96472333Y-40649700D02*
X96572333Y-40649700D01*
X96572333Y-40649700D02*
X96638999Y-40683033D01*
X96638999Y-40683033D02*
X96672333Y-40716366D01*
X96672333Y-40716366D02*
X96705666Y-40783033D01*
X96705666Y-40783033D02*
X96705666Y-40949700D01*
X96705666Y-40949700D02*
X96672333Y-41016366D01*
X96672333Y-41016366D02*
X96638999Y-41049700D01*
X96638999Y-41049700D02*
X96572333Y-41083033D01*
X96572333Y-41083033D02*
X96372333Y-41083033D01*
X96372333Y-41083033D02*
X96305666Y-41049700D01*
X96305666Y-41049700D02*
X96272333Y-41016366D01*
D10*
X101665721Y-64895000D02*
X101991279Y-64895000D01*
X101665721Y-65915000D02*
X101991279Y-65915000D01*
X98160721Y-44702000D02*
X98486279Y-44702000D01*
X98160721Y-45722000D02*
X98486279Y-45722000D01*
X95087221Y-66419000D02*
X95412779Y-66419000D01*
X95087221Y-67439000D02*
X95412779Y-67439000D01*
X101577000Y-64425000D02*
X103337000Y-64425000D01*
X103337000Y-61355000D02*
X100907000Y-61355000D01*
X103604500Y-66329779D02*
X103604500Y-66004221D01*
X104624500Y-66329779D02*
X104624500Y-66004221D01*
X104866221Y-56919500D02*
X105191779Y-56919500D01*
X104866221Y-57939500D02*
X105191779Y-57939500D01*
X101361779Y-50471800D02*
X101036221Y-50471800D01*
X101361779Y-49451800D02*
X101036221Y-49451800D01*
X95087221Y-69467000D02*
X95412779Y-69467000D01*
X95087221Y-70487000D02*
X95412779Y-70487000D01*
X96147000Y-79129000D02*
X97147000Y-79129000D01*
X96647000Y-78629000D02*
X96647000Y-79629000D01*
X97594000Y-73766437D02*
X97594000Y-75752000D01*
X97594000Y-73766437D02*
X98658437Y-72702000D01*
X97594000Y-80157563D02*
X97594000Y-78172000D01*
X97594000Y-80157563D02*
X98658437Y-81222000D01*
X98658437Y-72702000D02*
X106114000Y-72702000D01*
X98658437Y-81222000D02*
X106114000Y-81222000D01*
X106114000Y-72702000D02*
X106114000Y-75752000D01*
X106114000Y-81222000D02*
X106114000Y-78172000D01*
X104249000Y-50383221D02*
X104249000Y-50708779D01*
X103229000Y-50383221D02*
X103229000Y-50708779D01*
X104249000Y-53431221D02*
X104249000Y-53756779D01*
X103229000Y-53431221D02*
X103229000Y-53756779D01*
D12*
X97942000Y-65865000D02*
X95542000Y-65865000D01*
X97942000Y-59865000D02*
X95542000Y-59865000D01*
D10*
X96899000Y-48930779D02*
X96899000Y-48605221D01*
X97919000Y-48930779D02*
X97919000Y-48605221D01*
X99349779Y-40642000D02*
X99024221Y-40642000D01*
X99349779Y-39622000D02*
X99024221Y-39622000D01*
X104866221Y-55395500D02*
X105191779Y-55395500D01*
X104866221Y-56415500D02*
X105191779Y-56415500D01*
X93781250Y-43024500D02*
X94381250Y-43024500D01*
X95081250Y-43724500D02*
X95081250Y-45124500D01*
X93081250Y-45124500D02*
X93081250Y-43724500D01*
X94381250Y-45824500D02*
X93781250Y-45824500D01*
X95081250Y-43724500D02*
G75*
G03*
X94381250Y-43024500I-699999J1D01*
G01*
X93781250Y-43024500D02*
G75*
G03*
X93081250Y-43724500I-1J-699999D01*
G01*
X94381250Y-45824500D02*
G75*
G03*
X95081250Y-45124500I0J700000D01*
G01*
X93081250Y-45124500D02*
G75*
G03*
X93781250Y-45824500I700000J0D01*
G01*
X103353000Y-57009400D02*
X103353000Y-55309400D01*
X103353000Y-57009400D02*
X100203000Y-57009400D01*
X103353000Y-55309400D02*
X100203000Y-55309400D01*
X106148500Y-66004221D02*
X106148500Y-66329779D01*
X105128500Y-66004221D02*
X105128500Y-66329779D01*
D12*
X99012000Y-52521000D02*
X99012000Y-54921000D01*
X93012000Y-52521000D02*
X93012000Y-54921000D01*
D10*
X95730000Y-78740000D02*
G75*
G03*
X95730000Y-78740000I-1750000J0D01*
G01*
X106018000Y-52109000D02*
X104548000Y-52109000D01*
X104548000Y-52109000D02*
X104548000Y-54394000D01*
X106018000Y-54394000D02*
X106018000Y-52109000D01*
X101665721Y-66419000D02*
X101991279Y-66419000D01*
X101665721Y-67439000D02*
X101991279Y-67439000D01*
X104866221Y-58443500D02*
X105191779Y-58443500D01*
X104866221Y-59463500D02*
X105191779Y-59463500D01*
X93765000Y-72290000D02*
X93765000Y-73760000D01*
X93765000Y-73760000D02*
X96050000Y-73760000D01*
X96050000Y-72290000D02*
X93765000Y-72290000D01*
G36*
X104756285Y-35798389D02*
G01*
X105004237Y-35798833D01*
X105015271Y-35804265D01*
X105027451Y-35811779D01*
X105037133Y-35821262D01*
X105044801Y-35833202D01*
X105045401Y-35834395D01*
X105048078Y-35840166D01*
X105049699Y-35844935D01*
X105050521Y-35849944D01*
X105050804Y-35856440D01*
X105050825Y-35860464D01*
X105050685Y-35868248D01*
X105050111Y-35873966D01*
X105048850Y-35878879D01*
X105046651Y-35884251D01*
X105045680Y-35886333D01*
X105038471Y-35898037D01*
X105028913Y-35908261D01*
X105017796Y-35916195D01*
X105015124Y-35917600D01*
X105005833Y-35922166D01*
X104757083Y-35922609D01*
X104508333Y-35923053D01*
X104508333Y-35860499D01*
X104508333Y-35797946D01*
X104756285Y-35798389D01*
G37*
G36*
X104847881Y-33569897D02*
G01*
X104911376Y-33572384D01*
X104961666Y-33575579D01*
X105053056Y-33584117D01*
X105143762Y-33595909D01*
X105233726Y-33610937D01*
X105322889Y-33629185D01*
X105411193Y-33650632D01*
X105498581Y-33675263D01*
X105584994Y-33703058D01*
X105670375Y-33733999D01*
X105754665Y-33768069D01*
X105837807Y-33805249D01*
X105919741Y-33845521D01*
X106000411Y-33888868D01*
X106037348Y-33909992D01*
X106114624Y-33956970D01*
X106190069Y-34006712D01*
X106263613Y-34059150D01*
X106335184Y-34114217D01*
X106404709Y-34171844D01*
X106472118Y-34231963D01*
X106537338Y-34294507D01*
X106600297Y-34359407D01*
X106660925Y-34426596D01*
X106719148Y-34496006D01*
X106774896Y-34567568D01*
X106828096Y-34641216D01*
X106860691Y-34689287D01*
X106896442Y-34744631D01*
X106929622Y-34798691D01*
X106960497Y-34851932D01*
X106989333Y-34904819D01*
X107016396Y-34957819D01*
X107030612Y-34987166D01*
X107068635Y-35070756D01*
X107103376Y-35154665D01*
X107134866Y-35239013D01*
X107163134Y-35323919D01*
X107188213Y-35409502D01*
X107210133Y-35495883D01*
X107228923Y-35583179D01*
X107244616Y-35671512D01*
X107257242Y-35760999D01*
X107266831Y-35851761D01*
X107272496Y-35928000D01*
X107273154Y-35941249D01*
X107273714Y-35957348D01*
X107274178Y-35975844D01*
X107274545Y-35996285D01*
X107274815Y-36018218D01*
X107274988Y-36041190D01*
X107275065Y-36064750D01*
X107275045Y-36088444D01*
X107274929Y-36111819D01*
X107274716Y-36134424D01*
X107274407Y-36155806D01*
X107274001Y-36175511D01*
X107273500Y-36193088D01*
X107272902Y-36208083D01*
X107272456Y-36216333D01*
X107265112Y-36308504D01*
X107254546Y-36399884D01*
X107240774Y-36490426D01*
X107223810Y-36580084D01*
X107203668Y-36668811D01*
X107180365Y-36756560D01*
X107153915Y-36843285D01*
X107124332Y-36928939D01*
X107091632Y-37013475D01*
X107055829Y-37096847D01*
X107016938Y-37179007D01*
X106974975Y-37259911D01*
X106929953Y-37339510D01*
X106896998Y-37393833D01*
X106847636Y-37469816D01*
X106795526Y-37543931D01*
X106740719Y-37616118D01*
X106683266Y-37686320D01*
X106623219Y-37754476D01*
X106560629Y-37820527D01*
X106495546Y-37884416D01*
X106428023Y-37946083D01*
X106383333Y-37984540D01*
X106313893Y-38040846D01*
X106242830Y-38094357D01*
X106169870Y-38145268D01*
X106094735Y-38193778D01*
X106059804Y-38215078D01*
X105980850Y-38260434D01*
X105900461Y-38302796D01*
X105818717Y-38342139D01*
X105735698Y-38378440D01*
X105651482Y-38411675D01*
X105566149Y-38441818D01*
X105479779Y-38468846D01*
X105392450Y-38492735D01*
X105304244Y-38513460D01*
X105215238Y-38530996D01*
X105125512Y-38545321D01*
X105035146Y-38556409D01*
X104944220Y-38564236D01*
X104910000Y-38566325D01*
X104902206Y-38566640D01*
X104891464Y-38566915D01*
X104878160Y-38567149D01*
X104862679Y-38567342D01*
X104845407Y-38567495D01*
X104826728Y-38567608D01*
X104807028Y-38567681D01*
X104786692Y-38567715D01*
X104766107Y-38567710D01*
X104745656Y-38567665D01*
X104725726Y-38567581D01*
X104706702Y-38567458D01*
X104688969Y-38567297D01*
X104672913Y-38567098D01*
X104658918Y-38566861D01*
X104647371Y-38566586D01*
X104638656Y-38566273D01*
X104636666Y-38566172D01*
X104547034Y-38559551D01*
X104457522Y-38549628D01*
X104368267Y-38536435D01*
X104279409Y-38520004D01*
X104191086Y-38500366D01*
X104103435Y-38477553D01*
X104016596Y-38451596D01*
X103930706Y-38422528D01*
X103845905Y-38390380D01*
X103816666Y-38378473D01*
X103747217Y-38348343D01*
X103677722Y-38315573D01*
X103608715Y-38280457D01*
X103540727Y-38243286D01*
X103474293Y-38204354D01*
X103409945Y-38163954D01*
X103348216Y-38122379D01*
X103340000Y-38116612D01*
X103276361Y-38070334D01*
X103215390Y-38023102D01*
X103156448Y-37974378D01*
X103098895Y-37923630D01*
X103042093Y-37870319D01*
X103018590Y-37847318D01*
X102956848Y-37784155D01*
X102898109Y-37719883D01*
X102842159Y-37654229D01*
X102788785Y-37586917D01*
X102737776Y-37517674D01*
X102688919Y-37446225D01*
X102642001Y-37372296D01*
X102613057Y-37323833D01*
X102569322Y-37245571D01*
X102528472Y-37165692D01*
X102490542Y-37084310D01*
X102455569Y-37001538D01*
X102423587Y-36917489D01*
X102394633Y-36832278D01*
X102368742Y-36746016D01*
X102345949Y-36658819D01*
X102326291Y-36570798D01*
X102309803Y-36482068D01*
X102296520Y-36392741D01*
X102286479Y-36302932D01*
X102284277Y-36278000D01*
X102282924Y-36261258D01*
X102281755Y-36245624D01*
X102280743Y-36230527D01*
X102279857Y-36215400D01*
X102279069Y-36199673D01*
X102278351Y-36182779D01*
X102277672Y-36164148D01*
X102277005Y-36143212D01*
X102276454Y-36124217D01*
X102275659Y-36036681D01*
X102278173Y-35948742D01*
X102283615Y-35866154D01*
X102964009Y-35866154D01*
X102964391Y-35883371D01*
X102965349Y-35899287D01*
X102966890Y-35912998D01*
X102967252Y-35915296D01*
X102974555Y-35949319D01*
X102984845Y-35982010D01*
X102998001Y-36013218D01*
X103013903Y-36042796D01*
X103032432Y-36070595D01*
X103053466Y-36096467D01*
X103076886Y-36120263D01*
X103102570Y-36141834D01*
X103130400Y-36161032D01*
X103160254Y-36177708D01*
X103190598Y-36191164D01*
X103208492Y-36197435D01*
X103228491Y-36203178D01*
X103249373Y-36208065D01*
X103263365Y-36210717D01*
X103266006Y-36211134D01*
X103268908Y-36211513D01*
X103272245Y-36211855D01*
X103276190Y-36212165D01*
X103280917Y-36212444D01*
X103286599Y-36212695D01*
X103293411Y-36212921D01*
X103301525Y-36213124D01*
X103311116Y-36213308D01*
X103322356Y-36213474D01*
X103335420Y-36213626D01*
X103350480Y-36213765D01*
X103367712Y-36213896D01*
X103387287Y-36214020D01*
X103409380Y-36214140D01*
X103434165Y-36214259D01*
X103461814Y-36214380D01*
X103492502Y-36214504D01*
X103515833Y-36214595D01*
X103548921Y-36214719D01*
X103578845Y-36214827D01*
X103605771Y-36214928D01*
X103629868Y-36215028D01*
X103651303Y-36215136D01*
X103670245Y-36215259D01*
X103686862Y-36215405D01*
X103701322Y-36215582D01*
X103713792Y-36215796D01*
X103724441Y-36216056D01*
X103733437Y-36216370D01*
X103740947Y-36216744D01*
X103747141Y-36217186D01*
X103752184Y-36217705D01*
X103756247Y-36218307D01*
X103759496Y-36219001D01*
X103762100Y-36219793D01*
X103764226Y-36220692D01*
X103766043Y-36221705D01*
X103767719Y-36222840D01*
X103769421Y-36224104D01*
X103771318Y-36225505D01*
X103772326Y-36226213D01*
X103780770Y-36233112D01*
X103787523Y-36241316D01*
X103793394Y-36251815D01*
X103793657Y-36252372D01*
X103796465Y-36259154D01*
X103797950Y-36265350D01*
X103798485Y-36272683D01*
X103798514Y-36274926D01*
X103798352Y-36283818D01*
X103797558Y-36290682D01*
X103795837Y-36296806D01*
X103792891Y-36303480D01*
X103791148Y-36306888D01*
X103784148Y-36317116D01*
X103774825Y-36326185D01*
X103764180Y-36333186D01*
X103760000Y-36335115D01*
X103750833Y-36338833D01*
X103419166Y-36339719D01*
X103087500Y-36340605D01*
X103075229Y-36344184D01*
X103053787Y-36352030D01*
X103034323Y-36362379D01*
X103016992Y-36375026D01*
X103001950Y-36389770D01*
X102989354Y-36406408D01*
X102979359Y-36424736D01*
X102972122Y-36444553D01*
X102967799Y-36465654D01*
X102966527Y-36485499D01*
X102968128Y-36507596D01*
X102972843Y-36528705D01*
X102980542Y-36548606D01*
X102991097Y-36567078D01*
X103004378Y-36583901D01*
X103020254Y-36598853D01*
X103038597Y-36611714D01*
X103041666Y-36613514D01*
X103048134Y-36616665D01*
X103056784Y-36620133D01*
X103066536Y-36623552D01*
X103076311Y-36626555D01*
X103085029Y-36628774D01*
X103088522Y-36629452D01*
X103091102Y-36629607D01*
X103096860Y-36629759D01*
X103105644Y-36629906D01*
X103117297Y-36630050D01*
X103131667Y-36630188D01*
X103148598Y-36630320D01*
X103167936Y-36630445D01*
X103189527Y-36630562D01*
X103213217Y-36630671D01*
X103238850Y-36630771D01*
X103266274Y-36630861D01*
X103295333Y-36630940D01*
X103325872Y-36631008D01*
X103357739Y-36631064D01*
X103390778Y-36631107D01*
X103424834Y-36631136D01*
X103428383Y-36631138D01*
X103468101Y-36631159D01*
X103504628Y-36631172D01*
X103538105Y-36631177D01*
X103568672Y-36631173D01*
X103596471Y-36631158D01*
X103621644Y-36631132D01*
X103644331Y-36631094D01*
X103664675Y-36631042D01*
X103682817Y-36630977D01*
X103698897Y-36630896D01*
X103713058Y-36630799D01*
X103725441Y-36630686D01*
X103736187Y-36630554D01*
X103745437Y-36630404D01*
X103753333Y-36630233D01*
X103760016Y-36630042D01*
X103765628Y-36629829D01*
X103770310Y-36629594D01*
X103774204Y-36629335D01*
X103777450Y-36629051D01*
X103779889Y-36628780D01*
X103813965Y-36622917D01*
X103846929Y-36613920D01*
X103878700Y-36601825D01*
X103909198Y-36586668D01*
X103938343Y-36568484D01*
X103966053Y-36547310D01*
X103969463Y-36544411D01*
X103992307Y-36522667D01*
X104013335Y-36498440D01*
X104032299Y-36472150D01*
X104048950Y-36444218D01*
X104063042Y-36415065D01*
X104074324Y-36385112D01*
X104082551Y-36354779D01*
X104083266Y-36351400D01*
X104088780Y-36316755D01*
X104091041Y-36282444D01*
X104090074Y-36248597D01*
X104085903Y-36215348D01*
X104078553Y-36182828D01*
X104068049Y-36151169D01*
X104054417Y-36120504D01*
X104037681Y-36090965D01*
X104032681Y-36083272D01*
X104014800Y-36058695D01*
X103995112Y-36035635D01*
X103974218Y-36014753D01*
X103974041Y-36014601D01*
X104216668Y-36014601D01*
X104216669Y-36059516D01*
X104216669Y-36065905D01*
X104216679Y-36115806D01*
X104216702Y-36162882D01*
X104216737Y-36207101D01*
X104216785Y-36248429D01*
X104216846Y-36286833D01*
X104216918Y-36322280D01*
X104217003Y-36354737D01*
X104217100Y-36384171D01*
X104217209Y-36410548D01*
X104217330Y-36433836D01*
X104217463Y-36454000D01*
X104217607Y-36471009D01*
X104217762Y-36484829D01*
X104217929Y-36495427D01*
X104218107Y-36502769D01*
X104218296Y-36506823D01*
X104218365Y-36507462D01*
X104223498Y-36529197D01*
X104231608Y-36549432D01*
X104242683Y-36568149D01*
X104256715Y-36585328D01*
X104263315Y-36591918D01*
X104278618Y-36604767D01*
X104294478Y-36614751D01*
X104311726Y-36622329D01*
X104326666Y-36626861D01*
X104333464Y-36628555D01*
X104338856Y-36629713D01*
X104343735Y-36630417D01*
X104348991Y-36630745D01*
X104355517Y-36630777D01*
X104364204Y-36630592D01*
X104367500Y-36630502D01*
X104380466Y-36629865D01*
X104390760Y-36628705D01*
X104399011Y-36626948D01*
X104400000Y-36626662D01*
X104416368Y-36621128D01*
X104430343Y-36614871D01*
X104442860Y-36607365D01*
X104454853Y-36598083D01*
X104461684Y-36591918D01*
X104475749Y-36576940D01*
X104487154Y-36560871D01*
X104496302Y-36543057D01*
X104502886Y-36525160D01*
X104507469Y-36510500D01*
X104507961Y-36362623D01*
X104508117Y-36315500D01*
X105467500Y-36315500D01*
X105471396Y-36337067D01*
X105479001Y-36370868D01*
X105489313Y-36402851D01*
X105502436Y-36433280D01*
X105518472Y-36462419D01*
X105523712Y-36470711D01*
X105543385Y-36497962D01*
X105565474Y-36523103D01*
X105589750Y-36545989D01*
X105615986Y-36566477D01*
X105643953Y-36584421D01*
X105673421Y-36599679D01*
X105704164Y-36612106D01*
X105735951Y-36621557D01*
X105768555Y-36627890D01*
X105774166Y-36628646D01*
X105778172Y-36628940D01*
X105785272Y-36629217D01*
X105795269Y-36629478D01*
X105807966Y-36629722D01*
X105823167Y-36629950D01*
X105840676Y-36630161D01*
X105860297Y-36630354D01*
X105881832Y-36630531D01*
X105905086Y-36630691D01*
X105929862Y-36630833D01*
X105955963Y-36630959D01*
X105983193Y-36631067D01*
X106011356Y-36631157D01*
X106040255Y-36631230D01*
X106069694Y-36631285D01*
X106099477Y-36631323D01*
X106129406Y-36631343D01*
X106159286Y-36631345D01*
X106188920Y-36631329D01*
X106218111Y-36631295D01*
X106246664Y-36631243D01*
X106274381Y-36631172D01*
X106301067Y-36631084D01*
X106326524Y-36630977D01*
X106350557Y-36630851D01*
X106372969Y-36630707D01*
X106393564Y-36630544D01*
X106412144Y-36630362D01*
X106428515Y-36630162D01*
X106442478Y-36629943D01*
X106453839Y-36629704D01*
X106462399Y-36629447D01*
X106467964Y-36629170D01*
X106470000Y-36628960D01*
X106491694Y-36623433D01*
X106511771Y-36615069D01*
X106530051Y-36604039D01*
X106546355Y-36590514D01*
X106560503Y-36574663D01*
X106572318Y-36556657D01*
X106581620Y-36536666D01*
X106587739Y-36516938D01*
X106589563Y-36506090D01*
X106590456Y-36493223D01*
X106590434Y-36479511D01*
X106589514Y-36466130D01*
X106587711Y-36454257D01*
X106586828Y-36450500D01*
X106579527Y-36429154D01*
X106569482Y-36409596D01*
X106556867Y-36392001D01*
X106541855Y-36376548D01*
X106524620Y-36363411D01*
X106505337Y-36352769D01*
X106484179Y-36344796D01*
X106482132Y-36344199D01*
X106469166Y-36340511D01*
X106137500Y-36339672D01*
X106098261Y-36339571D01*
X106062218Y-36339475D01*
X106029231Y-36339382D01*
X105999162Y-36339290D01*
X105971874Y-36339199D01*
X105947228Y-36339106D01*
X105925084Y-36339010D01*
X105905306Y-36338909D01*
X105887755Y-36338803D01*
X105872292Y-36338689D01*
X105858779Y-36338566D01*
X105847078Y-36338432D01*
X105837051Y-36338286D01*
X105828558Y-36338127D01*
X105821463Y-36337953D01*
X105815626Y-36337762D01*
X105810909Y-36337553D01*
X105807174Y-36337325D01*
X105804283Y-36337075D01*
X105802097Y-36336803D01*
X105800478Y-36336507D01*
X105799288Y-36336186D01*
X105798731Y-36335984D01*
X105785682Y-36329056D01*
X105774773Y-36319589D01*
X105765966Y-36307543D01*
X105762707Y-36301333D01*
X105759166Y-36293833D01*
X105758333Y-35960500D01*
X105757500Y-35627166D01*
X105752896Y-35612487D01*
X105744809Y-35591452D01*
X105734375Y-35572642D01*
X105721396Y-35555732D01*
X105712379Y-35546435D01*
X105695702Y-35532813D01*
X105677392Y-35521914D01*
X105657817Y-35513844D01*
X105637345Y-35508709D01*
X105616345Y-35506615D01*
X105595185Y-35507670D01*
X105584166Y-35509512D01*
X105562999Y-35515369D01*
X105543858Y-35523740D01*
X105526384Y-35534809D01*
X105512620Y-35546435D01*
X105498031Y-35562367D01*
X105486106Y-35580006D01*
X105476646Y-35599678D01*
X105472103Y-35612487D01*
X105467500Y-35627166D01*
X105467500Y-35971333D01*
X105467500Y-36315500D01*
X104508117Y-36315500D01*
X104508452Y-36214747D01*
X104767142Y-36214240D01*
X104802261Y-36214173D01*
X104834216Y-36214113D01*
X104863181Y-36214053D01*
X104889325Y-36213987D01*
X104912820Y-36213910D01*
X104933836Y-36213814D01*
X104952545Y-36213694D01*
X104969118Y-36213544D01*
X104983725Y-36213357D01*
X104996538Y-36213127D01*
X105007727Y-36212848D01*
X105017464Y-36212513D01*
X105025920Y-36212118D01*
X105033265Y-36211654D01*
X105039670Y-36211117D01*
X105045307Y-36210500D01*
X105050347Y-36209797D01*
X105054960Y-36209001D01*
X105059317Y-36208107D01*
X105063590Y-36207109D01*
X105067950Y-36205999D01*
X105072567Y-36204772D01*
X105077612Y-36203422D01*
X105079391Y-36202951D01*
X105112223Y-36192601D01*
X105143577Y-36179295D01*
X105173323Y-36163127D01*
X105201333Y-36144189D01*
X105227476Y-36122574D01*
X105251624Y-36098376D01*
X105273647Y-36071687D01*
X105285494Y-36054955D01*
X105293427Y-36042090D01*
X105301660Y-36026974D01*
X105309714Y-36010598D01*
X105317114Y-35993953D01*
X105323382Y-35978030D01*
X105325717Y-35971333D01*
X105334392Y-35940091D01*
X105340132Y-35907720D01*
X105342918Y-35874711D01*
X105342731Y-35841550D01*
X105339552Y-35808728D01*
X105333423Y-35776986D01*
X105323751Y-35744262D01*
X105311151Y-35712965D01*
X105295777Y-35683252D01*
X105277783Y-35655281D01*
X105257323Y-35629207D01*
X105234552Y-35605189D01*
X105209623Y-35583384D01*
X105182690Y-35563948D01*
X105153907Y-35547038D01*
X105123429Y-35532812D01*
X105091409Y-35521427D01*
X105079514Y-35518048D01*
X105074937Y-35516810D01*
X105070813Y-35515669D01*
X105066997Y-35514622D01*
X105063347Y-35513663D01*
X105059716Y-35512790D01*
X105055962Y-35511999D01*
X105051939Y-35511284D01*
X105047505Y-35510643D01*
X105042513Y-35510072D01*
X105036821Y-35509566D01*
X105030284Y-35509122D01*
X105022757Y-35508735D01*
X105014098Y-35508403D01*
X105004160Y-35508119D01*
X104992801Y-35507882D01*
X104979875Y-35507687D01*
X104965240Y-35507529D01*
X104948749Y-35507405D01*
X104930260Y-35507311D01*
X104909628Y-35507244D01*
X104886709Y-35507198D01*
X104861358Y-35507170D01*
X104833432Y-35507157D01*
X104802786Y-35507154D01*
X104769276Y-35507157D01*
X104732757Y-35507162D01*
X104693086Y-35507166D01*
X104682500Y-35507166D01*
X104337500Y-35507166D01*
X104324413Y-35510958D01*
X104303539Y-35518637D01*
X104284359Y-35528973D01*
X104267096Y-35541732D01*
X104251971Y-35556676D01*
X104239208Y-35573572D01*
X104229028Y-35592183D01*
X104221654Y-35612274D01*
X104219158Y-35622460D01*
X104218894Y-35624034D01*
X104218648Y-35626179D01*
X104218421Y-35629014D01*
X104218211Y-35632660D01*
X104218018Y-35637235D01*
X104217841Y-35642859D01*
X104217679Y-35649651D01*
X104217533Y-35657730D01*
X104217401Y-35667216D01*
X104217282Y-35678229D01*
X104217177Y-35690887D01*
X104217083Y-35705310D01*
X104217001Y-35721617D01*
X104216930Y-35739929D01*
X104216869Y-35760363D01*
X104216818Y-35783041D01*
X104216775Y-35808080D01*
X104216741Y-35835600D01*
X104216714Y-35865721D01*
X104216694Y-35898562D01*
X104216680Y-35934243D01*
X104216672Y-35972883D01*
X104216668Y-36014601D01*
X103974041Y-36014601D01*
X103958333Y-36001093D01*
X103935135Y-35984204D01*
X103909700Y-35968747D01*
X103882839Y-35955125D01*
X103855368Y-35943746D01*
X103828098Y-35935014D01*
X103823333Y-35933770D01*
X103818122Y-35932444D01*
X103813413Y-35931244D01*
X103809025Y-35930163D01*
X103804778Y-35929193D01*
X103800490Y-35928329D01*
X103795981Y-35927562D01*
X103791070Y-35926887D01*
X103785575Y-35926297D01*
X103779316Y-35925784D01*
X103772112Y-35925342D01*
X103763782Y-35924965D01*
X103754145Y-35924644D01*
X103743020Y-35924374D01*
X103730226Y-35924148D01*
X103715583Y-35923959D01*
X103698909Y-35923800D01*
X103680024Y-35923664D01*
X103658747Y-35923544D01*
X103634896Y-35923435D01*
X103608292Y-35923328D01*
X103578752Y-35923217D01*
X103546096Y-35923095D01*
X103539130Y-35923068D01*
X103302426Y-35922166D01*
X103291455Y-35916764D01*
X103279634Y-35909206D01*
X103269441Y-35899229D01*
X103261608Y-35887582D01*
X103260348Y-35885030D01*
X103256989Y-35874446D01*
X103255700Y-35862403D01*
X103256493Y-35850063D01*
X103259384Y-35838592D01*
X103259769Y-35837588D01*
X103265726Y-35826631D01*
X103274261Y-35816557D01*
X103284618Y-35808164D01*
X103291344Y-35804290D01*
X103302428Y-35798833D01*
X103635797Y-35797945D01*
X103674986Y-35797840D01*
X103710982Y-35797742D01*
X103743926Y-35797650D01*
X103773960Y-35797560D01*
X103801224Y-35797473D01*
X103825859Y-35797385D01*
X103848006Y-35797295D01*
X103867806Y-35797201D01*
X103885400Y-35797102D01*
X103900928Y-35796995D01*
X103914531Y-35796879D01*
X103926351Y-35796753D01*
X103936527Y-35796614D01*
X103945202Y-35796460D01*
X103952516Y-35796290D01*
X103958610Y-35796102D01*
X103963624Y-35795895D01*
X103967699Y-35795666D01*
X103970977Y-35795413D01*
X103973599Y-35795136D01*
X103975704Y-35794831D01*
X103977435Y-35794498D01*
X103978931Y-35794135D01*
X103980334Y-35793739D01*
X103980833Y-35793592D01*
X104002502Y-35785785D01*
X104021928Y-35775945D01*
X104038833Y-35764219D01*
X104042431Y-35761186D01*
X104049824Y-35753790D01*
X104057740Y-35744310D01*
X104065426Y-35733744D01*
X104072128Y-35723088D01*
X104074517Y-35718731D01*
X104082848Y-35699232D01*
X104088197Y-35678777D01*
X104090552Y-35657810D01*
X104089905Y-35636776D01*
X104086244Y-35616119D01*
X104079559Y-35596285D01*
X104077472Y-35591629D01*
X104066591Y-35571990D01*
X104053642Y-35554932D01*
X104038490Y-35540330D01*
X104021003Y-35528055D01*
X104001044Y-35517983D01*
X103998333Y-35516857D01*
X103995668Y-35515749D01*
X103993264Y-35514728D01*
X103990983Y-35513791D01*
X103988684Y-35512935D01*
X103986227Y-35512155D01*
X103983472Y-35511449D01*
X103980281Y-35510813D01*
X103976512Y-35510242D01*
X103972025Y-35509734D01*
X103966682Y-35509285D01*
X103960342Y-35508891D01*
X103952866Y-35508548D01*
X103944112Y-35508254D01*
X103933943Y-35508004D01*
X103922217Y-35507795D01*
X103908795Y-35507624D01*
X103893538Y-35507486D01*
X103876304Y-35507378D01*
X103856955Y-35507296D01*
X103835350Y-35507238D01*
X103811350Y-35507199D01*
X103784815Y-35507175D01*
X103755604Y-35507163D01*
X103723579Y-35507160D01*
X103688599Y-35507162D01*
X103650525Y-35507165D01*
X103621666Y-35507166D01*
X103279166Y-35507166D01*
X103259166Y-35510950D01*
X103233582Y-35516480D01*
X103210176Y-35523080D01*
X103187867Y-35531109D01*
X103165577Y-35540927D01*
X103157897Y-35544694D01*
X103128120Y-35561466D01*
X103100431Y-35580773D01*
X103074937Y-35602470D01*
X103051745Y-35626409D01*
X103030964Y-35652447D01*
X103012701Y-35680435D01*
X102997064Y-35710229D01*
X102984160Y-35741682D01*
X102974096Y-35774649D01*
X102968107Y-35802326D01*
X102966252Y-35815721D01*
X102964946Y-35831426D01*
X102964197Y-35848538D01*
X102964009Y-35866154D01*
X102283615Y-35866154D01*
X102283994Y-35860407D01*
X102290166Y-35797166D01*
X102301914Y-35706091D01*
X102316887Y-35615830D01*
X102335065Y-35526439D01*
X102356428Y-35437973D01*
X102380957Y-35350488D01*
X102408630Y-35264040D01*
X102439428Y-35178682D01*
X102473331Y-35094472D01*
X102510318Y-35011464D01*
X102550369Y-34929713D01*
X102593464Y-34849275D01*
X102639583Y-34770206D01*
X102688706Y-34692560D01*
X102697247Y-34679666D01*
X102748216Y-34606197D01*
X102802015Y-34534394D01*
X102858493Y-34464428D01*
X102917500Y-34396470D01*
X102978888Y-34330691D01*
X103042507Y-34267262D01*
X103108207Y-34206353D01*
X103125251Y-34191266D01*
X103195542Y-34131825D01*
X103267626Y-34075182D01*
X103341458Y-34021362D01*
X103416996Y-33970389D01*
X103494194Y-33922287D01*
X103573008Y-33877082D01*
X103653393Y-33834797D01*
X103735306Y-33795458D01*
X103818703Y-33759088D01*
X103903538Y-33725712D01*
X103989768Y-33695355D01*
X104062500Y-33672429D01*
X104140549Y-33650595D01*
X104220460Y-33631134D01*
X104301646Y-33614153D01*
X104383523Y-33599760D01*
X104465508Y-33588063D01*
X104547015Y-33579167D01*
X104590000Y-33575613D01*
X104653243Y-33571835D01*
X104717909Y-33569623D01*
X104783090Y-33568977D01*
X104847881Y-33569897D01*
G37*
X92015000Y-33590000D02*
X93345000Y-33590000D01*
X92015000Y-34920000D02*
X92015000Y-33590000D01*
X92015000Y-36190000D02*
X92015000Y-38790000D01*
X92015000Y-36190000D02*
X94675000Y-36190000D01*
X92015000Y-38790000D02*
X94675000Y-38790000D01*
X94675000Y-36190000D02*
X94675000Y-38790000D01*
X98947000Y-68081000D02*
X98947000Y-72381000D01*
X98947000Y-68081000D02*
X104757000Y-68081000D01*
X98947000Y-72381000D02*
X104757000Y-72381000D01*
X101633721Y-59815000D02*
X101959279Y-59815000D01*
X101633721Y-60835000D02*
X101959279Y-60835000D01*
X104874500Y-63281779D02*
X104874500Y-62956221D01*
X105894500Y-63281779D02*
X105894500Y-62956221D01*
X95087221Y-67943000D02*
X95412779Y-67943000D01*
X95087221Y-68963000D02*
X95412779Y-68963000D01*
X105748000Y-44661000D02*
X105748000Y-39921000D01*
X105748000Y-44661000D02*
X105417000Y-44661000D01*
X105748000Y-39921000D02*
X104618000Y-39921000D01*
X103637000Y-44661000D02*
X103118000Y-44661000D01*
X102138000Y-39921000D02*
X101008000Y-39921000D01*
X101338000Y-44661000D02*
X101008000Y-44661000D01*
X101008000Y-44661000D02*
X101008000Y-39921000D01*
X95087221Y-70991000D02*
X95412779Y-70991000D01*
X95087221Y-72011000D02*
X95412779Y-72011000D01*
X102779000Y-53864500D02*
X102779000Y-52104500D01*
X99709000Y-52104500D02*
X99709000Y-54534500D01*
X105793000Y-50383221D02*
X105793000Y-50708779D01*
X104773000Y-50383221D02*
X104773000Y-50708779D01*
X98423000Y-48930779D02*
X98423000Y-48605221D01*
X99443000Y-48930779D02*
X99443000Y-48605221D01*
X95455779Y-42547000D02*
X95130221Y-42547000D01*
X95455779Y-41527000D02*
X95130221Y-41527000D01*
X107160000Y-83820000D02*
G75*
G03*
X107160000Y-83820000I-1750000J0D01*
G01*
X101145000Y-83820000D02*
G75*
G03*
X101145000Y-83820000I-1450000J0D01*
G01*
X96623250Y-44261721D02*
X96623250Y-44587279D01*
X95603250Y-44261721D02*
X95603250Y-44587279D01*
X95087221Y-74039000D02*
X95412779Y-74039000D01*
X95087221Y-75059000D02*
X95412779Y-75059000D01*
X101145000Y-35560000D02*
G75*
G03*
X101145000Y-35560000I-1450000J0D01*
G01*
X99349779Y-39118000D02*
X99024221Y-39118000D01*
X99349779Y-38098000D02*
X99024221Y-38098000D01*
X101056221Y-47902500D02*
X101381779Y-47902500D01*
X101056221Y-48922500D02*
X101381779Y-48922500D01*
X97906000Y-44282000D02*
X99706000Y-44282000D01*
X99706000Y-41062000D02*
X97256000Y-41062000D01*
M02*
