%TF.GenerationSoftware,KiCad,Pcbnew,7.0.6*%
%TF.CreationDate,2023-11-17T13:49:41+01:00*%
%TF.ProjectId,dc_64a,64635f36-3461-42e6-9b69-6361645f7063,rev?*%
%TF.SameCoordinates,Original*%
%TF.FileFunction,Copper,L1,Top*%
%TF.FilePolarity,Positive*%
%FSLAX46Y46*%
G04 Gerber Fmt 4.6, Leading zero omitted, Abs format (unit mm)*
G04 Created by KiCad (PCBNEW 7.0.6) date 2023-11-17 13:49:41*
%MOMM*%
%LPD*%
G01*
G04 APERTURE LIST*
G04 Aperture macros list*
%AMRoundRect*
0 Rectangle with rounded corners*
0 $1 Rounding radius*
0 $2 $3 $4 $5 $6 $7 $8 $9 X,Y pos of 4 corners*
0 Add a 4 corners polygon primitive as box body*
4,1,4,$2,$3,$4,$5,$6,$7,$8,$9,$2,$3,0*
0 Add four circle primitives for the rounded corners*
1,1,$1+$1,$2,$3*
1,1,$1+$1,$4,$5*
1,1,$1+$1,$6,$7*
1,1,$1+$1,$8,$9*
0 Add four rect primitives between the rounded corners*
20,1,$1+$1,$2,$3,$4,$5,0*
20,1,$1+$1,$4,$5,$6,$7,0*
20,1,$1+$1,$6,$7,$8,$9,0*
20,1,$1+$1,$8,$9,$2,$3,0*%
%AMFreePoly0*
4,1,19,0.500000,-0.750000,0.000000,-0.750000,0.000000,-0.744911,-0.071157,-0.744911,-0.207708,-0.704816,-0.327430,-0.627875,-0.420627,-0.520320,-0.479746,-0.390866,-0.500000,-0.250000,-0.500000,0.250000,-0.479746,0.390866,-0.420627,0.520320,-0.327430,0.627875,-0.207708,0.704816,-0.071157,0.744911,0.000000,0.744911,0.000000,0.750000,0.500000,0.750000,0.500000,-0.750000,0.500000,-0.750000,
$1*%
%AMFreePoly1*
4,1,19,0.000000,0.744911,0.071157,0.744911,0.207708,0.704816,0.327430,0.627875,0.420627,0.520320,0.479746,0.390866,0.500000,0.250000,0.500000,-0.250000,0.479746,-0.390866,0.420627,-0.520320,0.327430,-0.627875,0.207708,-0.704816,0.071157,-0.744911,0.000000,-0.744911,0.000000,-0.750000,-0.500000,-0.750000,-0.500000,0.750000,0.000000,0.750000,0.000000,0.744911,0.000000,0.744911,
$1*%
G04 Aperture macros list end*
%TA.AperFunction,SMDPad,CuDef*%
%ADD10RoundRect,0.218750X-0.218750X-0.256250X0.218750X-0.256250X0.218750X0.256250X-0.218750X0.256250X0*%
%TD*%
%TA.AperFunction,SMDPad,CuDef*%
%ADD11R,1.220000X0.650000*%
%TD*%
%TA.AperFunction,SMDPad,CuDef*%
%ADD12RoundRect,0.218750X0.256250X-0.218750X0.256250X0.218750X-0.256250X0.218750X-0.256250X-0.218750X0*%
%TD*%
%TA.AperFunction,SMDPad,CuDef*%
%ADD13RoundRect,0.218750X0.218750X0.256250X-0.218750X0.256250X-0.218750X-0.256250X0.218750X-0.256250X0*%
%TD*%
%TA.AperFunction,SMDPad,CuDef*%
%ADD14RoundRect,0.250000X-1.825000X-0.700000X1.825000X-0.700000X1.825000X0.700000X-1.825000X0.700000X0*%
%TD*%
%TA.AperFunction,SMDPad,CuDef*%
%ADD15RoundRect,0.218750X-0.256250X0.218750X-0.256250X-0.218750X0.256250X-0.218750X0.256250X0.218750X0*%
%TD*%
%TA.AperFunction,SMDPad,CuDef*%
%ADD16R,1.600000X5.700000*%
%TD*%
%TA.AperFunction,SMDPad,CuDef*%
%ADD17FreePoly0,270.000000*%
%TD*%
%TA.AperFunction,SMDPad,CuDef*%
%ADD18FreePoly1,270.000000*%
%TD*%
%TA.AperFunction,SMDPad,CuDef*%
%ADD19R,1.000000X1.000000*%
%TD*%
%TA.AperFunction,SMDPad,CuDef*%
%ADD20R,5.700000X1.600000*%
%TD*%
%TA.AperFunction,ComponentPad*%
%ADD21C,3.000000*%
%TD*%
%TA.AperFunction,ComponentPad*%
%ADD22R,1.700000X1.700000*%
%TD*%
%TA.AperFunction,ComponentPad*%
%ADD23O,1.700000X1.700000*%
%TD*%
%TA.AperFunction,SMDPad,CuDef*%
%ADD24RoundRect,0.250000X-1.000000X-0.900000X1.000000X-0.900000X1.000000X0.900000X-1.000000X0.900000X0*%
%TD*%
%TA.AperFunction,SMDPad,CuDef*%
%ADD25R,1.300000X1.300000*%
%TD*%
%TA.AperFunction,SMDPad,CuDef*%
%ADD26R,2.000000X1.300000*%
%TD*%
%TA.AperFunction,SMDPad,CuDef*%
%ADD27R,0.650000X1.220000*%
%TD*%
%TA.AperFunction,ComponentPad*%
%ADD28C,2.500000*%
%TD*%
%TA.AperFunction,SMDPad,CuDef*%
%ADD29R,1.060000X0.650000*%
%TD*%
%TA.AperFunction,ViaPad*%
%ADD30C,0.600000*%
%TD*%
%TA.AperFunction,Conductor*%
%ADD31C,0.400000*%
%TD*%
%TA.AperFunction,Conductor*%
%ADD32C,0.300000*%
%TD*%
%TA.AperFunction,Conductor*%
%ADD33C,0.500000*%
%TD*%
G04 APERTURE END LIST*
D10*
X101041000Y-65405000D03*
X102616000Y-65405000D03*
X97536000Y-45212000D03*
X99111000Y-45212000D03*
X94462500Y-66929000D03*
X96037500Y-66929000D03*
D11*
X101147000Y-61915000D03*
X101147000Y-62865000D03*
X101147000Y-63815000D03*
X103767000Y-63815000D03*
X103767000Y-62865000D03*
X103767000Y-61915000D03*
D12*
X104114500Y-66954500D03*
X104114500Y-65379500D03*
D10*
X104241500Y-57429500D03*
X105816500Y-57429500D03*
D13*
X101986500Y-49961800D03*
X100411500Y-49961800D03*
D10*
X94462500Y-69977000D03*
X96037500Y-69977000D03*
D14*
X98379000Y-76962000D03*
X105329000Y-76962000D03*
D15*
X103739000Y-49758500D03*
X103739000Y-51333500D03*
X103739000Y-52806500D03*
X103739000Y-54381500D03*
D16*
X99092000Y-62865000D03*
X94392000Y-62865000D03*
D12*
X97409000Y-49555500D03*
X97409000Y-47980500D03*
D13*
X99974500Y-40132000D03*
X98399500Y-40132000D03*
D10*
X104241500Y-55905500D03*
X105816500Y-55905500D03*
D17*
X94081250Y-43774500D03*
D18*
X94081250Y-45074500D03*
D19*
X102703000Y-56159400D03*
X100203000Y-56159400D03*
D15*
X105638500Y-65379500D03*
X105638500Y-66954500D03*
D20*
X96012000Y-51371000D03*
X96012000Y-56071000D03*
D21*
X93980000Y-78740000D03*
D15*
X105283000Y-52806500D03*
X105283000Y-54381500D03*
D10*
X101041000Y-66929000D03*
X102616000Y-66929000D03*
X104241500Y-58953500D03*
X105816500Y-58953500D03*
X94462500Y-73025000D03*
X96037500Y-73025000D03*
D22*
X93345000Y-34920000D03*
D23*
X93345000Y-37460000D03*
D24*
X100457000Y-70231000D03*
X104757000Y-70231000D03*
D10*
X101009000Y-60325000D03*
X102584000Y-60325000D03*
D12*
X105384500Y-63906500D03*
X105384500Y-62331500D03*
D10*
X94462500Y-68453000D03*
X96037500Y-68453000D03*
D25*
X102228000Y-45041000D03*
D26*
X103378000Y-39541000D03*
D25*
X104528000Y-45041000D03*
D10*
X94462500Y-71501000D03*
X96037500Y-71501000D03*
D27*
X100269000Y-54294500D03*
X101219000Y-54294500D03*
X102169000Y-54294500D03*
X102169000Y-51674500D03*
X100269000Y-51674500D03*
D15*
X105283000Y-49758500D03*
X105283000Y-51333500D03*
D12*
X98933000Y-49555500D03*
X98933000Y-47980500D03*
D13*
X96080500Y-42037000D03*
X94505500Y-42037000D03*
D21*
X105410000Y-83820000D03*
D28*
X99695000Y-83820000D03*
D15*
X96113250Y-43637000D03*
X96113250Y-45212000D03*
D10*
X94462500Y-74549000D03*
X96037500Y-74549000D03*
D28*
X99695000Y-35560000D03*
D13*
X99974500Y-38608000D03*
X98399500Y-38608000D03*
D10*
X100431500Y-48412500D03*
X102006500Y-48412500D03*
D29*
X97706000Y-41722000D03*
X97706000Y-42672000D03*
X97706000Y-43622000D03*
X99906000Y-43622000D03*
X99906000Y-41722000D03*
D30*
X106637000Y-41275000D03*
X101346000Y-55651500D03*
X102743000Y-76581000D03*
X107061000Y-79883000D03*
X102463500Y-62230000D03*
X96520000Y-38608000D03*
X105283000Y-48666500D03*
X92202000Y-50800000D03*
X106172000Y-37846000D03*
X100457000Y-52984500D03*
X94107000Y-47625000D03*
X106934000Y-55905500D03*
X105384500Y-61214000D03*
X104521000Y-46355000D03*
X97028000Y-54102000D03*
X107188000Y-51968500D03*
X96901000Y-78867000D03*
X96901000Y-66929000D03*
X96901000Y-80391000D03*
X101981000Y-47498000D03*
X102463500Y-62992000D03*
X102997000Y-70993000D03*
X95631000Y-75946000D03*
X96901000Y-74549000D03*
X95758000Y-49530000D03*
X102616000Y-68072000D03*
X96901000Y-71501000D03*
X102870000Y-80645000D03*
X98933000Y-47117000D03*
X106299000Y-49809500D03*
X96901000Y-68453000D03*
X96901000Y-69977000D03*
X96647000Y-36195000D03*
X102997000Y-70231000D03*
X92159000Y-44831000D03*
X102463500Y-61468000D03*
X97409000Y-47117000D03*
X107061000Y-71374000D03*
X106553000Y-34290000D03*
X93345000Y-49022000D03*
X101219000Y-52984500D03*
X102997000Y-69469000D03*
X106934000Y-57429500D03*
X106934000Y-58953500D03*
X106807000Y-46736000D03*
X106934000Y-55143500D03*
X106934000Y-58191500D03*
X93175000Y-40386000D03*
X98806000Y-42672000D03*
X98171000Y-54102000D03*
X102870000Y-85471000D03*
X103124000Y-48412500D03*
X101600000Y-38354000D03*
X107061000Y-65659000D03*
X107061000Y-74549000D03*
X104140000Y-68072000D03*
X106934000Y-56667500D03*
X102997000Y-34417000D03*
X102743000Y-75819000D03*
X98298000Y-66675000D03*
X102743000Y-77343000D03*
X101981000Y-52984500D03*
X102743000Y-78105000D03*
X103378000Y-41656000D03*
X93726000Y-52578000D03*
X97536000Y-52578000D03*
X96012000Y-52578000D03*
X96774000Y-52578000D03*
X95250000Y-52578000D03*
X94488000Y-52578000D03*
X98298000Y-52578000D03*
X95631000Y-62103000D03*
X95631000Y-63627000D03*
X96393000Y-63627000D03*
X95631000Y-62865000D03*
X97282000Y-72390000D03*
X96393000Y-60579000D03*
X97028000Y-40767000D03*
X95631000Y-60579000D03*
X95631000Y-64389000D03*
X105638500Y-67691000D03*
X96393000Y-62865000D03*
X95631000Y-65151000D03*
X96393000Y-62103000D03*
X96393000Y-65151000D03*
X95631000Y-61341000D03*
X96393000Y-61341000D03*
X96393000Y-64389000D03*
D31*
X102616000Y-66929000D02*
X102616000Y-65405000D01*
D32*
X97706000Y-42672000D02*
X98806000Y-42672000D01*
D31*
X103767000Y-62865000D02*
X104343000Y-62865000D01*
X104343000Y-62865000D02*
X105384500Y-63906500D01*
D33*
X99092000Y-61531000D02*
X99092000Y-62865000D01*
X101147000Y-62865000D02*
X99092000Y-62865000D01*
X100298000Y-60325000D02*
X99092000Y-61531000D01*
X101009000Y-60325000D02*
X100298000Y-60325000D01*
X103767000Y-61381000D02*
X103767000Y-61915000D01*
X102711000Y-60325000D02*
X103767000Y-61381000D01*
X102584000Y-60325000D02*
X102711000Y-60325000D01*
X100269000Y-56093400D02*
X100203000Y-56159400D01*
X100269000Y-54294500D02*
X100269000Y-56093400D01*
X100114600Y-56071000D02*
X100203000Y-56159400D01*
X96012000Y-56071000D02*
X100114600Y-56071000D01*
D31*
X104114500Y-65379500D02*
X104114500Y-64162500D01*
X104114500Y-65379500D02*
X105638500Y-65379500D01*
X104114500Y-64162500D02*
X103767000Y-63815000D01*
D33*
X102169000Y-50144300D02*
X101986500Y-49961800D01*
X102169000Y-51674500D02*
X102169000Y-50144300D01*
X103739000Y-52806500D02*
X103739000Y-51333500D01*
X103657000Y-52806500D02*
X102169000Y-54294500D01*
X103739000Y-52806500D02*
X103657000Y-52806500D01*
D31*
X94505500Y-42037000D02*
X94505500Y-38620500D01*
X94505500Y-38620500D02*
X93345000Y-37460000D01*
D32*
X94462500Y-74549000D02*
X94462500Y-73025000D01*
D33*
X105283000Y-52806500D02*
X105283000Y-51333500D01*
X100411500Y-49961800D02*
X100411500Y-48432500D01*
X100269000Y-51674500D02*
X100243500Y-51649000D01*
X100411500Y-48432500D02*
X100431500Y-48412500D01*
X100983700Y-63978300D02*
X101147000Y-63815000D01*
X100269000Y-51674500D02*
X100269000Y-50800000D01*
X100411500Y-49961800D02*
X100411500Y-50657500D01*
X100411500Y-50657500D02*
X100269000Y-50800000D01*
X100243500Y-51649000D02*
X96290000Y-51649000D01*
X96290000Y-51649000D02*
X96012000Y-51371000D01*
X100983700Y-65405000D02*
X100983700Y-63978300D01*
X104241500Y-57429500D02*
X104241500Y-58953500D01*
X102703000Y-56159400D02*
X102703000Y-55417500D01*
X103739000Y-54381500D02*
X105283000Y-54381500D01*
X102703000Y-55417500D02*
X103739000Y-54381500D01*
X104241500Y-55905500D02*
X104241500Y-57429500D01*
X102768400Y-56159400D02*
X102703000Y-56159400D01*
X94462500Y-69977000D02*
X94462500Y-71501000D01*
X94462500Y-68453000D02*
X94462500Y-69977000D01*
X94462500Y-62935500D02*
X94392000Y-62865000D01*
D31*
X97706000Y-41722000D02*
X97706000Y-41445000D01*
D33*
X94462500Y-66929000D02*
X94462500Y-62935500D01*
D31*
X105638500Y-66954500D02*
X105638500Y-67691000D01*
D33*
X94462500Y-66929000D02*
X94462500Y-68453000D01*
D32*
X96037500Y-73025000D02*
X96647000Y-73025000D01*
X96647000Y-73025000D02*
X97282000Y-72390000D01*
D31*
X97706000Y-41445000D02*
X97028000Y-40767000D01*
D32*
X99974500Y-40132000D02*
X100101500Y-40005000D01*
X102914000Y-40005000D02*
X103378000Y-39541000D01*
X100101500Y-40005000D02*
X102914000Y-40005000D01*
X103109000Y-43622000D02*
X99906000Y-43622000D01*
D31*
X99974500Y-40132000D02*
X99974500Y-41653500D01*
X99906000Y-41722000D02*
X99906000Y-43622000D01*
X99974500Y-41653500D02*
X99906000Y-41722000D01*
D32*
X99974500Y-38608000D02*
X99974500Y-40132000D01*
X104528000Y-45041000D02*
X103109000Y-43622000D01*
X95975750Y-43774500D02*
X96113250Y-43637000D01*
X96128250Y-43622000D02*
X96113250Y-43637000D01*
X96080500Y-42037000D02*
X96080500Y-43604250D01*
X94081250Y-43774500D02*
X95975750Y-43774500D01*
X97706000Y-43622000D02*
X96128250Y-43622000D01*
X96080500Y-43604250D02*
X96113250Y-43637000D01*
X94218750Y-45212000D02*
X94081250Y-45074500D01*
X96113250Y-45212000D02*
X94218750Y-45212000D01*
X97536000Y-45212000D02*
X96113250Y-45212000D01*
D31*
X99111000Y-45212000D02*
X99749000Y-45212000D01*
D32*
X102228000Y-45041000D02*
X99920000Y-45041000D01*
X99920000Y-45041000D02*
X99749000Y-45212000D01*
%TA.AperFunction,Conductor*%
G36*
X104591039Y-55417185D02*
G01*
X104636794Y-55469989D01*
X104648000Y-55521500D01*
X104648000Y-59312000D01*
X104628315Y-59379039D01*
X104575511Y-59424794D01*
X104524000Y-59436000D01*
X93345000Y-59436000D01*
X93345000Y-57171499D01*
X98906864Y-57171499D01*
X98906879Y-57171497D01*
X98906882Y-57171497D01*
X98931987Y-57168586D01*
X98931988Y-57168585D01*
X98931991Y-57168585D01*
X98948703Y-57161206D01*
X98950153Y-57160566D01*
X99000239Y-57150000D01*
X102235000Y-57150000D01*
X102235000Y-55521500D01*
X102254685Y-55454461D01*
X102307489Y-55408706D01*
X102359000Y-55397500D01*
X104524000Y-55397500D01*
X104591039Y-55417185D01*
G37*
%TD.AperFunction*%
%TA.AperFunction,Conductor*%
G36*
X100781039Y-49168685D02*
G01*
X100826794Y-49221489D01*
X100838000Y-49273000D01*
X100838000Y-51764637D01*
X100818315Y-51831676D01*
X100801681Y-51852318D01*
X100239674Y-52414324D01*
X100199450Y-52441202D01*
X100154159Y-52459963D01*
X100154158Y-52459964D01*
X100028718Y-52556218D01*
X99932464Y-52681658D01*
X99932463Y-52681659D01*
X99913702Y-52726950D01*
X99886825Y-52767174D01*
X99819000Y-52835000D01*
X99731317Y-52922682D01*
X99669997Y-52956166D01*
X99643638Y-52959000D01*
X93342000Y-52959000D01*
X93274961Y-52939315D01*
X93229206Y-52886511D01*
X93218000Y-52835000D01*
X93218000Y-50670000D01*
X93237685Y-50602961D01*
X93290489Y-50557206D01*
X93342000Y-50546000D01*
X96773999Y-50546000D01*
X96774000Y-50546000D01*
X96774000Y-49273000D01*
X96793685Y-49205961D01*
X96846489Y-49160206D01*
X96898000Y-49149000D01*
X100714000Y-49149000D01*
X100781039Y-49168685D01*
G37*
%TD.AperFunction*%
%TA.AperFunction,Conductor*%
G36*
X101543039Y-63519685D02*
G01*
X101588794Y-63572489D01*
X101600000Y-63624000D01*
X101600000Y-86210500D01*
X101580315Y-86277539D01*
X101527511Y-86323294D01*
X101476000Y-86334500D01*
X97939500Y-86334500D01*
X97872461Y-86314815D01*
X97826706Y-86262011D01*
X97815500Y-86210500D01*
X97815500Y-81309738D01*
X97817601Y-81299177D01*
X97817601Y-81279999D01*
X97800078Y-81237695D01*
X97803848Y-81236133D01*
X97792834Y-81215962D01*
X97790000Y-81189604D01*
X97790000Y-72754708D01*
X97804452Y-72700776D01*
X97803426Y-72700351D01*
X97835054Y-72623992D01*
X97867044Y-72546762D01*
X97887682Y-72390000D01*
X97867044Y-72233238D01*
X97806536Y-72087159D01*
X97806535Y-72087158D01*
X97803426Y-72079651D01*
X97804451Y-72079226D01*
X97790000Y-72025292D01*
X97790000Y-68504362D01*
X97809685Y-68437323D01*
X97826319Y-68416681D01*
X97826319Y-68416680D01*
X100584000Y-65659000D01*
X100584000Y-63624000D01*
X100603685Y-63556961D01*
X100656489Y-63511206D01*
X100708000Y-63500000D01*
X101476000Y-63500000D01*
X101543039Y-63519685D01*
G37*
%TD.AperFunction*%
%TA.AperFunction,Conductor*%
G36*
X93345000Y-59436000D02*
G01*
X93345000Y-59960518D01*
X93342617Y-59984711D01*
X93341500Y-59990326D01*
X93341500Y-65739672D01*
X93342617Y-65745287D01*
X93345000Y-65769482D01*
X93345000Y-74803000D01*
X96017181Y-77475181D01*
X96050666Y-77536504D01*
X96053500Y-77562861D01*
X96053500Y-77709869D01*
X96053501Y-77709876D01*
X96059908Y-77769483D01*
X96110202Y-77904327D01*
X96110203Y-77904328D01*
X96110204Y-77904331D01*
X96114265Y-77909755D01*
X96138684Y-77975216D01*
X96139000Y-77984068D01*
X96139000Y-81130500D01*
X96119315Y-81197539D01*
X96066511Y-81243294D01*
X96015000Y-81254500D01*
X91589500Y-81254500D01*
X91522461Y-81234815D01*
X91476706Y-81182011D01*
X91465500Y-81130500D01*
X91465500Y-57274000D01*
X91485185Y-57206961D01*
X91537989Y-57161206D01*
X91589500Y-57150000D01*
X93345000Y-57150000D01*
X93345000Y-59436000D01*
G37*
%TD.AperFunction*%
%TA.AperFunction,Conductor*%
G36*
X96812039Y-60090685D02*
G01*
X96857794Y-60143489D01*
X96869000Y-60195000D01*
X96869000Y-65535000D01*
X96849315Y-65602039D01*
X96796511Y-65647794D01*
X96745000Y-65659000D01*
X93771000Y-65659000D01*
X93703961Y-65639315D01*
X93658206Y-65586511D01*
X93647000Y-65535000D01*
X93647000Y-60195000D01*
X93666685Y-60127961D01*
X93719489Y-60082206D01*
X93771000Y-60071000D01*
X96745000Y-60071000D01*
X96812039Y-60090685D01*
G37*
%TD.AperFunction*%
%TA.AperFunction,Conductor*%
G36*
X106934000Y-71755000D02*
G01*
X102362000Y-71755000D01*
X102362000Y-68707000D01*
X106934000Y-68707000D01*
X106934000Y-71755000D01*
G37*
%TD.AperFunction*%
%TA.AperFunction,Conductor*%
G36*
X101727000Y-37719000D02*
G01*
X97663000Y-37719000D01*
X97663000Y-33045500D01*
X101727000Y-33045500D01*
X101727000Y-37719000D01*
G37*
%TD.AperFunction*%
%TA.AperFunction,Conductor*%
G36*
X97663000Y-37719000D02*
G01*
X101727000Y-37719000D01*
X101727000Y-33045500D01*
X107800500Y-33045500D01*
X107867539Y-33065185D01*
X107913294Y-33117989D01*
X107924500Y-33169500D01*
X107924500Y-75438000D01*
X102235000Y-75438000D01*
X102235000Y-78486000D01*
X107924500Y-78486000D01*
X107924500Y-86210500D01*
X107904815Y-86277539D01*
X107852011Y-86323294D01*
X107800500Y-86334500D01*
X102029500Y-86334500D01*
X101962461Y-86314815D01*
X101916706Y-86262011D01*
X101905500Y-86210500D01*
X101905500Y-83820004D01*
X103654592Y-83820004D01*
X103674196Y-84081620D01*
X103674197Y-84081625D01*
X103732576Y-84337402D01*
X103732578Y-84337411D01*
X103732580Y-84337416D01*
X103828432Y-84581643D01*
X103959614Y-84808857D01*
X104091736Y-84974533D01*
X104123198Y-85013985D01*
X104304753Y-85182441D01*
X104315521Y-85192433D01*
X104532296Y-85340228D01*
X104532301Y-85340230D01*
X104532302Y-85340231D01*
X104532303Y-85340232D01*
X104657843Y-85400688D01*
X104768673Y-85454061D01*
X104768674Y-85454061D01*
X104768677Y-85454063D01*
X105019385Y-85531396D01*
X105278818Y-85570500D01*
X105541182Y-85570500D01*
X105800615Y-85531396D01*
X106051323Y-85454063D01*
X106287704Y-85340228D01*
X106504479Y-85192433D01*
X106696805Y-85013981D01*
X106860386Y-84808857D01*
X106991568Y-84581643D01*
X107087420Y-84337416D01*
X107145802Y-84081630D01*
X107165408Y-83820000D01*
X107145802Y-83558370D01*
X107087420Y-83302584D01*
X106991568Y-83058357D01*
X106860386Y-82831143D01*
X106696805Y-82626019D01*
X106696804Y-82626018D01*
X106696801Y-82626014D01*
X106504479Y-82447567D01*
X106287704Y-82299772D01*
X106287700Y-82299770D01*
X106287697Y-82299768D01*
X106287696Y-82299767D01*
X106051325Y-82185938D01*
X106051327Y-82185938D01*
X105800623Y-82108606D01*
X105800619Y-82108605D01*
X105800615Y-82108604D01*
X105675823Y-82089794D01*
X105541187Y-82069500D01*
X105541182Y-82069500D01*
X105278818Y-82069500D01*
X105278812Y-82069500D01*
X105117247Y-82093853D01*
X105019385Y-82108604D01*
X105019381Y-82108605D01*
X105019382Y-82108605D01*
X105019376Y-82108606D01*
X104768673Y-82185938D01*
X104532303Y-82299767D01*
X104532302Y-82299768D01*
X104315520Y-82447567D01*
X104123198Y-82626014D01*
X103959614Y-82831143D01*
X103828432Y-83058356D01*
X103732582Y-83302578D01*
X103732576Y-83302597D01*
X103674197Y-83558374D01*
X103674196Y-83558379D01*
X103654592Y-83819995D01*
X103654592Y-83820004D01*
X101905500Y-83820004D01*
X101905500Y-71383090D01*
X101913318Y-71339756D01*
X101946422Y-71251000D01*
X101951091Y-71238483D01*
X101957500Y-71178873D01*
X101957499Y-69283128D01*
X101951091Y-69223517D01*
X101913318Y-69122242D01*
X101905500Y-69078909D01*
X101905500Y-68707000D01*
X102362000Y-68707000D01*
X102362000Y-71755000D01*
X106934000Y-71755000D01*
X106934000Y-68707000D01*
X102362000Y-68707000D01*
X101905500Y-68707000D01*
X101905500Y-67713035D01*
X101925185Y-67645996D01*
X101977989Y-67600241D01*
X102047147Y-67590297D01*
X102104426Y-67614232D01*
X102140613Y-67641674D01*
X102273275Y-67693989D01*
X102356644Y-67704000D01*
X102366000Y-67704000D01*
X102366000Y-67179000D01*
X102866000Y-67179000D01*
X102866000Y-67704000D01*
X102875356Y-67704000D01*
X102958724Y-67693989D01*
X103091386Y-67641674D01*
X103205009Y-67555511D01*
X103252244Y-67493221D01*
X103308436Y-67451697D01*
X103378157Y-67447144D01*
X103439272Y-67481009D01*
X103449853Y-67493219D01*
X103487991Y-67543511D01*
X103601613Y-67629674D01*
X103734275Y-67681989D01*
X103817644Y-67692000D01*
X103864500Y-67692000D01*
X103864500Y-67204500D01*
X103376362Y-67204500D01*
X103309323Y-67184815D01*
X103302107Y-67179000D01*
X102866000Y-67179000D01*
X102366000Y-67179000D01*
X102366000Y-64630000D01*
X102356644Y-64630000D01*
X102273275Y-64640010D01*
X102140613Y-64692325D01*
X102104425Y-64719768D01*
X102039113Y-64744591D01*
X101970749Y-64730163D01*
X101921038Y-64681065D01*
X101905500Y-64620964D01*
X101905500Y-64404065D01*
X101925185Y-64337026D01*
X101933621Y-64326556D01*
X101937599Y-64320602D01*
X101937601Y-64320601D01*
X101992966Y-64237740D01*
X102007500Y-64164674D01*
X102007500Y-63465326D01*
X102007500Y-63465325D01*
X102007500Y-63465323D01*
X102007499Y-63465321D01*
X101992966Y-63392259D01*
X101990975Y-63387451D01*
X101983506Y-63317982D01*
X101990977Y-63292542D01*
X101992967Y-63287737D01*
X102005544Y-63224509D01*
X102007500Y-63214674D01*
X102007500Y-62515326D01*
X102001440Y-62484861D01*
X102007666Y-62415272D01*
X102009623Y-62410583D01*
X102054089Y-62309877D01*
X102054089Y-62309875D01*
X102056999Y-62284794D01*
X102057000Y-62284791D01*
X102057000Y-62165000D01*
X101021000Y-62165000D01*
X100953961Y-62145315D01*
X100908206Y-62092511D01*
X100897000Y-62041000D01*
X100897000Y-61789000D01*
X100916685Y-61721961D01*
X100969489Y-61676206D01*
X101021000Y-61665000D01*
X102056999Y-61665000D01*
X102056999Y-61545214D01*
X102056997Y-61545191D01*
X102054091Y-61520130D01*
X102054090Y-61520126D01*
X102008788Y-61417525D01*
X102008785Y-61417520D01*
X101929479Y-61338214D01*
X101929474Y-61338211D01*
X101826876Y-61292910D01*
X101801794Y-61290000D01*
X101353513Y-61290000D01*
X101286474Y-61270315D01*
X101240719Y-61217511D01*
X101230775Y-61148353D01*
X101259800Y-61084797D01*
X101318578Y-61047023D01*
X101325008Y-61045321D01*
X101328513Y-61044491D01*
X101328522Y-61044491D01*
X101454950Y-60997336D01*
X101562972Y-60916472D01*
X101643836Y-60808450D01*
X101680317Y-60710638D01*
X101722189Y-60654704D01*
X101787653Y-60630287D01*
X101855926Y-60645139D01*
X101905332Y-60694544D01*
X101912682Y-60710638D01*
X101949162Y-60808447D01*
X101949164Y-60808450D01*
X102030028Y-60916472D01*
X102136594Y-60996246D01*
X102138049Y-60997335D01*
X102138052Y-60997337D01*
X102264475Y-61044490D01*
X102264478Y-61044491D01*
X102291657Y-61047413D01*
X102320355Y-61050499D01*
X102320370Y-61050500D01*
X102677324Y-61050500D01*
X102744363Y-61070185D01*
X102765005Y-61086819D01*
X102948975Y-61270789D01*
X102982460Y-61332112D01*
X102977476Y-61401804D01*
X102964398Y-61427359D01*
X102921033Y-61492261D01*
X102921032Y-61492264D01*
X102906500Y-61565321D01*
X102906500Y-61565326D01*
X102906500Y-62264674D01*
X102906500Y-62264676D01*
X102906499Y-62264676D01*
X102921033Y-62337740D01*
X102923025Y-62342548D01*
X102930494Y-62412017D01*
X102923025Y-62437452D01*
X102921033Y-62442259D01*
X102906500Y-62515323D01*
X102906500Y-62515326D01*
X102906500Y-63214674D01*
X102906500Y-63214676D01*
X102906499Y-63214676D01*
X102921033Y-63287737D01*
X102923024Y-63292544D01*
X102930494Y-63362014D01*
X102923026Y-63387449D01*
X102921033Y-63392259D01*
X102906500Y-63465323D01*
X102906500Y-64164678D01*
X102921032Y-64237735D01*
X102921033Y-64237739D01*
X102921034Y-64237740D01*
X102976399Y-64320601D01*
X103059259Y-64375965D01*
X103059260Y-64375966D01*
X103059264Y-64375967D01*
X103132321Y-64390499D01*
X103132324Y-64390500D01*
X103132326Y-64390500D01*
X103540000Y-64390500D01*
X103607039Y-64410185D01*
X103652794Y-64462989D01*
X103664000Y-64514500D01*
X103664000Y-64657927D01*
X103644315Y-64724966D01*
X103614311Y-64757194D01*
X103523027Y-64825528D01*
X103481392Y-64881146D01*
X103425458Y-64923016D01*
X103355766Y-64928000D01*
X103294444Y-64894514D01*
X103283322Y-64881759D01*
X103205010Y-64778489D01*
X103091386Y-64692325D01*
X102958724Y-64640010D01*
X102875356Y-64630000D01*
X102866000Y-64630000D01*
X102866000Y-66679000D01*
X103316638Y-66679000D01*
X103383677Y-66698685D01*
X103390893Y-66704500D01*
X104240500Y-66704500D01*
X104307539Y-66724185D01*
X104353294Y-66776989D01*
X104364500Y-66828500D01*
X104364500Y-67692000D01*
X104411356Y-67692000D01*
X104494724Y-67681989D01*
X104627386Y-67629674D01*
X104741010Y-67543510D01*
X104808763Y-67454164D01*
X104864955Y-67412641D01*
X104934676Y-67408089D01*
X104995791Y-67441953D01*
X105006834Y-67454779D01*
X105047028Y-67508472D01*
X105053300Y-67514744D01*
X105051580Y-67516463D01*
X105085645Y-67561972D01*
X105092401Y-67621487D01*
X105083250Y-67690998D01*
X105083250Y-67691000D01*
X105102170Y-67834708D01*
X105102171Y-67834712D01*
X105157637Y-67968622D01*
X105157638Y-67968624D01*
X105157639Y-67968625D01*
X105245879Y-68083621D01*
X105360875Y-68171861D01*
X105494791Y-68227330D01*
X105621780Y-68244048D01*
X105638499Y-68246250D01*
X105638500Y-68246250D01*
X105638501Y-68246250D01*
X105653477Y-68244278D01*
X105782209Y-68227330D01*
X105916125Y-68171861D01*
X106031121Y-68083621D01*
X106119361Y-67968625D01*
X106174830Y-67834709D01*
X106193750Y-67691000D01*
X106184598Y-67621487D01*
X106195363Y-67552454D01*
X106225035Y-67516080D01*
X106223700Y-67514745D01*
X106229971Y-67508473D01*
X106310833Y-67400454D01*
X106310832Y-67400454D01*
X106310836Y-67400450D01*
X106357991Y-67274022D01*
X106362710Y-67230130D01*
X106363999Y-67218144D01*
X106364000Y-67218129D01*
X106364000Y-66690870D01*
X106363999Y-66690855D01*
X106361145Y-66664318D01*
X106357991Y-66634978D01*
X106355340Y-66627870D01*
X106310837Y-66508552D01*
X106310835Y-66508549D01*
X106284154Y-66472907D01*
X106229972Y-66400528D01*
X106121950Y-66319664D01*
X106121947Y-66319662D01*
X106024138Y-66283182D01*
X105968204Y-66241311D01*
X105943787Y-66175847D01*
X105958639Y-66107574D01*
X106008044Y-66058168D01*
X106024138Y-66050818D01*
X106087846Y-66027056D01*
X106121950Y-66014336D01*
X106229972Y-65933472D01*
X106310836Y-65825450D01*
X106357991Y-65699022D01*
X106361646Y-65665023D01*
X106363999Y-65643144D01*
X106364000Y-65643129D01*
X106364000Y-65115870D01*
X106363999Y-65115855D01*
X106361145Y-65089318D01*
X106357991Y-65059978D01*
X106310836Y-64933550D01*
X106229972Y-64825528D01*
X106121950Y-64744664D01*
X106121947Y-64744662D01*
X105988255Y-64694798D01*
X105988959Y-64692909D01*
X105937391Y-64663540D01*
X105905011Y-64601626D01*
X105911244Y-64532035D01*
X105952319Y-64478178D01*
X105975972Y-64460472D01*
X106056836Y-64352450D01*
X106103991Y-64226022D01*
X106107646Y-64192023D01*
X106109999Y-64170144D01*
X106110000Y-64170129D01*
X106110000Y-63642870D01*
X106109999Y-63642855D01*
X106107145Y-63616318D01*
X106103991Y-63586978D01*
X106097047Y-63568361D01*
X106056837Y-63460552D01*
X106056835Y-63460549D01*
X105975972Y-63352528D01*
X105867950Y-63271664D01*
X105867947Y-63271662D01*
X105840590Y-63261459D01*
X105784656Y-63219588D01*
X105760239Y-63154124D01*
X105775090Y-63085851D01*
X105824496Y-63036445D01*
X105838434Y-63029922D01*
X105897385Y-63006675D01*
X106011010Y-62920510D01*
X106097174Y-62806886D01*
X106149489Y-62674224D01*
X106159500Y-62590855D01*
X106159500Y-62581500D01*
X105258500Y-62581500D01*
X105191461Y-62561815D01*
X105145706Y-62509011D01*
X105134500Y-62457500D01*
X105134500Y-61594000D01*
X105634500Y-61594000D01*
X105634500Y-62081500D01*
X106159500Y-62081500D01*
X106159500Y-62072144D01*
X106149489Y-61988775D01*
X106097174Y-61856113D01*
X106011010Y-61742489D01*
X105897386Y-61656325D01*
X105764724Y-61604010D01*
X105681356Y-61594000D01*
X105634500Y-61594000D01*
X105134500Y-61594000D01*
X105087644Y-61594000D01*
X105004275Y-61604010D01*
X104871613Y-61656325D01*
X104826425Y-61690593D01*
X104761113Y-61715416D01*
X104692749Y-61700988D01*
X104643039Y-61651890D01*
X104627500Y-61591789D01*
X104627500Y-61565323D01*
X104627499Y-61565321D01*
X104612967Y-61492264D01*
X104612966Y-61492260D01*
X104612965Y-61492260D01*
X104557601Y-61409399D01*
X104474740Y-61354034D01*
X104474739Y-61354033D01*
X104474735Y-61354032D01*
X104401677Y-61339500D01*
X104401674Y-61339500D01*
X104374127Y-61339500D01*
X104307088Y-61319815D01*
X104261333Y-61267011D01*
X104255408Y-61246831D01*
X104254663Y-61247050D01*
X104252165Y-61238543D01*
X104230616Y-61191359D01*
X104228932Y-61187295D01*
X104210796Y-61138669D01*
X104207905Y-61134807D01*
X104194379Y-61112010D01*
X104192377Y-61107627D01*
X104172595Y-61084797D01*
X104158411Y-61068427D01*
X104155633Y-61064979D01*
X104146229Y-61052417D01*
X104146224Y-61052412D01*
X104146221Y-61052407D01*
X104135097Y-61041283D01*
X104132103Y-61038067D01*
X104098128Y-60998857D01*
X104098125Y-60998854D01*
X104094066Y-60996246D01*
X104073428Y-60979614D01*
X103308319Y-60214505D01*
X103274834Y-60153182D01*
X103272000Y-60126824D01*
X103272000Y-60023870D01*
X103271999Y-60023855D01*
X103269145Y-59997318D01*
X103265991Y-59967978D01*
X103265990Y-59967975D01*
X103243932Y-59908833D01*
X103238948Y-59839141D01*
X103272433Y-59777818D01*
X103333757Y-59744334D01*
X103360114Y-59741500D01*
X104523990Y-59741500D01*
X104524000Y-59741500D01*
X104588941Y-59734518D01*
X104640450Y-59723312D01*
X104640450Y-59723313D01*
X104668846Y-59715168D01*
X104678658Y-59712354D01*
X104775571Y-59655675D01*
X104828375Y-59609920D01*
X104828382Y-59609912D01*
X104828387Y-59609908D01*
X104870548Y-59565192D01*
X104870553Y-59565187D01*
X104920481Y-59466994D01*
X104968412Y-59416160D01*
X105036219Y-59399307D01*
X105102372Y-59421789D01*
X105139098Y-59462425D01*
X105141324Y-59466384D01*
X105227489Y-59580010D01*
X105341113Y-59666174D01*
X105473775Y-59718489D01*
X105557144Y-59728500D01*
X105566500Y-59728500D01*
X105566500Y-59728499D01*
X106066499Y-59728499D01*
X106066500Y-59728500D01*
X106075856Y-59728500D01*
X106159224Y-59718489D01*
X106291886Y-59666174D01*
X106405510Y-59580010D01*
X106491674Y-59466386D01*
X106543989Y-59333724D01*
X106554000Y-59250355D01*
X106554000Y-59203500D01*
X106066500Y-59203500D01*
X106066499Y-59728499D01*
X105566500Y-59728499D01*
X105566500Y-57679500D01*
X106066500Y-57679500D01*
X106066500Y-58703500D01*
X106554000Y-58703500D01*
X106554000Y-58656644D01*
X106543989Y-58573275D01*
X106491674Y-58440613D01*
X106405511Y-58326990D01*
X106357131Y-58290302D01*
X106315609Y-58234109D01*
X106311058Y-58164388D01*
X106344924Y-58103274D01*
X106357134Y-58092694D01*
X106405510Y-58056009D01*
X106491674Y-57942386D01*
X106543989Y-57809724D01*
X106554000Y-57726355D01*
X106554000Y-57679500D01*
X106066500Y-57679500D01*
X105566500Y-57679500D01*
X105566500Y-56155500D01*
X106066500Y-56155500D01*
X106066500Y-57179500D01*
X106554000Y-57179500D01*
X106554000Y-57132644D01*
X106543989Y-57049275D01*
X106491674Y-56916613D01*
X106405510Y-56802989D01*
X106357133Y-56766304D01*
X106315609Y-56710111D01*
X106311058Y-56640390D01*
X106344923Y-56579276D01*
X106357133Y-56568696D01*
X106405510Y-56532010D01*
X106491674Y-56418386D01*
X106543989Y-56285724D01*
X106554000Y-56202355D01*
X106554000Y-56155500D01*
X106066500Y-56155500D01*
X105566500Y-56155500D01*
X105566500Y-55779500D01*
X105586185Y-55712461D01*
X105638989Y-55666706D01*
X105690500Y-55655500D01*
X106554000Y-55655500D01*
X106554000Y-55608644D01*
X106543989Y-55525275D01*
X106491674Y-55392613D01*
X106405510Y-55278989D01*
X106291886Y-55192825D01*
X106159224Y-55140510D01*
X106075856Y-55130500D01*
X105976196Y-55130500D01*
X105909157Y-55110815D01*
X105863402Y-55058011D01*
X105853458Y-54988853D01*
X105876928Y-54932190D01*
X105955336Y-54827450D01*
X106002491Y-54701022D01*
X106006146Y-54667023D01*
X106008499Y-54645144D01*
X106008500Y-54645129D01*
X106008500Y-54117870D01*
X106008499Y-54117855D01*
X106005645Y-54091318D01*
X106002491Y-54061978D01*
X105955336Y-53935550D01*
X105874472Y-53827528D01*
X105766450Y-53746664D01*
X105766447Y-53746662D01*
X105668638Y-53710182D01*
X105612704Y-53668311D01*
X105588287Y-53602847D01*
X105603139Y-53534574D01*
X105652544Y-53485168D01*
X105668638Y-53477818D01*
X105766447Y-53441337D01*
X105766446Y-53441337D01*
X105766450Y-53441336D01*
X105874472Y-53360472D01*
X105955336Y-53252450D01*
X106002491Y-53126022D01*
X106006146Y-53092023D01*
X106008499Y-53070144D01*
X106008500Y-53070129D01*
X106008500Y-52542870D01*
X106008499Y-52542855D01*
X106005645Y-52516318D01*
X106002491Y-52486978D01*
X105963424Y-52382235D01*
X105955337Y-52360552D01*
X105955335Y-52360549D01*
X105874472Y-52252528D01*
X105874470Y-52252526D01*
X105874469Y-52252525D01*
X105833189Y-52221623D01*
X105791318Y-52165689D01*
X105783500Y-52122358D01*
X105783500Y-52122357D01*
X105783500Y-52017639D01*
X105803183Y-51950604D01*
X105833187Y-51918377D01*
X105874472Y-51887472D01*
X105955336Y-51779450D01*
X106002491Y-51653022D01*
X106006146Y-51619023D01*
X106008499Y-51597144D01*
X106008500Y-51597129D01*
X106008500Y-51069870D01*
X106008499Y-51069855D01*
X106005269Y-51039821D01*
X106002491Y-51013978D01*
X105962792Y-50907540D01*
X105955337Y-50887552D01*
X105955335Y-50887549D01*
X105950051Y-50880490D01*
X105874472Y-50779528D01*
X105766450Y-50698664D01*
X105766447Y-50698662D01*
X105739090Y-50688459D01*
X105683156Y-50646588D01*
X105658739Y-50581124D01*
X105673590Y-50512851D01*
X105722996Y-50463445D01*
X105736934Y-50456922D01*
X105795885Y-50433675D01*
X105909510Y-50347510D01*
X105995674Y-50233886D01*
X106047989Y-50101224D01*
X106058000Y-50017855D01*
X106058000Y-50008500D01*
X102964000Y-50008500D01*
X102964000Y-50017855D01*
X102974010Y-50101224D01*
X103026325Y-50233886D01*
X103112489Y-50347510D01*
X103226113Y-50433674D01*
X103285066Y-50456922D01*
X103340210Y-50499828D01*
X103363403Y-50565736D01*
X103347283Y-50633720D01*
X103296966Y-50682197D01*
X103282910Y-50688459D01*
X103255551Y-50698663D01*
X103255549Y-50698664D01*
X103147528Y-50779528D01*
X103066664Y-50887549D01*
X103066662Y-50887552D01*
X103019509Y-51013975D01*
X103013500Y-51069855D01*
X103013500Y-51597144D01*
X103019509Y-51653024D01*
X103066662Y-51779447D01*
X103066664Y-51779450D01*
X103147528Y-51887472D01*
X103188807Y-51918373D01*
X103188809Y-51918374D01*
X103230681Y-51974306D01*
X103238500Y-52017642D01*
X103238500Y-52122357D01*
X103218815Y-52189396D01*
X103188811Y-52221623D01*
X103147530Y-52252525D01*
X103066664Y-52360549D01*
X103066662Y-52360552D01*
X103019509Y-52486975D01*
X103013500Y-52542855D01*
X103013500Y-52690823D01*
X102993815Y-52757862D01*
X102977181Y-52778504D01*
X102358005Y-53397681D01*
X102296682Y-53431166D01*
X102270324Y-53434000D01*
X101819323Y-53434000D01*
X101788862Y-53440059D01*
X101719271Y-53433832D01*
X101714586Y-53431877D01*
X101613876Y-53387410D01*
X101588794Y-53384500D01*
X101468999Y-53384500D01*
X101469000Y-54044500D01*
X101468999Y-55204498D01*
X101469000Y-55204499D01*
X101588786Y-55204499D01*
X101588808Y-55204497D01*
X101613869Y-55201591D01*
X101714584Y-55157122D01*
X101783863Y-55148051D01*
X101788834Y-55148934D01*
X101819326Y-55155000D01*
X101867904Y-55155000D01*
X101934943Y-55174685D01*
X101980698Y-55227489D01*
X101990642Y-55296647D01*
X101978436Y-55335202D01*
X101961560Y-55368390D01*
X101941877Y-55435421D01*
X101941875Y-55435428D01*
X101941876Y-55435428D01*
X101932878Y-55498011D01*
X101929500Y-55521502D01*
X101929500Y-56720500D01*
X101909815Y-56787539D01*
X101857011Y-56833294D01*
X101805500Y-56844500D01*
X101072684Y-56844500D01*
X101005645Y-56824815D01*
X100959890Y-56772011D01*
X100949946Y-56702853D01*
X100951067Y-56696309D01*
X100953499Y-56684078D01*
X100953500Y-56684076D01*
X100953500Y-55634723D01*
X100953499Y-55634721D01*
X100938967Y-55561664D01*
X100938966Y-55561660D01*
X100883600Y-55478798D01*
X100824609Y-55439382D01*
X100779804Y-55385770D01*
X100769500Y-55336280D01*
X100769500Y-55328499D01*
X100789185Y-55261460D01*
X100841989Y-55215705D01*
X100893500Y-55204499D01*
X100968999Y-55204499D01*
X100969000Y-55204498D01*
X100969000Y-53384500D01*
X100849215Y-53384500D01*
X100849191Y-53384502D01*
X100824130Y-53387408D01*
X100824126Y-53387409D01*
X100723414Y-53431877D01*
X100654135Y-53440947D01*
X100649138Y-53440059D01*
X100618677Y-53434000D01*
X100618674Y-53434000D01*
X99919326Y-53434000D01*
X99918192Y-53434000D01*
X99851153Y-53414315D01*
X99840547Y-53402075D01*
X99824562Y-53452032D01*
X99790784Y-53485600D01*
X99763400Y-53503897D01*
X99708033Y-53586760D01*
X99708032Y-53586764D01*
X99693500Y-53659821D01*
X99693500Y-54929178D01*
X99708032Y-55002235D01*
X99708035Y-55002243D01*
X99747602Y-55061459D01*
X99768480Y-55128136D01*
X99768500Y-55130349D01*
X99768500Y-55289198D01*
X99748815Y-55356237D01*
X99696011Y-55401992D01*
X99668693Y-55410815D01*
X99605263Y-55423432D01*
X99605260Y-55423433D01*
X99522400Y-55478798D01*
X99522399Y-55478799D01*
X99497948Y-55515391D01*
X99444339Y-55560195D01*
X99394848Y-55570500D01*
X99236500Y-55570500D01*
X99169461Y-55550815D01*
X99123706Y-55498011D01*
X99112500Y-55446500D01*
X99112500Y-55246323D01*
X99112499Y-55246321D01*
X99097967Y-55173264D01*
X99097966Y-55173260D01*
X99081122Y-55148051D01*
X99042601Y-55090399D01*
X98959740Y-55035034D01*
X98959739Y-55035033D01*
X98959735Y-55035032D01*
X98886677Y-55020500D01*
X98886674Y-55020500D01*
X93137326Y-55020500D01*
X93137323Y-55020500D01*
X93064264Y-55035032D01*
X93064260Y-55035033D01*
X92981399Y-55090399D01*
X92926033Y-55173260D01*
X92926032Y-55173264D01*
X92911500Y-55246321D01*
X92911500Y-56770500D01*
X92891815Y-56837539D01*
X92839011Y-56883294D01*
X92787500Y-56894500D01*
X91589500Y-56894500D01*
X91522461Y-56874815D01*
X91476706Y-56822011D01*
X91465500Y-56770500D01*
X91465500Y-52195677D01*
X92911500Y-52195677D01*
X92912201Y-52202798D01*
X92912500Y-52208877D01*
X92912500Y-52835000D01*
X92912501Y-52835009D01*
X92919481Y-52899935D01*
X92919483Y-52899947D01*
X92930688Y-52951451D01*
X92930687Y-52951450D01*
X92941644Y-52989654D01*
X92941646Y-52989658D01*
X92998323Y-53086568D01*
X92998325Y-53086571D01*
X93044081Y-53139376D01*
X93044091Y-53139387D01*
X93088807Y-53181548D01*
X93088809Y-53181549D01*
X93088813Y-53181553D01*
X93188889Y-53232439D01*
X93255928Y-53252124D01*
X93342000Y-53264500D01*
X93342003Y-53264500D01*
X99651818Y-53264500D01*
X99651820Y-53264500D01*
X99668161Y-53263624D01*
X99702655Y-53259915D01*
X99707209Y-53259372D01*
X99776106Y-53270978D01*
X99796672Y-53289685D01*
X99824479Y-53228797D01*
X99858762Y-53201169D01*
X99877730Y-53190812D01*
X99947338Y-53138703D01*
X100102846Y-52983195D01*
X100140838Y-52936902D01*
X100167715Y-52896678D01*
X100178257Y-52876955D01*
X100197382Y-52841177D01*
X100197775Y-52841387D01*
X100208615Y-52823608D01*
X100236670Y-52787046D01*
X100259549Y-52764167D01*
X100296105Y-52736116D01*
X100313891Y-52725277D01*
X100313679Y-52724881D01*
X100322682Y-52720067D01*
X100369182Y-52695213D01*
X100369190Y-52695207D01*
X100369193Y-52695206D01*
X100409394Y-52668343D01*
X100409393Y-52668343D01*
X100409406Y-52668335D01*
X100455695Y-52630345D01*
X100514721Y-52571318D01*
X100576044Y-52537834D01*
X100602402Y-52535000D01*
X100618676Y-52535000D01*
X100618677Y-52534999D01*
X100691740Y-52520466D01*
X100774601Y-52465101D01*
X100829966Y-52382240D01*
X100844500Y-52309174D01*
X100844500Y-52292902D01*
X100864185Y-52225863D01*
X100880814Y-52205226D01*
X101023488Y-52062553D01*
X101023488Y-52062552D01*
X101023493Y-52062548D01*
X101023493Y-52062547D01*
X101034424Y-52050379D01*
X101056192Y-52023365D01*
X101060553Y-52017824D01*
X101111439Y-51917748D01*
X101131124Y-51850709D01*
X101143500Y-51764637D01*
X101143500Y-50539735D01*
X101163185Y-50472697D01*
X101215989Y-50426942D01*
X101285147Y-50416998D01*
X101348703Y-50446023D01*
X101366765Y-50465423D01*
X101432528Y-50553272D01*
X101540549Y-50634135D01*
X101540550Y-50634136D01*
X101587835Y-50651772D01*
X101643766Y-50693641D01*
X101668184Y-50759105D01*
X101668500Y-50767953D01*
X101668500Y-50838650D01*
X101648815Y-50905689D01*
X101647603Y-50907540D01*
X101608033Y-50966760D01*
X101608032Y-50966764D01*
X101593500Y-51039821D01*
X101593500Y-52309178D01*
X101608032Y-52382235D01*
X101608033Y-52382239D01*
X101608034Y-52382240D01*
X101663399Y-52465101D01*
X101746259Y-52520465D01*
X101746260Y-52520466D01*
X101746264Y-52520467D01*
X101819321Y-52534999D01*
X101819324Y-52535000D01*
X101819326Y-52535000D01*
X102518676Y-52535000D01*
X102518677Y-52534999D01*
X102591740Y-52520466D01*
X102674601Y-52465101D01*
X102729966Y-52382240D01*
X102744500Y-52309174D01*
X102744500Y-51039826D01*
X102744500Y-51039823D01*
X102744499Y-51039821D01*
X102729967Y-50966764D01*
X102729966Y-50966760D01*
X102690397Y-50907540D01*
X102669520Y-50840862D01*
X102669500Y-50838650D01*
X102669500Y-50581124D01*
X102669500Y-50312736D01*
X102669853Y-50306147D01*
X102674500Y-50262930D01*
X102674500Y-49660670D01*
X102674499Y-49660655D01*
X102671645Y-49634118D01*
X102668491Y-49604778D01*
X102668490Y-49604775D01*
X102632582Y-49508500D01*
X102964000Y-49508500D01*
X103489000Y-49508500D01*
X103489000Y-49021000D01*
X103989000Y-49021000D01*
X103989000Y-49508500D01*
X105033000Y-49508500D01*
X105033000Y-49021000D01*
X105533000Y-49021000D01*
X105533000Y-49508500D01*
X106058000Y-49508500D01*
X106058000Y-49499144D01*
X106047989Y-49415775D01*
X105995674Y-49283113D01*
X105909510Y-49169489D01*
X105795886Y-49083325D01*
X105663224Y-49031010D01*
X105579856Y-49021000D01*
X105533000Y-49021000D01*
X105033000Y-49021000D01*
X104986144Y-49021000D01*
X104902775Y-49031010D01*
X104770113Y-49083325D01*
X104656490Y-49169489D01*
X104609802Y-49231055D01*
X104553608Y-49272577D01*
X104483887Y-49277128D01*
X104422774Y-49243262D01*
X104412195Y-49231053D01*
X104365510Y-49169489D01*
X104251886Y-49083325D01*
X104119224Y-49031010D01*
X104035856Y-49021000D01*
X103989000Y-49021000D01*
X103489000Y-49021000D01*
X103442144Y-49021000D01*
X103358775Y-49031010D01*
X103226113Y-49083325D01*
X103112489Y-49169489D01*
X103026325Y-49283113D01*
X102974010Y-49415775D01*
X102964000Y-49499144D01*
X102964000Y-49508500D01*
X102632582Y-49508500D01*
X102621337Y-49478352D01*
X102621335Y-49478349D01*
X102606232Y-49458174D01*
X102540472Y-49370328D01*
X102480053Y-49325099D01*
X102438183Y-49269166D01*
X102433199Y-49199474D01*
X102466684Y-49138151D01*
X102479440Y-49127029D01*
X102595510Y-49039010D01*
X102681674Y-48925386D01*
X102733989Y-48792724D01*
X102744000Y-48709355D01*
X102744000Y-48662500D01*
X101880500Y-48662500D01*
X101813461Y-48642815D01*
X101767706Y-48590011D01*
X101756500Y-48538500D01*
X101756500Y-47637500D01*
X102256500Y-47637500D01*
X102256500Y-48162500D01*
X102744000Y-48162500D01*
X102744000Y-48115644D01*
X102733989Y-48032275D01*
X102681674Y-47899613D01*
X102595510Y-47785989D01*
X102481886Y-47699825D01*
X102349224Y-47647510D01*
X102265856Y-47637500D01*
X102256500Y-47637500D01*
X101756500Y-47637500D01*
X101747144Y-47637500D01*
X101663775Y-47647510D01*
X101531113Y-47699825D01*
X101417489Y-47785989D01*
X101331324Y-47899615D01*
X101308076Y-47958567D01*
X101265169Y-48013711D01*
X101199261Y-48036903D01*
X101131277Y-48020782D01*
X101082801Y-47970464D01*
X101076542Y-47956415D01*
X101066336Y-47929050D01*
X100985472Y-47821028D01*
X100877450Y-47740164D01*
X100877447Y-47740162D01*
X100751024Y-47693009D01*
X100695144Y-47687000D01*
X100695130Y-47687000D01*
X100167870Y-47687000D01*
X100167855Y-47687000D01*
X100111975Y-47693009D01*
X99985552Y-47740162D01*
X99985550Y-47740163D01*
X99904821Y-47800596D01*
X99839356Y-47825012D01*
X99771083Y-47810160D01*
X99721678Y-47760754D01*
X99707395Y-47716111D01*
X99697989Y-47637776D01*
X99645674Y-47505113D01*
X99559510Y-47391489D01*
X99445886Y-47305325D01*
X99313224Y-47253010D01*
X99229856Y-47243000D01*
X99183000Y-47243000D01*
X99183000Y-48106500D01*
X99163315Y-48173539D01*
X99110511Y-48219294D01*
X99059000Y-48230500D01*
X96634000Y-48230500D01*
X96634000Y-48239855D01*
X96644010Y-48323224D01*
X96696325Y-48455886D01*
X96782489Y-48569510D01*
X96867099Y-48633671D01*
X96908622Y-48689863D01*
X96913174Y-48759584D01*
X96879310Y-48820699D01*
X96818536Y-48853640D01*
X96781550Y-48861687D01*
X96743345Y-48872644D01*
X96743341Y-48872646D01*
X96646431Y-48929323D01*
X96646428Y-48929325D01*
X96593623Y-48975081D01*
X96593612Y-48975091D01*
X96551451Y-49019807D01*
X96551445Y-49019816D01*
X96500560Y-49119890D01*
X96480877Y-49186921D01*
X96480875Y-49186928D01*
X96480876Y-49186928D01*
X96468502Y-49272990D01*
X96468500Y-49273002D01*
X96468500Y-50116500D01*
X96448815Y-50183539D01*
X96396011Y-50229294D01*
X96344500Y-50240500D01*
X93342000Y-50240500D01*
X93341991Y-50240500D01*
X93341990Y-50240501D01*
X93277064Y-50247481D01*
X93277052Y-50247483D01*
X93240682Y-50255395D01*
X93225549Y-50258687D01*
X93225550Y-50258687D01*
X93187345Y-50269644D01*
X93187337Y-50269648D01*
X93099331Y-50321118D01*
X93075468Y-50330177D01*
X93075544Y-50330360D01*
X93064261Y-50335033D01*
X92981399Y-50390399D01*
X92926033Y-50473260D01*
X92926032Y-50473264D01*
X92911500Y-50546321D01*
X92911500Y-52195677D01*
X91465500Y-52195677D01*
X91465500Y-47730500D01*
X96634000Y-47730500D01*
X97159000Y-47730500D01*
X97159000Y-47243000D01*
X97659000Y-47243000D01*
X97659000Y-47730500D01*
X98683000Y-47730500D01*
X98683000Y-47243000D01*
X98636144Y-47243000D01*
X98552775Y-47253010D01*
X98420113Y-47305325D01*
X98306488Y-47391490D01*
X98269803Y-47439867D01*
X98213610Y-47481390D01*
X98143889Y-47485941D01*
X98082775Y-47452075D01*
X98072197Y-47439867D01*
X98035511Y-47391490D01*
X97921886Y-47305325D01*
X97789224Y-47253010D01*
X97705856Y-47243000D01*
X97659000Y-47243000D01*
X97159000Y-47243000D01*
X97112144Y-47243000D01*
X97028775Y-47253010D01*
X96896113Y-47305325D01*
X96782489Y-47391489D01*
X96696325Y-47505113D01*
X96644010Y-47637775D01*
X96634000Y-47721144D01*
X96634000Y-47730500D01*
X91465500Y-47730500D01*
X91465500Y-37460000D01*
X92239785Y-37460000D01*
X92258602Y-37663082D01*
X92314417Y-37859247D01*
X92314422Y-37859260D01*
X92405327Y-38041821D01*
X92528237Y-38204581D01*
X92678958Y-38341980D01*
X92678960Y-38341982D01*
X92778141Y-38403392D01*
X92852363Y-38449348D01*
X93042544Y-38523024D01*
X93243024Y-38560500D01*
X93243026Y-38560500D01*
X93446974Y-38560500D01*
X93446976Y-38560500D01*
X93647456Y-38523024D01*
X93661103Y-38517736D01*
X93730724Y-38511874D01*
X93792465Y-38544582D01*
X93793578Y-38545682D01*
X94018681Y-38770784D01*
X94052166Y-38832107D01*
X94055000Y-38858465D01*
X94055000Y-41306000D01*
X94035315Y-41373039D01*
X94005311Y-41405267D01*
X93951528Y-41445528D01*
X93870664Y-41553549D01*
X93870662Y-41553552D01*
X93823509Y-41679975D01*
X93817500Y-41735855D01*
X93817500Y-42338144D01*
X93823509Y-42394024D01*
X93870662Y-42520447D01*
X93870664Y-42520450D01*
X93951528Y-42628472D01*
X94055310Y-42706162D01*
X94059549Y-42709335D01*
X94059552Y-42709337D01*
X94137447Y-42738390D01*
X94185978Y-42756491D01*
X94215318Y-42759645D01*
X94241855Y-42762499D01*
X94241870Y-42762500D01*
X94769130Y-42762500D01*
X94769144Y-42762499D01*
X94791023Y-42760146D01*
X94825022Y-42756491D01*
X94951450Y-42709336D01*
X95059472Y-42628472D01*
X95140336Y-42520450D01*
X95176817Y-42422638D01*
X95218689Y-42366704D01*
X95284153Y-42342287D01*
X95352426Y-42357139D01*
X95401832Y-42406544D01*
X95409182Y-42422638D01*
X95445662Y-42520447D01*
X95445664Y-42520450D01*
X95526527Y-42628471D01*
X95526529Y-42628473D01*
X95630310Y-42706162D01*
X95672182Y-42762095D01*
X95680000Y-42805429D01*
X95680000Y-42902514D01*
X95660315Y-42969553D01*
X95630311Y-43001781D01*
X95521778Y-43083028D01*
X95440914Y-43191049D01*
X95440913Y-43191050D01*
X95402764Y-43293334D01*
X95360892Y-43349267D01*
X95295428Y-43373684D01*
X95286582Y-43374000D01*
X95039529Y-43374000D01*
X94972490Y-43354315D01*
X94935215Y-43317042D01*
X94927874Y-43305619D01*
X94880266Y-43250676D01*
X94875345Y-43246412D01*
X94771616Y-43156530D01*
X94771607Y-43156524D01*
X94771605Y-43156522D01*
X94754963Y-43145827D01*
X94710455Y-43117223D01*
X94710439Y-43117214D01*
X94579672Y-43057495D01*
X94579667Y-43057493D01*
X94579666Y-43057493D01*
X94539268Y-43045631D01*
X94509915Y-43037012D01*
X94509909Y-43037010D01*
X94381958Y-43018614D01*
X94367599Y-43016550D01*
X94294902Y-43016550D01*
X94294898Y-43016550D01*
X94285998Y-43017830D01*
X94268353Y-43019092D01*
X93894147Y-43019092D01*
X93876502Y-43017830D01*
X93867601Y-43016550D01*
X93867598Y-43016550D01*
X93794901Y-43016550D01*
X93652590Y-43037010D01*
X93652584Y-43037012D01*
X93582827Y-43057495D01*
X93452060Y-43117214D01*
X93452044Y-43117223D01*
X93390899Y-43156519D01*
X93390883Y-43156530D01*
X93282231Y-43250677D01*
X93282230Y-43250678D01*
X93234629Y-43305614D01*
X93234622Y-43305625D01*
X93156896Y-43426567D01*
X93156894Y-43426572D01*
X93126695Y-43492700D01*
X93086189Y-43630649D01*
X93086186Y-43630659D01*
X93075842Y-43702611D01*
X93075842Y-44274500D01*
X93075842Y-44274502D01*
X93075841Y-44274502D01*
X93095283Y-44372240D01*
X93097275Y-44377048D01*
X93104744Y-44446517D01*
X93097275Y-44471952D01*
X93095283Y-44476759D01*
X93075842Y-44574497D01*
X93075842Y-45146388D01*
X93086186Y-45218340D01*
X93086189Y-45218350D01*
X93126695Y-45356299D01*
X93156894Y-45422427D01*
X93156896Y-45422432D01*
X93211983Y-45508148D01*
X93233548Y-45541704D01*
X93234622Y-45543374D01*
X93234629Y-45543385D01*
X93282230Y-45598321D01*
X93282231Y-45598322D01*
X93390883Y-45692469D01*
X93390890Y-45692474D01*
X93390895Y-45692478D01*
X93395520Y-45695450D01*
X93452044Y-45731776D01*
X93452060Y-45731785D01*
X93576775Y-45788740D01*
X93582834Y-45791507D01*
X93652586Y-45811988D01*
X93652587Y-45811988D01*
X93652590Y-45811989D01*
X93695025Y-45818089D01*
X93794901Y-45832450D01*
X93794902Y-45832450D01*
X93867595Y-45832450D01*
X93867598Y-45832450D01*
X93874170Y-45831505D01*
X93876502Y-45831170D01*
X93894147Y-45829908D01*
X94268353Y-45829908D01*
X94285998Y-45831170D01*
X94288863Y-45831581D01*
X94294902Y-45832450D01*
X94294905Y-45832450D01*
X94367598Y-45832450D01*
X94367599Y-45832450D01*
X94481833Y-45816025D01*
X94509909Y-45811989D01*
X94509910Y-45811988D01*
X94509914Y-45811988D01*
X94579666Y-45791507D01*
X94623260Y-45771597D01*
X94710439Y-45731785D01*
X94710443Y-45731782D01*
X94710451Y-45731779D01*
X94771605Y-45692478D01*
X94811453Y-45657950D01*
X94828953Y-45642787D01*
X94892509Y-45613762D01*
X94910155Y-45612500D01*
X95344820Y-45612500D01*
X95411859Y-45632185D01*
X95444087Y-45662189D01*
X95521778Y-45765972D01*
X95629799Y-45846835D01*
X95629802Y-45846837D01*
X95756225Y-45893990D01*
X95756228Y-45893991D01*
X95785568Y-45897145D01*
X95812105Y-45899999D01*
X95812120Y-45900000D01*
X96414380Y-45900000D01*
X96414394Y-45899999D01*
X96436273Y-45897646D01*
X96470272Y-45893991D01*
X96596700Y-45846836D01*
X96704722Y-45765972D01*
X96730072Y-45732107D01*
X96786002Y-45690237D01*
X96855694Y-45685251D01*
X96917018Y-45718735D01*
X96928604Y-45732106D01*
X96982028Y-45803472D01*
X97073037Y-45871600D01*
X97090049Y-45884335D01*
X97090052Y-45884337D01*
X97216475Y-45931490D01*
X97216478Y-45931491D01*
X97245818Y-45934645D01*
X97272355Y-45937499D01*
X97272370Y-45937500D01*
X97799630Y-45937500D01*
X97799644Y-45937499D01*
X97821523Y-45935146D01*
X97855522Y-45931491D01*
X97981950Y-45884336D01*
X98089972Y-45803472D01*
X98170836Y-45695450D01*
X98207317Y-45597638D01*
X98249189Y-45541704D01*
X98314653Y-45517287D01*
X98382926Y-45532139D01*
X98432332Y-45581544D01*
X98439682Y-45597638D01*
X98476162Y-45695447D01*
X98476164Y-45695450D01*
X98557028Y-45803472D01*
X98648037Y-45871600D01*
X98665049Y-45884335D01*
X98665052Y-45884337D01*
X98791475Y-45931490D01*
X98791478Y-45931491D01*
X98820818Y-45934645D01*
X98847355Y-45937499D01*
X98847370Y-45937500D01*
X99374630Y-45937500D01*
X99374644Y-45937499D01*
X99396523Y-45935146D01*
X99430522Y-45931491D01*
X99556950Y-45884336D01*
X99664972Y-45803472D01*
X99738457Y-45705306D01*
X99794391Y-45663434D01*
X99819242Y-45657001D01*
X99883287Y-45647348D01*
X100005642Y-45588425D01*
X100105194Y-45496055D01*
X100105197Y-45496049D01*
X100110988Y-45488790D01*
X100113886Y-45491101D01*
X100151523Y-45455254D01*
X100208283Y-45441500D01*
X101203500Y-45441500D01*
X101270539Y-45461185D01*
X101316294Y-45513989D01*
X101327500Y-45565500D01*
X101327500Y-45715678D01*
X101342032Y-45788735D01*
X101342033Y-45788739D01*
X101357568Y-45811989D01*
X101397399Y-45871601D01*
X101480260Y-45926966D01*
X101480264Y-45926967D01*
X101553321Y-45941499D01*
X101553324Y-45941500D01*
X101553326Y-45941500D01*
X102902676Y-45941500D01*
X102902677Y-45941499D01*
X102975740Y-45926966D01*
X103058601Y-45871601D01*
X103113966Y-45788740D01*
X103128500Y-45715674D01*
X103128500Y-44507254D01*
X103148185Y-44440215D01*
X103200989Y-44394460D01*
X103270147Y-44384516D01*
X103333703Y-44413541D01*
X103340166Y-44419559D01*
X103591182Y-44670575D01*
X103624666Y-44731896D01*
X103627500Y-44758254D01*
X103627500Y-45715678D01*
X103642032Y-45788735D01*
X103642033Y-45788739D01*
X103657568Y-45811989D01*
X103697399Y-45871601D01*
X103780260Y-45926966D01*
X103780264Y-45926967D01*
X103853321Y-45941499D01*
X103853324Y-45941500D01*
X103853326Y-45941500D01*
X105202676Y-45941500D01*
X105202677Y-45941499D01*
X105275740Y-45926966D01*
X105358601Y-45871601D01*
X105413966Y-45788740D01*
X105428500Y-45715674D01*
X105428500Y-44366326D01*
X105428500Y-44366325D01*
X105428500Y-44366323D01*
X105428499Y-44366321D01*
X105413967Y-44293264D01*
X105413966Y-44293260D01*
X105413963Y-44293256D01*
X105358601Y-44210399D01*
X105275740Y-44155034D01*
X105275739Y-44155033D01*
X105275735Y-44155032D01*
X105202677Y-44140500D01*
X105202674Y-44140500D01*
X104245255Y-44140500D01*
X104178216Y-44120815D01*
X104157574Y-44104181D01*
X103368287Y-43314893D01*
X103368256Y-43314864D01*
X103347342Y-43293950D01*
X103347341Y-43293949D01*
X103327600Y-43283890D01*
X103311014Y-43273726D01*
X103293090Y-43260704D01*
X103293091Y-43260704D01*
X103272018Y-43253857D01*
X103254045Y-43246412D01*
X103234307Y-43236355D01*
X103234304Y-43236354D01*
X103212418Y-43232887D01*
X103193507Y-43228346D01*
X103172439Y-43221501D01*
X103172434Y-43221500D01*
X103172433Y-43221500D01*
X103172429Y-43221500D01*
X100753106Y-43221500D01*
X100686067Y-43201815D01*
X100650004Y-43166390D01*
X100616602Y-43116400D01*
X100533739Y-43061033D01*
X100533736Y-43061032D01*
X100456308Y-43045631D01*
X100394398Y-43013246D01*
X100359823Y-42952530D01*
X100356500Y-42924014D01*
X100356500Y-42419985D01*
X100376185Y-42352946D01*
X100428989Y-42307191D01*
X100456310Y-42298367D01*
X100460669Y-42297500D01*
X100460674Y-42297500D01*
X100533740Y-42282966D01*
X100616601Y-42227601D01*
X100671966Y-42144740D01*
X100686500Y-42071674D01*
X100686500Y-41372326D01*
X100686500Y-41372325D01*
X100686500Y-41372323D01*
X100686499Y-41372321D01*
X100671967Y-41299264D01*
X100671966Y-41299260D01*
X100669014Y-41294842D01*
X100616601Y-41216399D01*
X100533740Y-41161034D01*
X100533739Y-41161033D01*
X100533738Y-41161033D01*
X100524805Y-41159256D01*
X100462895Y-41126868D01*
X100428323Y-41066151D01*
X100425000Y-41037639D01*
X100425000Y-40863000D01*
X100444685Y-40795961D01*
X100474690Y-40763732D01*
X100481666Y-40758510D01*
X100528472Y-40723472D01*
X100609336Y-40615450D01*
X100656491Y-40489022D01*
X100656490Y-40489022D01*
X100657556Y-40486167D01*
X100699427Y-40430233D01*
X100764892Y-40405816D01*
X100773738Y-40405500D01*
X102210519Y-40405500D01*
X102268839Y-40422624D01*
X102268977Y-40422293D01*
X102272064Y-40423572D01*
X102277558Y-40425185D01*
X102279405Y-40426394D01*
X102280260Y-40426966D01*
X102296684Y-40430233D01*
X102353323Y-40441500D01*
X102353326Y-40441500D01*
X104402676Y-40441500D01*
X104402677Y-40441499D01*
X104475740Y-40426966D01*
X104558601Y-40371601D01*
X104613966Y-40288740D01*
X104628500Y-40215674D01*
X104628500Y-38866326D01*
X104628500Y-38866323D01*
X104628499Y-38866321D01*
X104613967Y-38793264D01*
X104613966Y-38793260D01*
X104598948Y-38770784D01*
X104558601Y-38710399D01*
X104475740Y-38655034D01*
X104475739Y-38655033D01*
X104475735Y-38655032D01*
X104402677Y-38640500D01*
X104402674Y-38640500D01*
X102353326Y-38640500D01*
X102353323Y-38640500D01*
X102280264Y-38655032D01*
X102280260Y-38655033D01*
X102197399Y-38710399D01*
X102142033Y-38793260D01*
X102142032Y-38793264D01*
X102127500Y-38866321D01*
X102127500Y-39480500D01*
X102107815Y-39547539D01*
X102055011Y-39593294D01*
X102003500Y-39604500D01*
X100638431Y-39604500D01*
X100571392Y-39584815D01*
X100539165Y-39554812D01*
X100533720Y-39547539D01*
X100528472Y-39540528D01*
X100433277Y-39469266D01*
X100391406Y-39413332D01*
X100386422Y-39343640D01*
X100419907Y-39282317D01*
X100433260Y-39270746D01*
X100528472Y-39199472D01*
X100609336Y-39091450D01*
X100656491Y-38965022D01*
X100660146Y-38931023D01*
X100662499Y-38909144D01*
X100662500Y-38909129D01*
X100662500Y-38306870D01*
X100662499Y-38306855D01*
X100657924Y-38264306D01*
X100656491Y-38250978D01*
X100609336Y-38124550D01*
X100528472Y-38016528D01*
X100420450Y-37935664D01*
X100420447Y-37935662D01*
X100294024Y-37888509D01*
X100238144Y-37882500D01*
X100238130Y-37882500D01*
X99710870Y-37882500D01*
X99710855Y-37882500D01*
X99654975Y-37888509D01*
X99528552Y-37935662D01*
X99528549Y-37935664D01*
X99420528Y-38016528D01*
X99339664Y-38124549D01*
X99339663Y-38124551D01*
X99329459Y-38151910D01*
X99287587Y-38207843D01*
X99222123Y-38232260D01*
X99153850Y-38217408D01*
X99104445Y-38168002D01*
X99097922Y-38154066D01*
X99074674Y-38095113D01*
X98988510Y-37981489D01*
X98874886Y-37895325D01*
X98742224Y-37843010D01*
X98658856Y-37833000D01*
X98649500Y-37833000D01*
X98649500Y-40907000D01*
X98658856Y-40907000D01*
X98742224Y-40896989D01*
X98874886Y-40844674D01*
X98988510Y-40758510D01*
X99074675Y-40644885D01*
X99097922Y-40585934D01*
X99140828Y-40530790D01*
X99206735Y-40507596D01*
X99274720Y-40523716D01*
X99323197Y-40574033D01*
X99329459Y-40588090D01*
X99339662Y-40615447D01*
X99339664Y-40615450D01*
X99420528Y-40723472D01*
X99420529Y-40723472D01*
X99420529Y-40723473D01*
X99474310Y-40763732D01*
X99516181Y-40819666D01*
X99524000Y-40863000D01*
X99524000Y-41022500D01*
X99504315Y-41089539D01*
X99451511Y-41135294D01*
X99400000Y-41146500D01*
X99351323Y-41146500D01*
X99278264Y-41161032D01*
X99278260Y-41161033D01*
X99195399Y-41216399D01*
X99140033Y-41299260D01*
X99140032Y-41299264D01*
X99125500Y-41372321D01*
X99125500Y-42071678D01*
X99140032Y-42144735D01*
X99140033Y-42144739D01*
X99140034Y-42144740D01*
X99195399Y-42227601D01*
X99278260Y-42282966D01*
X99351326Y-42297500D01*
X99351331Y-42297500D01*
X99355690Y-42298367D01*
X99417602Y-42330752D01*
X99452176Y-42391467D01*
X99455500Y-42419985D01*
X99455500Y-42924014D01*
X99435815Y-42991053D01*
X99383011Y-43036808D01*
X99355692Y-43045631D01*
X99278263Y-43061032D01*
X99278260Y-43061033D01*
X99195399Y-43116399D01*
X99140033Y-43199260D01*
X99140032Y-43199264D01*
X99125500Y-43272321D01*
X99125500Y-43971678D01*
X99140032Y-44044735D01*
X99140033Y-44044739D01*
X99140034Y-44044740D01*
X99195399Y-44127601D01*
X99250095Y-44164147D01*
X99278260Y-44182966D01*
X99278264Y-44182967D01*
X99351321Y-44197499D01*
X99351324Y-44197500D01*
X99351326Y-44197500D01*
X100460676Y-44197500D01*
X100460677Y-44197499D01*
X100533740Y-44182966D01*
X100616601Y-44127601D01*
X100627935Y-44110637D01*
X100650004Y-44077610D01*
X100703616Y-44032804D01*
X100753106Y-44022500D01*
X101290962Y-44022500D01*
X101358001Y-44042185D01*
X101403756Y-44094989D01*
X101413700Y-44164147D01*
X101394064Y-44215390D01*
X101342035Y-44293256D01*
X101342032Y-44293264D01*
X101327500Y-44366321D01*
X101327500Y-44516500D01*
X101307815Y-44583539D01*
X101255011Y-44629294D01*
X101203500Y-44640500D01*
X99983433Y-44640500D01*
X99856567Y-44640500D01*
X99838625Y-44646328D01*
X99835491Y-44647347D01*
X99816587Y-44651885D01*
X99785063Y-44656880D01*
X99784835Y-44655447D01*
X99725480Y-44657135D01*
X99669343Y-44624898D01*
X99664977Y-44620532D01*
X99607041Y-44577162D01*
X99556950Y-44539664D01*
X99556947Y-44539662D01*
X99430524Y-44492509D01*
X99374644Y-44486500D01*
X99374630Y-44486500D01*
X98847370Y-44486500D01*
X98847355Y-44486500D01*
X98791475Y-44492509D01*
X98665052Y-44539662D01*
X98665049Y-44539664D01*
X98557028Y-44620528D01*
X98476164Y-44728549D01*
X98476162Y-44728552D01*
X98439682Y-44826361D01*
X98397811Y-44882295D01*
X98332346Y-44906712D01*
X98264073Y-44891860D01*
X98214668Y-44842455D01*
X98207318Y-44826361D01*
X98170837Y-44728552D01*
X98170835Y-44728549D01*
X98089972Y-44620528D01*
X97981950Y-44539664D01*
X97981947Y-44539662D01*
X97855524Y-44492509D01*
X97799644Y-44486500D01*
X97799630Y-44486500D01*
X97272370Y-44486500D01*
X97272355Y-44486500D01*
X97216475Y-44492509D01*
X97090052Y-44539662D01*
X97090049Y-44539664D01*
X96982027Y-44620528D01*
X96928604Y-44691893D01*
X96872670Y-44733763D01*
X96802979Y-44738747D01*
X96741656Y-44705261D01*
X96730080Y-44691903D01*
X96704722Y-44658028D01*
X96596700Y-44577164D01*
X96596697Y-44577162D01*
X96498888Y-44540682D01*
X96442954Y-44498811D01*
X96418537Y-44433347D01*
X96433389Y-44365074D01*
X96482794Y-44315668D01*
X96498888Y-44308318D01*
X96589552Y-44274502D01*
X96596700Y-44271836D01*
X96704722Y-44190972D01*
X96775670Y-44096195D01*
X96831601Y-44054326D01*
X96901292Y-44049342D01*
X96962616Y-44082826D01*
X96978037Y-44101617D01*
X96986818Y-44114758D01*
X96995399Y-44127601D01*
X97066338Y-44175000D01*
X97078260Y-44182966D01*
X97078264Y-44182967D01*
X97151321Y-44197499D01*
X97151324Y-44197500D01*
X97151326Y-44197500D01*
X98260676Y-44197500D01*
X98260677Y-44197499D01*
X98333740Y-44182966D01*
X98416601Y-44127601D01*
X98471966Y-44044740D01*
X98486500Y-43971674D01*
X98486500Y-43272326D01*
X98480440Y-43241861D01*
X98486666Y-43172272D01*
X98488623Y-43167583D01*
X98533089Y-43066877D01*
X98533089Y-43066875D01*
X98535999Y-43041794D01*
X98536000Y-43041791D01*
X98536000Y-42922000D01*
X96876001Y-42922000D01*
X96876001Y-42963525D01*
X96856316Y-43030564D01*
X96803512Y-43076319D01*
X96734354Y-43086263D01*
X96677691Y-43062792D01*
X96596702Y-43002165D01*
X96596703Y-43002165D01*
X96561664Y-42989096D01*
X96505732Y-42947224D01*
X96481316Y-42881759D01*
X96481000Y-42872915D01*
X96481000Y-42805429D01*
X96500685Y-42738390D01*
X96530690Y-42706162D01*
X96533568Y-42704007D01*
X96634472Y-42628472D01*
X96715336Y-42520450D01*
X96721968Y-42502667D01*
X96763840Y-42446733D01*
X96829304Y-42422316D01*
X96838151Y-42422000D01*
X98535999Y-42422000D01*
X98535999Y-42302214D01*
X98535997Y-42302191D01*
X98533091Y-42277130D01*
X98533090Y-42277127D01*
X98488622Y-42176414D01*
X98479551Y-42107136D01*
X98480431Y-42102182D01*
X98486500Y-42071674D01*
X98486500Y-41372326D01*
X98486500Y-41372323D01*
X98486499Y-41372321D01*
X98471967Y-41299264D01*
X98471966Y-41299260D01*
X98469014Y-41294842D01*
X98416601Y-41216399D01*
X98361234Y-41179405D01*
X98333739Y-41161033D01*
X98333735Y-41161032D01*
X98260677Y-41146500D01*
X98260674Y-41146500D01*
X98209362Y-41146500D01*
X98142323Y-41126815D01*
X98096568Y-41074011D01*
X98086624Y-41004853D01*
X98115649Y-40941297D01*
X98121681Y-40934819D01*
X98149500Y-40907000D01*
X98149500Y-40382000D01*
X97662000Y-40382000D01*
X97628711Y-40415289D01*
X97567387Y-40448773D01*
X97497696Y-40443788D01*
X97442655Y-40403094D01*
X97439503Y-40398986D01*
X97420621Y-40374379D01*
X97305625Y-40286139D01*
X97305624Y-40286138D01*
X97305622Y-40286137D01*
X97171712Y-40230671D01*
X97171710Y-40230670D01*
X97171709Y-40230670D01*
X97057836Y-40215678D01*
X97028001Y-40211750D01*
X97027999Y-40211750D01*
X96884291Y-40230670D01*
X96884287Y-40230671D01*
X96750377Y-40286137D01*
X96635379Y-40374379D01*
X96547137Y-40489377D01*
X96491671Y-40623287D01*
X96491670Y-40623291D01*
X96472750Y-40766999D01*
X96472750Y-40767000D01*
X96491670Y-40910708D01*
X96491671Y-40910712D01*
X96547137Y-41044622D01*
X96547138Y-41044624D01*
X96547139Y-41044625D01*
X96635379Y-41159621D01*
X96635381Y-41159622D01*
X96636613Y-41161228D01*
X96661807Y-41226397D01*
X96647769Y-41294842D01*
X96598955Y-41344832D01*
X96530864Y-41360496D01*
X96494904Y-41352897D01*
X96400024Y-41317509D01*
X96344144Y-41311500D01*
X96344130Y-41311500D01*
X95816870Y-41311500D01*
X95816855Y-41311500D01*
X95760975Y-41317509D01*
X95634552Y-41364662D01*
X95634549Y-41364664D01*
X95526528Y-41445528D01*
X95445664Y-41553549D01*
X95445662Y-41553552D01*
X95409182Y-41651361D01*
X95367311Y-41707295D01*
X95301846Y-41731712D01*
X95233573Y-41716860D01*
X95184168Y-41667455D01*
X95176818Y-41651361D01*
X95140337Y-41553552D01*
X95140335Y-41553549D01*
X95059472Y-41445528D01*
X95005688Y-41405266D01*
X94963818Y-41349333D01*
X94956000Y-41306000D01*
X94956000Y-40211750D01*
X94956000Y-39881999D01*
X97661999Y-39881999D01*
X97662000Y-39882000D01*
X98149500Y-39882000D01*
X98149500Y-38858000D01*
X97662000Y-38858000D01*
X97662000Y-38904855D01*
X97672010Y-38988224D01*
X97724325Y-39120886D01*
X97810490Y-39234511D01*
X97858867Y-39271197D01*
X97900390Y-39327390D01*
X97904941Y-39397111D01*
X97871075Y-39458225D01*
X97858867Y-39468803D01*
X97810490Y-39505488D01*
X97724325Y-39619113D01*
X97672010Y-39751775D01*
X97662000Y-39835144D01*
X97661999Y-39881999D01*
X94956000Y-39881999D01*
X94956000Y-38649263D01*
X94956387Y-38642363D01*
X94960770Y-38603465D01*
X94949710Y-38545008D01*
X94940848Y-38486213D01*
X94940847Y-38486211D01*
X94940847Y-38486209D01*
X94938329Y-38478045D01*
X94935524Y-38470032D01*
X94935524Y-38470028D01*
X94907716Y-38417415D01*
X94881925Y-38363858D01*
X94877931Y-38357999D01*
X97661999Y-38357999D01*
X97662000Y-38358000D01*
X98149500Y-38358000D01*
X98149500Y-37833000D01*
X98140144Y-37833000D01*
X98056775Y-37843010D01*
X97924113Y-37895325D01*
X97810489Y-37981489D01*
X97724325Y-38095113D01*
X97672010Y-38227775D01*
X97662000Y-38311144D01*
X97661999Y-38357999D01*
X94877931Y-38357999D01*
X94877120Y-38356810D01*
X94872067Y-38349965D01*
X94872066Y-38349962D01*
X94830004Y-38307900D01*
X94789555Y-38264306D01*
X94789554Y-38264305D01*
X94789553Y-38264304D01*
X94782290Y-38258512D01*
X94782810Y-38257859D01*
X94770570Y-38248466D01*
X94428387Y-37906283D01*
X94394902Y-37844960D01*
X94396801Y-37784669D01*
X94431397Y-37663083D01*
X94450215Y-37460000D01*
X94431397Y-37256917D01*
X94375582Y-37060750D01*
X94364600Y-37038696D01*
X94331272Y-36971764D01*
X94284673Y-36878179D01*
X94161764Y-36715421D01*
X94161762Y-36715418D01*
X94011041Y-36578019D01*
X94011039Y-36578017D01*
X93837642Y-36470655D01*
X93837635Y-36470651D01*
X93742546Y-36433814D01*
X93647456Y-36396976D01*
X93446976Y-36359500D01*
X93243024Y-36359500D01*
X93042544Y-36396976D01*
X93042541Y-36396976D01*
X93042541Y-36396977D01*
X92852364Y-36470651D01*
X92852357Y-36470655D01*
X92678960Y-36578017D01*
X92678958Y-36578019D01*
X92528237Y-36715418D01*
X92405327Y-36878178D01*
X92314422Y-37060739D01*
X92314417Y-37060752D01*
X92258602Y-37256917D01*
X92239785Y-37459999D01*
X92239785Y-37460000D01*
X91465500Y-37460000D01*
X91465500Y-34670000D01*
X92195000Y-34670000D01*
X92911314Y-34670000D01*
X92885507Y-34710156D01*
X92845000Y-34848111D01*
X92845000Y-34991889D01*
X92885507Y-35129844D01*
X92911314Y-35170000D01*
X92195001Y-35170000D01*
X92195001Y-35814785D01*
X92195002Y-35814808D01*
X92197908Y-35839869D01*
X92197909Y-35839873D01*
X92243211Y-35942474D01*
X92243214Y-35942479D01*
X92322520Y-36021785D01*
X92322525Y-36021788D01*
X92425123Y-36067089D01*
X92450206Y-36069999D01*
X93094999Y-36069999D01*
X93095000Y-36069998D01*
X93095000Y-35355501D01*
X93202685Y-35404680D01*
X93309237Y-35420000D01*
X93380763Y-35420000D01*
X93487315Y-35404680D01*
X93595000Y-35355501D01*
X93595000Y-36069999D01*
X94239786Y-36069999D01*
X94239808Y-36069997D01*
X94264869Y-36067091D01*
X94264873Y-36067090D01*
X94367474Y-36021788D01*
X94367479Y-36021785D01*
X94446785Y-35942479D01*
X94446788Y-35942474D01*
X94492089Y-35839877D01*
X94492089Y-35839875D01*
X94494999Y-35814794D01*
X94495000Y-35814791D01*
X94495000Y-35170000D01*
X93778686Y-35170000D01*
X93804493Y-35129844D01*
X93845000Y-34991889D01*
X93845000Y-34848111D01*
X93804493Y-34710156D01*
X93778686Y-34670000D01*
X94494999Y-34670000D01*
X94494999Y-34025214D01*
X94494997Y-34025191D01*
X94492091Y-34000130D01*
X94492090Y-34000126D01*
X94446788Y-33897525D01*
X94446785Y-33897520D01*
X94367479Y-33818214D01*
X94367474Y-33818211D01*
X94264876Y-33772910D01*
X94239794Y-33770000D01*
X93595000Y-33770000D01*
X93595000Y-34484498D01*
X93487315Y-34435320D01*
X93380763Y-34420000D01*
X93309237Y-34420000D01*
X93202685Y-34435320D01*
X93095000Y-34484498D01*
X93095000Y-33770000D01*
X92450214Y-33770000D01*
X92450191Y-33770002D01*
X92425130Y-33772908D01*
X92425126Y-33772909D01*
X92322525Y-33818211D01*
X92322520Y-33818214D01*
X92243214Y-33897520D01*
X92243211Y-33897525D01*
X92197910Y-34000122D01*
X92197910Y-34000124D01*
X92195000Y-34025205D01*
X92195000Y-34670000D01*
X91465500Y-34670000D01*
X91465500Y-33169500D01*
X91485185Y-33102461D01*
X91537989Y-33056706D01*
X91589500Y-33045500D01*
X97663000Y-33045500D01*
X97663000Y-37719000D01*
G37*
%TD.AperFunction*%
%TA.AperFunction,Conductor*%
G36*
X97427539Y-78182184D02*
G01*
X97473294Y-78234988D01*
X97484500Y-78286499D01*
X97484500Y-81130500D01*
X97464815Y-81197539D01*
X97412011Y-81243294D01*
X97360500Y-81254500D01*
X96518500Y-81254500D01*
X96451461Y-81234815D01*
X96405706Y-81182011D01*
X96394500Y-81130500D01*
X96394500Y-78286499D01*
X96414185Y-78219460D01*
X96466989Y-78173705D01*
X96518495Y-78162499D01*
X97360500Y-78162499D01*
X97427539Y-78182184D01*
G37*
%TD.AperFunction*%
%TA.AperFunction,Conductor*%
G36*
X97413356Y-72947814D02*
G01*
X97465609Y-72994196D01*
X97484500Y-73059984D01*
X97484500Y-75637500D01*
X97464815Y-75704539D01*
X97412011Y-75750294D01*
X97360500Y-75761500D01*
X96506129Y-75761500D01*
X96506123Y-75761501D01*
X96446516Y-75767908D01*
X96311671Y-75818202D01*
X96311664Y-75818206D01*
X96196455Y-75904452D01*
X96196452Y-75904455D01*
X96110206Y-76019664D01*
X96110202Y-76019671D01*
X96059908Y-76154517D01*
X96053501Y-76214116D01*
X96053499Y-76214135D01*
X96053499Y-76850805D01*
X96033814Y-76917845D01*
X95981010Y-76963599D01*
X95911852Y-76973543D01*
X95848296Y-76944518D01*
X95841818Y-76938486D01*
X94389513Y-75486181D01*
X94356028Y-75424858D01*
X94361012Y-75355166D01*
X94402884Y-75299233D01*
X94468348Y-75274816D01*
X94477194Y-75274500D01*
X94726130Y-75274500D01*
X94726144Y-75274499D01*
X94749709Y-75271965D01*
X94782022Y-75268491D01*
X94908450Y-75221336D01*
X95016472Y-75140472D01*
X95097336Y-75032450D01*
X95107540Y-75005091D01*
X95149409Y-74949158D01*
X95214872Y-74924739D01*
X95283146Y-74939589D01*
X95332552Y-74988993D01*
X95339076Y-75002932D01*
X95362324Y-75061884D01*
X95448489Y-75175510D01*
X95562113Y-75261674D01*
X95694775Y-75313989D01*
X95778144Y-75324000D01*
X95787500Y-75324000D01*
X95787500Y-74799000D01*
X96287500Y-74799000D01*
X96287500Y-75324000D01*
X96296856Y-75324000D01*
X96380224Y-75313989D01*
X96512886Y-75261674D01*
X96626510Y-75175510D01*
X96712674Y-75061886D01*
X96764989Y-74929224D01*
X96775000Y-74845855D01*
X96775000Y-74799000D01*
X96287500Y-74799000D01*
X95787500Y-74799000D01*
X95787500Y-74423000D01*
X95807185Y-74355961D01*
X95859989Y-74310206D01*
X95911500Y-74299000D01*
X96775000Y-74299000D01*
X96775000Y-74252144D01*
X96764989Y-74168775D01*
X96712674Y-74036113D01*
X96626510Y-73922489D01*
X96537164Y-73854736D01*
X96495640Y-73798543D01*
X96491089Y-73728822D01*
X96524954Y-73667708D01*
X96537769Y-73656673D01*
X96591472Y-73616472D01*
X96672336Y-73508450D01*
X96679535Y-73489146D01*
X96721406Y-73433216D01*
X96763581Y-73415396D01*
X96763018Y-73413664D01*
X96772300Y-73410647D01*
X96772301Y-73410646D01*
X96772304Y-73410646D01*
X96792044Y-73400586D01*
X96810011Y-73393144D01*
X96831090Y-73386296D01*
X96849026Y-73373263D01*
X96865588Y-73363114D01*
X96885342Y-73353050D01*
X96900834Y-73337557D01*
X96900841Y-73337552D01*
X96912263Y-73326130D01*
X97265070Y-72973321D01*
X97326391Y-72939838D01*
X97336546Y-72938068D01*
X97344324Y-72937044D01*
X97413356Y-72947814D01*
G37*
%TD.AperFunction*%
%TA.AperFunction,Conductor*%
G36*
X98010296Y-59761185D02*
G01*
X98056051Y-59813989D01*
X98065995Y-59883147D01*
X98057817Y-59912955D01*
X98056032Y-59917262D01*
X98041500Y-59990321D01*
X98041500Y-65739678D01*
X98056032Y-65812735D01*
X98056033Y-65812739D01*
X98069510Y-65832908D01*
X98111399Y-65895601D01*
X98187295Y-65946312D01*
X98194260Y-65950966D01*
X98194264Y-65950967D01*
X98267321Y-65965499D01*
X98267324Y-65965500D01*
X98267326Y-65965500D01*
X99546095Y-65965500D01*
X99613134Y-65985185D01*
X99658889Y-66037989D01*
X99668833Y-66107147D01*
X99639808Y-66170703D01*
X99633775Y-66177181D01*
X97604511Y-68206446D01*
X97604504Y-68206454D01*
X97593569Y-68218629D01*
X97571804Y-68245638D01*
X97567446Y-68251175D01*
X97567446Y-68251176D01*
X97516560Y-68351252D01*
X97496877Y-68418283D01*
X97484500Y-68504364D01*
X97484500Y-71720014D01*
X97464815Y-71787053D01*
X97412011Y-71832808D01*
X97344316Y-71842953D01*
X97282004Y-71834750D01*
X97281999Y-71834750D01*
X97138291Y-71853670D01*
X97138287Y-71853671D01*
X97004376Y-71909138D01*
X97004375Y-71909138D01*
X96970725Y-71934959D01*
X96905556Y-71960152D01*
X96837111Y-71946113D01*
X96787122Y-71897298D01*
X96771460Y-71829207D01*
X96772125Y-71821794D01*
X96775000Y-71797858D01*
X96775000Y-71751000D01*
X95911500Y-71751000D01*
X95844461Y-71731315D01*
X95798706Y-71678511D01*
X95787500Y-71627000D01*
X95787500Y-70227000D01*
X96287500Y-70227000D01*
X96287500Y-71251000D01*
X96775000Y-71251000D01*
X96775000Y-71204144D01*
X96764989Y-71120775D01*
X96712674Y-70988113D01*
X96626510Y-70874489D01*
X96578133Y-70837804D01*
X96536609Y-70781611D01*
X96532058Y-70711890D01*
X96565923Y-70650776D01*
X96578133Y-70640196D01*
X96626510Y-70603510D01*
X96712674Y-70489886D01*
X96764989Y-70357224D01*
X96775000Y-70273855D01*
X96775000Y-70227000D01*
X96287500Y-70227000D01*
X95787500Y-70227000D01*
X95787500Y-68703000D01*
X96287500Y-68703000D01*
X96287500Y-69727000D01*
X96775000Y-69727000D01*
X96775000Y-69680144D01*
X96764989Y-69596775D01*
X96712674Y-69464113D01*
X96626510Y-69350489D01*
X96578133Y-69313804D01*
X96536609Y-69257611D01*
X96532058Y-69187890D01*
X96565923Y-69126776D01*
X96578133Y-69116196D01*
X96626510Y-69079510D01*
X96712674Y-68965886D01*
X96764989Y-68833224D01*
X96775000Y-68749855D01*
X96775000Y-68703000D01*
X96287500Y-68703000D01*
X95787500Y-68703000D01*
X95787500Y-67179000D01*
X96287500Y-67179000D01*
X96287500Y-68203000D01*
X96775000Y-68203000D01*
X96775000Y-68156144D01*
X96764989Y-68072775D01*
X96712674Y-67940113D01*
X96626510Y-67826489D01*
X96578133Y-67789804D01*
X96536609Y-67733611D01*
X96532058Y-67663890D01*
X96565923Y-67602776D01*
X96578133Y-67592196D01*
X96626510Y-67555510D01*
X96712674Y-67441886D01*
X96764989Y-67309224D01*
X96775000Y-67225855D01*
X96775000Y-67179000D01*
X96287500Y-67179000D01*
X95787500Y-67179000D01*
X95787500Y-66803000D01*
X95807185Y-66735961D01*
X95859989Y-66690206D01*
X95911500Y-66679000D01*
X96775000Y-66679000D01*
X96775000Y-66632144D01*
X96764989Y-66548775D01*
X96712674Y-66416113D01*
X96626510Y-66302489D01*
X96512883Y-66216323D01*
X96481263Y-66203854D01*
X96426119Y-66160948D01*
X96402926Y-66095041D01*
X96419047Y-66027056D01*
X96469364Y-65978580D01*
X96526753Y-65964500D01*
X96744990Y-65964500D01*
X96745000Y-65964500D01*
X96809941Y-65957518D01*
X96861450Y-65946312D01*
X96861450Y-65946313D01*
X96889846Y-65938168D01*
X96899658Y-65935354D01*
X96996571Y-65878675D01*
X97049375Y-65832920D01*
X97049382Y-65832912D01*
X97049387Y-65832908D01*
X97091548Y-65788192D01*
X97091553Y-65788187D01*
X97142439Y-65688111D01*
X97162124Y-65621072D01*
X97174500Y-65535000D01*
X97174500Y-60195000D01*
X97167518Y-60130059D01*
X97156312Y-60078549D01*
X97156313Y-60078550D01*
X97145355Y-60040345D01*
X97145354Y-60040344D01*
X97145354Y-60040342D01*
X97088675Y-59943429D01*
X97088672Y-59943426D01*
X97085337Y-59938770D01*
X97087263Y-59937389D01*
X97062490Y-59883172D01*
X97072419Y-59814011D01*
X97118164Y-59761198D01*
X97185199Y-59741500D01*
X97943257Y-59741500D01*
X98010296Y-59761185D01*
G37*
%TD.AperFunction*%
%TA.AperFunction,Conductor*%
G36*
X107924500Y-78486000D02*
G01*
X102235000Y-78486000D01*
X102235000Y-75438000D01*
X107924500Y-75438000D01*
X107924500Y-78486000D01*
G37*
%TD.AperFunction*%
M02*
